<?xml version="1.0" encoding="iso-8859-1"?>
<!-- Generator: Adobe Illustrator 19.0.0, SVG Export Plug-In . SVG Version: 6.00 Build 0)  -->
<svg xmlns="http://www.w3.org/2000/svg" xmlns:xlink="http://www.w3.org/1999/xlink" version="1.1" id="Layer_1" x="0px" y="0px" viewBox="0 0 512 512" style="enable-background:new 0 0 512 512;" xml:space="preserve">
<g>
	<g>
		<path d="M260.267,0h-8.533c-92.272,3.634-165.471,79.011-166.4,171.349c0.271,40.959,15.263,80.454,42.24,111.275    c3.243,3.755,5.803,6.315,9.984,10.837s8.107,8.619,11.776,13.056c6.767,8.067,12.928,16.623,18.432,25.6    c6.664,10.711,12.048,22.167,16.043,34.133c2.643,8.685,3.966,17.717,3.925,26.795c0.277,9.225,7.837,16.559,17.067,16.555h102.4    c9.229,0.004,16.79-7.33,17.067-16.555c-0.032-9.049,1.291-18.052,3.925-26.709c3.992-11.967,9.377-23.423,16.043-34.133    c5.5-8.979,11.661-17.536,18.432-25.6c3.243-4.523,8.363-9.472,11.776-13.056c3.413-3.584,6.741-7.083,9.984-10.837    c26.996-30.843,41.989-70.372,42.24-111.36C425.737,79.011,352.538,3.634,260.267,0z M371.883,271.616    c-3.072,3.584-5.461,5.888-9.472,10.325c-4.011,4.437-8.533,8.96-12.544,13.909c-7.461,8.748-14.25,18.048-20.309,27.819    c-7.332,11.754-13.26,24.327-17.664,37.461c-3.13,10.173-4.712,20.759-4.693,31.403H204.8    c-0.018-10.675-1.629-21.288-4.779-31.488c-4.406-13.134-10.334-25.706-17.664-37.461c-5.927-9.754-12.573-19.053-19.883-27.819    c-4.011-4.864-9.387-10.496-12.544-13.909s-6.4-6.741-9.472-10.325c-24.302-27.742-37.811-63.301-38.059-100.181    C103.405,86.826,171.482,18.446,256,17.067c84.518,1.38,152.595,69.759,153.6,154.283    C409.467,208.215,396.08,243.803,371.883,271.616z"/>
	</g>
</g>
<g>
	<g>
		<path d="M204.8,392.533v34.133c0,9.426,7.641,17.067,17.067,17.067h68.267c9.426,0,17.067-7.641,17.067-17.067v-34.133H204.8z     M290.133,426.667h-68.267V409.6h68.267V426.667z"/>
	</g>
</g>
<g>
	<g>
		<path d="M221.867,426.667V460.8c0,9.426,7.641,17.067,17.067,17.067h34.133c9.426,0,17.067-7.641,17.067-17.067v-34.133H221.867z     M273.067,460.8h-34.133v-17.067h34.133V460.8z"/>
	</g>
</g>
<g>
	<g>
		<path d="M230.4,460.8v34.133c0,9.426,7.641,17.067,17.067,17.067h17.067c9.426,0,17.067-7.641,17.067-17.067V460.8H230.4z     M264.533,494.933h-17.067v-17.067h17.067V494.933z"/>
	</g>
</g>
<g>
	<g>
		<path d="M243.285,332.203c-0.256-0.085-21.419-13.483-21.419-30.549V281.6c0-4.713-3.821-8.533-8.533-8.533    c-4.713,0-8.533,3.821-8.533,8.533v19.712c0,21.504,17.067,36.693,25.6,42.667v48.555c0,4.713,3.82,8.533,8.533,8.533    s8.533-3.821,8.533-8.533v-52.992C247.466,336.529,245.877,333.739,243.285,332.203z"/>
	</g>
</g>
<g>
	<g>
		<path d="M298.667,273.067c-4.713,0-8.533,3.821-8.533,8.533v19.883c0,17.579-21.419,30.635-21.419,30.635    c-2.592,1.537-4.181,4.326-4.181,7.339v53.077c0,4.713,3.821,8.533,8.533,8.533c4.713,0,8.533-3.821,8.533-8.533V344.32    c8.533-6.229,25.6-21.333,25.6-42.667V281.6C307.2,276.887,303.379,273.067,298.667,273.067z"/>
	</g>
</g>
<g>
	<g>
		<path d="M286.123,73.472c-3.079-3.33-7.412-5.217-11.947-5.205h-36.267c-4.618,0.051-8.994,2.069-12.032,5.547    c-2.888,3.111-4.342,7.288-4.011,11.52l6.4,79.616c0.837,8.16,7.755,14.338,15.957,14.251h23.552    c8.086,0.105,14.958-5.885,15.957-13.909l6.4-79.957C290.564,80.987,289.103,76.665,286.123,73.472z M266.923,162.133h-21.675    l-6.315-76.8h34.133L266.923,162.133z"/>
	</g>
</g>
<g>
	<g>
		<path d="M260.437,196.267h-8.96c-11.621,0.047-21.031,9.456-21.077,21.077v9.045c0.047,11.621,9.456,21.031,21.077,21.077h9.045    c11.654-0.047,21.077-9.508,21.077-21.163v-8.96C281.553,205.69,272.092,196.267,260.437,196.267z M264.533,226.304    c-0.045,2.196-1.815,3.965-4.011,4.011h-8.96c-2.196-0.045-3.965-1.815-4.011-4.011v-8.96c0.045-2.196,1.815-3.965,4.011-4.011    h8.96c2.196,0.045,3.965,1.815,4.011,4.011V226.304z"/>
	</g>
</g>
<g>
</g>
<g>
</g>
<g>
</g>
<g>
</g>
<g>
</g>
<g>
</g>
<g>
</g>
<g>
</g>
<g>
</g>
<g>
</g>
<g>
</g>
<g>
</g>
<g>
</g>
<g>
</g>
<g>
</g>
</svg>
