<?xml version="1.0" encoding="iso-8859-1"?>
<!-- Generator: Adobe Illustrator 19.0.0, SVG Export Plug-In . SVG Version: 6.00 Build 0)  -->
<svg xmlns="http://www.w3.org/2000/svg" xmlns:xlink="http://www.w3.org/1999/xlink" version="1.1" id="Layer_1" x="0px" y="0px" viewBox="0 0 511.976 511.976" style="enable-background:new 0 0 511.976 511.976;" xml:space="preserve">
<g>
	<g>
		<path d="M272.021,1.006c-70.144-8.787-134.13,40.953-142.917,111.098c-0.664,5.265-1.005,10.565-1.024,15.872    c-0.063,39.185,17.946,76.21,48.811,100.352c9.121,7.219,19.202,13.135,29.952,17.579l1.195,0.512    c9.93,4.121,20.336,6.988,30.976,8.533h0.853c5.376,0.696,10.792,1.038,16.213,1.024c28.698,0.111,56.586-9.515,79.104-27.307    c26.518-20.832,43.743-51.286,47.935-84.746C391.906,73.779,342.166,9.793,272.021,1.006z M358.905,169.41    c-23.082,56.753-87.8,84.048-144.553,60.966h-0.256c-9.416-3.869-18.259-9.008-26.283-15.275    c-26.932-20.88-42.685-53.048-42.667-87.125c0.012-4.765,0.325-9.525,0.939-14.251c1.209-9.579,3.663-18.959,7.301-27.902    c23.082-56.753,87.8-84.048,144.553-60.966S381.987,112.657,358.905,169.41z"/>
	</g>
</g>
<g>
	<g>
		<path d="M286.203,47.848c-3.079-3.33-7.412-5.217-11.947-5.205h-36.267c-4.618,0.051-8.994,2.069-12.032,5.547    c-2.879,3.116-4.332,7.29-4.011,11.52l6.4,79.616c0.837,8.16,7.755,14.338,15.957,14.251h23.552    c8.086,0.105,14.958-5.885,15.957-13.909l6.4-79.957C290.633,55.364,289.173,51.047,286.203,47.848z M267.003,136.509h-21.675    l-6.315-76.8h34.133L267.003,136.509z"/>
	</g>
</g>
<g>
	<g>
		<path d="M260.517,170.642h-8.96c-11.654,0.047-21.077,9.508-21.077,21.163v9.045c0.093,11.588,9.489,20.946,21.077,20.992h9.045    c11.621-0.047,21.031-9.456,21.077-21.077v-8.96C281.68,180.117,272.205,170.642,260.517,170.642z M264.613,200.68    c0,2.215-1.796,4.011-4.011,4.011h-8.96c-2.215,0-4.011-1.796-4.011-4.011v-8.96c0.045-2.196,1.815-3.965,4.011-4.011l8.96,0.085    c2.196,0.045,3.965,1.815,4.011,4.011V200.68z"/>
	</g>
</g>
<g>
	<g>
		<path d="M214.096,230.376c-9.416-3.869-18.259-9.008-26.283-15.275c-26.932-20.88-42.685-53.048-42.667-87.125    c0.034-4.594,0.347-9.182,0.939-13.739c0.523-4.245-2.176-8.221-6.315-9.301L75.429,87.869c-0.033-0.009-0.065-0.017-0.098-0.026    c-9.123-2.369-18.439,3.105-20.809,12.228l-21.931,82.432c-2.385,9.093,3.033,18.403,12.117,20.821l163.925,44.117    c0.736,0.097,1.482,0.097,2.219,0c4.713,0.895,9.259-2.199,10.155-6.912C221.904,235.818,218.809,231.271,214.096,230.376z     M49.147,186.856l21.931-82.432l57.003,15.019c0,2.901,0,5.803,0,8.533c-0.128,33.516,13,65.724,36.523,89.6L49.147,186.856z"/>
	</g>
</g>
<g>
	<g>
		<path d="M442.96,185.49l-74.411-19.797c-4.122-1.099-8.422,1.015-10.069,4.949c-7.399,17.513-19.148,32.845-34.133,44.544    c-23.366,18.348-53.157,26.473-82.603,22.528c-4.713-0.919-9.278,2.156-10.197,6.869s2.156,9.278,6.869,10.197l152.149,40.448    c1.474,0.401,2.995,0.602,4.523,0.597c6.03-0.067,11.577-3.311,14.592-8.533l43.691-76.8c0.745-1.295,1.316-2.681,1.7-4.125    C457.492,197.259,452.07,187.911,442.96,185.49z M394.917,278.674l-103.595-27.563c15.889-4.642,30.726-12.321,43.691-22.613    c15.191-11.96,27.499-27.184,36.011-44.544l67.499,17.92L394.917,278.674z"/>
	</g>
</g>
<g>
	<g>
		<path d="M370.171,272.018l-127.317-34.133h-1.536c-9.135-1.245-18.078-3.625-26.624-7.083l-1.28-0.427L62.032,190.354    c-0.82-0.221-1.669-0.319-2.519-0.29c-4.71,0.163-8.396,4.113-8.233,8.823l2.048,47.36c0.341,7.426,5.449,13.776,12.629,15.701    l269.312,71.595c1.446,0.393,2.938,0.594,4.437,0.597c6.488,0.045,12.44-3.592,15.36-9.387l20.48-40.533    c0.294-0.562,0.524-1.155,0.687-1.768C377.441,277.897,374.726,273.226,370.171,272.018z M339.707,316.989L70.053,245.394    l-1.707-35.669l139.776,37.035c9.666,3.924,19.786,6.618,30.123,8.021l117.163,31.147L339.707,316.989z"/>
	</g>
</g>
<g>
	<g>
		<path d="M140.539,430.909c0.755-1.307,1.149-2.791,1.143-4.301c-0.019-4.713-3.854-8.518-8.567-8.499H49.147    c-1.003-0.047-2.007,0.084-2.965,0.387c-4.494,1.419-6.987,6.212-5.568,10.707c1.439,4.7,2.158,9.591,2.133,14.507    c-0.113,4.937-0.976,9.829-2.56,14.507c-0.302,0.958-0.433,1.962-0.387,2.965c0.219,4.708,4.212,8.347,8.92,8.128h83.968h0.427    c1.509,0.006,2.993-0.388,4.301-1.143c4.081-2.356,5.48-7.575,3.123-11.657C135.966,448.588,135.966,438.83,140.539,430.909z     M120.4,452.242H59.301c0.347-2.831,0.518-5.681,0.512-8.533c0.006-2.852-0.165-5.702-0.512-8.533H120.4    C119.234,440.805,119.234,446.613,120.4,452.242z"/>
	</g>
</g>
<g>
	<g>
		<path d="M196.347,418.109c-8.058-10.744-20.704-17.067-34.133-17.067c-1.903-0.152-3.815-0.152-5.717,0    c-23.564,1.579-41.387,21.961-39.808,45.525c1.579,23.564,21.961,41.387,45.525,39.808c9.232,0,18.215-2.994,25.6-8.533    C206.665,463.704,210.485,436.96,196.347,418.109z M184.153,456.765c-7.211,12.162-22.915,16.175-35.076,8.965    c-12.162-7.211-16.175-22.915-8.965-35.076c4.012-6.908,11.018-11.547,18.944-12.544c1.051-0.089,2.107-0.089,3.157,0    c4.567,0.014,9.047,1.25,12.975,3.579C187.35,428.899,191.364,444.603,184.153,456.765z"/>
	</g>
</g>
<g>
	<g>
		<path d="M246.949,298.557c-0.207-3.681-2.753-6.813-6.315-7.765l-63.232-17.067c-3.64-0.978-7.49,0.549-9.472,3.755    c-2.074,3.431-3.654,7.136-4.693,11.008c-3.906,14.434,0.381,29.848,11.179,40.192c2.361,2.499,5.061,4.653,8.021,6.4    c3.51,2.117,7.302,3.726,11.264,4.779c3.648,0.962,7.406,1.45,11.179,1.451h1.195c18.408-0.57,34.373-12.888,39.595-30.549    C246.733,306.784,247.165,302.667,246.949,298.557z M229.627,306.578c-2.448,8.51-9.3,15.036-17.92,17.067    c-1.898,0.482-3.845,0.74-5.803,0.768c-2.507,0.042-5.007-0.274-7.424-0.939c-2.429-0.638-4.755-1.615-6.912-2.901    c-1.733-1.025-3.313-2.289-4.693-3.755c-6.422-6.041-9.01-15.118-6.741-23.637v-0.939l49.493,13.397V306.578z"/>
	</g>
</g>
<g>
	<g>
		<path d="M221.91,329.6c-1.291-4.533-6.012-7.16-10.544-5.869c-1.897,0.482-3.845,0.74-5.803,0.768    c-2.507,0.042-5.007-0.274-7.424-0.939c-2.429-0.638-4.755-1.615-6.912-2.901c-1.605-0.959-3.07-2.137-4.352-3.499    c-1.08-1.135-2.453-1.95-3.966-2.357c-4.551-1.223-9.232,1.475-10.456,6.026l-23.125,86.699c-0.738,2.807,0.001,5.797,1.963,7.936    c1.967,2.15,4.895,3.147,7.765,2.645c9.137-1.325,18.243,2.601,23.552,10.155c1.612,2.149,4.141,3.413,6.827,3.413l1.621-0.171    c3.212-0.604,5.797-2.99,6.656-6.144l24.235-91.221C222.345,332.652,222.332,331.082,221.91,329.6z M184.827,407.528    c-4.915-3.065-10.402-5.098-16.128-5.973l17.067-64.597c2.565,1.265,5.253,2.266,8.021,2.987c2.794,0.726,5.652,1.183,8.533,1.365    L184.827,407.528z"/>
	</g>
</g>
<g>
	<g>
		<path d="M56.912,424.253c-6.815-22.168-23.47-39.955-45.141-48.213c-1.007-0.401-2.082-0.607-3.166-0.606    c-4.713,0.005-8.53,3.829-8.525,8.542v119.467c0,4.713,3.82,8.533,8.533,8.533c1.081,0.003,2.152-0.2,3.157-0.597    c21.608-8.233,38.225-25.952,45.056-48.043c1.986-6.353,2.994-12.971,2.987-19.627C59.833,437.114,58.855,430.555,56.912,424.253z     M40.528,458.386c-3.878,12.769-12.164,23.747-23.381,30.976v-91.307c11.266,7.273,19.583,18.311,23.467,31.147    c1.439,4.7,2.158,9.591,2.133,14.507C42.758,448.686,42.01,453.635,40.528,458.386z"/>
	</g>
</g>
<g>
	<g>
		<path d="M451.579,267.752l-37.205-9.899c-3.753-1.016-7.717,0.633-9.643,4.011l-9.813,17.067l-25.003-6.656    c-3.909-1.033-8.007,0.82-9.813,4.437l-11.776,23.381c-0.276,0.545-0.493,1.118-0.647,1.71c-1.187,4.561,1.548,9.221,6.109,10.408    L434,333.544c0.736,0.097,1.482,0.097,2.219,0l-0.256,0.427c3.967,0.136,7.504-2.481,8.533-6.315l13.141-49.493    C458.83,273.616,456.121,268.961,451.579,267.752z M429.819,314.6l-61.867-16.469l4.352-8.021l18.176,5.12    c7.478,1.988,15.359-1.304,19.2-8.021l6.059-11.605l22.613,5.973L429.819,314.6z"/>
	</g>
</g>
<g>
	<g>
		<g>
			<path d="M473.083,369.554c-0.031,0-0.063-0.003-0.094-0.003c-0.026,0-0.051,0.003-0.077,0.003L473.083,369.554z"/>
			<path d="M499.195,253.501l-24.747-6.571c-0.003-0.001-0.005-0.001-0.008-0.002c-13.666-3.626-27.683,4.513-31.309,18.178     l-17.493,65.963c-0.001,0.003-0.001,0.005-0.002,0.008c-3.626,13.666,4.513,27.683,18.178,31.309l24.832,6.571     c1.416,0.385,2.876,0.583,4.343,0.594c7.705-0.049,14.426-5.255,16.393-12.711l21.931-82.432c0.003-0.013,0.007-0.026,0.01-0.039     C513.736,265.257,508.306,255.914,499.195,253.501z M473.083,352.488l-24.661-6.656c-4.542-1.209-7.251-5.864-6.059-10.411     l17.493-65.963c1.209-4.542,5.864-7.251,10.411-6.059l24.747,6.571L473.083,352.488z"/>
		</g>
	</g>
</g>
<g>
</g>
<g>
</g>
<g>
</g>
<g>
</g>
<g>
</g>
<g>
</g>
<g>
</g>
<g>
</g>
<g>
</g>
<g>
</g>
<g>
</g>
<g>
</g>
<g>
</g>
<g>
</g>
<g>
</g>
</svg>
