<?xml version="1.0" encoding="iso-8859-1"?>
<!-- Generator: Adobe Illustrator 19.0.0, SVG Export Plug-In . SVG Version: 6.00 Build 0)  -->
<svg xmlns="http://www.w3.org/2000/svg" xmlns:xlink="http://www.w3.org/1999/xlink" version="1.1" id="Layer_1" x="0px" y="0px" viewBox="0 0 511.816 511.816" style="enable-background:new 0 0 511.816 511.816;" xml:space="preserve">
<g>
	<g>
		<path d="M442.965,141.81L75.435,44.104c-0.013-0.003-0.026-0.007-0.039-0.01c-9.111-2.413-18.454,3.016-20.868,12.128    l-21.931,82.432c-0.003,0.013-0.007,0.026-0.01,0.039c-2.414,9.111,3.016,18.454,12.128,20.868l345.771,91.904    c1.419,0.386,2.882,0.586,4.352,0.597c6.122,0.024,11.787-3.232,14.848-8.533l43.691-76.8c0.717-1.261,1.27-2.608,1.646-4.008    C457.466,153.616,452.069,144.255,442.965,141.81z M394.837,234.994L49.067,143.09l21.504-82.432l367.957,97.536L394.837,234.994z    "/>
	</g>
</g>
<g>
	<g>
		<path d="M370.176,228.509l-308.224-81.92c-0.82-0.221-1.669-0.319-2.519-0.29c-4.71,0.163-8.396,4.113-8.233,8.823l2.048,47.275    c0.341,7.426,5.449,13.776,12.629,15.701l269.312,71.595c1.418,0.392,2.881,0.592,4.352,0.597    c6.534-0.051,12.465-3.829,15.275-9.728l20.651-40.107c0.216-0.442,0.394-0.903,0.531-1.376    C377.309,234.553,374.703,229.82,370.176,228.509z M339.285,273.224L69.973,201.629l-1.707-35.669l286.805,76.117L339.285,273.224    z"/>
	</g>
</g>
<g>
	<g>
		<path d="M140.459,387.229c0.755-1.307,1.149-2.791,1.143-4.301c-0.019-4.713-3.854-8.518-8.567-8.499H49.067    c-1.003-0.047-2.007,0.084-2.965,0.387c-4.494,1.419-6.987,6.212-5.568,10.707c1.439,4.7,2.158,9.591,2.133,14.507    c-0.116,4.937-0.979,9.828-2.56,14.507c-0.302,0.958-0.433,1.962-0.387,2.965c0.219,4.708,4.212,8.347,8.92,8.128h83.968h0.427    c1.509,0.006,2.993-0.388,4.301-1.143c4.081-2.356,5.48-7.575,3.123-11.657C135.886,404.908,135.886,395.15,140.459,387.229z     M120.32,408.562H59.221c0.347-2.831,0.518-5.681,0.512-8.533c0.006-2.852-0.165-5.702-0.512-8.533h61.099    C119.154,397.125,119.154,402.933,120.32,408.562z"/>
	</g>
</g>
<g>
	<g>
		<path d="M196.267,374.429c-8.058-10.744-20.704-17.067-34.133-17.067c-1.903-0.152-3.815-0.152-5.717,0    c-23.564,1.579-41.387,21.961-39.808,45.525c1.579,23.564,21.961,41.387,45.525,39.808c9.232,0,18.215-2.994,25.6-8.533    C206.585,420.024,210.405,393.28,196.267,374.429z M175.052,422.012c-12.206,7.135-27.885,3.023-35.02-9.183    c-2.271-3.885-3.478-8.3-3.499-12.8c-0.099-12.992,9.549-23.998,22.443-25.6c1.051-0.089,2.107-0.089,3.157,0    c14.138,0,25.6,11.462,25.6,25.6C187.692,409.084,182.869,417.443,175.052,422.012z"/>
	</g>
</g>
<g>
	<g>
		<path d="M246.955,254.877c-0.207-3.681-2.753-6.813-6.315-7.765l-63.232-17.067c-3.64-0.978-7.49,0.549-9.472,3.755    c-2.081,3.427-3.661,7.134-4.693,11.008c-3.925,14.434,0.365,29.858,11.179,40.192c2.364,2.495,5.064,4.649,8.021,6.4    c3.511,2.115,7.303,3.724,11.264,4.779c3.622,0.949,7.349,1.436,11.093,1.451h1.195c18.44-0.534,34.449-12.859,39.68-30.549    C246.743,263.105,247.175,258.987,246.955,254.877z M229.461,262.728c-2.448,8.51-9.3,15.036-17.92,17.067    c-4.333,1.159-8.894,1.159-13.227,0c-2.399-0.646-4.697-1.622-6.827-2.901c-1.738-1.052-3.318-2.345-4.693-3.84    c-6.422-6.041-9.01-15.118-6.741-23.637v-0.939l49.408,13.397V262.728z"/>
	</g>
</g>
<g>
	<g>
		<path d="M221.867,285.597c-1.32-4.524-6.057-7.122-10.581-5.803c-4.333,1.159-8.894,1.159-13.227,0    c-2.399-0.646-4.697-1.622-6.827-2.901c-1.635-0.953-3.129-2.131-4.437-3.499c-1.08-1.135-2.453-1.95-3.966-2.357    c-4.551-1.223-9.232,1.475-10.456,6.026l-23.04,86.784c-0.303,1.158-0.359,2.368-0.165,3.549c0.766,4.65,5.157,7.798,9.807,7.032    c9.12-1.344,18.222,2.548,23.552,10.069c1.612,2.149,4.141,3.413,6.827,3.413l1.621-0.171c3.212-0.604,5.797-2.99,6.656-6.144    l24.235-91.221C222.322,288.815,222.322,287.157,221.867,285.597z M184.747,363.336c-4.915-3.065-10.402-5.098-16.128-5.973    l16.981-64.085c2.594,1.267,5.31,2.268,8.107,2.987c2.796,0.719,5.653,1.176,8.533,1.365L184.747,363.336z"/>
	</g>
</g>
<g>
	<g>
		<path d="M56.832,380.573c-6.815-22.168-23.47-39.955-45.141-48.213c-1.007-0.401-2.082-0.607-3.166-0.606    c-4.713,0.005-8.53,3.829-8.525,8.542v119.467c0,4.713,3.82,8.533,8.533,8.533c1.081,0.003,2.152-0.2,3.157-0.597    c21.608-8.233,38.225-25.952,45.056-48.043c1.986-6.353,2.994-12.971,2.987-19.627C59.753,393.434,58.775,386.875,56.832,380.573z     M40.448,414.621c-3.878,12.769-12.164,23.747-23.381,30.976V354.29c11.282,7.294,19.601,18.365,23.467,31.232    c1.439,4.7,2.158,9.591,2.133,14.507C42.67,404.977,41.922,409.897,40.448,414.621z"/>
	</g>
</g>
<g>
	<g>
		<path d="M451.499,223.986l-37.205-9.899c-3.753-1.016-7.717,0.633-9.643,4.011l-9.813,17.067l-25.003-6.656    c-3.909-1.033-8.007,0.82-9.813,4.437l-11.776,23.381c-0.276,0.545-0.493,1.118-0.647,1.71c-1.187,4.561,1.548,9.221,6.109,10.408    l80.213,21.333c0.736,0.096,1.482,0.096,2.219,0l-0.256,0.427c3.967,0.136,7.504-2.481,8.533-6.315l13.141-49.493    C458.75,229.85,456.041,225.196,451.499,223.986z M429.739,270.834l-61.867-16.469l4.352-7.936l18.176,5.035    c7.478,1.988,15.359-1.304,19.2-8.021l6.059-11.605l22.613,5.973L429.739,270.834z"/>
	</g>
</g>
<g>
	<g>
		<g>
			<path d="M499.115,209.736l-24.747-6.571c-0.003-0.001-0.005-0.001-0.008-0.002c-13.666-3.626-27.683,4.513-31.309,18.178     l-17.493,65.963c-0.001,0.003-0.001,0.005-0.002,0.008c-3.626,13.666,4.513,27.683,18.178,31.309l24.832,6.571     c1.416,0.385,2.876,0.583,4.343,0.594c7.705-0.049,14.426-5.255,16.393-12.711l21.931-82.432c0.003-0.013,0.007-0.026,0.01-0.039     C513.656,221.492,508.226,212.149,499.115,209.736z M473.003,308.637l-24.747-6.571c-4.542-1.209-7.251-5.864-6.059-10.411     l17.237-65.963c1.03-3.833,4.566-6.451,8.533-6.315v0c0.748-0.012,1.494,0.074,2.219,0.256l24.747,6.571L473.003,308.637z"/>
			<path d="M473.003,325.789c-0.031,0-0.063-0.003-0.094-0.003c-0.026,0-0.051,0.003-0.077,0.003L473.003,325.789z"/>
		</g>
	</g>
</g>
<g>
</g>
<g>
</g>
<g>
</g>
<g>
</g>
<g>
</g>
<g>
</g>
<g>
</g>
<g>
</g>
<g>
</g>
<g>
</g>
<g>
</g>
<g>
</g>
<g>
</g>
<g>
</g>
<g>
</g>
</svg>
