<?xml version="1.0" encoding="iso-8859-1"?>
<!-- Generator: Adobe Illustrator 19.0.0, SVG Export Plug-In . SVG Version: 6.00 Build 0)  -->
<svg xmlns="http://www.w3.org/2000/svg" xmlns:xlink="http://www.w3.org/1999/xlink" version="1.1" id="Layer_1" x="0px" y="0px" viewBox="0 0 512 512" style="enable-background:new 0 0 512 512;" xml:space="preserve">
<g>
	<g>
		<path d="M337.323,0H174.677c-21.066,0-38.144,17.078-38.144,38.144v55.723h238.933V38.144C375.467,17.078,358.389,0,337.323,0z     M358.4,76.8H153.6V38.144c0-11.641,9.437-21.077,21.077-21.077h162.645c11.641,0,21.077,9.437,21.077,21.077V76.8z"/>
	</g>
</g>
<g>
	<g>
		<path d="M136.533,307.2v98.389c0,21.066,17.078,38.144,38.144,38.144h162.645c21.066,0,38.144-17.078,38.144-38.144V307.2H136.533    z M358.4,405.589c0,11.641-9.437,21.077-21.077,21.077H174.677c-11.641,0-21.077-9.437-21.077-21.077v-81.323h204.8V405.589z"/>
	</g>
</g>
<g>
	<g>
		<path d="M256,341.333c-18.851,0-34.133,15.282-34.133,34.133S237.149,409.6,256,409.6c18.851,0,34.133-15.282,34.133-34.133    S274.851,341.333,256,341.333z M256,392.533c-9.426,0-17.067-7.641-17.067-17.067S246.574,358.4,256,358.4    s17.067,7.641,17.067,17.067S265.426,392.533,256,392.533z"/>
	</g>
</g>
<g>
	<g>
		<path d="M136.533,76.8v247.467h238.933V76.8H136.533z M358.4,307.2H153.6V93.867h204.8V307.2z"/>
	</g>
</g>
<g>
	<g>
		<path d="M278.187,36.949h-44.373c-4.713,0-8.533,3.82-8.533,8.533s3.82,8.533,8.533,8.533h44.373c4.713,0,8.533-3.82,8.533-8.533    S282.899,36.949,278.187,36.949z"/>
	</g>
</g>
<g>
	<g>
		<path d="M452.267,332.8h-85.333v17.067h85.333c14.138,0,25.6,11.461,25.6,25.6v119.467H34.133V375.467    c0-14.138,11.461-25.6,25.6-25.6h76.8V332.8h-76.8c-23.564,0-42.667,19.103-42.667,42.667v119.467    c0,9.426,7.641,17.067,17.067,17.067h443.733c9.426,0,17.067-7.641,17.067-17.067V375.467    C494.933,351.903,475.831,332.8,452.267,332.8z"/>
	</g>
</g>
<g>
	<g>
		<path d="M213.333,460.8h-17.067c-4.713,0-8.533,3.82-8.533,8.533s3.82,8.533,8.533,8.533h17.067c4.713,0,8.533-3.82,8.533-8.533    S218.046,460.8,213.333,460.8z"/>
	</g>
</g>
<g>
	<g>
		<path d="M264.533,460.8h-17.067c-4.713,0-8.533,3.82-8.533,8.533s3.82,8.533,8.533,8.533h17.067c4.713,0,8.533-3.82,8.533-8.533    S269.246,460.8,264.533,460.8z"/>
	</g>
</g>
<g>
	<g>
		<path d="M315.733,460.8h-17.067c-4.713,0-8.533,3.82-8.533,8.533s3.82,8.533,8.533,8.533h17.067c4.713,0,8.533-3.82,8.533-8.533    S320.446,460.8,315.733,460.8z"/>
	</g>
</g>
<g>
	<g>
		<path d="M298.667,170.667h-85.333c-9.426,0-17.067,7.641-17.067,17.067v34.133c0,14.138,11.462,25.6,25.6,25.6h68.267    c14.138,0,25.6-11.461,25.6-25.6v-34.133C315.733,178.308,308.092,170.667,298.667,170.667z M298.667,221.867    c0,4.713-3.82,8.533-8.533,8.533h-68.267c-4.713,0-8.533-3.82-8.533-8.533v-34.133h85.333V221.867z"/>
	</g>
</g>
<g>
	<g>
		<path d="M230.4,119.467c-4.713,0-8.533,3.82-8.533,8.533v51.2c0,4.713,3.82,8.533,8.533,8.533s8.533-3.82,8.533-8.533V128    C238.933,123.287,235.113,119.467,230.4,119.467z"/>
	</g>
</g>
<g>
	<g>
		<path d="M281.6,119.467c-4.713,0-8.533,3.82-8.533,8.533v51.2c0,4.713,3.82,8.533,8.533,8.533s8.533-3.82,8.533-8.533V128    C290.133,123.287,286.313,119.467,281.6,119.467z"/>
	</g>
</g>
<g>
	<g>
		<path d="M256,230.4c-4.713,0-8.533,3.82-8.533,8.533V307.2c0,4.713,3.82,8.533,8.533,8.533s8.533-3.82,8.533-8.533v-68.267    C264.533,234.221,260.713,230.4,256,230.4z"/>
	</g>
</g>
<g>
	<g>
		<path d="M179.2,426.667h-59.733c-4.713,0-8.533,3.82-8.533,8.533s3.82,8.533,8.533,8.533H179.2c4.713,0,8.533-3.82,8.533-8.533    S183.913,426.667,179.2,426.667z"/>
	</g>
</g>
<g>
	<g>
		<path d="M392.533,426.667H332.8c-4.713,0-8.533,3.82-8.533,8.533s3.821,8.533,8.533,8.533h59.733c4.713,0,8.533-3.82,8.533-8.533    S397.246,426.667,392.533,426.667z"/>
	</g>
</g>
<g>
	<g>
		<path d="M93.867,426.667h-8.533c-4.713,0-8.533,3.82-8.533,8.533s3.82,8.533,8.533,8.533h8.533c4.713,0,8.533-3.82,8.533-8.533    S98.58,426.667,93.867,426.667z"/>
	</g>
</g>
<g>
	<g>
		<path d="M426.667,426.667h-8.533c-4.713,0-8.533,3.82-8.533,8.533s3.82,8.533,8.533,8.533h8.533c4.713,0,8.533-3.82,8.533-8.533    S431.38,426.667,426.667,426.667z"/>
	</g>
</g>
<g>
</g>
<g>
</g>
<g>
</g>
<g>
</g>
<g>
</g>
<g>
</g>
<g>
</g>
<g>
</g>
<g>
</g>
<g>
</g>
<g>
</g>
<g>
</g>
<g>
</g>
<g>
</g>
<g>
</g>
</svg>
