<?xml version="1.0" encoding="iso-8859-1"?>
<!-- Generator: Adobe Illustrator 19.0.0, SVG Export Plug-In . SVG Version: 6.00 Build 0)  -->
<svg xmlns="http://www.w3.org/2000/svg" xmlns:xlink="http://www.w3.org/1999/xlink" version="1.1" id="Layer_1" x="0px" y="0px" viewBox="0 0 511.829 511.829" style="enable-background:new 0 0 511.829 511.829;" xml:space="preserve">
<g>
	<g>
		<path d="M287.783,205.397c-4.345-4.441-8.313-9.236-11.861-14.336c-1.28-1.707-2.389-3.413-3.413-5.12    c-10.797-17.458-16.501-37.585-16.469-58.112c-0.023-6.12,0.491-12.231,1.536-18.261c2.317-14.081,7.33-27.583,14.763-39.765    c1.28-1.963,2.56-4.011,3.925-5.973c2.553-3.612,1.923-8.575-1.451-11.435c-7.664-6.392-17.327-9.894-27.307-9.899H59.772    c-23.564,0-42.667,19.102-42.667,42.667v349.867c0,23.564,19.103,42.667,42.667,42.667h187.733    c23.564,0,42.667-19.103,42.667-42.667V211.285C290.163,209.088,289.308,206.979,287.783,205.397z M273.105,435.029    c0,14.138-11.462,25.6-25.6,25.6H59.772c-14.138,0-25.6-11.462-25.6-25.6V85.163c0-14.138,11.461-25.6,25.6-25.6h187.733    c3.518-0.028,7.004,0.669,10.24,2.048c-8.51,13.855-14.302,29.204-17.067,45.227c-1.174,6.935-1.745,13.958-1.707,20.992    c-0.023,23.758,6.598,47.049,19.115,67.243c1.28,2.048,2.56,4.096,3.925,5.888c3.363,4.867,7.07,9.487,11.093,13.824V435.029z"/>
	</g>
</g>
<g>
	<g>
		<path d="M102.439,460.629H59.772c-4.713,0-8.533,3.82-8.533,8.533v17.067c0,14.138,11.461,25.6,25.6,25.6h8.533    c14.138,0,25.6-11.461,25.6-25.6v-17.067C110.972,464.45,107.152,460.629,102.439,460.629z M93.905,486.229    c0,4.713-3.821,8.533-8.533,8.533h-8.533c-4.713,0-8.533-3.82-8.533-8.533v-8.533h25.6V486.229z"/>
	</g>
</g>
<g>
	<g>
		<path d="M247.505,460.629h-42.667c-4.713,0-8.533,3.82-8.533,8.533v17.067c0,14.138,11.462,25.6,25.6,25.6h8.533    c14.138,0,25.6-11.461,25.6-25.6v-17.067C256.039,464.45,252.218,460.629,247.505,460.629z M238.972,486.229    c0,4.713-3.82,8.533-8.533,8.533h-8.533c-4.713,0-8.533-3.82-8.533-8.533v-8.533h25.6V486.229z"/>
	</g>
</g>
<g>
	<g>
		<path d="M269.009,187.563H25.639c-4.713,0-8.533,3.82-8.533,8.533s3.82,8.533,8.533,8.533h243.371c4.713,0,8.533-3.82,8.533-8.533    S273.722,187.563,269.009,187.563z"/>
	</g>
</g>
<g>
	<g>
		<path d="M59.772,221.696c-4.713,0-8.533,3.82-8.533,8.533v51.2c0,4.713,3.82,8.533,8.533,8.533s8.533-3.82,8.533-8.533v-51.2    C68.305,225.516,64.485,221.696,59.772,221.696z"/>
	</g>
</g>
<g>
	<g>
		<path d="M59.772,102.229c-4.713,0-8.533,3.82-8.533,8.533v51.2c0,4.713,3.82,8.533,8.533,8.533s8.533-3.82,8.533-8.533v-51.2    C68.305,106.05,64.485,102.229,59.772,102.229z"/>
	</g>
</g>
<g>
	<g>
		<path d="M440.708,23.565c-57.684-40.866-137.574-27.233-178.44,30.451c-1.536,2.219-2.987,4.437-4.523,6.827    c-8.601,14.088-14.397,29.706-17.067,45.995c-1.174,6.935-1.745,13.958-1.707,20.992c-0.048,23.75,6.543,47.04,19.029,67.243    c1.28,2.048,2.56,4.096,3.925,5.888c4.06,5.828,8.599,11.309,13.568,16.384c3.864,3.978,7.999,7.685,12.373,11.093    c22.507,17.822,50.395,27.479,79.104,27.392c28.71,0.094,56.6-9.564,79.104-27.392c9.579-7.57,18.025-16.471,25.083-26.433    C512.025,144.321,498.391,64.431,440.708,23.565z M454.413,195.781c-37.703,48.292-107.415,56.876-155.707,19.173    c-3.863-2.922-7.514-6.116-10.923-9.557c-4.345-4.441-8.313-9.236-11.861-14.336c-1.28-1.707-2.389-3.413-3.413-5.12    c-10.797-17.458-16.501-37.585-16.469-58.112c0.01-6.094,0.553-12.176,1.621-18.176c2.317-14.081,7.33-27.583,14.763-39.765    c1.28-1.963,2.56-4.011,3.925-5.973c20.773-29.468,54.57-47.004,90.624-47.019c61.267,0,110.933,49.667,110.933,110.933    C477.836,152.46,469.57,176.367,454.413,195.781z"/>
	</g>
</g>
<g>
	<g>
		<path d="M371.495,170.496h-9.045c-11.641,0-21.077,9.437-21.077,21.077v9.045c0,11.641,9.437,21.077,21.077,21.077h9.045    c0,0,0,0,0,0c11.641,0,21.077-9.437,21.077-21.077v-9.045C392.572,179.933,383.136,170.496,371.495,170.496z M375.505,200.619    c0,2.215-1.796,4.011-4.011,4.011h-9.045c-2.215,0-4.011-1.796-4.011-4.011v-9.045c0-2.215,1.796-4.011,4.011-4.011h9.045    c2.215,0,4.011,1.796,4.011,4.011V200.619z"/>
	</g>
</g>
<g>
	<g>
		<path d="M397.095,47.701c-3.111-3.334-7.472-5.22-12.032-5.205h-36.181c-4.613,0.073-8.981,2.086-12.032,5.547    c-2.906,3.1-4.364,7.286-4.011,11.52l6.4,79.531c0.757,8.214,7.71,14.46,15.957,14.336h23.552    c8.129,0.14,15.036-5.917,15.957-13.995l6.4-79.872C401.559,55.214,400.095,50.883,397.095,47.701z M377.895,136.363h-21.589    l-6.4-76.8h34.133L377.895,136.363z"/>
	</g>
</g>
<g>
</g>
<g>
</g>
<g>
</g>
<g>
</g>
<g>
</g>
<g>
</g>
<g>
</g>
<g>
</g>
<g>
</g>
<g>
</g>
<g>
</g>
<g>
</g>
<g>
</g>
<g>
</g>
<g>
</g>
</svg>
