<?xml version="1.0" encoding="iso-8859-1"?>
<!-- Generator: Adobe Illustrator 19.0.0, SVG Export Plug-In . SVG Version: 6.00 Build 0)  -->
<svg xmlns="http://www.w3.org/2000/svg" xmlns:xlink="http://www.w3.org/1999/xlink" version="1.1" id="Layer_1" x="0px" y="0px" viewBox="0 0 512 512" style="enable-background:new 0 0 512 512;" xml:space="preserve">
<g>
	<g>
		<path d="M273.089,128H59.755c-9.426,0-17.067,7.641-17.067,17.067v102.4c0,32.99,26.744,59.733,59.733,59.733h122.197    c4.004,0.018,7.482-2.75,8.363-6.656c6.693-30.458,25.896-56.692,52.907-72.277c2.651-1.53,4.279-4.363,4.267-7.424v-75.776    C290.155,135.641,282.514,128,273.089,128z M273.089,216.064c-26.95,16.972-46.605,43.381-55.125,74.069H102.422    c-23.564,0-42.667-19.103-42.667-42.667v-102.4h213.333V216.064z"/>
	</g>
</g>
<g>
	<g>
		<path d="M119.489,0h-8.533c-14.138,0-25.6,11.461-25.6,25.6v110.933c0,4.713,3.82,8.533,8.533,8.533h42.667    c4.713,0,8.533-3.82,8.533-8.533V25.6C145.089,11.461,133.627,0,119.489,0z M128.022,128h-25.6V25.6    c0-4.713,3.82-8.533,8.533-8.533h8.533c4.713,0,8.533,3.82,8.533,8.533V128z"/>
	</g>
</g>
<g>
	<g>
		<path d="M221.889,0h-8.533c-14.139,0-25.6,11.461-25.6,25.6v110.933c0,4.713,3.82,8.533,8.533,8.533h42.667    c4.713,0,8.533-3.82,8.533-8.533V25.6C247.489,11.461,236.027,0,221.889,0z M230.422,128h-25.6V25.6    c0-4.713,3.821-8.533,8.533-8.533h8.533c4.713,0,8.533,3.82,8.533,8.533V128z"/>
	</g>
</g>
<g>
	<g>
		<path d="M179.222,384v-85.333c0-4.713-3.82-8.533-8.533-8.533s-8.533,3.82-8.533,8.533V384c0,1.365,0,34.133-34.133,34.133    c-1.217-0.045-2.435-0.045-3.651,0c-27.269,1.008-48.557,23.931-47.549,51.2v34.133c0,4.713,3.82,8.533,8.533,8.533    s8.533-3.82,8.533-8.533v-34.133c0-1.365,0-34.133,34.133-34.133c1.217,0.045,2.435,0.045,3.651,0    C158.942,434.192,180.23,411.269,179.222,384z"/>
	</g>
</g>
<g>
	<g>
		<path d="M368.709,199.273c-69.051-15.147-137.306,28.551-152.453,97.602c-1.936,9.002-2.909,18.184-2.901,27.392    c0,70.692,57.307,128,128,128c28.708,0.087,56.597-9.57,79.104-27.392c23.294-18.338,39.5-44.192,45.852-73.149    C481.458,282.674,437.76,214.419,368.709,199.273z M341.355,435.2c-61.267,0-110.933-49.667-110.933-110.933    c0.007-8.004,0.865-15.985,2.56-23.808c11.182-50.888,56.271-87.137,108.373-87.125c61.267,0,110.933,49.667,110.933,110.933    S402.622,435.2,341.355,435.2z"/>
	</g>
</g>
<g>
	<g>
		<path d="M371.393,244.48c-3.079-3.33-7.412-5.217-11.947-5.205h-36.267c-4.535-0.012-8.868,1.876-11.947,5.205    c-2.888,3.111-4.342,7.288-4.011,11.52l6.4,79.616c0.837,8.16,7.755,14.338,15.957,14.251h23.552    c8.086,0.105,14.958-5.885,15.957-13.909l6.4-79.957C375.797,251.756,374.312,247.577,371.393,244.48z M352.278,332.8h-21.675    l-6.315-76.8h34.133L352.278,332.8z"/>
	</g>
</g>
<g>
	<g>
		<path d="M345.793,366.933h-8.96c-11.621,0.047-21.031,9.456-21.077,21.077v9.045c0.047,11.621,9.456,21.031,21.077,21.077h9.045    c11.654-0.047,21.077-9.508,21.077-21.163v-8.96C366.908,376.356,357.447,366.933,345.793,366.933z M349.889,396.971    c-0.045,2.196-1.815,3.965-4.011,4.011h-8.96c-2.196-0.045-3.965-1.815-4.011-4.011v-8.96c0.045-2.196,1.815-3.965,4.011-4.011    h8.96c2.196,0.045,3.965,1.815,4.011,4.011V396.971z"/>
	</g>
</g>
<g>
	<g>
		<path d="M186.049,253.781l-30.891-40.448h24.064c1.071,0.008,2.133-0.187,3.132-0.572c4.397-1.697,6.586-6.637,4.889-11.033    l-11.776-34.133c-1.608-4.17-6.161-6.393-10.439-5.096c-4.51,1.368-7.057,6.133-5.689,10.643l7.936,23.125h-29.44    c-2.091-0.067-4.133,0.636-5.739,1.976c-3.619,3.019-4.106,8.4-1.087,12.019l41.387,54.187c1.629,2.117,4.156,3.348,6.827,3.328    c2.091,0.067,4.133-0.636,5.739-1.976C188.58,262.782,189.067,257.401,186.049,253.781z"/>
	</g>
</g>
<g>
	<g>
		<path d="M93.206,167.424c-0.432-1.034-1.038-1.987-1.792-2.816c-0.831-0.752-1.783-1.358-2.816-1.792    c-2.078-0.853-4.408-0.853-6.485,0c-2.144,0.776-3.832,2.464-4.608,4.608c-0.913,2.065-0.913,4.42,0,6.485    c0.434,1.033,1.04,1.985,1.792,2.816c1.61,1.597,3.79,2.488,6.059,2.475c2.268,0.013,4.448-0.877,6.059-2.475    c0.752-0.831,1.358-1.783,1.792-2.816C94.119,171.844,94.119,169.489,93.206,167.424z"/>
	</g>
</g>
<g>
	<g>
		<path d="M136.555,162.133h-25.6c-4.713,0-8.533,3.82-8.533,8.533s3.82,8.533,8.533,8.533h25.6c4.713,0,8.533-3.82,8.533-8.533    S141.268,162.133,136.555,162.133z"/>
	</g>
</g>
<g>
</g>
<g>
</g>
<g>
</g>
<g>
</g>
<g>
</g>
<g>
</g>
<g>
</g>
<g>
</g>
<g>
</g>
<g>
</g>
<g>
</g>
<g>
</g>
<g>
</g>
<g>
</g>
<g>
</g>
</svg>
