<?xml version="1.0" encoding="iso-8859-1"?>
<!-- Generator: Adobe Illustrator 19.0.0, SVG Export Plug-In . SVG Version: 6.00 Build 0)  -->
<svg xmlns="http://www.w3.org/2000/svg" xmlns:xlink="http://www.w3.org/1999/xlink" version="1.1" id="Layer_1" x="0px" y="0px" viewBox="0 0 512.768 512.768" style="enable-background:new 0 0 512.768 512.768;" xml:space="preserve">
<g>
	<g>
		<path d="M402.824,1.569C332.838-8.403,268.02,40.248,258.048,110.234c-0.846,6.05-1.274,12.152-1.28,18.261    c-0.008,6.113,0.448,12.218,1.365,18.261c4.555,32.578,21.6,62.107,47.531,82.347c17.639,13.821,38.583,22.793,60.757,26.027    c6.072,0.921,12.205,1.378,18.347,1.365c70.692,0,128-57.308,128-128C512.871,64.7,465.981,10.568,402.824,1.569z     M384.768,239.428c-5.313,0.008-10.62-0.392-15.872-1.195c-10.978-1.557-21.653-4.78-31.659-9.557    c-33.56-15.939-56.913-47.621-62.208-84.395c-0.794-5.225-1.193-10.502-1.195-15.787c0.007-5.31,0.378-10.613,1.109-15.872    c8.095-54.468,54.758-94.858,109.824-95.061c0,0,0,0,0,0c61.267,0,110.933,49.667,110.933,110.933    S446.035,239.428,384.768,239.428z"/>
	</g>
</g>
<g>
	<g>
		<path d="M438.016,102.895c-5.234-10.966-13.689-20.076-24.235-26.112c-3.929-2.055-8.778-0.759-11.157,2.983    c-2.528,3.977-1.354,9.251,2.623,11.779c7.448,4.36,13.399,10.876,17.067,18.688c7.781,16.379,4.358,35.887-8.533,48.64    c-0.962,0.977-1.989,1.89-3.072,2.731l-3.413,2.475l-2.475,1.451c-12.925,7.402-28.803,7.402-41.728,0l-1.963-1.109    c-1.365-0.853-2.389-1.621-3.499-2.475c-1.02-0.761-1.989-1.588-2.901-2.475c-8.533-8.045-13.379-19.248-13.397-30.976    c0.038-6.275,1.497-12.46,4.267-18.091c3.676-7.829,9.623-14.37,17.067-18.773c0.212-0.111,0.42-0.231,0.622-0.36    c3.977-2.528,5.152-7.802,2.624-11.779c-2.528-3.977-7.802-5.152-11.779-2.624c-10.502,6.027-18.924,15.104-24.149,26.027    c-3.821,7.99-5.776,16.744-5.717,25.6c-0.02,16.258,6.645,31.81,18.432,43.008c1.368,1.37,2.822,2.653,4.352,3.84    c1.669,1.315,3.406,2.54,5.205,3.669l2.304,1.28c8.919,5.25,19.091,7.992,29.44,7.936c10.305,0.096,20.445-2.586,29.355-7.765    l2.816-1.621c1.707-1.109,3.243-2.219,5.035-3.584c1.627-1.259,3.167-2.627,4.608-4.096    C444.026,153.339,448.926,125.924,438.016,102.895z"/>
	</g>
</g>
<g>
	<g>
		<path d="M384,60.228c-4.713,0-8.533,3.82-8.533,8.533v34.133c0,4.713,3.82,8.533,8.533,8.533s8.533-3.82,8.533-8.533V68.762    C392.533,64.049,388.713,60.228,384,60.228z"/>
	</g>
</g>
<g>
	<g>
		<path d="M299.435,461.295h-256c-4.713,0-8.533,3.82-8.533,8.533v25.6c0,9.426,7.641,17.067,17.067,17.067h238.933    c9.426,0,17.067-7.641,17.067-17.067v-25.6C307.968,465.116,304.148,461.295,299.435,461.295z M290.901,495.428H51.968v-17.067    h238.933V495.428z"/>
	</g>
</g>
<g>
	<g>
		<path d="M264.533,192.58c-11.538-20.898-29.657-37.397-51.541-46.933c0.09-1.478,0.09-2.96,0-4.437c0-0.001,0-0.002,0-0.003    c-0.001-20.595-16.697-37.29-37.292-37.289c-20.595,0.001-37.29,16.697-37.289,37.292c0,0.455,0,0.91,0,1.365    c-25.413,8.703-46.696,26.52-59.733,50.005c-0.715,1.272-1.092,2.707-1.095,4.167c-0.008,4.713,3.806,8.54,8.519,8.548h170.667    c1.578,0.061,3.142-0.317,4.518-1.092C265.392,201.891,266.846,196.687,264.533,192.58z M102.4,188.228    c12.087-15.275,28.79-26.231,47.616-31.232c4.535-1.172,7.277-5.781,6.144-10.325c-0.476-1.754-0.734-3.559-0.768-5.376    c0-0.001,0-0.002,0-0.003c0.001-11.169,9.056-20.223,20.226-20.222c11.169,0.001,20.223,9.056,20.222,20.226    c-0.045,2.386-0.477,4.75-1.28,6.997c-1.473,4.428,0.884,9.217,5.291,10.752c16.138,5.66,30.34,15.78,40.96,29.184H102.4z"/>
	</g>
</g>
<g>
	<g>
		<path d="M347.648,305.733c-9.131-47.189-69.547-65.536-72.107-66.304c-4.619-1.343-9.452,1.312-10.795,5.931    c-1.343,4.619,1.312,9.451,5.931,10.795c0.512,0.171,53.077,16.213,60.245,53.163c7.424,38.315-6.4,61.44-39.68,104.107    c-1.144,1.487-1.767,3.309-1.772,5.185c-0.011,4.713,3.8,8.542,8.513,8.554c2.792-0.005,5.406-1.375,6.997-3.669    C337.323,381.423,356.779,352.922,347.648,305.733z"/>
	</g>
</g>
<g>
	<g>
		<path d="M274.773,233.285c-2.544-6.594-8.89-10.937-15.957-10.923H82.261c-6.542,0.115-12.442,3.96-15.189,9.899    c-8.768,19.158-15.517,39.177-20.139,59.733c-10.237,47.382-14.537,95.854-12.8,144.299c0.322,9.192,7.869,16.475,17.067,16.469    h238.933c9.426,0,17.067-7.641,17.067-17.067C306.091,323.652,282.112,252.485,274.773,233.285z M51.2,435.695    c-1.801-46.911,2.24-93.863,12.032-139.776c4.34-19.447,10.718-38.382,19.029-56.491h176.64    c6.997,18.432,30.123,87.211,31.232,196.267H51.2z"/>
	</g>
</g>
<g>
	<g>
		<path d="M222.635,435.695h-102.4c-4.713,0-8.533,3.82-8.533,8.533v25.6c0,4.713,3.82,8.533,8.533,8.533h102.4    c4.713,0,8.533-3.82,8.533-8.533v-25.6C231.168,439.516,227.348,435.695,222.635,435.695z M214.101,461.295h-85.333v-8.533h85.333    V461.295z"/>
	</g>
</g>
<g>
	<g>
		<path d="M171.435,247.962c-24.32,0-42.667,34.816-42.667,81.067c0,46.251,18.347,81.067,42.667,81.067    s42.667-34.816,42.667-81.067C214.101,282.778,195.755,247.962,171.435,247.962z M171.435,393.028c-10.667,0-25.6-24.32-25.6-64    c0-39.68,14.933-64,25.6-64c10.752,0,25.6,24.32,25.6,64C197.035,368.709,182.101,393.028,171.435,393.028z"/>
	</g>
</g>
<g>
	<g>
		<path d="M82.261,222.362H8.533c-4.713,0-8.533,3.82-8.533,8.533c1.144,32.123,21.774,60.295,52.053,71.083    c0.93,0.338,1.912,0.511,2.901,0.512h0.085c3.587-0.004,6.788-2.251,8.011-5.622c1.608-4.43-0.68-9.325-5.11-10.933    c-20.727-7.116-35.955-24.926-39.765-46.507h64.085c4.713,0,8.533-3.82,8.533-8.533S86.974,222.362,82.261,222.362z"/>
	</g>
</g>
<g>
</g>
<g>
</g>
<g>
</g>
<g>
</g>
<g>
</g>
<g>
</g>
<g>
</g>
<g>
</g>
<g>
</g>
<g>
</g>
<g>
</g>
<g>
</g>
<g>
</g>
<g>
</g>
<g>
</g>
</svg>
