<?xml version="1.0" encoding="iso-8859-1"?>
<!-- Generator: Adobe Illustrator 19.0.0, SVG Export Plug-In . SVG Version: 6.00 Build 0)  -->
<svg xmlns="http://www.w3.org/2000/svg" xmlns:xlink="http://www.w3.org/1999/xlink" version="1.1" id="Layer_1" x="0px" y="0px" viewBox="0 0 512.222 512.222" style="enable-background:new 0 0 512.222 512.222;" xml:space="preserve">
<g>
	<g>
		<path d="M402.167,1.296c-69.986-9.972-134.804,38.679-144.776,108.665c-0.844,6.051-1.272,12.152-1.28,18.261    c-0.009,6.113,0.447,12.218,1.365,18.261c4.555,32.578,21.6,62.107,47.531,82.347c17.639,13.821,38.583,22.793,60.757,26.027    c6.072,0.921,12.205,1.377,18.347,1.365c70.692,0,128-57.308,128-128C512.214,64.427,465.324,10.295,402.167,1.296z     M384.111,239.155c-5.316-0.021-10.622-0.448-15.872-1.28c-48.623-7.05-86.816-45.244-93.867-93.867    c-0.799-5.224-1.198-10.502-1.195-15.787c0.006-5.31,0.377-10.613,1.109-15.872c8.095-54.468,54.758-94.858,109.824-95.061    c61.267,0,110.933,49.667,110.933,110.933S445.378,239.155,384.111,239.155z"/>
	</g>
</g>
<g>
	<g>
		<path d="M438.127,102.622c-5.912-12.523-15.992-22.602-28.514-28.514c-29.832-14.084-65.434-1.318-79.518,28.514    c-3.821,7.99-5.776,16.744-5.717,25.6c0.016,16.318,6.706,31.919,18.517,43.179c1.371,1.341,2.825,2.595,4.352,3.755    c1.645,1.281,3.354,2.477,5.12,3.584l2.304,1.28c8.919,5.25,19.091,7.992,29.44,7.936c10.305,0.096,20.445-2.586,29.355-7.765    l2.816-1.621c1.707-1.109,3.243-2.219,5.035-3.584c1.627-1.259,3.167-2.627,4.608-4.096    C444.137,153.066,449.037,125.651,438.127,102.622z M413.892,158.601c-0.962,0.977-1.989,1.89-3.072,2.731l-3.413,2.475    l-2.475,1.451c-12.925,7.402-28.803,7.402-41.728,0l-1.963-1.109l-3.499-2.475c-1.016-0.766-1.985-1.593-2.901-2.475    c-8.533-8.045-13.379-19.248-13.397-30.976c-0.042-6.255,1.329-12.439,4.011-18.091c7.104-14.929,22.123-24.478,38.656-24.576    c16.401,0.095,31.295,9.582,38.315,24.405C430.206,126.34,426.784,145.848,413.892,158.601z"/>
	</g>
</g>
<g>
	<g>
		<path d="M384.111,102.622c-4.713,0-8.533,3.82-8.533,8.533v34.133c0,4.713,3.82,8.533,8.533,8.533s8.533-3.821,8.533-8.533    v-34.133C392.644,106.443,388.824,102.622,384.111,102.622z"/>
	</g>
</g>
<g>
	<g>
		<path d="M299.46,461.022h-256c-4.713,0-8.533,3.82-8.533,8.533v25.6c0,9.426,7.641,17.067,17.067,17.067h238.933    c9.426,0,17.067-7.641,17.067-17.067v-25.6C307.994,464.843,304.173,461.022,299.46,461.022z M290.927,495.155H51.994v-17.067    h238.933V495.155z"/>
	</g>
</g>
<g>
	<g>
		<path d="M264.644,192.307C253.08,171.4,234.93,154.9,213.018,145.374c0.092-1.478,0.092-2.96,0-4.437c0-0.001,0-0.002,0-0.003    c-0.001-20.595-16.697-37.29-37.292-37.289c-20.595,0.001-37.29,16.697-37.289,37.292c0,0.455,0,0.91,0,1.365    c-25.409,8.71-46.689,26.525-59.733,50.005c-0.715,1.272-1.092,2.707-1.095,4.167c-0.008,4.713,3.806,8.54,8.519,8.548h170.667    c1.609,0.079,3.206-0.299,4.609-1.09C265.508,201.617,266.959,196.413,264.644,192.307z M102.511,187.955    c12.065-15.259,28.736-26.214,47.531-31.232c4.535-1.172,7.277-5.781,6.144-10.325c-0.474-1.754-0.732-3.559-0.768-5.376    c0-0.001,0-0.002,0-0.003c0.001-11.169,9.056-20.223,20.226-20.222c11.169,0.001,20.223,9.056,20.222,20.226    c-0.046,2.386-0.478,4.749-1.28,6.997c-1.473,4.428,0.884,9.217,5.291,10.752c16.135,5.665,30.337,15.783,40.96,29.184H102.511z"/>
	</g>
</g>
<g>
	<g>
		<path d="M347.674,305.46c-9.131-47.189-69.547-65.536-72.107-66.304c-4.619-1.343-9.451,1.312-10.795,5.931    c-1.343,4.619,1.312,9.452,5.931,10.795c0.512,0.171,53.077,16.213,60.245,53.163c7.424,38.315-6.4,61.44-39.68,104.107    c-1.144,1.487-1.767,3.309-1.772,5.185c-0.011,4.713,3.8,8.542,8.513,8.554c2.792-0.005,5.406-1.375,6.997-3.669    C337.348,381.15,356.804,352.649,347.674,305.46z"/>
	</g>
</g>
<g>
	<g>
		<path d="M274.799,233.012c-2.544-6.594-8.89-10.937-15.957-10.923H82.287c-6.511,0.147-12.37,3.988-15.104,9.899    c-8.766,19.159-15.515,39.178-20.139,59.733c-10.243,47.381-14.543,95.854-12.8,144.299c0.322,9.192,7.869,16.475,17.067,16.469    h238.933c9.426,0,17.067-7.641,17.067-17.067C306.116,323.294,282.138,252.212,274.799,233.012z M51.311,435.422    c-1.828-46.907,2.185-93.859,11.947-139.776c4.338-19.447,10.716-38.383,19.029-56.491h176.725    c6.997,18.432,30.123,87.125,31.232,196.267H51.311z"/>
	</g>
</g>
<g>
	<g>
		<path d="M222.66,435.422h-102.4c-4.713,0-8.533,3.82-8.533,8.533v25.6c0,4.713,3.82,8.533,8.533,8.533h102.4    c4.713,0,8.533-3.82,8.533-8.533v-25.6C231.194,439.243,227.373,435.422,222.66,435.422z M214.127,461.022h-85.333v-8.533h85.333    V461.022z"/>
	</g>
</g>
<g>
	<g>
		<path d="M171.46,247.689c-24.32,0-42.667,34.816-42.667,81.067c0,46.251,18.347,81.067,42.667,81.067s42.667-34.816,42.667-81.067    C214.127,282.505,195.78,247.689,171.46,247.689z M171.46,392.755c-10.667,0-25.6-24.32-25.6-64c0-39.68,14.933-64,25.6-64    c10.752,0,25.6,24.32,25.6,64C197.06,368.436,182.127,392.755,171.46,392.755z"/>
	</g>
</g>
<g>
	<g>
		<path d="M82.287,222.089H8.644c-4.713,0-8.533,3.82-8.533,8.533c1.13,32.101,21.722,60.267,51.968,71.083    c0.93,0.338,1.912,0.511,2.901,0.512h0.085c3.587-0.004,6.788-2.251,8.011-5.622c1.608-4.43-0.68-9.325-5.11-10.933    c-20.727-7.116-35.955-24.926-39.765-46.507h64.085c4.713,0,8.533-3.82,8.533-8.533S87,222.089,82.287,222.089z"/>
	</g>
</g>
<g>
</g>
<g>
</g>
<g>
</g>
<g>
</g>
<g>
</g>
<g>
</g>
<g>
</g>
<g>
</g>
<g>
</g>
<g>
</g>
<g>
</g>
<g>
</g>
<g>
</g>
<g>
</g>
<g>
</g>
</svg>
