<?xml version="1.0" encoding="iso-8859-1"?>
<!-- Generator: Adobe Illustrator 19.0.0, SVG Export Plug-In . SVG Version: 6.00 Build 0)  -->
<svg xmlns="http://www.w3.org/2000/svg" xmlns:xlink="http://www.w3.org/1999/xlink" version="1.1" id="Layer_1" x="0px" y="0px" viewBox="0 0 512.016 512.016" style="enable-background:new 0 0 512.016 512.016;" xml:space="preserve">
<g>
	<g>
		<path d="M341.348,460.816H17.081c-9.426,0-17.067,7.641-17.067,17.067v25.6c0,4.713,3.82,8.533,8.533,8.533h341.333    c4.713,0,8.533-3.82,8.533-8.533v-25.6C358.415,468.457,350.773,460.816,341.348,460.816z M341.348,494.95H17.081v-17.067h324.267    V494.95z"/>
	</g>
</g>
<g>
	<g>
		<rect x="170.681" y="8.55" width="17.067" height="42.667"/>
	</g>
</g>
<g>
	<g>
		<path d="M179.215,42.683c-32.939,0-59.733,30.635-59.733,68.267c0,4.713,3.82,8.533,8.533,8.533h102.4    c4.713,0,8.533-3.82,8.533-8.533C238.948,73.318,212.153,42.683,179.215,42.683z M137.145,102.416    c3.413-24.149,20.992-42.667,42.069-42.667s38.656,18.517,42.069,42.667H137.145z"/>
	</g>
</g>
<g>
	<g>
		<path d="M162.148,136.549c-4.713,0-8.533,3.82-8.533,8.533v8.533c0,4.713,3.82,8.533,8.533,8.533s8.533-3.821,8.533-8.533v-8.533    C170.681,140.37,166.861,136.549,162.148,136.549z"/>
	</g>
</g>
<g>
	<g>
		<path d="M162.148,179.216c-4.713,0-8.533,3.82-8.533,8.533v8.533c0,4.713,3.82,8.533,8.533,8.533s8.533-3.82,8.533-8.533v-8.533    C170.681,183.037,166.861,179.216,162.148,179.216z"/>
	</g>
</g>
<g>
	<g>
		<path d="M162.148,221.883c-4.713,0-8.533,3.82-8.533,8.533v8.533c0,4.713,3.82,8.533,8.533,8.533s8.533-3.82,8.533-8.533v-8.533    C170.681,225.703,166.861,221.883,162.148,221.883z"/>
	</g>
</g>
<g>
	<g>
		<path d="M162.148,264.549c-4.713,0-8.533,3.821-8.533,8.533v8.533c0,4.713,3.82,8.533,8.533,8.533s8.533-3.82,8.533-8.533v-8.533    C170.681,268.37,166.861,264.549,162.148,264.549z"/>
	</g>
</g>
<g>
	<g>
		<path d="M128.015,136.549c-4.713,0-8.533,3.82-8.533,8.533v8.533c0,4.713,3.82,8.533,8.533,8.533s8.533-3.821,8.533-8.533v-8.533    C136.548,140.37,132.727,136.549,128.015,136.549z"/>
	</g>
</g>
<g>
	<g>
		<path d="M128.015,179.216c-4.713,0-8.533,3.82-8.533,8.533v8.533c0,4.713,3.82,8.533,8.533,8.533s8.533-3.82,8.533-8.533v-8.533    C136.548,183.037,132.727,179.216,128.015,179.216z"/>
	</g>
</g>
<g>
	<g>
		<path d="M128.015,221.883c-4.713,0-8.533,3.82-8.533,8.533v8.533c0,4.713,3.82,8.533,8.533,8.533s8.533-3.82,8.533-8.533v-8.533    C136.548,225.703,132.727,221.883,128.015,221.883z"/>
	</g>
</g>
<g>
	<g>
		<path d="M128.015,264.549c-4.713,0-8.533,3.821-8.533,8.533v8.533c0,4.713,3.82,8.533,8.533,8.533s8.533-3.82,8.533-8.533v-8.533    C136.548,268.37,132.727,264.549,128.015,264.549z"/>
	</g>
</g>
<g>
	<g>
		<path d="M196.281,136.549c-4.713,0-8.533,3.82-8.533,8.533v8.533c0,4.713,3.82,8.533,8.533,8.533s8.533-3.821,8.533-8.533v-8.533    C204.815,140.37,200.994,136.549,196.281,136.549z"/>
	</g>
</g>
<g>
	<g>
		<path d="M196.281,179.216c-4.713,0-8.533,3.82-8.533,8.533v8.533c0,4.713,3.82,8.533,8.533,8.533s8.533-3.82,8.533-8.533v-8.533    C204.815,183.037,200.994,179.216,196.281,179.216z"/>
	</g>
</g>
<g>
	<g>
		<path d="M196.281,221.883c-4.713,0-8.533,3.82-8.533,8.533v8.533c0,4.713,3.82,8.533,8.533,8.533s8.533-3.82,8.533-8.533v-8.533    C204.815,225.703,200.994,221.883,196.281,221.883z"/>
	</g>
</g>
<g>
	<g>
		<path d="M196.281,264.549c-4.713,0-8.533,3.821-8.533,8.533v8.533c0,4.713,3.82,8.533,8.533,8.533s8.533-3.82,8.533-8.533v-8.533    C204.815,268.37,200.994,264.549,196.281,264.549z"/>
	</g>
</g>
<g>
	<g>
		<path d="M230.415,136.549c-4.713,0-8.533,3.82-8.533,8.533v8.533c0,4.713,3.82,8.533,8.533,8.533s8.533-3.821,8.533-8.533v-8.533    C238.948,140.37,235.127,136.549,230.415,136.549z"/>
	</g>
</g>
<g>
	<g>
		<path d="M230.415,179.216c-4.713,0-8.533,3.82-8.533,8.533v8.533c0,4.713,3.82,8.533,8.533,8.533s8.533-3.82,8.533-8.533v-8.533    C238.948,183.037,235.127,179.216,230.415,179.216z"/>
	</g>
</g>
<g>
	<g>
		<path d="M230.415,221.883c-4.713,0-8.533,3.82-8.533,8.533v8.533c0,4.713,3.82,8.533,8.533,8.533s8.533-3.82,8.533-8.533v-8.533    C238.948,225.703,235.127,221.883,230.415,221.883z"/>
	</g>
</g>
<g>
	<g>
		<path d="M230.415,264.549c-4.713,0-8.533,3.821-8.533,8.533v8.533c0,4.713,3.82,8.533,8.533,8.533s8.533-3.82,8.533-8.533v-8.533    C238.948,268.37,235.127,264.549,230.415,264.549z"/>
	</g>
</g>
<g>
	<g>
		<path d="M307.215,0.016h-256c-9.426,0-17.067,7.641-17.067,17.067v418.133c0,4.713,3.82,8.533,8.533,8.533s8.533-3.82,8.533-8.533    V17.083h256v12.971c0,4.713,3.82,8.533,8.533,8.533s8.533-3.82,8.533-8.533V17.083C324.281,7.657,316.64,0.016,307.215,0.016z"/>
	</g>
</g>
<g>
	<g>
		<path d="M315.748,217.445c-4.713,0-8.533,3.821-8.533,8.533v209.237c0,4.713,3.82,8.533,8.533,8.533s8.533-3.82,8.533-8.533    V225.979C324.281,221.266,320.461,217.445,315.748,217.445z"/>
	</g>
</g>
<g>
	<g>
		<path d="M324.281,426.683H34.148c-9.426,0-17.067,7.641-17.067,17.067v25.6c0,4.713,3.82,8.533,8.533,8.533    s8.533-3.82,8.533-8.533v-25.6h290.133v25.6c0,4.713,3.821,8.533,8.533,8.533c4.713,0,8.533-3.82,8.533-8.533v-25.6    C341.348,434.324,333.707,426.683,324.281,426.683z"/>
	</g>
</g>
<g>
	<g>
		<path d="M76.815,204.816H42.681v17.067h25.6v25.6h-25.6v17.067h34.133c4.713,0,8.533-3.82,8.533-8.533V213.35    C85.348,208.637,81.527,204.816,76.815,204.816z"/>
	</g>
</g>
<g>
	<g>
		<path d="M402.247,1.326C332.278-8.76,267.38,39.786,257.295,109.755c-0.844,6.051-1.272,12.152-1.28,18.261    c-0.009,6.113,0.447,12.218,1.365,18.261c4.546,32.537,21.558,62.033,47.445,82.261c1.963,1.536,4.096,3.072,6.059,4.437    c16.339,11.364,35.092,18.784,54.784,21.675c6.072,0.921,12.205,1.377,18.347,1.365c28.71,0.094,56.6-9.564,79.104-27.392    c25.839-20.323,42.867-49.809,47.557-82.346C520.761,76.309,472.216,11.412,402.247,1.326z M384.015,238.95    c-5.23-0.033-10.45-0.461-15.616-1.28c-17.084-2.492-33.355-8.918-47.531-18.773c-1.707-1.109-3.413-2.389-5.12-3.755    c-22.572-17.485-37.447-43.072-41.472-71.339c-0.799-5.224-1.198-10.502-1.195-15.787c0.006-5.31,0.377-10.613,1.109-15.872    c7.89-54.58,54.676-95.077,109.824-95.061c61.267,0,110.933,49.667,110.933,110.933S445.281,238.95,384.015,238.95z"/>
	</g>
</g>
<g>
	<g>
		<path d="M438.031,102.416c-5.912-12.523-15.992-22.602-28.514-28.514c-29.832-14.084-65.434-1.318-79.518,28.514    c-3.821,7.99-5.776,16.744-5.717,25.6c0.016,16.318,6.706,31.919,18.517,43.179c1.371,1.341,2.825,2.595,4.352,3.755    c1.645,1.281,3.354,2.477,5.12,3.584l2.304,1.28c8.919,5.25,19.091,7.992,29.44,7.936c10.304,0.092,20.444-2.59,29.355-7.765    l2.816-1.621c1.707-1.024,3.243-2.219,5.035-3.584c1.628-1.259,3.167-2.627,4.608-4.096    C444.041,152.86,448.941,125.445,438.031,102.416z M413.796,158.395c-0.963,0.977-1.989,1.889-3.072,2.731l-3.413,2.475    l-2.475,1.451c-12.925,7.402-28.803,7.402-41.728,0l-1.963-1.109l-3.499-2.475c-1.016-0.766-1.985-1.593-2.901-2.475    c-8.533-8.045-13.379-19.248-13.397-30.976c-0.042-6.255,1.329-12.439,4.011-18.091c7.104-14.929,22.123-24.478,38.656-24.576    c16.513,0.012,31.536,9.551,38.571,24.491c2.715,5.674,4.115,11.886,4.096,18.176    C426.634,139.461,421.991,150.407,413.796,158.395z"/>
	</g>
</g>
<g>
	<g>
		<path d="M384.015,102.416c-4.713,0-8.533,3.82-8.533,8.533v34.133c0,4.713,3.82,8.533,8.533,8.533s8.533-3.821,8.533-8.533V110.95    C392.548,106.237,388.727,102.416,384.015,102.416z"/>
	</g>
</g>
<g>
</g>
<g>
</g>
<g>
</g>
<g>
</g>
<g>
</g>
<g>
</g>
<g>
</g>
<g>
</g>
<g>
</g>
<g>
</g>
<g>
</g>
<g>
</g>
<g>
</g>
<g>
</g>
<g>
</g>
</svg>
