<?xml version="1.0" encoding="iso-8859-1"?>
<!-- Generator: Adobe Illustrator 19.0.0, SVG Export Plug-In . SVG Version: 6.00 Build 0)  -->
<svg xmlns="http://www.w3.org/2000/svg" xmlns:xlink="http://www.w3.org/1999/xlink" version="1.1" id="Layer_1" x="0px" y="0px" viewBox="0 0 512 512" style="enable-background:new 0 0 512 512;" xml:space="preserve">
<g>
	<g>
		<path d="M494.933,89.671H359.424c-1.509-0.006-2.993,0.388-4.301,1.143c-4.081,2.356-5.48,7.575-3.123,11.657    c9.833,16.827,14.989,35.977,14.933,55.467c0,2.645,0,5.205,0,7.936c-2.402,31.237-17.9,60.002-42.667,79.189    c-3.138,2.592-6.414,5.014-9.813,7.253c-8.299,5.137-17.255,9.127-26.624,11.861c-20.65,6.201-42.667,6.201-63.317,0    c-9.31-2.749-18.208-6.739-26.453-11.861c-3.574-2.224-7.021-4.646-10.325-7.253c-24.809-19.226-40.312-48.062-42.667-79.36    c0-2.56,0-5.12,0-7.765c-0.052-19.489,5.104-38.638,14.933-55.467c0.755-1.307,1.149-2.791,1.143-4.301    c-0.019-4.713-3.854-8.518-8.567-8.499H17.067C7.641,89.671,0,97.312,0,106.738v358.4c0,9.426,7.641,17.067,17.067,17.067h477.867    c9.426,0,17.067-7.641,17.067-17.067v-358.4C512,97.312,504.359,89.671,494.933,89.671z M494.933,465.138H17.067v-358.4h121.685    c-7.138,16.123-10.801,33.568-10.752,51.2c0,3.157,0,6.229,0,9.131c2.768,36.051,20.654,69.25,49.237,91.392    c3.794,3.061,7.753,5.909,11.861,8.533c9.519,5.933,19.795,10.554,30.549,13.739c23.879,7.169,49.337,7.169,73.216,0    c10.814-3.169,21.148-7.791,30.72-13.739c4.108-2.624,8.068-5.473,11.861-8.533c28.285-22.232,45.909-55.342,48.555-91.221    c0-3.072,0-6.144,0-9.301c0.054-17.633-3.609-35.079-10.752-51.2h121.685V465.138z"/>
	</g>
</g>
<g>
	<g>
		<path d="M256,268.871c-4.713,0-8.533,3.82-8.533,8.533v196.267c0,4.713,3.82,8.533,8.533,8.533s8.533-3.82,8.533-8.533V277.405    C264.533,272.692,260.713,268.871,256,268.871z"/>
	</g>
</g>
<g>
	<g>
		<path d="M224.512,264.178c-9.31-2.749-18.208-6.739-26.453-11.861c-3.574-2.224-7.021-4.646-10.325-7.253    c-24.809-19.226-40.312-48.062-42.667-79.36c0-2.56,0-5.12,0-7.765c0.06-8.011,0.975-15.992,2.731-23.808    c0.14-0.652,0.203-1.318,0.189-1.985c-0.105-4.712-4.01-8.446-8.722-8.34H51.2c-9.426,0-17.067,7.641-17.067,17.067v290.133    c0,9.426,7.641,17.067,17.067,17.067h162.133c0.086,0.001,0.172,0.002,0.258,0.002c9.426-0.001,17.066-7.643,17.065-17.069    V272.711C230.812,268.793,228.277,265.273,224.512,264.178z M213.333,431.005H51.2V140.871h77.909    c-0.745,5.658-1.116,11.36-1.109,17.067c0,3.157,0,6.229,0,9.131c2.73,35.935,20.482,69.053,48.896,91.221    c3.794,3.061,7.753,5.909,11.861,8.533c7.739,4.809,15.98,8.757,24.576,11.776V431.005z"/>
	</g>
</g>
<g>
	<g>
		<path d="M460.8,123.805h-87.893c-0.667-0.015-1.333,0.048-1.985,0.189c-4.607,0.991-7.539,5.529-6.548,10.137    c1.698,7.822,2.556,15.804,2.56,23.808c0,2.645,0,5.205,0,7.936c-2.402,31.237-17.9,60.002-42.667,79.189    c-3.23,2.483-6.591,4.791-10.069,6.912c-8.245,5.123-17.143,9.113-26.453,11.861c-3.765,1.095-6.3,4.615-6.144,8.533v158.635    c0,9.426,7.641,17.067,17.067,17.067H460.8c9.426,0,17.067-7.641,17.067-17.067V140.871    C477.867,131.446,470.226,123.805,460.8,123.805z M460.8,431.005H298.667V278.599c8.706-2.944,17.062-6.836,24.917-11.605    c4.108-2.624,8.068-5.473,11.861-8.533c28.285-22.232,45.909-55.342,48.555-91.221c0-3.072,0-6.144,0-9.301    c0.006-5.707-0.364-11.408-1.109-17.067H460.8V431.005z"/>
	</g>
</g>
<g>
	<g>
		<path d="M329.387,296.178l-34.133-25.6c-3.77-2.828-9.119-2.064-11.947,1.707s-2.064,9.119,1.707,11.947l34.133,25.6    c1.477,1.108,3.274,1.707,5.12,1.707c2.686,0,5.215-1.265,6.827-3.413C333.921,304.354,333.157,299.006,329.387,296.178z"/>
	</g>
</g>
<g>
	<g>
		<path d="M82.859,160.413c-2.454-2.421-6.124-3.128-9.301-1.792c-1.034,0.432-1.987,1.038-2.816,1.792    c-0.777,0.812-1.386,1.769-1.792,2.816c-0.417,1.016-0.635,2.102-0.64,3.2c-0.023,4.713,3.778,8.552,8.491,8.576    c1.119,0.029,2.23-0.205,3.243-0.683c1.034-0.432,1.987-1.038,2.816-1.792c1.597-1.61,2.488-3.79,2.475-6.059    C85.302,164.212,84.418,162.048,82.859,160.413z"/>
	</g>
</g>
<g>
	<g>
		<path d="M136.533,157.938h-25.6c-4.713,0-8.533,3.82-8.533,8.533s3.82,8.533,8.533,8.533h25.6c4.713,0,8.533-3.82,8.533-8.533    S141.246,157.938,136.533,157.938z"/>
	</g>
</g>
<g>
	<g>
		<path d="M366.933,93.938c-22.869-39.728-65.236-64.193-111.076-64.142C185.165,29.874,127.921,87.246,128,157.938    c0,3.157,0,6.229,0,9.131c2.73,35.935,20.482,69.053,48.896,91.221c3.794,3.061,7.753,5.909,11.861,8.533    c20.223,12.45,43.495,19.066,67.243,19.115c23.847,0.061,47.243-6.497,67.584-18.944c4.108-2.624,8.068-5.473,11.861-8.533    c28.285-22.232,45.909-55.342,48.555-91.221c0-3.072,0-6.144,0-9.301C384.102,135.467,378.211,113.375,366.933,93.938z     M366.933,165.874c-2.402,31.237-17.9,60.002-42.667,79.189c-3.138,2.592-6.414,5.014-9.813,7.253    c-8.299,5.137-17.255,9.127-26.624,11.861c-20.65,6.201-42.667,6.201-63.317,0c-9.31-2.749-18.208-6.739-26.453-11.861    c-3.574-2.224-7.021-4.646-10.325-7.253c-24.809-19.226-40.312-48.062-42.667-79.36c0-2.56,0-5.12,0-7.765    c-0.052-19.489,5.104-38.638,14.933-55.467c19.804-34.301,56.393-55.441,96-55.467c39.607,0.025,76.196,21.166,96,55.467    c9.833,16.827,14.989,35.977,14.933,55.467C366.933,160.583,366.933,163.143,366.933,165.874z"/>
	</g>
</g>
<g>
	<g>
		<path d="M307.2,123.805H204.8c-14.138,0-25.6,11.461-25.6,25.6v51.2c0,14.138,11.461,25.6,25.6,25.6h102.4    c14.138,0,25.6-11.461,25.6-25.6v-51.2C332.8,135.266,321.339,123.805,307.2,123.805z M315.733,200.605    c0,4.713-3.82,8.533-8.533,8.533H204.8c-4.713,0-8.533-3.82-8.533-8.533v-51.2c0-4.713,3.82-8.533,8.533-8.533h102.4    c4.713,0,8.533,3.82,8.533,8.533V200.605z"/>
	</g>
</g>
<g>
	<g>
		<path d="M296.619,126.706l-0.683-0.683c-1.227-1.163-2.771-1.935-4.437-2.219H230.4v-8.533    c-0.029-6.338,2.293-12.462,6.519-17.186c9.426-10.538,25.61-11.44,36.148-2.014c3.331,2.407,7.904,2.098,10.881-0.736    c3.414-3.249,3.547-8.651,0.298-12.064c-7.803-6.892-17.856-10.693-28.267-10.688c-23.564,0.012-42.657,19.124-42.645,42.688    v17.067c0,4.713,3.82,8.533,8.533,8.533h68.267c1.623-0.071,3.192-0.604,4.523-1.536c0.738-0.465,1.399-1.041,1.963-1.707    C299.254,134.465,299.254,129.87,296.619,126.706z"/>
	</g>
</g>
<g>
	<g>
		<path d="M256,157.938c-4.713,0-8.533,3.82-8.533,8.533v17.067c0,4.713,3.82,8.533,8.533,8.533s8.533-3.821,8.533-8.533v-17.067    C264.533,161.758,260.713,157.938,256,157.938z"/>
	</g>
</g>
<g>
	<g>
		<path d="M264.533,157.938h-17.067c-4.713,0-8.533,3.82-8.533,8.533s3.82,8.533,8.533,8.533h17.067c4.713,0,8.533-3.82,8.533-8.533    S269.246,157.938,264.533,157.938z"/>
	</g>
</g>
<g>
</g>
<g>
</g>
<g>
</g>
<g>
</g>
<g>
</g>
<g>
</g>
<g>
</g>
<g>
</g>
<g>
</g>
<g>
</g>
<g>
</g>
<g>
</g>
<g>
</g>
<g>
</g>
<g>
</g>
</svg>
