<?xml version="1.0" encoding="iso-8859-1"?>
<!-- Generator: Adobe Illustrator 19.0.0, SVG Export Plug-In . SVG Version: 6.00 Build 0)  -->
<svg xmlns="http://www.w3.org/2000/svg" xmlns:xlink="http://www.w3.org/1999/xlink" version="1.1" id="Layer_1" x="0px" y="0px" viewBox="0 0 512 512" style="enable-background:new 0 0 512 512;" xml:space="preserve">
<g>
	<g>
		<path d="M494.933,89.682H359.424c-1.509-0.006-2.993,0.388-4.301,1.143c-4.081,2.356-5.48,7.575-3.123,11.657    c9.83,16.829,14.985,35.978,14.933,55.467c0,2.645,0,5.205,0,7.936c-2.402,31.237-17.9,60.002-42.667,79.189    c-3.14,2.591-6.415,5.012-9.813,7.253c-8.298,5.139-17.254,9.129-26.624,11.861c-20.65,6.201-42.667,6.201-63.317,0    c-9.311-2.746-18.209-6.736-26.453-11.861c-3.573-2.225-7.021-4.646-10.325-7.253c-24.809-19.226-40.312-48.062-42.667-79.36    c0-2.56,0-5.12,0-7.765c-0.06-19.49,5.096-38.641,14.933-55.467c0.755-1.307,1.149-2.791,1.143-4.301    c-0.019-4.713-3.854-8.518-8.567-8.499H17.067C7.641,89.682,0,97.323,0,106.749v358.4c0,9.426,7.641,17.067,17.067,17.067h477.867    c9.426,0,17.067-7.641,17.067-17.067v-358.4C512,97.323,504.359,89.682,494.933,89.682z M494.933,465.149H17.067v-358.4h121.6    c-7.111,16.128-10.745,33.574-10.667,51.2c0,3.157,0,6.229,0,9.131c2.768,36.051,20.654,69.25,49.237,91.392    c3.791,3.064,7.751,5.913,11.861,8.533c9.518,5.935,19.794,10.556,30.549,13.739c23.879,7.169,49.337,7.169,73.216,0    c10.815-3.168,21.149-7.79,30.72-13.739c4.11-2.621,8.07-5.47,11.861-8.533c28.285-22.232,45.909-55.342,48.555-91.221    c0-3.072,0-6.144,0-9.301c0.071-17.625-3.563-35.069-10.667-51.2h121.6V465.149z"/>
	</g>
</g>
<g>
	<g>
		<path d="M256,268.882c-4.713,0-8.533,3.82-8.533,8.533v196.267c0,4.713,3.82,8.533,8.533,8.533s8.533-3.82,8.533-8.533V277.415    C264.533,272.703,260.713,268.882,256,268.882z"/>
	</g>
</g>
<g>
	<g>
		<path d="M224.512,264.189c-9.311-2.746-18.209-6.736-26.453-11.861c-3.573-2.225-7.021-4.646-10.325-7.253    c-24.809-19.226-40.312-48.062-42.667-79.36c0-2.56,0-5.12,0-7.765c0.062-8.01,0.977-15.992,2.731-23.808    c0.14-0.652,0.203-1.318,0.189-1.985c-0.105-4.712-4.01-8.446-8.722-8.34H51.2c-9.426,0-17.067,7.641-17.067,17.067v290.133    c0,9.426,7.641,17.067,17.067,17.067h162.133c0.086,0.001,0.172,0.002,0.258,0.002c9.426-0.001,17.066-7.643,17.065-17.069    V272.722C230.812,268.804,228.277,265.284,224.512,264.189z M213.333,431.015H51.2V140.882h77.909    c-0.745,5.658-1.115,11.36-1.109,17.067c0,3.157,0,6.229,0,9.131c2.73,35.935,20.482,69.053,48.896,91.221    c3.791,3.064,7.751,5.913,11.861,8.533c7.738,4.81,15.979,8.759,24.576,11.776V431.015z"/>
	</g>
</g>
<g>
	<g>
		<path d="M460.8,123.815h-87.893c-0.667-0.015-1.333,0.048-1.985,0.189c-4.607,0.991-7.539,5.529-6.548,10.137    c1.696,7.823,2.554,15.804,2.56,23.808c0,2.645,0,5.205,0,7.936c-2.402,31.237-17.9,60.002-42.667,79.189    c-3.231,2.482-6.592,4.789-10.069,6.912c-8.244,5.126-17.142,9.116-26.453,11.861c-3.765,1.095-6.3,4.615-6.144,8.533v158.635    c0,9.426,7.641,17.067,17.067,17.067H460.8c9.426,0,17.067-7.641,17.067-17.067V140.882    C477.867,131.456,470.226,123.815,460.8,123.815z M460.8,431.015H298.667V278.61c8.708-2.939,17.064-6.831,24.917-11.605    c4.11-2.621,8.07-5.47,11.861-8.533c28.285-22.232,45.909-55.342,48.555-91.221c0-3.072,0-6.144,0-9.301    c0.006-5.707-0.365-11.408-1.109-17.067H460.8V431.015z"/>
	</g>
</g>
<g>
	<g>
		<path d="M329.387,296.189l-34.133-25.6c-3.77-2.828-9.119-2.064-11.947,1.707s-2.064,9.119,1.707,11.947l34.133,25.6    c1.477,1.108,3.274,1.707,5.12,1.707c2.686,0,5.215-1.265,6.827-3.413C333.921,304.365,333.157,299.016,329.387,296.189z"/>
	</g>
</g>
<g>
	<g>
		<path d="M82.809,160.374c-3.346-3.319-8.749-3.296-12.068,0.05c-0.754,0.829-1.36,1.782-1.792,2.816    c-0.437,1.026-0.669,2.128-0.683,3.243c-0.013,2.268,0.877,4.448,2.475,6.059c0.829,0.754,1.782,1.36,2.816,1.792    c1.026,0.437,2.128,0.669,3.243,0.683c1.115-0.013,2.217-0.245,3.243-0.683c2.144-0.776,3.832-2.464,4.608-4.608    c0.437-1.026,0.669-2.128,0.683-3.243C85.347,164.189,84.437,161.988,82.809,160.374z"/>
	</g>
</g>
<g>
	<g>
		<path d="M136.533,157.949h-25.6c-4.713,0-8.533,3.82-8.533,8.533s3.82,8.533,8.533,8.533h25.6c4.713,0,8.533-3.82,8.533-8.533    S141.246,157.949,136.533,157.949z"/>
	</g>
</g>
<g>
	<g>
		<path d="M290.133,157.949c-4.713,0-8.533,3.82-8.533,8.533s3.82,8.533,8.533,8.533c2.268,0.013,4.448-0.877,6.059-2.475    c0.752-0.83,1.358-1.783,1.792-2.816c0.437-1.026,0.669-2.128,0.683-3.243C298.667,161.769,294.846,157.949,290.133,157.949z"/>
	</g>
</g>
<g>
	<g>
		<path d="M319.858,46.873c-61.267-35.268-139.523-14.191-174.791,47.076c-11.278,19.437-17.169,41.529-17.067,64    c0,3.157,0,6.229,0,9.131c2.73,35.935,20.482,69.053,48.896,91.221c3.791,3.064,7.751,5.913,11.861,8.533    c20.223,12.45,43.495,19.066,67.243,19.115c23.848,0.065,47.245-6.493,67.584-18.944c4.11-2.621,8.07-5.47,11.861-8.533    c28.285-22.232,45.909-55.342,48.555-91.221c0-3.072,0-6.144,0-9.301C384.051,112.109,359.585,69.742,319.858,46.873z     M366.933,165.885c-2.402,31.237-17.9,60.002-42.667,79.189c-3.14,2.591-6.415,5.012-9.813,7.253    c-8.298,5.139-17.254,9.129-26.624,11.861c-20.65,6.201-42.667,6.201-63.317,0c-9.311-2.746-18.209-6.736-26.453-11.861    c-3.573-2.225-7.021-4.646-10.325-7.253c-24.809-19.226-40.312-48.062-42.667-79.36c0-2.56,0-5.12,0-7.765    c-0.06-19.49,5.096-38.641,14.933-55.467c19.804-34.301,56.393-55.441,96-55.467c39.607,0.025,76.196,21.166,96,55.467    c9.83,16.829,14.985,35.978,14.933,55.467C366.933,160.594,366.933,163.154,366.933,165.885z"/>
	</g>
</g>
<g>
	<g>
		<path d="M307.2,123.815H204.8c-14.138,0-25.6,11.461-25.6,25.6v51.2c0,14.138,11.461,25.6,25.6,25.6h102.4    c14.138,0,25.6-11.461,25.6-25.6v-51.2C332.8,135.277,321.339,123.815,307.2,123.815z M315.733,200.615    c0,4.713-3.82,8.533-8.533,8.533H204.8c-4.713,0-8.533-3.82-8.533-8.533v-51.2c0-4.713,3.82-8.533,8.533-8.533h102.4    c4.713,0,8.533,3.82,8.533,8.533V200.615z"/>
	</g>
</g>
<g>
	<g>
		<path d="M256,72.615c-23.564,0-42.667,19.102-42.667,42.667v17.067c0,4.713,3.82,8.533,8.533,8.533h68.267v-0.171    c4.713,0,8.533-3.82,8.533-8.533c0-2.304,0-7.509,0-11.861v-5.035C298.667,91.718,279.564,72.615,256,72.615z M281.6,120.317    c0,1.109,0,2.304,0,3.499h-51.2v-8.533c0-14.138,11.461-25.6,25.6-25.6s25.6,11.461,25.6,25.6V120.317z"/>
	</g>
</g>
<g>
	<g>
		<path d="M256,157.949c-4.713,0-8.533,3.82-8.533,8.533v17.067c0,4.713,3.82,8.533,8.533,8.533s8.533-3.821,8.533-8.533v-17.067    C264.533,161.769,260.713,157.949,256,157.949z"/>
	</g>
</g>
<g>
	<g>
		<path d="M264.533,157.949h-17.067c-4.713,0-8.533,3.82-8.533,8.533s3.82,8.533,8.533,8.533h17.067c4.713,0,8.533-3.82,8.533-8.533    S269.246,157.949,264.533,157.949z"/>
	</g>
</g>
<g>
</g>
<g>
</g>
<g>
</g>
<g>
</g>
<g>
</g>
<g>
</g>
<g>
</g>
<g>
</g>
<g>
</g>
<g>
</g>
<g>
</g>
<g>
</g>
<g>
</g>
<g>
</g>
<g>
</g>
</svg>
