<?xml version="1.0" encoding="iso-8859-1"?>
<!-- Generator: Adobe Illustrator 19.0.0, SVG Export Plug-In . SVG Version: 6.00 Build 0)  -->
<svg xmlns="http://www.w3.org/2000/svg" xmlns:xlink="http://www.w3.org/1999/xlink" version="1.1" id="Layer_1" x="0px" y="0px" viewBox="0 0 512.001 512.001" style="enable-background:new 0 0 512.001 512.001;" xml:space="preserve">
<g>
	<g>
		<path d="M291.67,212.907c-33.837-28.419-47.581-74.21-34.987-116.565c0.281-0.923,0.403-1.888,0.361-2.852    c-0.204-4.708-4.186-8.36-8.894-8.156H64.001c-23.564,0-42.667,19.103-42.667,42.667v341.333    c0,23.564,19.102,42.667,42.667,42.667h187.733c0.114,0.001,0.228,0.001,0.343,0.001c23.564-0.001,42.666-19.104,42.665-42.668    V219.477C294.746,216.939,293.62,214.531,291.67,212.907z M277.334,469.333c0,14.138-11.462,25.6-25.6,25.6H64.001    c-14.138,0-25.6-11.461-25.6-25.6V128c0-14.138,11.461-25.6,25.6-25.6h173.227c-9.063,44.569,6.205,90.599,40.107,120.917V469.333    z"/>
	</g>
</g>
<g>
	<g>
		<path d="M157.867,119.467c-32.99,0-59.733,26.744-59.733,59.733s26.744,59.733,59.733,59.733s59.733-26.744,59.733-59.733    S190.857,119.467,157.867,119.467z M157.867,221.867c-23.564,0-42.667-19.103-42.667-42.667s19.103-42.667,42.667-42.667    s42.667,19.103,42.667,42.667S181.432,221.867,157.867,221.867z"/>
	</g>
</g>
<g>
	<g>
		<path d="M157.867,264.533c-56.554,0-102.4,45.846-102.4,102.4s45.846,102.4,102.4,102.4s102.4-45.846,102.4-102.4    S214.421,264.533,157.867,264.533z M157.867,452.267c-47.128,0-85.333-38.205-85.333-85.333s38.205-85.333,85.333-85.333    s85.333,38.205,85.333,85.333S204.996,452.267,157.867,452.267z"/>
	</g>
</g>
<g>
	<g>
		<path d="M157.867,332.8c-18.851,0-34.133,15.282-34.133,34.133s15.282,34.133,34.133,34.133s34.133-15.282,34.133-34.133    S176.719,332.8,157.867,332.8z M157.867,384c-9.426,0-17.067-7.641-17.067-17.067s7.641-17.067,17.067-17.067    s17.067,7.641,17.067,17.067S167.293,384,157.867,384z"/>
	</g>
</g>
<g>
	<g>
		<path d="M163.926,173.141c-2.454-2.421-6.124-3.128-9.301-1.792c-1.047,0.406-2.004,1.015-2.816,1.792    c-1.597,1.61-2.488,3.79-2.475,6.059c0.013,1.115,0.245,2.217,0.683,3.243c0.434,1.033,1.04,1.986,1.792,2.816    c1.61,1.597,3.79,2.488,6.059,2.475c2.268,0.013,4.448-0.877,6.059-2.475c0.752-0.83,1.358-1.783,1.792-2.816    c0.437-1.026,0.669-2.128,0.683-3.243C166.369,176.941,165.485,174.777,163.926,173.141z"/>
	</g>
</g>
<g>
	<g>
		<path d="M362.667,0c-70.692,0-128,57.308-128,128s57.308,128,128,128s128-57.308,128-128S433.36,0,362.667,0z M362.667,238.933    c-61.267,0-110.933-49.667-110.933-110.933S301.401,17.067,362.667,17.067S473.601,66.733,473.601,128    S423.934,238.933,362.667,238.933z"/>
	</g>
</g>
<g>
	<g>
		<path d="M362.667,53.675c-4.784-2.176-10.393-1.413-14.421,1.963l-13.568,11.776l-26.709,26.453h-25.088c-0.001,0-0.001,0-0.002,0    c-7.87,0.095-14.173,6.551-14.078,14.421v39.424c0,0.001,0,0.001,0,0.002c-0.094,7.87,6.21,14.326,14.08,14.419h25.003    l27.392,27.904l13.312,11.52c2.395,2.016,5.404,3.159,8.533,3.243c1.918-0.035,3.807-0.471,5.547-1.28    c5.198-2.301,8.546-7.456,8.533-13.141V66.816C371.236,61.125,367.881,55.958,362.667,53.675z M354.134,184.064l-7.339-6.4    l-29.184-30.037c-1.617-1.65-3.834-2.573-6.144-2.56h-25.6v-34.133h25.6c2.239-0.009,4.384-0.898,5.973-2.475l28.757-28.501    l7.936-6.827V184.064z"/>
	</g>
</g>
<g>
	<g>
		<path d="M400.47,93.867c-0.715-0.492-1.501-0.871-2.331-1.126c-4.505-1.383-9.279,1.148-10.662,5.654    c-1.383,4.505,1.148,9.279,5.654,10.662c4.337,2.125,7.844,5.632,9.969,9.969c5.287,10.792,0.824,23.827-9.969,29.114    c-2.928,1.418-4.795,4.377-4.814,7.63c-0.028,4.713,3.77,8.556,8.483,8.583c1.246,0.1,2.498-0.075,3.669-0.512    c7.933-3.818,14.333-10.218,18.151-18.151C427.919,126.367,419.793,103.165,400.47,93.867z"/>
	</g>
</g>
<g>
	<g>
		<path d="M414.891,68.864c-4.359-1.814-9.364,0.249-11.179,4.608s0.249,9.364,4.608,11.179    c18.193,6.822,30.486,23.931,31.147,43.349c-0.661,19.419-12.954,36.527-31.147,43.349c-3.114,1.326-5.15,4.367-5.19,7.751    c-0.055,4.713,3.72,8.578,8.432,8.633c1.115-0.013,2.217-0.245,3.243-0.683c24.58-9.422,41.054-32.735,41.728-59.051    C455.908,101.674,439.466,78.325,414.891,68.864z"/>
	</g>
</g>
<g>
</g>
<g>
</g>
<g>
</g>
<g>
</g>
<g>
</g>
<g>
</g>
<g>
</g>
<g>
</g>
<g>
</g>
<g>
</g>
<g>
</g>
<g>
</g>
<g>
</g>
<g>
</g>
<g>
</g>
</svg>
