<?xml version="1.0" encoding="iso-8859-1"?>
<!-- Generator: Adobe Illustrator 19.0.0, SVG Export Plug-In . SVG Version: 6.00 Build 0)  -->
<svg xmlns="http://www.w3.org/2000/svg" xmlns:xlink="http://www.w3.org/1999/xlink" version="1.1" id="Layer_1" x="0px" y="0px" viewBox="0 0 512.001 512.001" style="enable-background:new 0 0 512.001 512.001;" xml:space="preserve">
<g>
	<g>
		<path d="M291.67,212.907c-33.837-28.419-47.581-74.21-34.987-116.565c0.281-0.923,0.403-1.888,0.361-2.852    c-0.204-4.708-4.186-8.36-8.894-8.156H64.001c-23.564,0-42.667,19.103-42.667,42.667v341.333    c0,23.564,19.102,42.667,42.667,42.667h187.733c0.114,0.001,0.228,0.001,0.343,0.001c23.564-0.001,42.666-19.104,42.665-42.668    V219.477C294.746,216.939,293.62,214.531,291.67,212.907z M277.334,469.333c0,14.138-11.462,25.6-25.6,25.6H64.001    c-14.138,0-25.6-11.461-25.6-25.6V128c0-14.138,11.461-25.6,25.6-25.6h173.227c-9.063,44.569,6.205,90.599,40.107,120.917V469.333    z"/>
	</g>
</g>
<g>
	<g>
		<path d="M157.867,119.467c-32.99,0-59.733,26.744-59.733,59.733s26.744,59.733,59.733,59.733s59.733-26.744,59.733-59.733    S190.857,119.467,157.867,119.467z M157.867,221.867c-23.564,0-42.667-19.103-42.667-42.667s19.103-42.667,42.667-42.667    s42.667,19.103,42.667,42.667S181.432,221.867,157.867,221.867z"/>
	</g>
</g>
<g>
	<g>
		<path d="M157.867,264.533c-56.554,0-102.4,45.846-102.4,102.4s45.846,102.4,102.4,102.4s102.4-45.846,102.4-102.4    S214.421,264.533,157.867,264.533z M157.867,452.267c-47.128,0-85.333-38.205-85.333-85.333s38.205-85.333,85.333-85.333    s85.333,38.205,85.333,85.333S204.996,452.267,157.867,452.267z"/>
	</g>
</g>
<g>
	<g>
		<path d="M157.867,332.8c-18.851,0-34.133,15.282-34.133,34.133s15.282,34.133,34.133,34.133s34.133-15.282,34.133-34.133    S176.719,332.8,157.867,332.8z M157.867,384c-9.426,0-17.067-7.641-17.067-17.067s7.641-17.067,17.067-17.067    s17.067,7.641,17.067,17.067S167.293,384,157.867,384z"/>
	</g>
</g>
<g>
	<g>
		<path d="M163.926,173.141c-0.42-0.386-0.877-0.729-1.365-1.024c-0.435-0.339-0.926-0.599-1.451-0.768    c-0.509-0.257-1.057-0.43-1.621-0.512c-1.066-0.251-2.176-0.251-3.243,0c-0.565,0.082-1.112,0.255-1.621,0.512    c-0.545,0.185-1.061,0.443-1.536,0.768l-1.28,1.024c-1.597,1.61-2.488,3.79-2.475,6.059c0.013,1.115,0.245,2.217,0.683,3.243    c0.434,1.033,1.04,1.986,1.792,2.816c1.61,1.597,3.79,2.488,6.059,2.475c2.268,0.013,4.448-0.877,6.059-2.475    c0.752-0.83,1.358-1.783,1.792-2.816c0.437-1.026,0.669-2.128,0.683-3.243C166.369,176.941,165.485,174.777,163.926,173.141z"/>
	</g>
</g>
<g>
	<g>
		<path d="M362.667,0c-70.692,0-128,57.308-128,128s57.308,128,128,128s128-57.308,128-128S433.36,0,362.667,0z M362.667,238.933    c-61.267,0-110.933-49.667-110.933-110.933S301.401,17.067,362.667,17.067S473.601,66.733,473.601,128    S423.934,238.933,362.667,238.933z"/>
	</g>
</g>
<g>
	<g>
		<path d="M425.985,98.901l-51.2-51.2c-0.004-0.005-0.009-0.009-0.013-0.013c-6.669-6.661-17.475-6.655-24.136,0.013l-51.2,51.2    c-3.161,3.18-4.944,7.477-4.963,11.96c-0.04,9.426,7.569,17.099,16.995,17.138h17.067v68.267c0,9.426,7.641,17.067,17.067,17.067    h34.133c9.426,0,17.067-7.641,17.067-17.067V128h17.067c4.513,0.004,8.845-1.781,12.046-4.963    C432.598,116.392,432.63,105.586,425.985,98.901z M396.801,110.933c-9.426,0-17.067,7.641-17.067,17.067v68.267h-34.133V128    c0-9.426-7.641-17.067-17.067-17.067h-17.067l51.2-51.2l51.2,51.2H396.801z"/>
	</g>
</g>
<g>
</g>
<g>
</g>
<g>
</g>
<g>
</g>
<g>
</g>
<g>
</g>
<g>
</g>
<g>
</g>
<g>
</g>
<g>
</g>
<g>
</g>
<g>
</g>
<g>
</g>
<g>
</g>
<g>
</g>
</svg>
