<?xml version="1.0" encoding="iso-8859-1"?>
<!-- Generator: Adobe Illustrator 19.0.0, SVG Export Plug-In . SVG Version: 6.00 Build 0)  -->
<svg xmlns="http://www.w3.org/2000/svg" xmlns:xlink="http://www.w3.org/1999/xlink" version="1.1" id="Layer_1" x="0px" y="0px" viewBox="0 0 512.001 512.001" style="enable-background:new 0 0 512.001 512.001;" xml:space="preserve">
<g>
	<g>
		<path d="M291.67,212.907c-33.837-28.419-47.581-74.21-34.987-116.565c0.281-0.923,0.403-1.888,0.361-2.852    c-0.204-4.708-4.186-8.36-8.894-8.156H64.001c-23.564,0-42.667,19.103-42.667,42.667v341.333    c0,23.564,19.102,42.667,42.667,42.667h187.733c0.114,0.001,0.228,0.001,0.343,0.001c23.564-0.001,42.666-19.104,42.665-42.668    V219.477C294.746,216.939,293.62,214.531,291.67,212.907z M277.334,469.333c0,14.138-11.462,25.6-25.6,25.6H64.001    c-14.138,0-25.6-11.461-25.6-25.6V128c0-14.138,11.461-25.6,25.6-25.6h173.227c-9.063,44.569,6.205,90.599,40.107,120.917V469.333    z"/>
	</g>
</g>
<g>
	<g>
		<path d="M157.867,119.467c-32.99,0-59.733,26.744-59.733,59.733s26.744,59.733,59.733,59.733s59.733-26.744,59.733-59.733    S190.857,119.467,157.867,119.467z M157.867,221.867c-23.564,0-42.667-19.103-42.667-42.667s19.103-42.667,42.667-42.667    s42.667,19.103,42.667,42.667S181.432,221.867,157.867,221.867z"/>
	</g>
</g>
<g>
	<g>
		<path d="M157.867,264.533c-56.554,0-102.4,45.846-102.4,102.4s45.846,102.4,102.4,102.4s102.4-45.846,102.4-102.4    S214.421,264.533,157.867,264.533z M157.867,452.267c-47.128,0-85.333-38.205-85.333-85.333s38.205-85.333,85.333-85.333    s85.333,38.205,85.333,85.333S204.996,452.267,157.867,452.267z"/>
	</g>
</g>
<g>
	<g>
		<path d="M157.867,332.8c-18.851,0-34.133,15.282-34.133,34.133s15.282,34.133,34.133,34.133s34.133-15.282,34.133-34.133    S176.719,332.8,157.867,332.8z M157.867,384c-9.426,0-17.067-7.641-17.067-17.067s7.641-17.067,17.067-17.067    s17.067,7.641,17.067,17.067S167.293,384,157.867,384z"/>
	</g>
</g>
<g>
	<g>
		<path d="M157.867,170.667c-4.713,0-8.533,3.82-8.533,8.533c0.013,1.115,0.245,2.217,0.683,3.243    c0.434,1.033,1.04,1.986,1.792,2.816c1.61,1.597,3.79,2.488,6.059,2.475c2.268,0.013,4.448-0.877,6.059-2.475    c0.751-0.831,1.357-1.783,1.792-2.816c0.478-1.013,0.712-2.123,0.683-3.243C166.401,174.487,162.58,170.667,157.867,170.667z"/>
	</g>
</g>
<g>
	<g>
		<path d="M362.667,0c-70.692,0-128,57.308-128,128s57.308,128,128,128s128-57.308,128-128S433.36,0,362.667,0z M362.667,238.933    c-61.267,0-110.933-49.667-110.933-110.933S301.401,17.067,362.667,17.067S473.601,66.733,473.601,128    S423.934,238.933,362.667,238.933z"/>
	</g>
</g>
<g>
	<g>
		<path d="M401.153,114.773l-39.765-40.192c-2.648-2.644-6.229-4.14-9.97-4.167c-7.87-0.055-14.295,6.28-14.35,14.15v80.384    c0,7.87,6.38,14.251,14.251,14.251c3.792-0.017,7.419-1.554,10.069-4.267l39.765-40.107    C406.652,129.273,406.652,120.327,401.153,114.773z M354.134,158.037v-66.56l32.939,33.28L354.134,158.037z"/>
	</g>
</g>
<g>
</g>
<g>
</g>
<g>
</g>
<g>
</g>
<g>
</g>
<g>
</g>
<g>
</g>
<g>
</g>
<g>
</g>
<g>
</g>
<g>
</g>
<g>
</g>
<g>
</g>
<g>
</g>
<g>
</g>
</svg>
