<?xml version="1.0" encoding="iso-8859-1"?>
<!-- Generator: Adobe Illustrator 19.0.0, SVG Export Plug-In . SVG Version: 6.00 Build 0)  -->
<svg xmlns="http://www.w3.org/2000/svg" xmlns:xlink="http://www.w3.org/1999/xlink" version="1.1" id="Layer_1" x="0px" y="0px" viewBox="0 0 512.284 512.284" style="enable-background:new 0 0 512.284 512.284;" xml:space="preserve">
<g>
	<g>
		<path d="M436.196,297.842l-112.64-75.008c-2.808-1.802-6.408-1.802-9.216,0c-35.781,21.637-80.613,21.637-116.395,0    c-2.808-1.801-6.408-1.801-9.216,0L76.003,297.842c-4.761,3.176-7.613,8.528-7.595,14.251v12.459    c0,9.426,7.641,17.067,17.067,17.067v153.6c0,9.426,7.641,17.067,17.067,17.067h17.067c9.426,0,17.067-7.641,17.067-17.067v-102.4    h59.733v102.4c0,9.426,7.641,17.067,17.067,17.067h196.267c9.426,0,17.067-7.641,17.067-17.067v-153.6    c9.426,0,17.067-7.641,17.067-17.067v-12.459C443.875,306.353,440.989,300.998,436.196,297.842z M426.809,324.551    c-9.426,0-17.067,7.641-17.067,17.067v153.6H213.475v-102.4c0-9.426-7.641-17.067-17.067-17.067h-59.733    c-9.426,0-17.067,7.641-17.067,17.067v102.4h-17.067v-153.6c0-9.426-7.641-17.067-17.067-17.067v-12.544l108.203-72.021    c38.904,21.359,86.024,21.359,124.928,0l108.203,72.107V324.551z"/>
	</g>
</g>
<g>
	<g>
		<path d="M128.142,324.551c-4.713,0-8.533,3.821-8.533,8.533c0.013,1.115,0.245,2.217,0.683,3.243    c0.434,1.033,1.04,1.986,1.792,2.816c1.61,1.597,3.79,2.488,6.059,2.475c1.115-0.013,2.217-0.245,3.243-0.683    c1.034-0.432,1.987-1.038,2.816-1.792c1.597-1.61,2.488-3.79,2.475-6.059C136.675,328.371,132.855,324.551,128.142,324.551z"/>
	</g>
</g>
<g>
	<g>
		<path d="M367.075,324.551H153.742c-4.713,0-8.533,3.821-8.533,8.533c0,4.713,3.821,8.533,8.533,8.533h213.333    c4.713,0,8.533-3.821,8.533-8.533C375.609,328.371,371.788,324.551,367.075,324.551z"/>
	</g>
</g>
<g>
	<g>
		<path d="M335.246,27.375c-55.577-43.688-136.047-34.05-179.735,21.527c-43.688,55.577-34.05,136.047,21.527,179.735    c3.794,3.061,7.753,5.909,11.861,8.533c20.19,12.525,43.483,19.147,67.243,19.115c23.76,0.036,47.055-6.585,67.243-19.115    c4.109-2.622,8.069-5.47,11.861-8.533c8.006-6.294,15.233-13.52,21.527-21.527C400.461,151.533,390.823,71.063,335.246,27.375z     M324.409,215.41c-36.442,28.496-86.741,31.387-126.208,7.253c-3.572-2.226-7.019-4.648-10.325-7.253    c-26.579-20.948-42.143-52.883-42.265-86.725c-0.221-61.266,49.265-111.112,110.532-111.334    c33.842,0.122,65.777,15.686,86.725,42.265C380.791,107.734,372.527,177.485,324.409,215.41z"/>
	</g>
</g>
<g>
	<g>
		<path d="M307.342,94.151h-102.4c-14.138,0-25.6,11.461-25.6,25.6v51.2c0,14.138,11.461,25.6,25.6,25.6h102.4    c14.138,0,25.6-11.461,25.6-25.6v-51.2C332.942,105.612,321.481,94.151,307.342,94.151z M315.875,170.951    c0,4.713-3.82,8.533-8.533,8.533h-102.4c-4.713,0-8.533-3.82-8.533-8.533v-51.2c0-4.713,3.82-8.533,8.533-8.533h102.4    c4.713,0,8.533,3.82,8.533,8.533V170.951z"/>
	</g>
</g>
<g>
	<g>
		<path d="M296.761,97.052l-0.683-0.683c-1.227-1.163-2.771-1.935-4.437-2.219h-61.099v-8.533    c-0.029-6.338,2.293-12.462,6.519-17.186c9.426-10.538,25.61-11.44,36.148-2.014c3.331,2.407,7.904,2.098,10.881-0.736    c3.414-3.249,3.547-8.651,0.298-12.064c-7.803-6.892-17.856-10.693-28.267-10.688c-23.564,0.012-42.657,19.124-42.645,42.688    v17.067c0,4.713,3.82,8.533,8.533,8.533h68.267c1.623-0.071,3.192-0.604,4.523-1.536c0.738-0.465,1.399-1.041,1.963-1.707    C299.396,104.811,299.396,100.216,296.761,97.052z"/>
	</g>
</g>
<g>
	<g>
		<path d="M256.142,128.284c-4.713,0-8.533,3.82-8.533,8.533v17.067c0,4.713,3.82,8.533,8.533,8.533s8.533-3.821,8.533-8.533    v-17.067C264.675,132.105,260.855,128.284,256.142,128.284z"/>
	</g>
</g>
<g>
	<g>
		<path d="M264.675,128.284h-17.067c-4.713,0-8.533,3.82-8.533,8.533s3.82,8.533,8.533,8.533h17.067c4.713,0,8.533-3.82,8.533-8.533    S269.388,128.284,264.675,128.284z"/>
	</g>
</g>
<g>
</g>
<g>
</g>
<g>
</g>
<g>
</g>
<g>
</g>
<g>
</g>
<g>
</g>
<g>
</g>
<g>
</g>
<g>
</g>
<g>
</g>
<g>
</g>
<g>
</g>
<g>
</g>
<g>
</g>
</svg>
