<?xml version="1.0" encoding="iso-8859-1"?>
<!-- Generator: Adobe Illustrator 19.0.0, SVG Export Plug-In . SVG Version: 6.00 Build 0)  -->
<svg xmlns="http://www.w3.org/2000/svg" xmlns:xlink="http://www.w3.org/1999/xlink" version="1.1" id="Layer_1" x="0px" y="0px" viewBox="0 0 511.899 511.899" style="enable-background:new 0 0 511.899 511.899;" xml:space="preserve">
<g>
	<g>
		<path d="M153.55,272.966c4.713,0,8.533-3.82,8.533-8.533v-62.805c0.004-1.702-0.501-3.366-1.451-4.779    c-6.689-9.816-11.813-20.612-15.189-32c-0.58-1.973-1.853-3.67-3.584-4.779c-6.696-4.298-14.486-6.579-22.443-6.571    c-23.564,0-42.667,19.102-42.667,42.667v273.067c0,23.564,19.103,42.667,42.667,42.667s42.667-19.102,42.667-42.667V298.566    c0-4.713-3.821-8.533-8.533-8.533c-4.713,0-8.533,3.82-8.533,8.533v170.667c0,14.138-11.461,25.6-25.6,25.6    s-25.6-11.461-25.6-25.6V196.166c0-14.138,11.461-25.6,25.6-25.6c3.692-0.032,7.341,0.785,10.667,2.389    c3.589,11.02,8.61,21.52,14.933,31.232v60.245C145.016,269.145,148.837,272.966,153.55,272.966z"/>
	</g>
</g>
<g>
	<g>
		<path d="M221.816,332.699c-4.713,0-8.533,3.821-8.533,8.533v128c0,14.138-11.462,25.6-25.6,25.6s-25.6-11.461-25.6-25.6V298.566    c0-4.713-3.821-8.533-8.533-8.533c-4.713,0-8.533,3.82-8.533,8.533v170.667c0,23.564,19.103,42.667,42.667,42.667    s42.667-19.102,42.667-42.667v-128C230.35,336.52,226.529,332.699,221.816,332.699z"/>
	</g>
</g>
<g>
	<g>
		<path d="M224.206,242.929c-25.917-7.475-48.406-23.775-63.573-46.08c-1.589-2.365-4.253-3.78-7.102-3.774    c-4.713,0.011-8.525,3.84-8.514,8.552v62.805c0,4.713,3.821,8.533,8.533,8.533c4.713,0,8.533-3.82,8.533-8.533v-39.168    c14.374,14.488,31.894,25.467,51.2,32.085v41.216c0,4.713,3.82,8.533,8.533,8.533s8.533-3.82,8.533-8.533v-47.104    C230.506,247.544,227.971,244.023,224.206,242.929z"/>
	</g>
</g>
<g>
	<g>
		<path d="M290.083,324.166c-4.713,0-8.533,3.821-8.533,8.533v136.533c0,14.138-11.462,25.6-25.6,25.6s-25.6-11.461-25.6-25.6    V332.699c0-4.713-3.82-8.533-8.533-8.533s-8.533,3.821-8.533,8.533v136.533c0,23.564,19.102,42.667,42.667,42.667    s42.667-19.102,42.667-42.667V332.699C298.616,327.986,294.796,324.166,290.083,324.166z"/>
	</g>
</g>
<g>
	<g>
		<path d="M298.28,248.381c-1.323-4.523-6.063-7.117-10.586-5.794c-20.781,5.895-42.792,5.895-63.573,0    c-0.855-0.24-1.741-0.346-2.629-0.313c-4.71,0.176-8.385,4.136-8.209,8.846v38.912c0,4.713,3.82,8.533,8.533,8.533    s8.533-3.82,8.533-8.533v-28.075c16.907,3.3,34.293,3.3,51.2,0v36.608c0,4.713,3.82,8.533,8.533,8.533s8.533-3.82,8.533-8.533    v-47.445C298.654,250.195,298.54,249.27,298.28,248.381z"/>
	</g>
</g>
<g>
	<g>
		<path d="M349.816,315.633v153.6c0,14.138-11.462,25.6-25.6,25.6c-14.138,0-25.6-11.461-25.6-25.6V332.699H281.55v136.533    c0,23.564,19.102,42.667,42.667,42.667c23.564,0,42.667-19.102,42.667-42.667v-153.6H349.816z"/>
	</g>
</g>
<g>
	<g>
		<path d="M363.109,194.184c-3.912-2.629-9.214-1.589-11.842,2.323c-15.168,22.305-37.656,38.605-63.573,46.08    c-3.765,1.095-6.3,4.615-6.144,8.533v47.445c0,4.713,3.82,8.533,8.533,8.533s8.533-3.82,8.533-8.533v-41.131    c19.306-6.618,36.826-17.598,51.2-32.085v39.083c0,4.713,3.821,8.533,8.533,8.533c4.713,0,8.533-3.82,8.533-8.533v-63.147    C366.889,198.437,365.474,195.773,363.109,194.184z"/>
	</g>
</g>
<g>
	<g>
		<path d="M429.082,174.566c-12.113-20.213-38.318-26.779-58.53-14.666c-1.78,1.115-3.086,2.846-3.669,4.864    c-3.494,11.446-8.764,22.273-15.616,32.085c-0.949,1.413-1.454,3.077-1.451,4.779v54.272c0,4.713,3.82,8.533,8.533,8.533    s8.533-3.82,8.533-8.533v-51.712c6.334-9.706,11.356-20.208,14.933-31.232c9.732-4.444,21.201-2.368,28.757,5.205    c4.83,4.743,7.538,11.236,7.509,18.005v273.067c0,14.138-11.462,25.6-25.6,25.6c-14.138,0-25.6-11.461-25.6-25.6V298.566    c0-4.713-3.82-8.533-8.533-8.533s-8.533,3.82-8.533,8.533v170.667c0,23.564,19.102,42.667,42.667,42.667    c23.564,0,42.667-19.102,42.667-42.667V196.166C435.09,188.553,432.996,181.095,429.082,174.566z"/>
	</g>
</g>
<g>
	<g>
		<path d="M85.283,435.099H51.15c-4.713,0-8.533,3.82-8.533,8.533s3.82,8.533,8.533,8.533h34.133c4.713,0,8.533-3.82,8.533-8.533    S89.996,435.099,85.283,435.099z"/>
	</g>
</g>
<g>
	<g>
		<path d="M460.75,400.966c-4.713,0-8.533,3.82-8.533,8.533v17.067c0,4.713-3.82,8.533-8.533,8.533h-17.067    c-4.713,0-8.533,3.82-8.533,8.533s3.82,8.533,8.533,8.533h17.067c14.138,0,25.6-11.461,25.6-25.6v-17.067    C469.283,404.786,465.462,400.966,460.75,400.966z"/>
	</g>
</g>
<g>
	<g>
		<path d="M383.182,94.975c-20.615-70.08-94.137-110.179-164.217-89.565S108.786,99.547,129.4,169.627    c3.757,13.067,9.514,25.473,17.067,36.779c24.586,36.332,65.614,58.077,109.483,58.027c12.355,0.031,24.652-1.693,36.523-5.12    c43.59-12.405,77.81-46.239,90.709-89.685C390.35,145.259,390.35,119.343,383.182,94.975z M366.883,164.763    c-3.47,11.44-8.711,22.266-15.531,32.085c-27.958,41.239-79.259,59.831-127.147,46.08c-49.475-14.144-83.57-59.385-83.535-110.842    c0.044-63.623,51.656-115.165,115.279-115.121c11.115-0.032,22.176,1.544,32.84,4.679    C349.875,39.601,384.839,103.677,366.883,164.763z"/>
	</g>
</g>
<g>
	<g>
		<path d="M255.95,34.033c-4.713,0-8.533,3.82-8.533,8.533v174.933c0,4.713,3.82,8.533,8.533,8.533s8.533-3.82,8.533-8.533V42.566    C264.483,37.853,260.662,34.033,255.95,34.033z"/>
	</g>
</g>
<g>
	<g>
		<path d="M260.728,61.339l-25.6-17.067c-4.029-2.639-9.435-1.512-12.075,2.517s-1.512,9.435,2.517,12.075l25.6,17.067    c1.413,0.949,3.077,1.454,4.779,1.451c3.437,0.322,6.73-1.46,8.342-4.513C266.491,68.701,264.896,63.539,260.728,61.339z"/>
	</g>
</g>
<g>
	<g>
		<path d="M288.574,46.773c-2.71-3.856-8.033-4.784-11.888-2.074l-25.6,17.067c-2.39,1.606-3.81,4.309-3.774,7.189    c0.058,4.712,3.926,8.486,8.638,8.427c1.711-0.021,3.376-0.557,4.779-1.536l25.6-17.067c0.058-0.039,0.115-0.078,0.172-0.118    C290.356,55.951,291.284,50.628,288.574,46.773z"/>
	</g>
</g>
<g>
	<g>
		<path d="M262.974,186.633c-2.711-3.855-8.033-4.783-11.889-2.073l-25.6,17.067c-2.39,1.606-3.81,4.309-3.774,7.189    c0.058,4.712,3.926,8.486,8.638,8.427c1.711-0.021,3.376-0.557,4.779-1.536l25.6-17.067c0.058-0.039,0.116-0.078,0.173-0.118    C264.757,195.812,265.685,190.489,262.974,186.633z"/>
	</g>
</g>
<g>
	<g>
		<path d="M286.414,201.713l-25.6-17.067c-0.057-0.04-0.115-0.08-0.173-0.118c-3.921-2.615-9.219-1.556-11.834,2.364    c-2.615,3.921-1.556,9.219,2.364,11.834l25.6,17.067c1.413,0.949,3.077,1.455,4.779,1.451c2.781-0.007,5.385-1.368,6.977-3.649    C291.224,209.73,290.278,204.41,286.414,201.713z"/>
	</g>
</g>
<g>
	<g>
		<path d="M341.283,121.499H170.616c-4.713,0-8.533,3.82-8.533,8.533s3.82,8.533,8.533,8.533h170.667    c4.713,0,8.533-3.82,8.533-8.533S345.996,121.499,341.283,121.499z"/>
	</g>
</g>
<g>
	<g>
		<path d="M201.083,125.782c-3.766-2.833-9.116-2.076-11.949,1.69l-17.067,25.6c-0.909,1.381-1.398,2.996-1.407,4.649    c-0.024,4.713,3.776,8.553,8.489,8.577c2.838,0.004,5.493-1.403,7.083-3.755l17.067-25.6    C205.511,133.202,204.557,128.395,201.083,125.782z"/>
	</g>
</g>
<g>
	<g>
		<path d="M203.299,127.387l-17.067-25.6c-0.161-0.272-0.336-0.534-0.526-0.787c-2.833-3.766-8.183-4.523-11.949-1.69    c-3.766,2.833-4.523,8.183-1.69,11.949l17.067,25.6c1.57,2.384,4.228,3.825,7.083,3.84c1.708,0.003,3.377-0.507,4.792-1.464    C204.912,136.596,205.938,131.292,203.299,127.387z"/>
	</g>
</g>
<g>
	<g>
		<path d="M339.832,152.987l-17.067-25.6c-0.161-0.272-0.336-0.534-0.526-0.787c-2.833-3.766-8.183-4.523-11.949-1.69    c-3.766,2.833-4.523,8.183-1.69,11.949l17.067,25.6c1.57,2.384,4.228,3.825,7.083,3.84c1.708,0.003,3.377-0.507,4.792-1.464    C341.446,162.196,342.471,156.892,339.832,152.987z"/>
	</g>
</g>
<g>
	<g>
		<path d="M337.616,100.182c-3.766-2.833-9.116-2.076-11.949,1.69l-17.067,25.6c-0.909,1.381-1.398,2.996-1.407,4.649    c-0.024,4.713,3.776,8.553,8.489,8.577c2.838,0.004,5.493-1.403,7.083-3.755l17.067-25.6    C342.044,107.602,341.09,102.795,337.616,100.182z"/>
	</g>
</g>
<g>
	<g>
		<g>
			<path d="M298.616,182.342c-0.014,0-0.028-0.002-0.042-0.002c-0.015,0-0.029,0.002-0.043,0.002H298.616z"/>
			<path d="M304.675,167.835l-85.333-87.467c-3.299-3.37-8.705-3.427-12.075-0.128c-3.37,3.299-3.427,8.705-0.128,12.075     l85.333,87.467c1.607,1.64,3.807,2.56,6.102,2.558c2.235,0.002,4.383-0.872,5.98-2.437     C307.92,176.603,307.974,171.201,304.675,167.835z"/>
		</g>
	</g>
</g>
<g>
	<g>
		<path d="M304.547,80.24c-3.37-3.299-8.776-3.242-12.075,0.128l-85.333,87.467c-1.576,1.608-2.453,3.773-2.439,6.024    c0.028,4.713,3.871,8.511,8.583,8.483c2.28-0.01,4.462-0.931,6.059-2.56l85.333-87.467    C307.974,88.946,307.917,83.54,304.547,80.24z"/>
	</g>
</g>
<g>
</g>
<g>
</g>
<g>
</g>
<g>
</g>
<g>
</g>
<g>
</g>
<g>
</g>
<g>
</g>
<g>
</g>
<g>
</g>
<g>
</g>
<g>
</g>
<g>
</g>
<g>
</g>
<g>
</g>
</svg>
