<?xml version="1.0" encoding="iso-8859-1"?>
<!-- Generator: Adobe Illustrator 19.0.0, SVG Export Plug-In . SVG Version: 6.00 Build 0)  -->
<svg xmlns="http://www.w3.org/2000/svg" xmlns:xlink="http://www.w3.org/1999/xlink" version="1.1" id="Layer_1" x="0px" y="0px" viewBox="0 0 511.899 511.899" style="enable-background:new 0 0 511.899 511.899;" xml:space="preserve">
<g>
	<g>
		<path d="M153.55,272.966c4.713,0,8.533-3.82,8.533-8.533v-62.805c0.004-1.702-0.501-3.366-1.451-4.779    c-6.689-9.816-11.813-20.612-15.189-32c-0.58-1.973-1.853-3.67-3.584-4.779c-6.696-4.298-14.486-6.579-22.443-6.571    c-23.564,0-42.667,19.102-42.667,42.667v273.067c0,23.564,19.103,42.667,42.667,42.667s42.667-19.102,42.667-42.667V298.566    c0-4.713-3.821-8.533-8.533-8.533c-4.713,0-8.533,3.82-8.533,8.533v170.667c0,14.138-11.461,25.6-25.6,25.6    s-25.6-11.461-25.6-25.6V196.166c0-14.138,11.461-25.6,25.6-25.6c3.692-0.032,7.341,0.785,10.667,2.389    c3.589,11.02,8.61,21.52,14.933,31.232v60.245C145.016,269.145,148.837,272.966,153.55,272.966z"/>
	</g>
</g>
<g>
	<g>
		<path d="M221.816,332.699c-4.713,0-8.533,3.821-8.533,8.533v128c0,14.138-11.462,25.6-25.6,25.6s-25.6-11.461-25.6-25.6V298.566    c0-4.713-3.821-8.533-8.533-8.533c-4.713,0-8.533,3.82-8.533,8.533v170.667c0,23.564,19.103,42.667,42.667,42.667    s42.667-19.102,42.667-42.667v-128C230.35,336.52,226.529,332.699,221.816,332.699z"/>
	</g>
</g>
<g>
	<g>
		<path d="M224.206,242.929c-25.917-7.475-48.406-23.775-63.573-46.08c-1.589-2.365-4.253-3.78-7.102-3.774    c-4.713,0.011-8.525,3.84-8.514,8.552v62.805c0,4.713,3.821,8.533,8.533,8.533c4.713,0,8.533-3.82,8.533-8.533v-39.168    c14.374,14.488,31.894,25.467,51.2,32.085v41.216c0,4.713,3.82,8.533,8.533,8.533s8.533-3.82,8.533-8.533v-47.104    C230.506,247.544,227.971,244.023,224.206,242.929z"/>
	</g>
</g>
<g>
	<g>
		<path d="M290.083,324.166c-4.713,0-8.533,3.821-8.533,8.533v136.533c0,14.138-11.462,25.6-25.6,25.6s-25.6-11.461-25.6-25.6    V332.699c0-4.713-3.82-8.533-8.533-8.533s-8.533,3.821-8.533,8.533v136.533c0,23.564,19.102,42.667,42.667,42.667    s42.667-19.102,42.667-42.667V332.699C298.616,327.986,294.796,324.166,290.083,324.166z"/>
	</g>
</g>
<g>
	<g>
		<path d="M298.28,248.381c-1.323-4.523-6.063-7.117-10.586-5.794c-20.781,5.895-42.792,5.895-63.573,0    c-0.855-0.24-1.741-0.346-2.629-0.313c-4.71,0.176-8.385,4.136-8.209,8.846v38.912c0,4.713,3.82,8.533,8.533,8.533    s8.533-3.82,8.533-8.533v-28.075c16.907,3.3,34.293,3.3,51.2,0v36.608c0,4.713,3.82,8.533,8.533,8.533s8.533-3.82,8.533-8.533    v-47.445C298.654,250.195,298.54,249.27,298.28,248.381z"/>
	</g>
</g>
<g>
	<g>
		<path d="M349.816,315.633v153.6c0,14.138-11.462,25.6-25.6,25.6c-14.138,0-25.6-11.461-25.6-25.6V332.699H281.55v136.533    c0,23.564,19.102,42.667,42.667,42.667c23.564,0,42.667-19.102,42.667-42.667v-153.6H349.816z"/>
	</g>
</g>
<g>
	<g>
		<path d="M363.109,194.184c-3.912-2.629-9.214-1.589-11.842,2.323c-15.168,22.305-37.656,38.605-63.573,46.08    c-3.765,1.095-6.3,4.615-6.144,8.533v47.445c0,4.713,3.82,8.533,8.533,8.533s8.533-3.82,8.533-8.533v-41.131    c19.306-6.618,36.826-17.598,51.2-32.085v39.083c0,4.713,3.821,8.533,8.533,8.533c4.713,0,8.533-3.82,8.533-8.533v-63.147    C366.889,198.437,365.474,195.773,363.109,194.184z"/>
	</g>
</g>
<g>
	<g>
		<path d="M429.082,174.566c-12.113-20.213-38.318-26.779-58.53-14.666c-1.78,1.115-3.086,2.846-3.669,4.864    c-3.494,11.446-8.764,22.273-15.616,32.085c-0.949,1.413-1.454,3.077-1.451,4.779v54.272c0,4.713,3.82,8.533,8.533,8.533    s8.533-3.82,8.533-8.533v-51.712c6.334-9.706,11.356-20.208,14.933-31.232c9.732-4.444,21.201-2.368,28.757,5.205    c4.83,4.743,7.538,11.236,7.509,18.005v273.067c0,14.138-11.462,25.6-25.6,25.6c-14.138,0-25.6-11.461-25.6-25.6V298.566    c0-4.713-3.82-8.533-8.533-8.533s-8.533,3.82-8.533,8.533v170.667c0,23.564,19.102,42.667,42.667,42.667    c23.564,0,42.667-19.102,42.667-42.667V196.166C435.09,188.553,432.996,181.095,429.082,174.566z"/>
	</g>
</g>
<g>
	<g>
		<path d="M85.283,435.099H51.15c-4.713,0-8.533,3.82-8.533,8.533s3.82,8.533,8.533,8.533h34.133c4.713,0,8.533-3.82,8.533-8.533    S89.996,435.099,85.283,435.099z"/>
	</g>
</g>
<g>
	<g>
		<path d="M460.75,400.966c-4.713,0-8.533,3.82-8.533,8.533v17.067c0,4.713-3.82,8.533-8.533,8.533h-17.067    c-4.713,0-8.533,3.82-8.533,8.533s3.82,8.533,8.533,8.533h17.067c14.138,0,25.6-11.461,25.6-25.6v-17.067    C469.283,404.786,465.462,400.966,460.75,400.966z"/>
	</g>
</g>
<g>
	<g>
		<path d="M303.31,124.059c-3.718-6.973-8.595-13.264-14.421-18.603c-9.772-9.669-15.246-22.861-15.189-36.608v-1.877    c0.158-4.515,0.904-8.99,2.219-13.312c0.686-2.219,0.437-4.623-0.688-6.655c-2.284-4.123-7.477-5.613-11.6-3.329    c-20.398,11.255-33.722,32.06-35.413,55.296c-1.652-0.112-3.296,0.306-4.693,1.195c-16.858,10.179-27.176,28.424-27.21,48.116    c-0.054,31.105,25.118,56.363,56.223,56.417c23.851-0.035,45.103-15.068,53.077-37.547    C310.579,153.049,309.75,137.553,303.31,124.059z M291.79,148.55c-0.047,21.632-17.621,39.13-39.253,39.082    c-9.444-0.02-18.564-3.444-25.687-9.644c-16.33-14.214-18.064-38.959-3.894-55.312c3.834,9.319,10.591,17.142,19.256,22.29    c3.464,3.205,8.87,2.995,12.075-0.469c3.205-3.464,2.995-8.87-0.469-12.075c-11.042-16.765-11.441-38.391-1.024-55.552    c1.187-1.959,2.498-3.84,3.925-5.632c0.583,17.393,7.787,33.906,20.139,46.165c4.433,3.999,8.181,8.698,11.093,13.909    c2.562,5.323,3.875,11.16,3.84,17.067C291.79,148.436,291.79,148.493,291.79,148.55z"/>
	</g>
</g>
<g>
	<g>
		<path d="M383.182,94.975c-20.615-70.08-94.137-110.179-164.217-89.565S108.786,99.547,129.4,169.627    c3.757,13.067,9.514,25.473,17.067,36.779c24.586,36.332,65.614,58.077,109.483,58.027c12.355,0.031,24.652-1.693,36.523-5.12    c43.59-12.405,77.81-46.239,90.709-89.685C390.35,145.259,390.35,119.343,383.182,94.975z M366.883,164.763    c-3.47,11.44-8.711,22.266-15.531,32.085c-27.958,41.239-79.259,59.831-127.147,46.08c-49.475-14.144-83.57-59.385-83.535-110.842    c0.044-63.623,51.656-115.165,115.279-115.121c11.115-0.032,22.176,1.544,32.84,4.679    C349.875,39.601,384.839,103.677,366.883,164.763z"/>
	</g>
</g>
<g>
</g>
<g>
</g>
<g>
</g>
<g>
</g>
<g>
</g>
<g>
</g>
<g>
</g>
<g>
</g>
<g>
</g>
<g>
</g>
<g>
</g>
<g>
</g>
<g>
</g>
<g>
</g>
<g>
</g>
</svg>
