<?xml version="1.0" encoding="iso-8859-1"?>
<!-- Generator: Adobe Illustrator 19.0.0, SVG Export Plug-In . SVG Version: 6.00 Build 0)  -->
<svg xmlns="http://www.w3.org/2000/svg" xmlns:xlink="http://www.w3.org/1999/xlink" version="1.1" id="Layer_1" x="0px" y="0px" viewBox="0 0 512.478 512.478" style="enable-background:new 0 0 512.478 512.478;" xml:space="preserve">
<g>
	<g>
		<path d="M418.372,119.944h-42.667c-4.713,0-8.533,3.82-8.533,8.533c0.077,23.537-7.334,46.489-21.163,65.536    c-34.19,46.651-98.484,59.205-147.712,28.843c-3.571-2.228-7.018-4.65-10.325-7.253c-7.987-6.186-15.105-13.419-21.163-21.504    c-13.967-19.029-21.5-42.017-21.504-65.621c0-4.713-3.82-8.533-8.533-8.533H94.105c-14.139,0-25.6,11.461-25.6,25.6v341.333    c0,14.138,11.461,25.6,25.6,25.6h324.267c14.138,0,25.6-11.462,25.6-25.6V145.544    C443.972,131.406,432.511,119.944,418.372,119.944z M426.905,486.878c0,4.713-3.82,8.533-8.533,8.533H94.105    c-4.713,0-8.533-3.82-8.533-8.533V145.544c0-4.713,3.82-8.533,8.533-8.533h34.133c1.827,24.259,10.529,47.496,25.088,66.987    c6.876,9.315,14.97,17.667,24.064,24.832c3.792,3.063,7.752,5.911,11.861,8.533c41.217,25.447,93.268,25.447,134.485,0    c14.003-8.678,26.224-19.943,36.011-33.195c14.376-19.606,22.87-42.9,24.491-67.157h34.133c4.713,0,8.533,3.82,8.533,8.533    V486.878z"/>
	</g>
</g>
<g>
	<g>
		<rect x="77.039" y="239.411" width="349.867" height="17.067"/>
	</g>
</g>
<g>
	<g>
		<rect x="77.039" y="444.211" width="349.867" height="17.067"/>
	</g>
</g>
<g>
	<g>
		<path d="M167.151,194.099c-7.563-10.09-13.336-21.405-17.067-33.451c-0.913-3.007-3.404-5.269-6.485-5.888    c-2.224-0.452-4.488-0.68-6.758-0.683c-18.851-0.019-34.149,15.248-34.168,34.099s15.248,34.149,34.099,34.168    c13.373,0.115,25.582-7.59,31.232-19.712C169.273,199.841,168.948,196.583,167.151,194.099z M136.772,205.278    c-9.426,0.33-17.334-7.044-17.664-16.469s7.044-17.334,16.469-17.664c3.503,9.963,8.233,19.451,14.08,28.245    C146.418,203.126,141.717,205.274,136.772,205.278z"/>
	</g>
</g>
<g>
	<g>
		<path d="M410.032,180.71c-4.151-18.389-22.423-29.931-40.812-25.78c-3.081,0.619-5.573,2.881-6.485,5.888    c-3.731,12.045-9.504,23.36-17.067,33.451c-1.797,2.485-2.123,5.742-0.853,8.533c5.648,11.943,17.68,19.554,30.891,19.541    c2.872,0.087,5.744-0.19,8.547-0.822C402.641,217.371,414.183,199.099,410.032,180.71z M375.705,205.278    c-4.945-0.003-9.646-2.151-12.885-5.888c5.847-8.794,10.577-18.282,14.08-28.245c9.426,0.33,16.799,8.238,16.469,17.664    S385.131,205.607,375.705,205.278z"/>
	</g>
</g>
<g>
	<g>
		<path d="M150.616,93.967c-0.204-4.708-4.186-8.36-8.894-8.156h-22.016c-14.138,0-25.6,11.462-25.6,25.6v17.067    c0,4.713,3.82,8.533,8.533,8.533h34.133c4.713,0,8.533-3.82,8.533-8.533c0.099-10.738,1.767-21.403,4.949-31.659    C150.536,95.896,150.658,94.931,150.616,93.967z M128.239,119.944h-17.067v-8.533c0-4.713,3.82-8.533,8.533-8.533h10.837    C129.393,108.508,128.623,114.21,128.239,119.944z"/>
	</g>
</g>
<g>
	<g>
		<path d="M392.772,85.811h-21.675c-0.964-0.042-1.928,0.08-2.852,0.361c-4.509,1.371-7.053,6.138-5.682,10.647    c3.067,10.273,4.619,20.938,4.608,31.659c0,4.713,3.82,8.533,8.533,8.533h34.133c4.713,0,8.533-3.82,8.533-8.533v-17.067    C418.372,97.272,406.911,85.811,392.772,85.811z M401.305,119.944h-17.067c-0.468-5.74-1.324-11.442-2.56-17.067h11.093    c4.713,0,8.533,3.82,8.533,8.533V119.944z"/>
	</g>
</g>
<g>
	<g>
		<path d="M392.772,273.544H119.705c-9.426,0-17.067,7.641-17.067,17.067v119.467c0,9.426,7.641,17.067,17.067,17.067h273.067    c9.426,0,17.067-7.641,17.067-17.067V290.611C409.839,281.185,402.198,273.544,392.772,273.544z M392.772,410.078H119.705V290.611    h273.067V410.078z"/>
	</g>
</g>
<g>
	<g>
		<path d="M232.004,355.208l1.28-2.133c1.966-3.333,3.459-6.923,4.437-10.667c1.612-6.212,1.612-12.732,0-18.944    c-1.111-4.791-3.366-9.241-6.571-12.971c-3.086-3.027-7.948-3.269-11.319-0.562c-3.675,2.951-4.261,8.322-1.31,11.997    c1.304,1.649,2.209,3.576,2.645,5.632c0.889,3.413,0.889,6.997,0,10.411c-0.581,2.219-1.471,4.345-2.645,6.315l-1.109,1.792    c-1.494,2.268-2.779,4.668-3.84,7.168c-4.142,11.856-2.567,24.962,4.267,35.499c1.53,2.651,4.363,4.279,7.424,4.267    c1.458,0.022,2.898-0.331,4.181-1.024c4.063-2.343,5.473-7.527,3.157-11.605c-4.012-6.128-5.135-13.708-3.072-20.736    C230.228,358.099,231.055,356.615,232.004,355.208z"/>
	</g>
</g>
<g>
	<g>
		<path d="M300.271,355.208l1.28-2.133c1.966-3.333,3.459-6.923,4.437-10.667c1.612-6.212,1.612-12.732,0-18.944    c-1.111-4.791-3.366-9.241-6.571-12.971c-0.211-0.263-0.437-0.513-0.678-0.748c-3.364-3.3-8.767-3.249-12.067,0.116    c-3.3,3.364-3.249,8.767,0.116,12.067c1.304,1.649,2.209,3.576,2.645,5.632c0.889,3.413,0.889,6.997,0,10.411    c-0.581,2.219-1.471,4.345-2.645,6.315l-1.109,1.792c-1.494,2.268-2.779,4.668-3.84,7.168    c-4.142,11.856-2.567,24.962,4.267,35.499c1.53,2.651,4.363,4.279,7.424,4.267c1.458,0.022,2.898-0.331,4.181-1.024    c4.063-2.343,5.473-7.527,3.157-11.605c-4.012-6.128-5.135-13.708-3.072-20.736C298.494,358.099,299.322,356.615,300.271,355.208z    "/>
	</g>
</g>
<g>
	<g>
		<path d="M266.137,355.208l1.28-2.133c1.966-3.333,3.459-6.923,4.437-10.667c1.612-6.212,1.612-12.732,0-18.944    c-1.111-4.791-3.366-9.241-6.571-12.971c-3.086-3.027-7.948-3.269-11.319-0.562c-3.675,2.951-4.261,8.322-1.31,11.997    c1.304,1.649,2.209,3.576,2.645,5.632c0.889,3.413,0.889,6.997,0,10.411c-0.581,2.219-1.471,4.345-2.645,6.315l-1.109,1.792    c-1.494,2.268-2.779,4.668-3.84,7.168c-4.142,11.856-2.567,24.962,4.267,35.499c1.53,2.651,4.363,4.279,7.424,4.267    c1.458,0.022,2.898-0.331,4.181-1.024c4.063-2.343,5.473-7.527,3.157-11.605c-4.012-6.128-5.135-13.708-3.072-20.736    C264.361,358.099,265.189,356.615,266.137,355.208z"/>
	</g>
</g>
<g>
	<g>
		<path d="M378.948,91.614c-12.319-41.505-44.784-73.971-86.289-86.289c-67.77-20.114-139.015,18.519-159.129,86.289    c-11.461,38.454-4.227,80.056,19.541,112.384c6.876,9.315,14.97,17.667,24.064,24.832c3.792,3.063,7.752,5.911,11.861,8.533    c20.19,12.525,43.483,19.147,67.243,19.115c23.76,0.036,47.055-6.585,67.243-19.115c14.003-8.678,26.224-19.943,36.011-33.195    C383.286,171.784,390.491,130.106,378.948,91.614z M346.009,194.014c-34.19,46.651-98.484,59.205-147.712,28.843    c-3.571-2.228-7.018-4.65-10.325-7.253c-7.987-6.186-15.105-13.419-21.163-21.504c-13.967-19.029-21.5-42.017-21.504-65.621    c0-61.267,49.667-110.933,110.933-110.933c49.167-0.016,92.553,32.143,106.837,79.189    C372.932,130.044,366.616,166.048,346.009,194.014z"/>
	</g>
</g>
<g>
	<g>
		<path d="M256.239,85.811c-23.564,0-42.667,19.103-42.667,42.667s19.102,42.667,42.667,42.667s42.667-19.103,42.667-42.667    S279.803,85.811,256.239,85.811z M256.239,154.078c-14.138,0-25.6-11.462-25.6-25.6s11.461-25.6,25.6-25.6    c14.138,0,25.6,11.461,25.6,25.6S270.377,154.078,256.239,154.078z"/>
	</g>
</g>
<g>
	<g>
		<path d="M256.239,36.147c-4.713,0-8.533,3.821-8.533,8.533v49.664c0,4.713,3.82,8.533,8.533,8.533c4.713,0,8.533-3.82,8.533-8.533    V44.68C264.772,39.967,260.952,36.147,256.239,36.147z"/>
	</g>
</g>
<g>
	<g>
		<path d="M310.425,170.718l-22.613-22.613c-3.195-2.736-7.906-2.736-11.101,0c-3.58,3.065-3.996,8.452-0.931,12.032l22.613,22.613    c1.61,1.597,3.79,2.488,6.059,2.475l-0.085,0.085c2.293,0.013,4.494-0.896,6.108-2.524    C313.794,179.439,313.772,174.036,310.425,170.718z"/>
	</g>
</g>
<g>
</g>
<g>
</g>
<g>
</g>
<g>
</g>
<g>
</g>
<g>
</g>
<g>
</g>
<g>
</g>
<g>
</g>
<g>
</g>
<g>
</g>
<g>
</g>
<g>
</g>
<g>
</g>
<g>
</g>
</svg>
