<?xml version="1.0" encoding="iso-8859-1"?>
<!-- Generator: Adobe Illustrator 19.0.0, SVG Export Plug-In . SVG Version: 6.00 Build 0)  -->
<svg xmlns="http://www.w3.org/2000/svg" xmlns:xlink="http://www.w3.org/1999/xlink" version="1.1" id="Layer_1" x="0px" y="0px" viewBox="0 0 512.48 512.48" style="enable-background:new 0 0 512.48 512.48;" xml:space="preserve">
<g>
	<g>
		<path d="M418.373,119.947h-42.667c-4.713,0-8.533,3.82-8.533,8.533c0.077,23.537-7.334,46.489-21.163,65.536    c-34.19,46.651-98.484,59.205-147.712,28.843c-3.572-2.226-7.019-4.648-10.325-7.253c-7.987-6.187-15.105-13.419-21.163-21.504    c-13.967-19.029-21.5-42.017-21.504-65.621c0-4.713-3.82-8.533-8.533-8.533H94.107c-14.139,0-25.6,11.461-25.6,25.6V486.88    c0,14.138,11.461,25.6,25.6,25.6h324.267c14.138,0,25.6-11.461,25.6-25.6V145.547    C443.973,131.408,432.512,119.947,418.373,119.947z M426.907,486.88c0,4.713-3.82,8.533-8.533,8.533H94.107    c-4.713,0-8.533-3.82-8.533-8.533V145.547c0-4.713,3.82-8.533,8.533-8.533h34.133c1.827,24.259,10.529,47.496,25.088,66.987    c6.877,9.314,14.97,17.666,24.064,24.832c3.794,3.061,7.753,5.909,11.861,8.533c41.217,25.447,93.268,25.447,134.485,0    c13.998-8.684,26.218-19.949,36.011-33.195c14.376-19.606,22.87-42.9,24.491-67.157h34.133c4.713,0,8.533,3.82,8.533,8.533V486.88    z"/>
	</g>
</g>
<g>
	<g>
		<rect x="77.04" y="239.413" width="349.867" height="17.067"/>
	</g>
</g>
<g>
	<g>
		<rect x="77.04" y="444.213" width="349.867" height="17.067"/>
	</g>
</g>
<g>
	<g>
		<path d="M167.152,194.101c-7.561-10.091-13.334-21.406-17.067-33.451c-0.913-3.007-3.404-5.269-6.485-5.888    c-2.247-0.456-4.534-0.685-6.827-0.683c-18.851,0-34.133,15.282-34.133,34.133s15.282,34.133,34.133,34.133    c13.373,0.115,25.582-7.59,31.232-19.712C169.275,199.844,168.949,196.586,167.152,194.101z M136.773,205.28    c-9.426,0.33-17.334-7.044-17.664-16.469s7.044-17.334,16.469-17.664c3.501,9.964,8.231,19.452,14.08,28.245    C146.42,203.129,141.719,205.277,136.773,205.28z"/>
	</g>
</g>
<g>
	<g>
		<path d="M375.707,154.08c-2.156,0.082-4.298,0.367-6.4,0.853c-3.081,0.619-5.573,2.881-6.485,5.888    c-3.733,12.045-9.505,23.359-17.067,33.451c-1.797,2.485-2.123,5.742-0.853,8.533c5.634,11.915,17.625,19.521,30.805,19.541    c18.851,0,34.133-15.282,34.133-34.133S394.558,154.08,375.707,154.08z M375.707,205.28c-4.945-0.003-9.646-2.151-12.885-5.888    c5.849-8.793,10.579-18.282,14.08-28.245c9.426,0.33,16.799,8.238,16.469,17.664S385.132,205.61,375.707,205.28z"/>
	</g>
</g>
<g>
	<g>
		<path d="M150.617,93.97c-0.204-4.708-4.186-8.36-8.894-8.156h-22.016c-14.138,0-25.6,11.462-25.6,25.6v17.067    c0,4.713,3.82,8.533,8.533,8.533h34.133c4.713,0,8.533-3.82,8.533-8.533c0.102-10.737,1.769-21.403,4.949-31.659    C150.537,95.898,150.659,94.934,150.617,93.97z M128.24,119.947h-17.067v-8.533c0-4.713,3.82-8.533,8.533-8.533h10.837    C129.394,108.511,128.624,114.213,128.24,119.947z"/>
	</g>
</g>
<g>
	<g>
		<path d="M392.773,85.813h-21.675c-0.964-0.042-1.928,0.08-2.852,0.361c-4.509,1.371-7.053,6.138-5.682,10.647    c3.065,10.273,4.617,20.938,4.608,31.659c0,4.713,3.82,8.533,8.533,8.533h34.133c4.713,0,8.533-3.82,8.533-8.533v-17.067    C418.373,97.275,406.912,85.813,392.773,85.813z M401.307,119.947H384.24c-0.468-5.74-1.324-11.442-2.56-17.067h11.093    c4.713,0,8.533,3.82,8.533,8.533V119.947z"/>
	</g>
</g>
<g>
	<g>
		<path d="M292.658,5.323c-67.771-20.113-139.015,18.522-159.128,86.293c-11.461,38.454-4.227,80.056,19.541,112.384    c6.877,9.314,14.97,17.666,24.064,24.832c3.794,3.061,7.753,5.909,11.861,8.533c20.19,12.525,43.483,19.147,67.243,19.115    c23.76,0.036,47.055-6.585,67.243-19.115c13.998-8.684,26.218-19.949,36.011-33.195c16.087-21.957,24.756-48.471,24.747-75.691    C384.438,71.649,347.141,21.493,292.658,5.323z M346.011,194.016c-34.19,46.651-98.484,59.205-147.712,28.843    c-3.572-2.226-7.019-4.648-10.325-7.253c-7.987-6.187-15.105-13.419-21.163-21.504c-13.967-19.029-21.5-42.017-21.504-65.621    c0-61.267,49.667-110.933,110.933-110.933c49.167-0.016,92.553,32.143,106.837,79.189    C372.933,130.046,366.617,166.05,346.011,194.016z"/>
	</g>
</g>
<g>
	<g>
		<path d="M260.763,171.147h-9.045c-11.641,0-21.077,9.437-21.077,21.077v9.045c0,11.641,9.437,21.077,21.077,21.077h9.045    c11.641,0,21.077-9.437,21.077-21.077v-9.045C281.84,180.583,272.403,171.147,260.763,171.147z M264.773,201.269    c0,2.215-1.796,4.011-4.011,4.011h-9.045c-2.215,0-4.011-1.796-4.011-4.011v-9.045c0-2.215,1.796-4.011,4.011-4.011h9.045    c2.215,0,4.011,1.796,4.011,4.011V201.269z"/>
	</g>
</g>
<g>
	<g>
		<path d="M286.363,48.352c-3.111-3.334-7.472-5.22-12.032-5.205h-36.181c-4.613,0.073-8.981,2.086-12.032,5.547    c-2.906,3.1-4.364,7.286-4.011,11.52l6.4,79.531c0.757,8.214,7.71,14.46,15.957,14.336h23.552    c8.129,0.14,15.036-5.917,15.957-13.995l6.4-79.872C290.827,55.864,289.363,51.534,286.363,48.352z M267.163,137.013h-21.589    l-6.4-76.8h34.133L267.163,137.013z"/>
	</g>
</g>
<g>
	<g>
		<path d="M392.773,273.547H119.707c-9.426,0-17.067,7.641-17.067,17.067V410.08c0,9.426,7.641,17.067,17.067,17.067h273.067    c9.426,0,17.067-7.641,17.067-17.067V290.613C409.84,281.188,402.199,273.547,392.773,273.547z M392.773,410.08H119.707V290.613    h273.067V410.08z"/>
	</g>
</g>
<g>
	<g>
		<path d="M232.005,354.955l1.28-2.048c1.962-3.335,3.455-6.924,4.437-10.667c1.6-6.213,1.6-12.731,0-18.944    c-1.111-4.791-3.366-9.241-6.571-12.971c-3.181-3.487-8.587-3.736-12.075-0.555c-3.487,3.181-3.736,8.587-0.555,12.075    c1.309,1.645,2.215,3.574,2.645,5.632c0.878,3.415,0.878,6.996,0,10.411c-0.577,2.247-1.468,4.401-2.645,6.4l-1.109,1.792    c-1.495,2.268-2.78,4.667-3.84,7.168c-4.129,11.858-2.555,24.957,4.267,35.499c1.53,2.651,4.363,4.279,7.424,4.267    c1.489-0.082,2.931-0.553,4.181-1.365c4.063-2.343,5.473-7.527,3.157-11.605c-3.997-6.102-5.12-13.649-3.072-20.651    C230.231,357.847,231.059,356.363,232.005,354.955z"/>
	</g>
</g>
<g>
	<g>
		<path d="M300.272,354.955l1.28-2.048c1.962-3.335,3.455-6.924,4.437-10.667c1.6-6.213,1.6-12.731,0-18.944    c-1.111-4.791-3.366-9.241-6.571-12.971c-3.181-3.487-8.587-3.736-12.075-0.555c-3.487,3.181-3.736,8.587-0.555,12.075    c1.309,1.645,2.215,3.574,2.645,5.632c0.878,3.415,0.878,6.996,0,10.411c-0.577,2.247-1.468,4.401-2.645,6.4l-1.109,1.792    c-1.495,2.268-2.78,4.667-3.84,7.168c-4.129,11.858-2.555,24.957,4.267,35.499c1.53,2.651,4.363,4.279,7.424,4.267    c1.489-0.082,2.931-0.553,4.181-1.365c4.063-2.343,5.473-7.527,3.157-11.605c-3.997-6.102-5.12-13.649-3.072-20.651    C298.498,357.847,299.326,356.363,300.272,354.955z"/>
	</g>
</g>
<g>
	<g>
		<path d="M266.139,354.955l1.28-2.048c1.962-3.335,3.455-6.924,4.437-10.667c1.6-6.213,1.6-12.731,0-18.944    c-1.111-4.791-3.366-9.241-6.571-12.971c-3.181-3.487-8.587-3.736-12.075-0.555c-3.488,3.181-3.736,8.587-0.555,12.075    c1.309,1.645,2.215,3.574,2.645,5.632c0.878,3.415,0.878,6.996,0,10.411c-0.577,2.247-1.468,4.401-2.645,6.4l-1.109,1.792    c-1.495,2.268-2.78,4.667-3.84,7.168c-4.129,11.858-2.555,24.957,4.267,35.499c1.53,2.651,4.363,4.279,7.424,4.267    c1.489-0.082,2.931-0.553,4.181-1.365c4.063-2.343,5.473-7.527,3.157-11.605c-3.997-6.102-5.12-13.649-3.072-20.651    C264.365,357.847,265.192,356.363,266.139,354.955z"/>
	</g>
</g>
<g>
</g>
<g>
</g>
<g>
</g>
<g>
</g>
<g>
</g>
<g>
</g>
<g>
</g>
<g>
</g>
<g>
</g>
<g>
</g>
<g>
</g>
<g>
</g>
<g>
</g>
<g>
</g>
<g>
</g>
</svg>
