<?xml version="1.0" encoding="iso-8859-1"?>
<!-- Generator: Adobe Illustrator 19.0.0, SVG Export Plug-In . SVG Version: 6.00 Build 0)  -->
<svg xmlns="http://www.w3.org/2000/svg" xmlns:xlink="http://www.w3.org/1999/xlink" version="1.1" id="Layer_1" x="0px" y="0px" viewBox="0 0 469.333 469.333" style="enable-background:new 0 0 469.333 469.333;" xml:space="preserve">
<g>
	<g>
		<path d="M452.267,225.579h-76.8c-7.277-9.703-15.897-18.323-25.6-25.6c-56.554-42.415-136.785-30.954-179.2,25.6H128    c-70.571,0-128,53.589-128,119.467v25.6c0,9.426,7.641,17.067,17.067,17.067h51.2c9.426,0,17.067-7.641,17.067-17.067v-25.6    c0-18.859,19.115-34.133,42.667-34.133h17.067c4.499,67.34,60.51,119.617,128,119.467c67.49,0.15,123.501-52.127,128-119.467h51.2    c9.426,0,17.067-7.641,17.067-17.067v-51.2C469.333,233.219,461.692,225.579,452.267,225.579z M452.267,293.845h-59.733    c-4.713,0-8.533,3.82-8.533,8.533c0,61.267-49.667,110.933-110.933,110.933s-110.933-49.667-110.933-110.933    c0-4.713-3.82-8.533-8.533-8.533H128c-32.939,0-59.733,22.955-59.733,51.2v25.6h-51.2v-25.6c0-56.491,49.749-102.4,110.933-102.4    h47.104c2.792-0.005,5.406-1.375,6.997-3.669c7.47-10.702,16.769-20.001,27.471-27.471    c50.239-35.067,119.393-22.768,154.46,27.471c1.592,2.294,4.205,3.665,6.997,3.669h81.237V293.845z"/>
	</g>
</g>
<g>
	<g>
		<path d="M307.2,140.245h-76.8c-4.713,0-8.533,3.82-8.533,8.533v42.667h17.067v-34.133h59.733v34.133h17.067v-42.667    C315.733,144.066,311.913,140.245,307.2,140.245z"/>
	</g>
</g>
<g>
	<g>
		<path d="M268.8,38.954c-16.495,0-29.867,13.372-29.867,29.867v71.424H256V68.821c0-7.069,5.731-12.8,12.8-12.8    c7.069,0,12.8,5.731,12.8,12.8v71.424h17.067V68.821C298.667,52.326,285.295,38.954,268.8,38.954z"/>
	</g>
</g>
<g>
	<g>
		<path d="M247.467,71.979h-34.133c-11.601-10.803-26.816-16.889-42.667-17.067C147.103,54.912,128,74.014,128,97.579    s19.103,42.667,42.667,42.667c15.851-0.178,31.065-6.264,42.667-17.067h34.133c4.713,0,8.533-3.82,8.533-8.533V80.512    C256,75.799,252.18,71.979,247.467,71.979z M238.933,106.112h-30.123c-3.061-0.012-5.894,1.616-7.424,4.267    c-3.755,6.315-19.2,12.8-30.72,12.8c-14.139,0-25.6-11.461-25.6-25.6s11.461-25.6,25.6-25.6c11.52,0,26.965,6.485,30.635,12.8    c1.53,2.651,4.363,4.279,7.424,4.267h30.208V106.112z"/>
	</g>
</g>
<g>
	<g>
		<path d="M366.933,54.912c-15.851,0.178-31.065,6.264-42.667,17.067h-34.133c-4.713,0-8.533,3.82-8.533,8.533v34.133    c0,4.713,3.821,8.533,8.533,8.533h34.133c11.601,10.803,26.816,16.889,42.667,17.067c23.564,0,42.667-19.103,42.667-42.667    S390.498,54.912,366.933,54.912z M367.019,123.178c-11.52,0-27.051-6.485-30.72-12.8c-1.53-2.651-4.363-4.279-7.424-4.267h-30.208    V89.045h30.208c3.061,0.012,5.894-1.616,7.424-4.267c3.755-6.315,19.2-12.8,30.72-12.8c14.138,0,25.6,11.461,25.6,25.6    S381.157,123.178,367.019,123.178z"/>
	</g>
</g>
<g>
	<g>
		<path d="M318.891,298.624c-3.717-6.974-8.593-13.265-14.421-18.603c-9.772-9.669-15.246-22.861-15.189-36.608v-1.877    c0.156-4.515,0.902-8.99,2.219-13.312c0.686-2.219,0.437-4.623-0.688-6.655c-2.284-4.123-7.477-5.613-11.6-3.329    c-10.503,5.78-19.325,14.19-25.6,24.405c-5.751,9.319-9.175,19.885-9.984,30.805c-1.651-0.106-3.294,0.312-4.693,1.195    c-16.858,10.179-27.176,28.424-27.21,48.117c-0.054,31.105,25.118,56.363,56.223,56.417c23.892,0.05,45.224-14.957,53.248-37.461    C326.169,327.615,325.341,312.115,318.891,298.624z M297.721,348.536c-14.207,16.375-38.999,18.133-55.374,3.926    c-16.375-14.207-18.133-38.998-3.926-55.374c3.824,9.353,10.595,17.202,19.285,22.357c3.511,3.181,8.936,2.914,12.117-0.597    c3.181-3.511,2.914-8.936-0.597-12.117c-11.042-16.765-11.441-38.391-1.024-55.552c1.184-1.961,2.496-3.842,3.925-5.632    c0.583,17.393,7.787,33.906,20.139,46.165c4.435,3.997,8.183,8.696,11.093,13.909C310.249,319.764,308.03,336.653,297.721,348.536    z"/>
	</g>
</g>
<g>
</g>
<g>
</g>
<g>
</g>
<g>
</g>
<g>
</g>
<g>
</g>
<g>
</g>
<g>
</g>
<g>
</g>
<g>
</g>
<g>
</g>
<g>
</g>
<g>
</g>
<g>
</g>
<g>
</g>
</svg>
