<?xml version="1.0" encoding="iso-8859-1"?>
<!-- Generator: Adobe Illustrator 19.0.0, SVG Export Plug-In . SVG Version: 6.00 Build 0)  -->
<svg xmlns="http://www.w3.org/2000/svg" xmlns:xlink="http://www.w3.org/1999/xlink" version="1.1" id="Layer_1" x="0px" y="0px" viewBox="0 0 469.333 469.333" style="enable-background:new 0 0 469.333 469.333;" xml:space="preserve">
<g>
	<g>
		<path d="M452.267,225.579h-76.8c-7.277-9.703-15.897-18.323-25.6-25.6c-56.554-42.415-136.785-30.954-179.2,25.6H128    c-70.571,0-128,53.589-128,119.467v25.6c0,9.426,7.641,17.067,17.067,17.067h51.2c9.426,0,17.067-7.641,17.067-17.067v-25.6    c0-18.859,19.115-34.133,42.667-34.133h17.067c4.499,67.34,60.51,119.617,128,119.467c67.49,0.15,123.501-52.127,128-119.467h51.2    c9.426,0,17.067-7.641,17.067-17.067v-51.2C469.333,233.219,461.692,225.579,452.267,225.579z M452.267,293.845h-59.733    c-4.713,0-8.533,3.82-8.533,8.533c0,61.267-49.667,110.933-110.933,110.933s-110.933-49.667-110.933-110.933    c0-4.713-3.82-8.533-8.533-8.533H128c-32.939,0-59.733,22.955-59.733,51.2v25.6h-51.2v-25.6c0-56.491,49.749-102.4,110.933-102.4    h47.104c2.792-0.005,5.406-1.375,6.997-3.669c7.47-10.702,16.769-20.001,27.471-27.471    c50.239-35.067,119.393-22.768,154.46,27.471c1.592,2.294,4.205,3.665,6.997,3.669h81.237V293.845z"/>
	</g>
</g>
<g>
	<g>
		<path d="M307.2,140.245h-76.8c-4.713,0-8.533,3.82-8.533,8.533v42.667h17.067v-34.133h59.733v34.133h17.067v-42.667    C315.733,144.066,311.913,140.245,307.2,140.245z"/>
	</g>
</g>
<g>
	<g>
		<path d="M268.8,38.954c-16.495,0-29.867,13.372-29.867,29.867v71.424H256V68.821c0-7.069,5.731-12.8,12.8-12.8    c7.069,0,12.8,5.731,12.8,12.8v71.424h17.067V68.821C298.667,52.326,285.295,38.954,268.8,38.954z"/>
	</g>
</g>
<g>
	<g>
		<path d="M273.067,208.512c-4.713,0-8.533,3.82-8.533,8.533v170.667c0,4.713,3.82,8.533,8.533,8.533s8.533-3.82,8.533-8.533    V217.045C281.6,212.332,277.78,208.512,273.067,208.512z"/>
	</g>
</g>
<g>
	<g>
		<path d="M277.845,235.563l-25.6-17.067c-0.252-0.19-0.515-0.365-0.787-0.526c-4.057-2.398-9.29-1.054-11.688,3.003    c-2.398,4.057-1.054,9.29,3.003,11.688l25.6,17.067c1.388,0.933,3.021,1.438,4.693,1.451c2.849,0.006,5.513-1.409,7.102-3.774    C282.797,243.493,281.757,238.191,277.845,235.563z"/>
	</g>
</g>
<g>
	<g>
		<path d="M305.837,220.186c-2.833-3.766-8.183-4.523-11.949-1.69l-25.6,17.067c-2.365,1.589-3.78,4.253-3.774,7.102    c0.011,4.713,3.84,8.525,8.552,8.514c1.673-0.013,3.305-0.518,4.693-1.451l25.6-17.067c0.272-0.161,0.534-0.336,0.787-0.526    C307.913,229.302,308.67,223.953,305.837,220.186z"/>
	</g>
</g>
<g>
	<g>
		<path d="M279.976,358.032c-2.398-4.057-7.631-5.401-11.688-3.003l-25.6,17.067c-2.365,1.589-3.78,4.253-3.774,7.102    c0.011,4.713,3.84,8.525,8.552,8.514c1.673-0.013,3.305-0.518,4.693-1.451l25.6-17.067    C281.234,366.581,282.189,361.774,279.976,358.032z"/>
	</g>
</g>
<g>
	<g>
		<path d="M303.445,372.096l-25.6-17.067c-0.252-0.19-0.515-0.365-0.787-0.526c-4.057-2.398-9.29-1.054-11.688,3.003    s-1.054,9.29,3.003,11.688l25.6,17.067c1.388,0.933,3.021,1.438,4.693,1.451c2.849,0.006,5.513-1.409,7.102-3.774    C308.397,380.026,307.357,374.725,303.445,372.096z"/>
	</g>
</g>
<g>
	<g>
		<path d="M358.4,293.845H187.733c-4.713,0-8.533,3.82-8.533,8.533s3.82,8.533,8.533,8.533H358.4c4.713,0,8.533-3.82,8.533-8.533    S363.113,293.845,358.4,293.845z"/>
	</g>
</g>
<g>
	<g>
		<path d="M217.939,294.682c-4.057-2.398-9.29-1.054-11.688,3.003l-17.067,25.6c-0.909,1.381-1.398,2.996-1.407,4.649    c-0.024,4.713,3.776,8.553,8.489,8.577c2.838,0.004,5.493-1.403,7.083-3.755l17.067-25.6c0.19-0.252,0.365-0.515,0.526-0.787    C223.34,302.314,221.996,297.081,217.939,294.682z"/>
	</g>
</g>
<g>
	<g>
		<path d="M220.416,297.6L203.349,272c-0.161-0.272-0.336-0.534-0.526-0.787c-2.833-3.766-8.183-4.523-11.949-1.69    c-3.766,2.833-4.523,8.183-1.69,11.949l17.067,25.6c1.57,2.384,4.228,3.825,7.083,3.84c1.708,0.003,3.377-0.507,4.792-1.464    C222.029,306.809,223.055,301.504,220.416,297.6z"/>
	</g>
</g>
<g>
	<g>
		<path d="M356.949,323.2l-17.067-25.6c-0.161-0.272-0.336-0.534-0.526-0.787c-2.833-3.766-8.183-4.523-11.949-1.69    c-3.766,2.833-4.523,8.183-1.69,11.949l17.067,25.6c1.57,2.384,4.228,3.825,7.083,3.84c1.708,0.003,3.377-0.507,4.792-1.464    C358.563,332.409,359.589,327.104,356.949,323.2z"/>
	</g>
</g>
<g>
	<g>
		<path d="M354.472,269.082c-4.057-2.398-9.29-1.054-11.688,3.003l-17.067,25.6c-0.909,1.381-1.398,2.996-1.407,4.649    c-0.024,4.713,3.776,8.553,8.489,8.577c2.838,0.004,5.493-1.403,7.083-3.755l17.067-25.6c0.19-0.252,0.365-0.515,0.526-0.787    C359.874,276.714,358.529,271.481,354.472,269.082z"/>
	</g>
</g>
<g>
	<g>
		<path d="M321.707,339.072l-85.333-85.333c-3.195-2.736-7.906-2.736-11.101,0c-3.58,3.066-3.996,8.452-0.931,12.032l85.333,85.333    c1.61,1.597,3.79,2.488,6.059,2.475c2.192-0.031,4.289-0.904,5.854-2.439C324.953,347.84,325.006,342.437,321.707,339.072z"/>
	</g>
</g>
<g>
	<g>
		<path d="M321.707,254.584c-3.065-3.58-8.452-3.996-12.032-0.931l-85.333,85.333c-1.628,1.614-2.537,3.816-2.524,6.108    c0.027,4.713,3.87,8.511,8.583,8.484c2.251-0.032,4.398-0.952,5.973-2.56l85.333-85.333    C324.443,262.491,324.443,257.779,321.707,254.584z"/>
	</g>
</g>
<g>
	<g>
		<path d="M247.467,71.979h-34.133c-11.601-10.803-26.816-16.889-42.667-17.067C147.103,54.912,128,74.014,128,97.579    s19.103,42.667,42.667,42.667c15.851-0.178,31.065-6.264,42.667-17.067h34.133c4.713,0,8.533-3.82,8.533-8.533V80.512    C256,75.799,252.18,71.979,247.467,71.979z M238.933,106.112h-30.123c-3.061-0.012-5.894,1.616-7.424,4.267    c-3.755,6.315-19.2,12.8-30.72,12.8c-14.139,0-25.6-11.461-25.6-25.6s11.461-25.6,25.6-25.6c11.52,0,26.965,6.485,30.635,12.8    c1.53,2.651,4.363,4.279,7.424,4.267h30.208V106.112z"/>
	</g>
</g>
<g>
	<g>
		<path d="M366.933,54.912c-15.851,0.178-31.065,6.264-42.667,17.067h-34.133c-4.713,0-8.533,3.82-8.533,8.533v34.133    c0,4.713,3.821,8.533,8.533,8.533h34.133c11.601,10.803,26.816,16.889,42.667,17.067c23.564,0,42.667-19.103,42.667-42.667    S390.498,54.912,366.933,54.912z M367.019,123.178c-11.52,0-27.051-6.485-30.72-12.8c-1.53-2.651-4.363-4.279-7.424-4.267h-30.208    V89.045h30.208c3.061,0.012,5.894-1.616,7.424-4.267c3.755-6.315,19.2-12.8,30.72-12.8c14.138,0,25.6,11.461,25.6,25.6    S381.157,123.178,367.019,123.178z"/>
	</g>
</g>
<g>
</g>
<g>
</g>
<g>
</g>
<g>
</g>
<g>
</g>
<g>
</g>
<g>
</g>
<g>
</g>
<g>
</g>
<g>
</g>
<g>
</g>
<g>
</g>
<g>
</g>
<g>
</g>
<g>
</g>
</svg>
