<?xml version="1.0" encoding="iso-8859-1"?>
<!-- Generator: Adobe Illustrator 19.0.0, SVG Export Plug-In . SVG Version: 6.00 Build 0)  -->
<svg xmlns="http://www.w3.org/2000/svg" xmlns:xlink="http://www.w3.org/1999/xlink" version="1.1" id="Layer_1" x="0px" y="0px" viewBox="0 0 512.222 512.222" style="enable-background:new 0 0 512.222 512.222;" xml:space="preserve">
<g>
	<g>
		<path d="M368.324,237.961c-48.623-7.05-86.816-45.244-93.867-93.867c-0.599-4.241-4.25-7.381-8.533-7.339H34.244    c-18.851,0-34.133,15.282-34.133,34.133v307.2c0,18.851,15.282,34.133,34.133,34.133h307.2c0.028,0,0.057,0,0.085,0    c18.851,0,34.133-15.282,34.133-34.133V246.494C375.705,242.211,372.566,238.56,368.324,237.961z M358.511,478.089    c0,9.426-7.641,17.067-17.067,17.067h-307.2c-9.426,0-17.067-7.641-17.067-17.067v-307.2c0-9.426,7.641-17.067,17.067-17.067    h224.512c10.273,50.228,49.526,89.481,99.755,99.755V478.089z"/>
	</g>
</g>
<g>
	<g>
		<path d="M402.167,1.296c-69.986-9.972-134.804,38.679-144.776,108.665c-0.846,6.05-1.274,12.152-1.28,18.261    c-0.01,6.113,0.447,12.218,1.365,18.261c4.546,32.581,21.593,62.113,47.531,82.347c17.639,13.821,38.583,22.793,60.757,26.027    c6.072,0.92,12.205,1.377,18.347,1.365c70.692,0,128-57.308,128-128C512.214,64.427,465.324,10.295,402.167,1.296z     M384.111,239.155c-5.316-0.021-10.622-0.449-15.872-1.28c-48.623-7.05-86.816-45.244-93.867-93.867    c-0.8-5.224-1.199-10.502-1.195-15.787c0.007-5.31,0.378-10.613,1.109-15.872c8.095-54.468,54.758-94.858,109.824-95.061    c61.267,0,110.933,49.667,110.933,110.933S445.378,239.155,384.111,239.155z"/>
	</g>
</g>
<g>
	<g>
		<path d="M51.311,179.422h-8.533c-4.713,0-8.533,3.82-8.533,8.533s3.82,8.533,8.533,8.533h8.533c4.713,0,8.533-3.82,8.533-8.533    S56.024,179.422,51.311,179.422z"/>
	</g>
</g>
<g>
	<g>
		<path d="M187.844,179.422h-102.4c-4.713,0-8.533,3.82-8.533,8.533s3.82,8.533,8.533,8.533h102.4c4.713,0,8.533-3.82,8.533-8.533    S192.557,179.422,187.844,179.422z"/>
	</g>
</g>
<g>
	<g>
		<path d="M438.127,102.622c-5.912-12.523-15.992-22.602-28.514-28.514c-29.832-14.084-65.434-1.318-79.518,28.514    c-3.821,7.99-5.776,16.744-5.717,25.6c-0.02,16.258,6.645,31.81,18.432,43.008c1.368,1.37,2.822,2.653,4.352,3.84    c1.669,1.315,3.406,2.54,5.205,3.669l2.304,1.28c8.919,5.25,19.091,7.992,29.44,7.936c10.305,0.096,20.445-2.586,29.355-7.765    l2.816-1.621c1.707-1.109,3.243-2.219,5.035-3.584c1.627-1.259,3.167-2.627,4.608-4.096    C444.137,153.066,449.037,125.651,438.127,102.622z M413.892,158.601c-0.962,0.977-1.989,1.89-3.072,2.731l-3.413,2.475    l-2.475,1.451c-12.925,7.402-28.803,7.402-41.728,0l-1.963-1.109c-1.365-0.853-2.389-1.621-3.499-2.475    c-1.02-0.761-1.989-1.588-2.901-2.475c-8.533-8.045-13.379-19.248-13.397-30.976c-0.042-6.255,1.329-12.439,4.011-18.091    c7.023-15.001,22.093-24.582,38.656-24.576c16.401,0.095,31.295,9.582,38.315,24.405    C430.206,126.34,426.784,145.848,413.892,158.601z"/>
	</g>
</g>
<g>
	<g>
		<path d="M384.111,102.622c-4.713,0-8.533,3.82-8.533,8.533v34.133c0,4.713,3.82,8.533,8.533,8.533s8.533-3.821,8.533-8.533    v-34.133C392.644,106.443,388.824,102.622,384.111,102.622z"/>
	</g>
</g>
<g>
	<g>
		<path d="M251.844,247.689h-0.768H123.844c-40.021,0-72.533,45.909-72.533,102.4s32.512,102.4,73.387,102.4h1.877h125.269    c40.021,0,72.533-45.909,72.533-102.4S291.866,247.689,251.844,247.689z M251.844,435.422H125.636h-1.792    c-30.549,0-55.467-38.315-55.467-85.333c0-47.019,24.917-85.333,55.467-85.333h128c30.549,0,55.467,38.315,55.467,85.333    S282.394,435.422,251.844,435.422z"/>
	</g>
</g>
<g>
	<g>
		<path d="M153.711,298.889h-17.067c-9.426,0-17.067,7.641-17.067,17.067v68.267c0,9.426,7.641,17.067,17.067,17.067h17.067    c9.426,0,17.067-7.641,17.067-17.067v-68.267C170.778,306.53,163.137,298.889,153.711,298.889z M153.711,384.222h-17.067v-68.267    h17.067V384.222z"/>
	</g>
</g>
<g>
	<g>
		<path d="M239.044,298.889h-17.067c-9.426,0-17.067,7.641-17.067,17.067v68.267c0,9.426,7.641,17.067,17.067,17.067h17.067    c9.426,0,17.067-7.641,17.067-17.067v-68.267C256.111,306.53,248.47,298.889,239.044,298.889z M239.044,384.222h-17.067v-68.267    h17.067V384.222z"/>
	</g>
</g>
<g>
</g>
<g>
</g>
<g>
</g>
<g>
</g>
<g>
</g>
<g>
</g>
<g>
</g>
<g>
</g>
<g>
</g>
<g>
</g>
<g>
</g>
<g>
</g>
<g>
</g>
<g>
</g>
<g>
</g>
</svg>
