<?xml version="1.0" encoding="iso-8859-1"?>
<!-- Generator: Adobe Illustrator 19.0.0, SVG Export Plug-In . SVG Version: 6.00 Build 0)  -->
<svg xmlns="http://www.w3.org/2000/svg" xmlns:xlink="http://www.w3.org/1999/xlink" version="1.1" id="Layer_1" x="0px" y="0px" viewBox="0 0 512.222 512.222" style="enable-background:new 0 0 512.222 512.222;" xml:space="preserve">
<g>
	<g>
		<path d="M368.324,237.961c-48.623-7.05-86.816-45.244-93.867-93.867c-0.599-4.241-4.25-7.381-8.533-7.339H34.244    c-18.851,0-34.133,15.282-34.133,34.133v307.2c0,18.851,15.282,34.133,34.133,34.133h307.2c0.028,0,0.057,0,0.085,0    c18.851,0,34.133-15.282,34.133-34.133V246.494C375.705,242.211,372.566,238.56,368.324,237.961z M358.511,478.089    c0,9.426-7.641,17.067-17.067,17.067h-307.2c-9.426,0-17.067-7.641-17.067-17.067v-307.2c0-9.426,7.641-17.067,17.067-17.067    h224.512c10.273,50.228,49.526,89.481,99.755,99.755V478.089z"/>
	</g>
</g>
<g>
	<g>
		<path d="M402.167,1.296c-69.986-9.972-134.804,38.679-144.776,108.665c-0.844,6.051-1.272,12.152-1.28,18.261    c-0.009,6.113,0.447,12.218,1.365,18.261c4.555,32.578,21.6,62.107,47.531,82.347c17.639,13.821,38.583,22.793,60.757,26.027    c6.072,0.921,12.205,1.377,18.347,1.365c70.692,0,128-57.308,128-128C512.214,64.427,465.324,10.295,402.167,1.296z     M384.111,239.155c-5.316-0.021-10.622-0.448-15.872-1.28c-48.623-7.05-86.816-45.244-93.867-93.867    c-0.799-5.224-1.198-10.502-1.195-15.787c0.006-5.31,0.377-10.613,1.109-15.872c8.095-54.468,54.758-94.858,109.824-95.061    c61.267,0,110.933,49.667,110.933,110.933S445.378,239.155,384.111,239.155z"/>
	</g>
</g>
<g>
	<g>
		<path d="M51.311,179.422h-8.533c-4.713,0-8.533,3.82-8.533,8.533s3.82,8.533,8.533,8.533h8.533c4.713,0,8.533-3.82,8.533-8.533    S56.024,179.422,51.311,179.422z"/>
	</g>
</g>
<g>
	<g>
		<path d="M187.844,179.422h-102.4c-4.713,0-8.533,3.82-8.533,8.533s3.82,8.533,8.533,8.533h102.4c4.713,0,8.533-3.82,8.533-8.533    S192.557,179.422,187.844,179.422z"/>
	</g>
</g>
<g>
	<g>
		<path d="M438.127,102.622c-5.234-10.966-13.689-20.076-24.235-26.112c-3.929-2.055-8.778-0.759-11.157,2.983    c-2.528,3.977-1.354,9.251,2.623,11.779c7.448,4.36,13.399,10.876,17.067,18.688c7.781,16.379,4.358,35.887-8.533,48.64    c-0.962,0.977-1.989,1.89-3.072,2.731l-3.413,2.475l-2.475,1.451c-12.925,7.402-28.803,7.402-41.728,0l-1.963-1.109l-3.499-2.475    c-1.016-0.766-1.985-1.593-2.901-2.475c-8.533-8.045-13.379-19.248-13.397-30.976c0.038-6.275,1.497-12.46,4.267-18.091    c3.676-7.829,9.623-14.37,17.067-18.773c0.212-0.111,0.42-0.231,0.622-0.36c3.977-2.528,5.152-7.802,2.624-11.779    c-2.528-3.977-7.802-5.152-11.779-2.624c-10.502,6.027-18.924,15.104-24.149,26.027c-3.821,7.99-5.776,16.744-5.717,25.6    c0.016,16.318,6.706,31.919,18.517,43.179c1.371,1.341,2.825,2.595,4.352,3.755c1.645,1.281,3.354,2.477,5.12,3.584l2.304,1.28    c8.919,5.25,19.091,7.992,29.44,7.936c10.305,0.096,20.445-2.586,29.355-7.765l2.816-1.621c1.707-1.109,3.243-2.219,5.035-3.584    c1.627-1.259,3.167-2.627,4.608-4.096C444.137,153.066,449.038,125.651,438.127,102.622z"/>
	</g>
</g>
<g>
	<g>
		<path d="M384.111,59.955c-4.713,0-8.533,3.82-8.533,8.533v34.133c0,4.713,3.82,8.533,8.533,8.533s8.533-3.82,8.533-8.533V68.489    C392.644,63.776,388.824,59.955,384.111,59.955z"/>
	</g>
</g>
<g>
	<g>
		<path d="M187.844,213.556c-70.692,0-128,57.307-128,128s57.308,128,128,128s128-57.308,128-128S258.537,213.556,187.844,213.556z     M187.844,452.489c-61.267,0-110.933-49.667-110.933-110.933s49.667-110.933,110.933-110.933s110.933,49.667,110.933,110.933    S249.111,452.489,187.844,452.489z"/>
	</g>
</g>
<g>
	<g>
		<path d="M132.378,315.955c-16.495,0-29.867,13.372-29.867,29.867c0,16.495,13.372,29.867,29.867,29.867    c16.495,0,29.867-13.372,29.867-29.867C162.244,329.327,148.873,315.955,132.378,315.955z M132.378,358.622    c-7.069,0-12.8-5.731-12.8-12.8c0-7.069,5.731-12.8,12.8-12.8c7.069,0,12.8,5.731,12.8,12.8    C145.178,352.891,139.447,358.622,132.378,358.622z"/>
	</g>
</g>
<g>
	<g>
		<path d="M243.311,315.955c-16.495,0-29.867,13.372-29.867,29.867c0,16.495,13.372,29.867,29.867,29.867    s29.867-13.372,29.867-29.867C273.178,329.327,259.806,315.955,243.311,315.955z M243.311,358.622c-7.069,0-12.8-5.731-12.8-12.8    c0-7.069,5.731-12.8,12.8-12.8s12.8,5.731,12.8,12.8C256.111,352.891,250.38,358.622,243.311,358.622z"/>
	</g>
</g>
<g>
</g>
<g>
</g>
<g>
</g>
<g>
</g>
<g>
</g>
<g>
</g>
<g>
</g>
<g>
</g>
<g>
</g>
<g>
</g>
<g>
</g>
<g>
</g>
<g>
</g>
<g>
</g>
<g>
</g>
</svg>
