<?xml version="1.0" encoding="iso-8859-1"?>
<!-- Generator: Adobe Illustrator 19.0.0, SVG Export Plug-In . SVG Version: 6.00 Build 0)  -->
<svg xmlns="http://www.w3.org/2000/svg" xmlns:xlink="http://www.w3.org/1999/xlink" version="1.1" id="Layer_1" x="0px" y="0px" viewBox="0 0 512.454 512.454" style="enable-background:new 0 0 512.454 512.454;" xml:space="preserve">
<g>
	<g>
		<path d="M508.083,395.504c-4.147-2.356-9.42-0.905-11.776,3.243c-20.181,37.246-48.646,69.36-83.2,93.867    c-2.306,1.609-3.671,4.251-3.649,7.063c0.036,4.713,3.886,8.504,8.599,8.468c1.74-0.004,3.437-0.54,4.864-1.536    c36.672-25.918,66.915-59.898,88.405-99.328C513.682,403.133,512.23,397.861,508.083,395.504z"/>
	</g>
</g>
<g>
	<g>
		<path d="M480.733,372.507c-4.218-2.121-9.357-0.421-11.477,3.797c-20.091,40.288-51.073,74.137-89.429,97.707    c-2.008,1.428-3.301,3.654-3.546,6.105c-0.469,4.689,2.952,8.871,7.642,9.34c1.684,0.055,3.347-0.391,4.779-1.28    c41.034-25.115,74.227-61.205,95.829-104.192C486.652,379.766,484.951,374.628,480.733,372.507z"/>
	</g>
</g>
<g>
	<g>
		<path d="M99.507,492.613c-34.554-24.506-63.019-56.62-83.2-93.867c-2.356-4.147-7.629-5.599-11.776-3.243    c-4.147,2.356-5.599,7.629-3.243,11.776c21.466,39.421,51.679,73.4,88.32,99.328c1.451,1.013,3.18,1.549,4.949,1.536    c2.812,0.022,5.454-1.343,7.063-3.649C104.318,500.63,103.371,495.311,99.507,492.613z"/>
	</g>
</g>
<g>
	<g>
		<path d="M132.701,474.011c-38.609-23.47-69.836-57.329-90.112-97.707c-0.298-0.979-0.77-1.897-1.394-2.71    c-2.869-3.739-8.226-4.444-11.965-1.575s-4.444,8.226-1.575,11.965c21.599,42.99,54.792,79.08,95.829,104.192    c1.333,0.826,2.869,1.269,4.437,1.28c2.659-0.069,5.135-1.374,6.693-3.53C137.378,482.107,136.52,476.772,132.701,474.011z"/>
	</g>
</g>
<g>
	<g>
		<path d="M256.067,4.31C114.682,4.277,0.041,118.866,0.008,260.251c-0.14,4.559,1.55,8.984,4.693,12.288    c3.22,3.331,7.655,5.21,12.288,5.205h17.067c4.588,119.189,102.59,213.422,221.867,213.333    c119.366,0.31,217.497-94.047,221.867-213.333h17.067c4.692,0.051,9.198-1.831,12.459-5.205c3.143-3.304,4.834-7.729,4.693-12.288    C511.975,118.912,397.406,4.343,256.067,4.31z M477.789,260.677c-9.229-0.004-16.79,7.33-17.067,16.555    c-3.797,91.025-67.03,168.704-155.392,190.891c-32.243,7.829-65.891,7.829-98.133,0    c-88.632-21.929-152.193-99.669-156.075-190.891c-0.277-9.225-7.837-16.559-17.067-16.555H16.989    c0-131.959,106.974-238.933,238.933-238.933s238.933,106.974,238.933,238.933H477.789z"/>
	</g>
</g>
<g>
	<g>
		<path d="M315.656,474.011c0-32.99-26.744-59.733-59.733-59.733s-59.733,26.744-59.733,59.733c-0.032,1.11-0.004,2.221,0.085,3.328    c0.403,3.567,2.995,6.5,6.485,7.339c17.401,4.25,35.25,6.399,53.163,6.4c17.942,0.006,35.819-2.143,53.248-6.4    c3.49-0.839,6.082-3.772,6.485-7.339C315.718,476.23,315.718,475.119,315.656,474.011z M213.256,469.659    c2.027-20.194,17.998-36.165,38.192-38.192c23.446-2.353,44.361,14.746,46.715,38.192    C270.161,475.496,241.257,475.496,213.256,469.659z"/>
	</g>
</g>
<g>
	<g>
		<path d="M457.992,176.88l-1.195-2.645c-21.94-46.348-59.258-83.666-105.606-105.606C240.44,16.202,108.158,63.483,55.731,174.235    l-1.195,2.645c-0.996,2.216-1.507,4.618-1.5,7.047c0.027,9.426,7.691,17.044,17.116,17.017h19.029    c6.377-0.035,12.203-3.622,15.104-9.301c16.351-32.045,42.409-58.104,74.454-74.454c83.959-42.839,186.749-9.505,229.588,74.454    c2.902,5.679,8.727,9.266,15.104,9.301h18.944c2.429,0.007,4.832-0.504,7.047-1.5C458.02,195.579,461.857,185.477,457.992,176.88z     M423.517,183.877c-17.971-35.164-46.572-63.765-81.736-81.736c-92.324-47.183-205.417-10.589-252.6,81.736H70.067l1.109-2.389    c34.068-71.196,105.821-116.667,184.747-117.077c79.153,0.133,151.23,45.608,185.429,116.992l1.109,2.475H423.517z"/>
	</g>
</g>
<g>
	<g>
		<path d="M372.061,214.427c-12.645-26.629-34.093-48.078-60.722-60.722c-63.859-30.323-140.208-3.136-170.531,60.722    c-8.197,17.127-12.426,35.882-12.373,54.869c0,3.157,0,6.229,0,9.045c0.828,12.535,3.532,24.875,8.021,36.608    c6.556,17.164,16.744,32.708,29.867,45.568c3.3,3.291,6.806,6.369,10.496,9.216c3.765,3.059,7.696,5.908,11.776,8.533l3.243,1.877    c19.465,11.285,41.586,17.176,64.085,17.067c22.443,0.231,44.539-5.544,64-16.725c1.28-0.597,2.56-1.365,3.669-2.048    c4.079-2.626,8.011-5.474,11.776-8.533c3.69-2.847,7.195-5.926,10.496-9.216c13.192-12.903,23.439-28.505,30.037-45.739    c4.479-11.677,7.183-23.959,8.021-36.437c0-3.072,0-6.144,0-9.301C384.126,250.291,380.072,231.568,372.061,214.427z     M366.856,277.232c-1.082,10.811-3.786,21.397-8.021,31.403c-5.737,14.957-14.645,28.494-26.112,39.68    c-2.817,2.804-5.81,5.426-8.96,7.851c-3.305,2.607-6.752,5.028-10.325,7.253l-2.731,1.536c-34.36,19.677-76.573,19.677-110.933,0    l-2.304-1.365c-3.602-2.222-7.078-4.644-10.411-7.253c-3.155-2.419-6.148-5.041-8.96-7.851    c-11.457-11.161-20.364-24.668-26.112-39.595c-3.926-10.225-6.285-20.985-6.997-31.915c0-2.56,0-5.12,0-7.765    c-0.065-16.444,3.581-32.691,10.667-47.531c18.479-38.631,57.444-63.27,100.267-63.403c42.823,0.133,81.788,24.772,100.267,63.403    c7.088,14.839,10.734,31.086,10.667,47.531C366.856,271.856,366.856,274.416,366.856,277.232z"/>
	</g>
</g>
<g>
	<g>
		<path d="M255.923,448.411c-4.713,0-8.533,3.821-8.533,8.533v25.6c0,4.713,3.82,8.533,8.533,8.533c4.713,0,8.533-3.82,8.533-8.533    v-25.6C264.456,452.231,260.636,448.411,255.923,448.411z"/>
	</g>
</g>
<g>
	<g>
		<path d="M321.033,219.556c-3.768-2.831-9.117-2.071-11.948,1.697l-62.976,78.677l-36.011-28.843    c-3.603-2.707-8.689-2.145-11.615,1.281c-3.06,3.584-2.636,8.97,0.948,12.031l42.667,34.133c1.501,1.205,3.366,1.866,5.291,1.877    c2.612,0.035,5.096-1.129,6.741-3.157l68.267-85.333c0.115-0.135,0.226-0.274,0.333-0.416    C325.561,227.736,324.801,222.387,321.033,219.556z"/>
	</g>
</g>
<g>
</g>
<g>
</g>
<g>
</g>
<g>
</g>
<g>
</g>
<g>
</g>
<g>
</g>
<g>
</g>
<g>
</g>
<g>
</g>
<g>
</g>
<g>
</g>
<g>
</g>
<g>
</g>
<g>
</g>
</svg>
