<?xml version="1.0" encoding="iso-8859-1"?>
<!-- Generator: Adobe Illustrator 19.0.0, SVG Export Plug-In . SVG Version: 6.00 Build 0)  -->
<svg xmlns="http://www.w3.org/2000/svg" xmlns:xlink="http://www.w3.org/1999/xlink" version="1.1" id="Layer_1" x="0px" y="0px" viewBox="0 0 512.284 512.284" style="enable-background:new 0 0 512.284 512.284;" xml:space="preserve">
<g>
	<g>
		<path d="M507.838,395.488c-4.147-2.356-9.42-0.905-11.776,3.243c-20.181,37.246-48.646,69.36-83.2,93.867    c-2.306,1.609-3.671,4.251-3.649,7.063c0.036,4.713,3.886,8.504,8.599,8.468c1.769,0.013,3.499-0.523,4.949-1.536    c36.641-25.928,66.854-59.907,88.32-99.328C513.437,403.117,511.986,397.844,507.838,395.488z"/>
	</g>
</g>
<g>
	<g>
		<path d="M481.086,372.491c-4.218-2.121-9.357-0.421-11.477,3.797c-20.23,40.355-51.396,74.212-89.941,97.707    c-2.114,1.525-3.415,3.932-3.532,6.536c-0.212,4.708,3.432,8.697,8.14,8.909c1.51-0.041,2.983-0.483,4.267-1.28    c41.223-25.041,74.6-61.138,96.341-104.192C487.004,379.75,485.304,374.611,481.086,372.491z"/>
	</g>
</g>
<g>
	<g>
		<path d="M99.348,492.597c-34.554-24.506-63.019-56.62-83.2-93.867c-2.356-4.147-7.629-5.599-11.776-3.243    c-4.147,2.356-5.599,7.629-3.243,11.776c21.393,39.394,51.516,73.371,88.064,99.328c1.451,1.013,3.18,1.549,4.949,1.536    c2.907,0.113,5.672-1.264,7.334-3.652C104.169,500.608,103.216,495.29,99.348,492.597z"/>
	</g>
</g>
<g>
	<g>
		<path d="M132.542,473.995c-38.42-23.544-69.463-57.396-89.6-97.707c-2.121-4.265-7.298-6.003-11.563-3.883    c-4.265,2.121-6.003,7.298-3.883,11.563c21.738,43.057,55.116,79.155,96.341,104.192c1.333,0.826,2.869,1.269,4.437,1.28    c2.5-0.205,4.783-1.5,6.243-3.54C137.26,482.067,136.375,476.736,132.542,473.995z"/>
	</g>
</g>
<g>
	<g>
		<path d="M256.276,4.149c-141.385,0-256,114.615-256,256c-0.141,4.6,1.583,9.062,4.779,12.373c3.22,3.331,7.655,5.21,12.288,5.205    h17.067c4.588,119.189,102.59,213.422,221.867,213.333c119.366,0.31,217.497-94.047,221.867-213.333h17.067    c4.675,0.006,9.148-1.907,12.373-5.291c3.143-3.304,4.834-7.729,4.693-12.288C512.276,118.764,397.661,4.149,256.276,4.149z     M478.142,260.661c-9.229-0.004-16.79,7.33-17.067,16.555c-3.861,91.172-67.34,168.897-155.904,190.891    c-32.243,7.822-65.89,7.822-98.133,0C118.609,445.984,55.294,368.29,51.476,277.216c-0.277-9.225-7.837-16.559-17.067-16.555    H17.342c0-131.959,106.974-238.933,238.933-238.933s238.933,106.974,238.933,238.933H478.142z"/>
	</g>
</g>
<g>
	<g>
		<path d="M316.009,473.995c0-32.99-26.744-59.733-59.733-59.733s-59.733,26.744-59.733,59.733c-0.033,1.11-0.005,2.221,0.085,3.328    c0.403,3.567,2.995,6.5,6.485,7.339c17.401,4.25,35.25,6.399,53.163,6.4c17.942,0.006,35.819-2.143,53.248-6.4    c3.49-0.839,6.082-3.772,6.485-7.339C316.071,476.214,316.071,475.103,316.009,473.995z M213.609,469.643    c2.027-20.194,17.998-36.165,38.192-38.192c23.446-2.353,44.361,14.746,46.715,38.192    C270.514,475.479,241.61,475.479,213.609,469.643z"/>
	</g>
</g>
<g>
	<g>
		<path d="M457.833,176.864l-1.195-2.645c-21.94-46.348-59.258-83.666-105.606-105.606    C240.281,16.186,107.999,63.467,55.572,174.219l-1.195,2.645c-0.996,2.216-1.507,4.618-1.5,7.047    c0.028,9.426,7.691,17.044,17.116,17.017h19.029c6.377-0.035,12.203-3.622,15.104-9.301    c16.351-32.045,42.409-58.104,74.454-74.454c83.959-42.839,186.749-9.505,229.588,74.454c2.901,5.679,8.727,9.266,15.104,9.301    h18.944c2.429,0.007,4.832-0.504,7.047-1.5C457.861,195.563,461.698,185.461,457.833,176.864z M423.358,183.861    c-17.971-35.164-46.572-63.765-81.736-81.736c-92.324-47.183-205.417-10.589-252.6,81.736H69.908l1.109-2.389    C105.165,110.11,177.164,64.609,256.276,64.395c78.968,0.329,150.798,45.774,184.917,116.992l1.109,2.475H423.358z"/>
	</g>
</g>
<g>
	<g>
		<path d="M371.902,214.325c-12.645-26.629-34.093-48.078-60.722-60.722c-63.859-30.323-140.208-3.136-170.531,60.722    c-8.197,17.127-12.426,35.882-12.373,54.869c0,3.157,0,6.229,0,9.045c0.984,12.591,3.86,24.961,8.533,36.693    c6.531,17.156,16.689,32.7,29.781,45.568c3.3,3.291,6.806,6.369,10.496,9.216c3.793,3.062,7.753,5.91,11.861,8.533l3.243,1.877    c19.465,11.285,41.586,17.176,64.085,17.067c22.27,0.14,44.178-5.632,63.488-16.725c1.28-0.597,2.56-1.365,3.669-2.048    c4.079-2.626,8.011-5.474,11.776-8.533c3.69-2.847,7.195-5.926,10.496-9.216c13.192-12.903,23.439-28.505,30.037-45.739    c4.654-11.65,7.531-23.933,8.533-36.437c0-3.072,0-6.144,0-9.301C384.331,250.207,380.102,231.451,371.902,214.325z     M366.612,277.131c-0.729,10.844-3.088,21.517-6.997,31.659c-5.737,14.957-14.645,28.494-26.112,39.68    c-2.813,2.809-5.806,5.431-8.96,7.851c-3.449,2.533-7.039,4.869-10.752,6.997l-2.731,1.536c-34.36,19.677-76.573,19.677-110.933,0    l-2.304-1.365c-3.602-2.222-7.078-4.644-10.411-7.253c-3.155-2.419-6.148-5.041-8.96-7.851    c-11.457-11.161-20.364-24.668-26.112-39.595c-3.92-10.198-6.279-20.928-6.997-31.829c0-2.56,0-5.12,0-7.765    c-0.065-16.444,3.581-32.691,10.667-47.531c18.479-38.631,57.444-63.27,100.267-63.403c42.587,0.345,81.26,24.913,99.669,63.317    c7.088,14.839,10.734,31.086,10.667,47.531C366.612,271.755,366.612,274.315,366.612,277.131z"/>
	</g>
</g>
<g>
	<g>
		<path d="M256.276,448.395c-4.713,0-8.533,3.821-8.533,8.533v25.6c0,4.713,3.82,8.533,8.533,8.533c4.713,0,8.533-3.82,8.533-8.533    v-25.6C264.809,452.215,260.988,448.395,256.276,448.395z"/>
	</g>
</g>
<g>
	<g>
		<path d="M211.134,200.928v23.467c0.991,23.301,15.453,43.895,37.035,52.736l1.536,0.597h13.141l1.536-0.597    c21.581-8.841,36.043-29.435,37.035-52.736v-23.467H211.134z M284.35,224.395c-0.951,15.77-10.538,29.723-24.917,36.267h-6.229h0    c-14.413-6.519-24.036-20.478-25.003-36.267v-6.4h56.149V224.395z"/>
	</g>
</g>
<g>
	<g>
		<path d="M307.476,200.928h-14.592c-4.713,0-8.533,3.821-8.533,8.533c0,4.713,3.82,8.533,8.533,8.533h14.592    c4.713,0,8.533-3.821,8.533-8.533C316.009,204.749,312.188,200.928,307.476,200.928z"/>
	</g>
</g>
<g>
	<g>
		<path d="M264.382,261.259l-1.536-0.597h-13.141l-1.536,0.597c-21.581,8.841-36.043,29.435-37.035,52.736v23.467h90.283v-23.467    C300.426,290.693,285.964,270.1,264.382,261.259z M284.35,320.395h-56.064l-0.085-6.4c0.951-15.77,10.538-29.723,24.917-36.267    h6.229c14.413,6.519,24.036,20.478,25.003,36.267V320.395z"/>
	</g>
</g>
<g>
	<g>
		<path d="M307.476,320.395h-14.592c-4.713,0-8.533,3.821-8.533,8.533c0,4.713,3.82,8.533,8.533,8.533h14.592    c4.713,0,8.533-3.821,8.533-8.533C316.009,324.215,312.188,320.395,307.476,320.395z"/>
	</g>
</g>
<g>
	<g>
		<path d="M219.668,200.928h-14.592c-4.713,0-8.533,3.821-8.533,8.533c0,4.713,3.82,8.533,8.533,8.533h14.592    c4.713,0,8.533-3.821,8.533-8.533C228.201,204.749,224.38,200.928,219.668,200.928z"/>
	</g>
</g>
<g>
	<g>
		<path d="M219.668,320.395h-14.592c-4.713,0-8.533,3.821-8.533,8.533c0,4.713,3.82,8.533,8.533,8.533h14.592    c4.713,0,8.533-3.821,8.533-8.533C228.201,324.215,224.38,320.395,219.668,320.395z"/>
	</g>
</g>
<g>
</g>
<g>
</g>
<g>
</g>
<g>
</g>
<g>
</g>
<g>
</g>
<g>
</g>
<g>
</g>
<g>
</g>
<g>
</g>
<g>
</g>
<g>
</g>
<g>
</g>
<g>
</g>
<g>
</g>
</svg>
