<?xml version="1.0" encoding="iso-8859-1"?>
<!-- Generator: Adobe Illustrator 19.0.0, SVG Export Plug-In . SVG Version: 6.00 Build 0)  -->
<svg xmlns="http://www.w3.org/2000/svg" xmlns:xlink="http://www.w3.org/1999/xlink" version="1.1" id="Layer_1" x="0px" y="0px" viewBox="0 0 512 512" style="enable-background:new 0 0 512 512;" xml:space="preserve">
<g>
	<g>
		<path d="M256,0C114.615,0,0,114.615,0,256s114.615,256,256,256s256-114.615,256-256S397.385,0,256,0z M256,494.933    C124.041,494.933,17.067,387.959,17.067,256S124.041,17.067,256,17.067S494.933,124.041,494.933,256S387.959,494.933,256,494.933z    "/>
	</g>
</g>
<g>
	<g>
		<path d="M247.467,59.733c-0.002-0.023-0.004-0.046-0.006-0.069c-0.441-4.692-4.603-8.138-9.295-7.696    c-99.153,8.456-177.787,87.126-186.197,186.283c-0.394,4.687,3.079,8.809,7.765,9.216h0.768c4.459,0.014,8.177-3.406,8.533-7.851    c7.735-90.86,79.806-162.932,170.667-170.667C244.387,68.543,247.861,64.42,247.467,59.733z"/>
	</g>
</g>
<g>
	<g>
		<path d="M247.509,93.909c-0.495-4.713-4.716-8.132-9.429-7.637C158.119,94.973,94.973,158.119,86.272,238.08    c0,0.003-0.001,0.006-0.001,0.009c-0.492,4.687,2.909,8.886,7.596,9.378h0.939c4.369,0.026,8.053-3.252,8.533-7.595    c7.857-71.9,64.633-128.676,136.533-136.533C244.585,102.844,248.004,98.622,247.509,93.909z"/>
	</g>
</g>
<g>
	<g>
		<path d="M247.509,128.043c-0.636-4.713-4.972-8.018-9.685-7.381c-61.024,8.194-109.013,56.218-117.163,117.248    c-0.605,4.664,2.677,8.938,7.339,9.557h1.109c4.315,0.086,8.015-3.065,8.619-7.339c7.198-53.289,49.111-95.202,102.4-102.4    C244.841,137.092,248.146,132.755,247.509,128.043z"/>
	</g>
</g>
<g>
	<g>
		<path d="M460.8,237.483C452.383,138.297,373.703,59.617,274.517,51.2c-0.018-0.002-0.036-0.003-0.054-0.004    c-4.699-0.361-8.801,3.156-9.162,7.855c-0.394,4.687,3.079,8.809,7.765,9.216c90.86,7.735,162.932,79.806,170.667,170.667    c0.399,4.411,4.105,7.783,8.533,7.765h0.768C457.721,246.292,461.194,242.17,460.8,237.483z"/>
	</g>
</g>
<g>
	<g>
		<path d="M426.667,237.312c-8.626-80.027-71.791-143.263-151.808-151.979c-4.713-0.495-8.935,2.924-9.429,7.637    c-0.495,4.713,2.925,8.934,7.637,9.429c71.928,7.865,128.713,64.686,136.533,136.619c0.44,4.377,4.135,7.702,8.533,7.68h0.939    c0.003,0,0.006-0.001,0.009-0.001C423.767,246.201,427.164,241.999,426.667,237.312z"/>
	</g>
</g>
<g>
	<g>
		<path d="M392.021,237.056c-7.953-61-55.717-109.147-116.651-117.589c-4.713-0.636-9.049,2.669-9.685,7.381    s2.669,9.049,7.381,9.685c53.289,7.198,95.202,49.111,102.4,102.4c0.399,4.411,4.105,7.783,8.533,7.765l0.683-0.085    C389.345,245.994,392.627,241.72,392.021,237.056z"/>
	</g>
</g>
<g>
	<g>
		<path d="M239.616,442.965c-90.86-7.735-162.932-79.806-170.667-170.667c-0.407-4.686-4.529-8.159-9.216-7.765    c-0.023,0.002-0.046,0.004-0.069,0.006c-4.692,0.441-8.138,4.603-7.696,9.295c8.45,99.123,87.074,177.747,186.197,186.197h0.768    c4.713,0.188,8.686-3.479,8.875-8.192C247.997,447.127,244.329,443.154,239.616,442.965z"/>
	</g>
</g>
<g>
	<g>
		<path d="M239.872,408.661c-71.9-7.857-128.676-64.633-136.533-136.533c-0.495-4.713-4.716-8.132-9.429-7.637    c-4.713,0.495-8.132,4.716-7.637,9.429c8.663,79.994,71.819,143.185,151.808,151.893h0.853l0.085-0.085    c4.713,0.236,8.724-3.394,8.96-8.107C248.214,412.909,244.585,408.897,239.872,408.661z"/>
	</g>
</g>
<g>
	<g>
		<path d="M240.128,374.272c-53.289-7.198-95.202-49.111-102.4-102.4c-0.636-4.713-4.973-8.018-9.685-7.381    s-8.018,4.973-7.381,9.685c8.149,61.03,56.139,109.054,117.163,117.248h1.109l0.085-0.085c4.713,0.306,8.782-3.266,9.088-7.979    C248.413,378.647,244.841,374.578,240.128,374.272z"/>
	</g>
</g>
<g>
	<g>
		<path d="M452.949,265.301c-4.687-0.394-8.809,3.079-9.216,7.765c-7.735,90.86-79.806,162.932-170.667,170.667    c-4.713,0.189-8.381,4.162-8.192,8.875c0.188,4.713,4.162,8.38,8.875,8.192h0.768c99.186-8.417,177.866-87.097,186.283-186.283    c0.001-0.018,0.003-0.036,0.004-0.054C461.165,269.764,457.648,265.662,452.949,265.301z"/>
	</g>
</g>
<g>
	<g>
		<path d="M419.029,265.429c-4.713-0.495-8.935,2.925-9.429,7.637c-7.873,71.957-64.738,128.751-136.704,136.533    c-4.713,0.236-8.342,4.247-8.107,8.96s4.247,8.342,8.96,8.107h0.939c80.027-8.626,143.263-71.791,151.979-151.808    C427.162,270.146,423.742,265.924,419.029,265.429z"/>
	</g>
</g>
<g>
	<g>
		<path d="M385.152,265.685c-4.713-0.636-9.049,2.669-9.685,7.381c-7.198,53.289-49.111,95.202-102.4,102.4    c-4.713,0.189-8.381,4.162-8.192,8.875c0.188,4.713,4.162,8.38,8.875,8.192l1.195-0.427    c61.027-7.962,109.183-55.769,117.589-116.736C393.17,270.658,389.865,266.322,385.152,265.685z"/>
	</g>
</g>
<g>
	<g>
		<g>
			<path d="M214.016,311.125c-0.048,0-0.095-0.008-0.143-0.009c-0.038,0.001-0.075,0.009-0.113,0.009H214.016z"/>
			<path d="M219.733,261.632l2.133-2.816c3.351-4.103,6.029-8.711,7.936-13.653c2.954-8.246,3.164-17.225,0.597-25.6     c-2.001-6.329-5.688-11.993-10.667-16.384c-3.558-3.11-8.964-2.747-12.075,0.811c-3.11,3.558-2.748,8.964,0.811,12.075     c2.508,2.325,4.362,5.267,5.376,8.533c1.405,4.85,1.225,10.022-0.512,14.763c-1.114,3.314-2.756,6.426-4.864,9.216l-1.877,2.475     c-2.419,2.906-4.535,6.051-6.315,9.387c-6.839,15.726-4.195,33.967,6.827,47.104c1.565,2.198,4.077,3.517,6.769,3.575     c1.721-0.031,3.394-0.573,4.797-1.573c3.839-2.734,4.735-8.062,2.002-11.901c-7.045-8.121-9.136-19.422-5.461-29.525     C216.51,265.817,218.024,263.646,219.733,261.632z"/>
		</g>
	</g>
</g>
<g>
	<g>
		<g>
			<path d="M256.683,311.125c-0.048,0-0.095-0.008-0.143-0.009c-0.038,0.001-0.075,0.009-0.113,0.009H256.683z"/>
			<path d="M262.4,261.632l2.133-2.816c3.351-4.103,6.029-8.711,7.936-13.653c2.954-8.246,3.164-17.225,0.597-25.6     c-2.001-6.329-5.688-11.993-10.667-16.384c-3.558-3.11-8.964-2.747-12.075,0.811c-3.11,3.558-2.747,8.964,0.811,12.075     c2.508,2.325,4.362,5.267,5.376,8.533c1.405,4.85,1.225,10.022-0.512,14.763c-1.114,3.314-2.756,6.426-4.864,9.216l-1.877,2.475     c-2.419,2.906-4.535,6.051-6.315,9.387c-6.839,15.726-4.195,33.967,6.827,47.104c1.565,2.198,4.077,3.517,6.769,3.575     c1.721-0.031,3.394-0.573,4.797-1.573c3.839-2.734,4.735-8.062,2.002-11.901c-7.045-8.121-9.136-19.422-5.461-29.525     C259.176,265.817,260.691,263.646,262.4,261.632z"/>
		</g>
	</g>
</g>
<g>
	<g>
		<path d="M303.872,261.803l2.133-2.731c3.176-4.244,5.654-8.969,7.339-13.995c2.954-8.246,3.164-17.225,0.597-25.6    c-1.905-6.36-5.503-12.083-10.411-16.555c-3.558-3.11-8.964-2.747-12.075,0.811s-2.748,8.964,0.811,12.075    c2.508,2.325,4.362,5.268,5.376,8.533c1.386,4.823,1.207,9.962-0.512,14.677c-1.085,3.31-2.699,6.422-4.779,9.216l-1.877,2.475    c-2.412,2.911-4.528,6.055-6.315,9.387c-6.839,15.726-4.195,33.967,6.827,47.104c1.534,2.392,4.157,3.863,6.997,3.925    l-0.085,0.171c1.761-0.008,3.476-0.561,4.91-1.582c3.839-2.733,4.735-8.062,2.002-11.901c-7.045-8.121-9.136-19.422-5.461-29.525    C300.653,265.991,302.167,263.82,303.872,261.803z"/>
	</g>
</g>
<g>
</g>
<g>
</g>
<g>
</g>
<g>
</g>
<g>
</g>
<g>
</g>
<g>
</g>
<g>
</g>
<g>
</g>
<g>
</g>
<g>
</g>
<g>
</g>
<g>
</g>
<g>
</g>
<g>
</g>
</svg>
