<?xml version="1.0" encoding="iso-8859-1"?>
<!-- Generator: Adobe Illustrator 19.0.0, SVG Export Plug-In . SVG Version: 6.00 Build 0)  -->
<svg xmlns="http://www.w3.org/2000/svg" xmlns:xlink="http://www.w3.org/1999/xlink" version="1.1" id="Layer_1" x="0px" y="0px" viewBox="0 0 512 512" style="enable-background:new 0 0 512 512;" xml:space="preserve">
<g>
	<g>
		<path d="M256,0C114.615,0,0,114.615,0,256s114.615,256,256,256s256-114.615,256-256S397.385,0,256,0z M256,494.933    C124.041,494.933,17.067,387.959,17.067,256S124.041,17.067,256,17.067S494.933,124.041,494.933,256S387.959,494.933,256,494.933z    "/>
	</g>
</g>
<g>
	<g>
		<path d="M247.467,59.733c-0.002-0.023-0.004-0.046-0.006-0.069c-0.441-4.692-4.603-8.138-9.295-7.696    c-99.153,8.456-177.787,87.126-186.197,186.283c-0.394,4.687,3.079,8.809,7.765,9.216h0.768c4.459,0.014,8.177-3.406,8.533-7.851    c7.735-90.86,79.806-162.932,170.667-170.667C244.387,68.543,247.861,64.42,247.467,59.733z"/>
	</g>
</g>
<g>
	<g>
		<path d="M247.509,93.909c-0.495-4.713-4.716-8.132-9.429-7.637C158.119,94.973,94.973,158.119,86.272,238.08    c0,0.003-0.001,0.006-0.001,0.009c-0.492,4.687,2.909,8.886,7.596,9.378h0.939c4.369,0.026,8.053-3.252,8.533-7.595    c7.857-71.9,64.633-128.676,136.533-136.533C244.585,102.844,248.004,98.622,247.509,93.909z"/>
	</g>
</g>
<g>
	<g>
		<path d="M247.509,128.043c-0.636-4.713-4.972-8.018-9.685-7.381c-61.024,8.194-109.013,56.218-117.163,117.248    c-0.605,4.664,2.677,8.938,7.339,9.557h1.109c4.315,0.086,8.015-3.065,8.619-7.339c7.198-53.289,49.111-95.202,102.4-102.4    C244.841,137.092,248.146,132.755,247.509,128.043z"/>
	</g>
</g>
<g>
	<g>
		<path d="M460.8,237.483C452.383,138.297,373.703,59.617,274.517,51.2c-0.018-0.002-0.036-0.003-0.054-0.004    c-4.699-0.361-8.801,3.156-9.162,7.855c-0.394,4.687,3.079,8.809,7.765,9.216c90.86,7.735,162.932,79.806,170.667,170.667    c0.399,4.411,4.105,7.783,8.533,7.765h0.768C457.721,246.292,461.194,242.17,460.8,237.483z"/>
	</g>
</g>
<g>
	<g>
		<path d="M426.667,237.312c-8.626-80.027-71.791-143.263-151.808-151.979c-4.713-0.495-8.935,2.924-9.429,7.637    c-0.495,4.713,2.925,8.934,7.637,9.429c71.928,7.865,128.713,64.686,136.533,136.619c0.44,4.377,4.135,7.702,8.533,7.68h0.939    c0.003,0,0.006-0.001,0.009-0.001C423.767,246.201,427.164,241.999,426.667,237.312z"/>
	</g>
</g>
<g>
	<g>
		<path d="M392.021,237.056c-7.953-61-55.717-109.147-116.651-117.589c-4.713-0.636-9.049,2.669-9.685,7.381    s2.669,9.049,7.381,9.685c53.289,7.198,95.202,49.111,102.4,102.4c0.399,4.411,4.105,7.783,8.533,7.765l0.683-0.085    C389.345,245.994,392.627,241.72,392.021,237.056z"/>
	</g>
</g>
<g>
	<g>
		<path d="M239.701,443.051c-90.86-7.735-162.932-79.806-170.667-170.667c-0.401-4.713-4.546-8.209-9.259-7.808    c-4.713,0.401-8.209,4.546-7.808,9.259c8.45,99.123,87.074,177.747,186.197,186.197h0.768l0.085,0.085    c4.713,0.188,8.686-3.479,8.875-8.192C248.082,447.213,244.414,443.239,239.701,443.051z"/>
	</g>
</g>
<g>
	<g>
		<path d="M239.872,408.661c-71.9-7.857-128.676-64.633-136.533-136.533c-0.495-4.713-4.716-8.132-9.429-7.637    c-4.713,0.495-8.132,4.716-7.637,9.429c8.663,79.994,71.819,143.185,151.808,151.893h0.853l0.085-0.085    c4.713,0.236,8.724-3.394,8.96-8.107C248.214,412.909,244.585,408.897,239.872,408.661z"/>
	</g>
</g>
<g>
	<g>
		<path d="M240.128,374.272c-53.289-7.198-95.202-49.111-102.4-102.4c-0.636-4.713-4.973-8.018-9.685-7.381    s-8.018,4.973-7.381,9.685c8.149,61.03,56.139,109.054,117.163,117.248h1.109l0.085-0.085c4.713,0.306,8.782-3.266,9.088-7.979    C248.413,378.647,244.841,374.578,240.128,374.272z"/>
	</g>
</g>
<g>
	<g>
		<path d="M452.949,265.301c-4.687-0.394-8.809,3.079-9.216,7.765c-7.735,90.86-79.806,162.932-170.667,170.667    c-4.713,0.189-8.381,4.162-8.192,8.875c0.188,4.713,4.162,8.38,8.875,8.192h0.768c99.186-8.417,177.866-87.097,186.283-186.283    c0.001-0.018,0.003-0.036,0.004-0.054C461.165,269.764,457.648,265.662,452.949,265.301z"/>
	</g>
</g>
<g>
	<g>
		<path d="M419.029,265.429c-4.713-0.495-8.935,2.925-9.429,7.637c-7.873,71.957-64.738,128.751-136.704,136.533    c-4.713,0.236-8.342,4.247-8.107,8.96s4.247,8.342,8.96,8.107h0.939c80.027-8.626,143.263-71.791,151.979-151.808    C427.162,270.146,423.742,265.924,419.029,265.429z"/>
	</g>
</g>
<g>
	<g>
		<path d="M385.152,265.685c-4.713-0.636-9.049,2.669-9.685,7.381c-7.198,53.289-49.111,95.202-102.4,102.4    c-4.713,0.189-8.381,4.162-8.192,8.875c0.188,4.713,4.162,8.38,8.875,8.192l1.195-0.427    c61.027-7.962,109.183-55.769,117.589-116.736C393.17,270.658,389.865,266.322,385.152,265.685z"/>
	</g>
</g>
<g>
	<g>
		<path d="M306.773,247.467c-3.728-6.818-8.574-12.962-14.336-18.176c-9.772-9.669-15.246-22.861-15.189-36.608v-1.877    c0.164-4.514,0.909-8.989,2.219-13.312c0.686-2.219,0.437-4.623-0.688-6.655c-2.284-4.122-7.477-5.613-11.6-3.329    c-20.398,11.255-33.722,32.06-35.413,55.296c-1.651-0.106-3.294,0.312-4.693,1.195c-16.833,10.163-27.146,28.369-27.21,48.032    c-0.1,31.105,25.033,56.401,56.138,56.502c23.962-0.098,45.247-15.326,53.077-37.973    C314.043,276.457,313.214,260.96,306.773,247.467z M295.253,272.384c-0.047,21.632-17.622,39.13-39.253,39.083    c-9.444-0.02-18.564-3.444-25.687-9.644c-16.353-14.233-18.071-39.027-3.838-55.38c3.963,9.068,10.72,16.633,19.285,21.589    c2.781,1.612,6.232,1.524,8.928-0.227c3.952-2.568,5.074-7.853,2.507-11.805c-10.785-16.714-11.083-38.117-0.768-55.125    c1.187-1.959,2.498-3.84,3.925-5.632c0.582,17.351,7.753,33.829,20.053,46.08c4.402,3.974,8.121,8.644,11.008,13.824    c2.562,5.323,3.875,11.16,3.84,17.067C295.253,272.27,295.253,272.327,295.253,272.384z"/>
	</g>
</g>
<g>
</g>
<g>
</g>
<g>
</g>
<g>
</g>
<g>
</g>
<g>
</g>
<g>
</g>
<g>
</g>
<g>
</g>
<g>
</g>
<g>
</g>
<g>
</g>
<g>
</g>
<g>
</g>
<g>
</g>
</svg>
