<?xml version="1.0" encoding="iso-8859-1"?>
<!-- Generator: Adobe Illustrator 19.0.0, SVG Export Plug-In . SVG Version: 6.00 Build 0)  -->
<svg xmlns="http://www.w3.org/2000/svg" xmlns:xlink="http://www.w3.org/1999/xlink" version="1.1" id="Layer_1" x="0px" y="0px" viewBox="0 0 512 512" style="enable-background:new 0 0 512 512;" xml:space="preserve">
<g>
	<g>
		<path d="M338.517,160l-76.8-68.267c-3.235-2.88-8.115-2.88-11.349,0L173.568,160c-1.834,1.617-2.886,3.943-2.889,6.388    c-0.007,4.713,3.808,8.539,8.521,8.546h8.533V243.2c0,4.713,3.82,8.533,8.533,8.533h42.667c4.713,0,8.533-3.82,8.533-8.533    v-34.133h17.067V243.2c0,4.713,3.821,8.533,8.533,8.533h42.667c4.713,0,8.533-3.82,8.533-8.533v-68.267h8.533    c2.475,0.021,4.837-1.033,6.474-2.889C342.391,168.509,342.052,163.117,338.517,160z M307.2,166.4v68.267h-25.6v-34.133    c0-4.713-3.821-8.533-8.533-8.533h-34.133c-4.713,0-8.533,3.82-8.533,8.533v34.133h-25.6V166.4    c-0.005-3.078-1.668-5.916-4.352-7.424L256,109.568l55.552,49.408C308.868,160.484,307.205,163.322,307.2,166.4z"/>
	</g>
</g>
<g>
	<g>
		<path d="M469.333,21.333H42.667C19.103,21.333,0,40.436,0,64v238.933c0,4.713,3.82,8.533,8.533,8.533h494.933    c4.713,0,8.533-3.82,8.533-8.533V64C512,40.436,492.898,21.333,469.333,21.333z M494.933,294.4H17.067V64    c0-14.138,11.462-25.6,25.6-25.6h426.667c14.138,0,25.6,11.461,25.6,25.6V294.4z"/>
	</g>
</g>
<g>
	<g>
		<path d="M503.467,294.4H8.533C3.82,294.4,0,298.221,0,302.933v51.2C0,377.698,19.103,396.8,42.667,396.8h426.667    c23.564,0,42.667-19.103,42.667-42.667v-51.2C512,298.221,508.18,294.4,503.467,294.4z M494.933,354.133    c0,14.138-11.461,25.6-25.6,25.6H42.667c-14.138,0-25.6-11.462-25.6-25.6v-42.667h477.867V354.133z"/>
	</g>
</g>
<g>
	<g>
		<path d="M332.203,442.88c-11.022-16.055-16.778-35.141-16.469-54.613c0-4.713-3.82-8.533-8.533-8.533H204.8    c-4.713,0-8.533,3.82-8.533,8.533c0.348,19.387-5.316,38.405-16.213,54.443c-1.2,1.519-1.849,3.401-1.838,5.337    c0.026,4.713,3.867,8.513,8.579,8.487h138.411c1.906,0.038,3.769-0.562,5.294-1.706    C334.269,451.999,335.031,446.65,332.203,442.88z M202.155,439.467c6.423-13.375,10.218-27.86,11.179-42.667h85.333    c0.964,14.806,4.759,29.29,11.179,42.667H202.155z"/>
	</g>
</g>
<g>
	<g>
		<path d="M426.667,439.467H85.333c-14.138,0-25.6,11.461-25.6,25.6s11.461,25.6,25.6,25.6h341.333c14.138,0,25.6-11.461,25.6-25.6    S440.805,439.467,426.667,439.467z M426.667,473.6H85.333c-4.713,0-8.533-3.82-8.533-8.533s3.82-8.533,8.533-8.533h341.333    c4.713,0,8.533,3.82,8.533,8.533S431.38,473.6,426.667,473.6z"/>
	</g>
</g>
<g>
	<g>
		<path d="M51.2,55.467h-8.533c-4.713,0-8.533,3.82-8.533,8.533s3.82,8.533,8.533,8.533H51.2c4.713,0,8.533-3.821,8.533-8.533    S55.913,55.467,51.2,55.467z"/>
	</g>
</g>
<g>
	<g>
		<path d="M204.8,55.467H85.333c-4.713,0-8.533,3.82-8.533,8.533s3.82,8.533,8.533,8.533H204.8c4.713,0,8.533-3.821,8.533-8.533    S209.513,55.467,204.8,55.467z"/>
	</g>
</g>
<g>
	<g>
		<path d="M264.533,337.067h-17.067c-4.713,0-8.533,3.82-8.533,8.533s3.82,8.533,8.533,8.533h17.067c4.713,0,8.533-3.82,8.533-8.533    S269.246,337.067,264.533,337.067z"/>
	</g>
</g>
<g>
</g>
<g>
</g>
<g>
</g>
<g>
</g>
<g>
</g>
<g>
</g>
<g>
</g>
<g>
</g>
<g>
</g>
<g>
</g>
<g>
</g>
<g>
</g>
<g>
</g>
<g>
</g>
<g>
</g>
</svg>
