<?xml version="1.0" encoding="iso-8859-1"?>
<!-- Generator: Adobe Illustrator 19.0.0, SVG Export Plug-In . SVG Version: 6.00 Build 0)  -->
<svg xmlns="http://www.w3.org/2000/svg" xmlns:xlink="http://www.w3.org/1999/xlink" version="1.1" id="Layer_1" x="0px" y="0px" viewBox="0 0 512 512" style="enable-background:new 0 0 512 512;" xml:space="preserve">
<g>
	<g>
		<path d="M349.867,0H162.133c-23.564,0-42.667,19.103-42.667,42.667V102.4h273.067V42.667C392.533,19.103,373.431,0,349.867,0z     M375.467,85.333H136.533V42.667c0-14.138,11.462-25.6,25.6-25.6h187.733c14.138,0,25.6,11.462,25.6,25.6V85.333z"/>
	</g>
</g>
<g>
	<g>
		<path d="M119.467,358.4v110.933c0,23.564,19.103,42.667,42.667,42.667h187.733c23.564,0,42.667-19.102,42.667-42.667V358.4    H119.467z M375.467,469.333c0,14.138-11.461,25.6-25.6,25.6H162.133c-14.138,0-25.6-11.461-25.6-25.6v-93.867h238.933V469.333z"/>
	</g>
</g>
<g>
	<g>
		<path d="M256,392.533c-23.564,0-42.667,19.103-42.667,42.667s19.102,42.667,42.667,42.667s42.667-19.103,42.667-42.667    S279.564,392.533,256,392.533z M256,460.8c-14.138,0-25.6-11.462-25.6-25.6s11.461-25.6,25.6-25.6s25.6,11.461,25.6,25.6    S270.138,460.8,256,460.8z"/>
	</g>
</g>
<g>
	<g>
		<path d="M119.467,85.333v290.133h273.067V85.333H119.467z M375.467,358.4H136.533v-256h238.933V358.4z"/>
	</g>
</g>
<g>
	<g>
		<path d="M281.6,42.667h-51.2c-4.713,0-8.533,3.82-8.533,8.533s3.82,8.533,8.533,8.533h51.2c4.713,0,8.533-3.82,8.533-8.533    S286.313,42.667,281.6,42.667z"/>
	</g>
</g>
<g>
	<g>
		<path d="M338.517,215.467l-76.8-68.267c-3.235-2.88-8.115-2.88-11.349,0l-76.8,68.267c-1.834,1.617-2.886,3.943-2.889,6.388    c-0.007,4.713,3.808,8.539,8.521,8.546h8.533v68.267c0,4.713,3.82,8.533,8.533,8.533h42.667c4.713,0,8.533-3.82,8.533-8.533    v-34.133h17.067v34.133c0,4.713,3.821,8.533,8.533,8.533h42.667c4.713,0,8.533-3.82,8.533-8.533V230.4h8.533    c2.475,0.021,4.837-1.033,6.474-2.889C342.391,223.976,342.052,218.584,338.517,215.467z M307.2,221.867v68.267h-25.6V256    c0-4.713-3.821-8.533-8.533-8.533h-34.133c-4.713,0-8.533,3.82-8.533,8.533v34.133h-25.6v-68.267    c-0.005-3.079-1.668-5.916-4.352-7.424L256,165.035l55.552,49.408C308.868,215.951,307.205,218.788,307.2,221.867z"/>
	</g>
</g>
<g>
</g>
<g>
</g>
<g>
</g>
<g>
</g>
<g>
</g>
<g>
</g>
<g>
</g>
<g>
</g>
<g>
</g>
<g>
</g>
<g>
</g>
<g>
</g>
<g>
</g>
<g>
</g>
<g>
</g>
</svg>
