<?xml version="1.0" encoding="iso-8859-1"?>
<!-- Generator: Adobe Illustrator 19.0.0, SVG Export Plug-In . SVG Version: 6.00 Build 0)  -->
<svg xmlns="http://www.w3.org/2000/svg" xmlns:xlink="http://www.w3.org/1999/xlink" version="1.1" id="Layer_1" x="0px" y="0px" viewBox="0 0 512.284 512.284" style="enable-background:new 0 0 512.284 512.284;" xml:space="preserve">
<g>
	<g>
		<path d="M436.196,297.842l-112.64-75.008c-2.808-1.802-6.408-1.802-9.216,0c-35.781,21.637-80.613,21.637-116.395,0    c-2.808-1.801-6.408-1.801-9.216,0L76.003,297.842c-4.761,3.176-7.613,8.528-7.595,14.251v12.459    c0,9.426,7.641,17.067,17.067,17.067v153.6c0,9.426,7.641,17.067,17.067,17.067h17.067c9.426,0,17.067-7.641,17.067-17.067v-102.4    h59.733v102.4c0,9.426,7.641,17.067,17.067,17.067h196.267c9.426,0,17.067-7.641,17.067-17.067v-153.6    c9.426,0,17.067-7.641,17.067-17.067v-12.459C443.875,306.353,440.989,300.998,436.196,297.842z M426.809,324.551    c-9.426,0-17.067,7.641-17.067,17.067v153.6H213.475v-102.4c0-9.426-7.641-17.067-17.067-17.067h-59.733    c-9.426,0-17.067,7.641-17.067,17.067v102.4h-17.067v-153.6c0-9.426-7.641-17.067-17.067-17.067v-12.544l108.203-72.021    c38.904,21.359,86.024,21.359,124.928,0l108.203,72.107V324.551z"/>
	</g>
</g>
<g>
	<g>
		<path d="M134.201,327.026c-0.829-0.754-1.782-1.36-2.816-1.792c-3.178-1.336-6.847-0.629-9.301,1.792    c-1.597,1.61-2.488,3.79-2.475,6.059c-0.013,2.268,0.877,4.448,2.475,6.059c0.829,0.754,1.782,1.36,2.816,1.792    c1.026,0.437,2.128,0.669,3.243,0.683c2.268,0.013,4.448-0.877,6.059-2.475c0.751-0.831,1.357-1.783,1.792-2.816    c0.478-1.013,0.712-2.123,0.683-3.243C136.644,330.825,135.76,328.661,134.201,327.026z"/>
	</g>
</g>
<g>
	<g>
		<path d="M367.075,324.551H153.742c-4.713,0-8.533,3.821-8.533,8.533c0,4.713,3.821,8.533,8.533,8.533h213.333    c4.713,0,8.533-3.821,8.533-8.533C375.609,328.371,371.788,324.551,367.075,324.551z"/>
	</g>
</g>
<g>
	<g>
		<path d="M335.246,27.375c-55.577-43.688-136.047-34.05-179.735,21.527c-43.688,55.577-34.05,136.047,21.527,179.735    c3.794,3.061,7.753,5.909,11.861,8.533c20.19,12.525,43.483,19.147,67.243,19.115c23.76,0.036,47.055-6.585,67.243-19.115    c4.109-2.622,8.069-5.47,11.861-8.533c8.006-6.294,15.233-13.52,21.527-21.527C400.461,151.533,390.823,71.063,335.246,27.375z     M324.409,215.41c-36.442,28.496-86.741,31.387-126.208,7.253c-3.572-2.226-7.019-4.648-10.325-7.253    c-26.579-20.948-42.143-52.883-42.265-86.725c-0.221-61.266,49.265-111.112,110.532-111.334    c33.842,0.122,65.777,15.686,86.725,42.265C380.791,107.734,372.527,177.485,324.409,215.41z"/>
	</g>
</g>
<g>
	<g>
		<path d="M337.892,89.628c-4.899-11.525-14.075-20.701-25.6-25.6c-11.95-5.035-25.426-5.035-37.376,0    c-5.729,2.39-10.922,5.9-15.275,10.325c-1.218,1.206-2.358,2.489-3.413,3.84c-1.031-1.319-2.142-2.573-3.328-3.755    c-4.353-4.425-9.546-7.935-15.275-10.325c-11.95-5.035-25.426-5.035-37.376,0c-5.727,2.392-10.92,5.902-15.275,10.325    c-13.878,13.896-17.96,34.812-10.325,52.907l0.427,0.939l1.28,1.792c0.293,0.516,0.636,1.002,1.024,1.451l69.12,77.739    c2.443,2.764,5.954,4.349,9.643,4.352c3.621,0.096,7.118-1.328,9.643-3.925l69.12-77.739c0.388-0.449,0.731-0.935,1.024-1.451    l1.28-2.219l0.683-1.109C342.946,115.17,342.946,101.634,337.892,89.628z M322.19,119.751l-66.048,74.667l-65.451-73.557    l-0.597-1.109c-1.465-3.664-2.218-7.574-2.219-11.52c-0.116-4.142,0.61-8.264,2.133-12.117c1.535-3.711,3.798-7.077,6.656-9.899    c2.792-2.854,6.129-5.118,9.813-6.656c7.686-3.282,16.378-3.282,24.064,0c3.838,1.485,7.325,3.752,10.24,6.656    c3.136,3.452,5.674,7.403,7.509,11.691c0.867,2.109,2.541,3.784,4.651,4.651c4.359,1.791,9.345-0.292,11.136-4.651    c1.853-4.324,4.42-8.305,7.595-11.776c2.79-2.856,6.128-5.12,9.813-6.656c7.686-3.282,16.378-3.282,24.064,0    c3.692,1.564,7.029,3.857,9.813,6.741c2.856,2.823,5.119,6.188,6.656,9.899c1.613,3.834,2.426,7.958,2.389,12.117    C324.408,112.177,323.655,116.087,322.19,119.751z"/>
	</g>
</g>
<g>
</g>
<g>
</g>
<g>
</g>
<g>
</g>
<g>
</g>
<g>
</g>
<g>
</g>
<g>
</g>
<g>
</g>
<g>
</g>
<g>
</g>
<g>
</g>
<g>
</g>
<g>
</g>
<g>
</g>
</svg>
