<?xml version="1.0" encoding="iso-8859-1"?>
<!-- Generator: Adobe Illustrator 19.0.0, SVG Export Plug-In . SVG Version: 6.00 Build 0)  -->
<svg xmlns="http://www.w3.org/2000/svg" xmlns:xlink="http://www.w3.org/1999/xlink" version="1.1" id="Layer_1" x="0px" y="0px" viewBox="0 0 512 512" style="enable-background:new 0 0 512 512;" xml:space="preserve">
<g>
	<g>
		<path d="M260.267,0h-8.533c-92.272,3.634-165.471,79.011-166.4,171.349c0.271,40.959,15.263,80.454,42.24,111.275    c3.243,3.755,5.803,6.485,9.984,10.923s8.107,8.533,11.776,12.971c6.772,8.063,12.933,16.62,18.432,25.6    c6.667,10.71,12.051,22.166,16.043,34.133c2.641,8.685,3.964,17.717,3.925,26.795c0.277,9.225,7.837,16.559,17.067,16.555h102.4    c9.229,0.004,16.79-7.33,17.067-16.555c-0.153-8.971,1.026-17.914,3.499-26.539c3.994-11.966,9.379-23.422,16.043-34.133    c5.5-8.979,11.661-17.536,18.432-25.6c3.669-4.523,8.448-9.472,11.776-13.056s6.741-7.168,9.984-10.923    c27.169-30.804,42.318-70.373,42.667-111.445C425.737,79.011,352.538,3.634,260.267,0z M371.883,271.616    c-3.072,3.499-5.461,5.888-9.472,10.325c-4.011,4.437-8.533,8.96-12.544,13.909c-7.459,8.75-14.248,18.049-20.309,27.819    c-7.331,11.754-13.259,24.327-17.664,37.461c-3.138,10.171-4.72,20.758-4.693,31.403H204.8    c0.014-10.671-1.568-21.285-4.693-31.488c-4.402-13.135-10.33-25.709-17.664-37.461c-5.926-9.755-12.572-19.054-19.883-27.819    c-4.011-4.949-9.301-10.581-12.544-13.909s-6.485-6.741-9.557-10.325c-24.302-27.742-37.811-63.301-38.059-100.181    C103.405,86.826,171.482,18.446,256,17.067c84.518,1.38,152.595,69.759,153.6,154.283    C409.467,208.215,396.08,243.803,371.883,271.616z"/>
	</g>
</g>
<g>
	<g>
		<path d="M204.8,392.533v34.133c0,9.426,7.641,17.067,17.067,17.067h68.267c9.426,0,17.067-7.641,17.067-17.067v-34.133H204.8z     M290.133,426.667h-68.267V409.6h68.267V426.667z"/>
	</g>
</g>
<g>
	<g>
		<path d="M221.867,426.667V460.8c0,9.426,7.641,17.067,17.067,17.067h34.133c9.426,0,17.067-7.641,17.067-17.067v-34.133H221.867z     M273.067,460.8h-34.133v-17.067h34.133V460.8z"/>
	</g>
</g>
<g>
	<g>
		<path d="M230.4,460.8v34.133c0,9.426,7.641,17.067,17.067,17.067h17.067c9.426,0,17.067-7.641,17.067-17.067V460.8H230.4z     M264.533,494.933h-17.067v-17.067h17.067V494.933z"/>
	</g>
</g>
<g>
	<g>
		<path d="M243.285,332.203c-0.256-0.085-21.419-13.483-21.419-30.549V281.6c0-4.713-3.821-8.533-8.533-8.533    c-4.713,0-8.533,3.821-8.533,8.533v19.712c0,21.504,17.067,36.693,25.6,42.667v48.555c0,4.713,3.82,8.533,8.533,8.533    s8.533-3.821,8.533-8.533v-52.992C247.466,336.529,245.877,333.739,243.285,332.203z"/>
	</g>
</g>
<g>
	<g>
		<path d="M298.667,273.067c-4.713,0-8.533,3.821-8.533,8.533v19.883c0,17.579-21.419,30.635-21.419,30.635    c-2.592,1.537-4.181,4.326-4.181,7.339v53.077c0,4.713,3.821,8.533,8.533,8.533c4.713,0,8.533-3.821,8.533-8.533V344.32    c8.533-6.229,25.6-21.333,25.6-42.667V281.6C307.2,276.887,303.379,273.067,298.667,273.067z"/>
	</g>
</g>
<g>
	<g>
		<path d="M310.016,128c-5.912-12.523-15.992-22.602-28.514-28.514C251.67,85.402,216.068,98.168,201.984,128    c-3.821,7.99-5.776,16.744-5.717,25.6c0.016,16.318,6.706,31.919,18.517,43.179c1.371,1.341,2.825,2.595,4.352,3.755    c1.645,1.281,3.354,2.477,5.12,3.584l2.304,1.28c8.919,5.25,19.091,7.992,29.44,7.936c10.304,0.092,20.444-2.59,29.355-7.765    l2.816-1.621c1.707-1.024,3.243-2.219,5.035-3.584c1.628-1.259,3.167-2.627,4.608-4.096    C316.026,178.444,320.926,151.029,310.016,128z M285.781,183.979c-0.963,0.977-1.989,1.889-3.072,2.731l-3.413,2.475l-2.475,1.451    c-12.925,7.402-28.803,7.402-41.728,0l-1.963-1.109l-3.499-2.475c-1.016-0.766-1.985-1.593-2.901-2.475    c-8.533-8.045-13.378-19.248-13.397-30.976c-0.042-6.255,1.329-12.439,4.011-18.091c7.104-14.929,22.123-24.478,38.656-24.576    c16.513,0.012,31.536,9.551,38.571,24.491c2.715,5.673,4.115,11.886,4.096,18.176C298.62,165.045,293.977,175.99,285.781,183.979z    "/>
	</g>
</g>
<g>
	<g>
		<path d="M256,128c-4.713,0-8.533,3.82-8.533,8.533v34.133c0,4.713,3.82,8.533,8.533,8.533s8.533-3.82,8.533-8.533v-34.133    C264.533,131.82,260.713,128,256,128z"/>
	</g>
</g>
<g>
</g>
<g>
</g>
<g>
</g>
<g>
</g>
<g>
</g>
<g>
</g>
<g>
</g>
<g>
</g>
<g>
</g>
<g>
</g>
<g>
</g>
<g>
</g>
<g>
</g>
<g>
</g>
<g>
</g>
</svg>
