<?xml version="1.0" encoding="iso-8859-1"?>
<!-- Generator: Adobe Illustrator 19.0.0, SVG Export Plug-In . SVG Version: 6.00 Build 0)  -->
<svg xmlns="http://www.w3.org/2000/svg" xmlns:xlink="http://www.w3.org/1999/xlink" version="1.1" id="Layer_1" x="0px" y="0px" viewBox="0 0 512 512" style="enable-background:new 0 0 512 512;" xml:space="preserve">
<g>
	<g>
		<path d="M486.4,230.397H329.557c-1.915-0.013-3.778,0.618-5.291,1.792c-3.366,2.552-6.87,4.916-10.496,7.083l-2.731,1.536    c-34.36,19.677-76.573,19.677-110.933,0l-2.304-1.365c-3.573-2.225-7.02-4.647-10.325-7.253c-1.513-1.174-3.376-1.805-5.291-1.792    H25.6c-14.138,0-25.6,11.461-25.6,25.6v179.2c0,14.138,11.461,25.6,25.6,25.6h460.8c14.138,0,25.6-11.462,25.6-25.6v-179.2    C512,241.859,500.539,230.397,486.4,230.397z M494.933,435.197c0,4.713-3.82,8.533-8.533,8.533H25.6    c-4.713,0-8.533-3.821-8.533-8.533v-179.2c0-4.713,3.82-8.533,8.533-8.533l153.429,0.256c2.987,2.219,6.144,4.352,9.387,6.4    l3.243,1.877c39.556,23.043,88.444,23.043,128,0c1.258-0.618,2.483-1.302,3.669-2.048c3.328-2.048,6.485-4.181,9.472-6.485h153.6    c4.713,0,8.533,3.821,8.533,8.533V435.197z"/>
	</g>
</g>
<g>
	<g>
		<path d="M256,307.197c-23.564,0-42.667,19.103-42.667,42.667s19.102,42.667,42.667,42.667s42.667-19.103,42.667-42.667    S279.564,307.197,256,307.197z M256,375.464c-14.138,0-25.6-11.461-25.6-25.6s11.461-25.6,25.6-25.6s25.6,11.461,25.6,25.6    S270.138,375.464,256,375.464z"/>
	</g>
</g>
<g>
	<g>
		<path d="M256,290.131c-4.713,0-8.533,3.82-8.533,8.533v17.067c0,4.713,3.82,8.533,8.533,8.533s8.533-3.821,8.533-8.533v-17.067    C264.533,293.951,260.713,290.131,256,290.131z"/>
	</g>
</g>
<g>
	<g>
		<path d="M256,375.464c-4.713,0-8.533,3.821-8.533,8.533v17.067c0,4.713,3.82,8.533,8.533,8.533s8.533-3.82,8.533-8.533v-17.067    C264.533,379.285,260.713,375.464,256,375.464z"/>
	</g>
</g>
<g>
	<g>
		<path d="M221.867,341.331H204.8c-4.713,0-8.533,3.82-8.533,8.533s3.82,8.533,8.533,8.533h17.067c4.713,0,8.533-3.82,8.533-8.533    S226.58,341.331,221.867,341.331z"/>
	</g>
</g>
<g>
	<g>
		<path d="M307.2,341.331h-17.067c-4.713,0-8.533,3.82-8.533,8.533s3.82,8.533,8.533,8.533H307.2c4.713,0,8.533-3.82,8.533-8.533    S311.913,341.331,307.2,341.331z"/>
	</g>
</g>
<g>
	<g>
		<path d="M64,324.264c-16.495,0-29.867,13.372-29.867,29.867S47.505,383.997,64,383.997c16.495,0,29.867-13.372,29.867-29.867    S80.495,324.264,64,324.264z M64,366.931c-7.069,0-12.8-5.731-12.8-12.8c0-7.069,5.731-12.8,12.8-12.8    c7.069,0,12.8,5.731,12.8,12.8C76.8,361.2,71.069,366.931,64,366.931z"/>
	</g>
</g>
<g>
	<g>
		<path d="M140.8,324.264c-16.495,0-29.867,13.372-29.867,29.867s13.372,29.867,29.867,29.867c16.495,0,29.867-13.372,29.867-29.867    S157.295,324.264,140.8,324.264z M140.8,366.931c-7.069,0-12.8-5.731-12.8-12.8c0-7.069,5.731-12.8,12.8-12.8    c7.069,0,12.8,5.731,12.8,12.8C153.6,361.2,147.869,366.931,140.8,366.931z"/>
	</g>
</g>
<g>
	<g>
		<path d="M397.653,343.037l-34.133-25.6c-1.477-1.108-3.274-1.707-5.12-1.707c-4.713,0-8.533,3.821-8.533,8.533v51.2    c0,4.713,3.82,8.533,8.533,8.533c1.846,0,3.643-0.599,5.12-1.707l34.133-25.6c0.647-0.485,1.221-1.06,1.707-1.707    C402.188,351.214,401.424,345.865,397.653,343.037z M366.933,358.397v-17.067l11.349,8.533L366.933,358.397z"/>
	</g>
</g>
<g>
	<g>
		<path d="M435.2,324.264c-4.713,0-8.533,3.82-8.533,8.533v34.133c0,4.713,3.82,8.533,8.533,8.533s8.533-3.82,8.533-8.533v-34.133    C443.733,328.085,439.913,324.264,435.2,324.264z"/>
	</g>
</g>
<g>
	<g>
		<path d="M469.333,324.264c-4.713,0-8.533,3.82-8.533,8.533v34.133c0,4.713,3.82,8.533,8.533,8.533s8.533-3.82,8.533-8.533v-34.133    C477.867,328.085,474.046,324.264,469.333,324.264z"/>
	</g>
</g>
<g>
	<g>
		<path d="M477.867,443.731h-435.2c-4.713,0-8.533,3.82-8.533,8.533v17.067c0,14.138,11.461,25.6,25.6,25.6H460.8    c14.138,0,25.6-11.461,25.6-25.6v-17.067C486.4,447.551,482.58,443.731,477.867,443.731z M469.333,469.331    c0,4.713-3.82,8.533-8.533,8.533H59.733c-4.713,0-8.533-3.82-8.533-8.533v-8.533h418.133V469.331z"/>
	</g>
</g>
<g>
	<g>
		<path d="M371.627,90.195c-12.645-26.629-34.093-48.078-60.722-60.722C247.045-0.85,170.696,26.336,140.373,90.195    c-8.197,17.127-12.426,35.882-12.373,54.869c0,3.157,0,6.229,0,9.045c0.984,12.591,3.86,24.961,8.533,36.693    c6.556,17.164,16.744,32.708,29.867,45.568c3.3,3.291,6.806,6.369,10.496,9.216c3.764,3.061,7.695,5.91,11.776,8.533l3.243,1.877    c19.465,11.285,41.586,17.176,64.085,17.067c22.27,0.14,44.178-5.632,63.488-16.725c1.258-0.618,2.483-1.302,3.669-2.048    c4.079-2.626,8.011-5.474,11.776-8.533c3.69-2.847,7.195-5.926,10.496-9.216c13.192-12.903,23.439-28.506,30.037-45.739    c4.655-11.649,7.532-23.932,8.533-36.437c0-3.072,0-6.144,0-9.301C384.056,126.076,379.826,107.321,371.627,90.195z     M366.933,153.085c-0.929,10.847-3.489,21.491-7.595,31.573c-5.737,14.957-14.645,28.494-26.112,39.68    c-2.813,2.809-5.806,5.431-8.96,7.851c-3.449,2.559-7.039,4.924-10.752,7.083l-2.731,1.536c-34.36,19.677-76.573,19.677-110.933,0    l-2.304-1.365c-3.602-2.222-7.078-4.644-10.411-7.253c-3.155-2.419-6.148-5.041-8.96-7.851    c-11.457-11.161-20.364-24.668-26.112-39.595c-3.926-10.225-6.285-20.985-6.997-31.915c0-2.56,0-5.12,0-7.765    c-0.065-16.444,3.581-32.691,10.667-47.531C174.212,58.903,213.177,34.263,256,34.131c42.823,0.133,81.788,24.772,100.267,63.403    c7.088,14.839,10.734,31.086,10.667,47.531C366.933,147.709,366.933,150.269,366.933,153.085z"/>
	</g>
</g>
<g>
	<g>
		<path d="M51.2,264.531h-8.533c-4.713,0-8.533,3.82-8.533,8.533s3.82,8.533,8.533,8.533H51.2c4.713,0,8.533-3.82,8.533-8.533    S55.913,264.531,51.2,264.531z"/>
	</g>
</g>
<g>
	<g>
		<path d="M170.667,264.531H85.333c-4.713,0-8.533,3.82-8.533,8.533s3.82,8.533,8.533,8.533h85.333c4.713,0,8.533-3.82,8.533-8.533    S175.38,264.531,170.667,264.531z"/>
	</g>
</g>
<g>
	<g>
		<path d="M109.269,446.333c-3.299-3.37-8.705-3.427-12.075-0.128l-34.901,34.133c-1.607,1.594-2.515,3.76-2.524,6.023    c-0.02,4.713,3.785,8.549,8.497,8.569c2.227,0.013,4.37-0.844,5.973-2.389l34.901-34.133    C112.511,455.109,112.568,449.703,109.269,446.333z"/>
	</g>
</g>
<g>
	<g>
		<path d="M152.875,446.333c-3.299-3.37-8.705-3.427-12.075-0.128l-34.901,34.133c-1.607,1.594-2.515,3.76-2.524,6.023    c-0.02,4.713,3.785,8.549,8.497,8.569c2.227,0.013,4.37-0.844,5.973-2.389l34.901-34.133    C156.116,455.109,156.174,449.703,152.875,446.333z"/>
	</g>
</g>
<g>
	<g>
		<path d="M196.462,444.678c-3.727-2.884-9.087-2.2-11.971,1.527l-34.901,34.133c-1.607,1.594-2.515,3.76-2.524,6.023    c-0.02,4.713,3.785,8.549,8.497,8.569c2.179-0.053,4.256-0.939,5.803-2.475l34.901-34.133c0.65-0.474,1.23-1.037,1.722-1.674    C200.873,452.922,200.189,447.562,196.462,444.678z"/>
	</g>
</g>
<g>
	<g>
		<path d="M240.171,446.333c-3.299-3.37-8.705-3.427-12.075-0.128l-34.901,34.133c-1.607,1.594-2.515,3.76-2.524,6.023    c-0.02,4.713,3.785,8.549,8.497,8.569c2.227,0.013,4.37-0.844,5.973-2.389l34.901-34.133    C243.412,455.109,243.47,449.703,240.171,446.333z"/>
	</g>
</g>
<g>
	<g>
		<path d="M283.776,446.333c-3.299-3.37-8.705-3.427-12.075-0.128L236.8,480.339c-1.607,1.594-2.515,3.76-2.524,6.023    c-0.02,4.713,3.785,8.549,8.497,8.569c2.227,0.013,4.37-0.844,5.973-2.389l34.901-34.133    C287.018,455.109,287.075,449.703,283.776,446.333z"/>
	</g>
</g>
<g>
	<g>
		<path d="M327.467,446.333c-3.299-3.37-8.705-3.427-12.075-0.128l-34.901,34.133c-1.607,1.594-2.515,3.76-2.524,6.023    c-0.02,4.713,3.785,8.549,8.497,8.569c2.227,0.013,4.37-0.844,5.973-2.389l34.901-34.133    C330.708,455.109,330.766,449.703,327.467,446.333z"/>
	</g>
</g>
<g>
	<g>
		<path d="M371.072,446.333c-3.299-3.37-8.705-3.427-12.075-0.128l-34.901,34.133c-1.607,1.594-2.515,3.76-2.524,6.023    c-0.02,4.713,3.785,8.549,8.497,8.569c2.227,0.013,4.37-0.844,5.973-2.389l34.901-34.133    C374.314,455.109,374.371,449.703,371.072,446.333z"/>
	</g>
</g>
<g>
	<g>
		<path d="M414.763,446.333c-3.299-3.37-8.705-3.427-12.075-0.128l-34.901,34.133c-1.607,1.594-2.515,3.76-2.524,6.023    c-0.02,4.713,3.785,8.549,8.497,8.569c2.227,0.013,4.37-0.844,5.973-2.389l34.901-34.133    C418.004,455.109,418.062,449.703,414.763,446.333z"/>
	</g>
</g>
<g>
	<g>
		<path d="M458.368,446.333c-3.299-3.37-8.705-3.427-12.075-0.128l-34.901,34.133c-1.607,1.594-2.515,3.76-2.524,6.023    c-0.02,4.713,3.785,8.549,8.497,8.569c2.227,0.013,4.37-0.844,5.973-2.389l34.901-34.133    C461.61,455.109,461.667,449.703,458.368,446.333z"/>
	</g>
</g>
<g>
	<g>
		<path d="M221.867,93.864c-14.138,0-25.6,11.461-25.6,25.6v51.2c0,14.138,11.462,25.6,25.6,25.6s25.6-11.462,25.6-25.6v-51.2    C247.467,105.326,236.005,93.864,221.867,93.864z M230.4,170.664c0,4.713-3.82,8.533-8.533,8.533s-8.533-3.82-8.533-8.533v-51.2    c0-4.713,3.82-8.533,8.533-8.533s8.533,3.82,8.533,8.533V170.664z"/>
	</g>
</g>
<g>
	<g>
		<path d="M290.133,93.864c-14.138,0-25.6,11.461-25.6,25.6v51.2c0,14.138,11.462,25.6,25.6,25.6s25.6-11.462,25.6-25.6v-51.2    C315.733,105.326,304.272,93.864,290.133,93.864z M298.667,170.664c0,4.713-3.82,8.533-8.533,8.533s-8.533-3.82-8.533-8.533v-51.2    c0-4.713,3.82-8.533,8.533-8.533s8.533,3.82,8.533,8.533V170.664z"/>
	</g>
</g>
<g>
</g>
<g>
</g>
<g>
</g>
<g>
</g>
<g>
</g>
<g>
</g>
<g>
</g>
<g>
</g>
<g>
</g>
<g>
</g>
<g>
</g>
<g>
</g>
<g>
</g>
<g>
</g>
<g>
</g>
</svg>
