<?xml version="1.0" encoding="iso-8859-1"?>
<!-- Generator: Adobe Illustrator 19.0.0, SVG Export Plug-In . SVG Version: 6.00 Build 0)  -->
<svg xmlns="http://www.w3.org/2000/svg" xmlns:xlink="http://www.w3.org/1999/xlink" version="1.1" id="Layer_1" x="0px" y="0px" viewBox="0 0 512 512" style="enable-background:new 0 0 512 512;" xml:space="preserve">
<g>
	<g>
		<path d="M486.4,230.442H329.557c-1.915-0.013-3.778,0.618-5.291,1.792c-3.368,2.523-6.872,4.858-10.496,6.997l-2.731,1.536    c-34.356,19.694-76.578,19.694-110.933,0l-2.304-1.28c-3.573-2.225-7.02-4.647-10.325-7.253c-1.513-1.174-3.376-1.805-5.291-1.792    H25.6c-14.138,0-25.6,11.461-25.6,25.6v179.2c0,14.138,11.461,25.6,25.6,25.6h460.8c14.138,0,25.6-11.462,25.6-25.6v-179.2    C512,241.904,500.539,230.442,486.4,230.442z M494.933,435.242c0,4.713-3.82,8.533-8.533,8.533H25.6    c-4.713,0-8.533-3.821-8.533-8.533v-179.2c0-4.713,3.82-8.533,8.533-8.533l153.429,0.341c2.987,2.219,6.144,4.352,9.387,6.4    l3.243,1.877c39.556,23.042,88.444,23.042,128,0c1.258-0.649,2.483-1.361,3.669-2.133c3.328-2.048,6.4-4.181,9.472-6.485h153.6    c4.713,0,8.533,3.821,8.533,8.533V435.242z"/>
	</g>
</g>
<g>
	<g>
		<path d="M256,307.242c-23.564,0-42.667,19.103-42.667,42.667s19.102,42.667,42.667,42.667s42.667-19.103,42.667-42.667    S279.564,307.242,256,307.242z M256,375.509c-14.138,0-25.6-11.461-25.6-25.6s11.461-25.6,25.6-25.6s25.6,11.461,25.6,25.6    S270.138,375.509,256,375.509z"/>
	</g>
</g>
<g>
	<g>
		<path d="M256,290.176c-4.713,0-8.533,3.82-8.533,8.533v17.067c0,4.713,3.82,8.533,8.533,8.533s8.533-3.821,8.533-8.533v-17.067    C264.533,293.996,260.713,290.176,256,290.176z"/>
	</g>
</g>
<g>
	<g>
		<path d="M256,375.509c-4.713,0-8.533,3.821-8.533,8.533v17.067c0,4.713,3.82,8.533,8.533,8.533s8.533-3.82,8.533-8.533v-17.067    C264.533,379.33,260.713,375.509,256,375.509z"/>
	</g>
</g>
<g>
	<g>
		<path d="M221.867,341.376H204.8c-4.713,0-8.533,3.82-8.533,8.533s3.82,8.533,8.533,8.533h17.067c4.713,0,8.533-3.82,8.533-8.533    S226.58,341.376,221.867,341.376z"/>
	</g>
</g>
<g>
	<g>
		<path d="M307.2,341.376h-17.067c-4.713,0-8.533,3.82-8.533,8.533s3.82,8.533,8.533,8.533H307.2c4.713,0,8.533-3.82,8.533-8.533    S311.913,341.376,307.2,341.376z"/>
	</g>
</g>
<g>
	<g>
		<path d="M64,324.309c-16.495,0-29.867,13.372-29.867,29.867S47.505,384.043,64,384.043c16.495,0,29.867-13.372,29.867-29.867    S80.495,324.309,64,324.309z M64,366.976c-7.069,0-12.8-5.731-12.8-12.8c0-7.069,5.731-12.8,12.8-12.8    c7.069,0,12.8,5.731,12.8,12.8C76.8,361.245,71.069,366.976,64,366.976z"/>
	</g>
</g>
<g>
	<g>
		<path d="M140.8,324.309c-16.495,0-29.867,13.372-29.867,29.867s13.372,29.867,29.867,29.867c16.495,0,29.867-13.372,29.867-29.867    S157.295,324.309,140.8,324.309z M140.8,366.976c-7.069,0-12.8-5.731-12.8-12.8c0-7.069,5.731-12.8,12.8-12.8    c7.069,0,12.8,5.731,12.8,12.8C153.6,361.245,147.869,366.976,140.8,366.976z"/>
	</g>
</g>
<g>
	<g>
		<path d="M397.653,343.082l-34.133-25.6c-1.477-1.108-3.274-1.707-5.12-1.707c-4.713,0-8.533,3.821-8.533,8.533v51.2    c0,4.713,3.82,8.533,8.533,8.533c1.846,0,3.643-0.599,5.12-1.707l34.133-25.6c0.647-0.485,1.221-1.06,1.707-1.707    C402.188,351.259,401.424,345.91,397.653,343.082z M366.933,358.442v-17.067l11.349,8.533L366.933,358.442z"/>
	</g>
</g>
<g>
	<g>
		<path d="M435.2,324.309c-4.713,0-8.533,3.82-8.533,8.533v34.133c0,4.713,3.82,8.533,8.533,8.533s8.533-3.82,8.533-8.533v-34.133    C443.733,328.13,439.913,324.309,435.2,324.309z"/>
	</g>
</g>
<g>
	<g>
		<path d="M469.333,324.309c-4.713,0-8.533,3.82-8.533,8.533v34.133c0,4.713,3.82,8.533,8.533,8.533s8.533-3.82,8.533-8.533v-34.133    C477.867,328.13,474.046,324.309,469.333,324.309z"/>
	</g>
</g>
<g>
	<g>
		<path d="M477.867,443.776h-435.2c-4.713,0-8.533,3.82-8.533,8.533v17.067c0,14.138,11.461,25.6,25.6,25.6H460.8    c14.138,0,25.6-11.461,25.6-25.6v-17.067C486.4,447.596,482.58,443.776,477.867,443.776z M469.333,469.376    c0,4.713-3.82,8.533-8.533,8.533H59.733c-4.713,0-8.533-3.82-8.533-8.533v-8.533h418.133V469.376z"/>
	</g>
</g>
<g>
	<g>
		<path d="M371.712,90.24c-12.653-26.701-34.154-48.202-60.855-60.855C246.975-0.888,170.646,26.357,140.373,90.24    c-8.194,17.128-12.423,35.882-12.373,54.869c0,3.157,0,6.229,0,9.045c0.982,12.591,3.859,24.961,8.533,36.693    c6.556,17.164,16.744,32.708,29.867,45.568c3.302,3.289,6.807,6.368,10.496,9.216c3.763,3.061,7.695,5.91,11.776,8.533    l3.243,1.877c19.465,11.285,41.586,17.176,64.085,17.067c22.205,0.139,44.05-5.602,63.317-16.64    c1.258-0.649,2.483-1.361,3.669-2.133c4.109-2.622,8.069-5.471,11.861-8.533c3.691-2.846,7.197-5.924,10.496-9.216    c13.223-12.894,23.499-28.498,30.123-45.739c4.655-11.649,7.532-23.932,8.533-36.437c0-3.072,0-6.144,0-9.301    C384.076,126.129,379.876,107.375,371.712,90.24z M366.933,153.13c-0.93,10.846-3.49,21.49-7.595,31.573    c-5.737,14.957-14.645,28.494-26.112,39.68c-2.817,2.804-5.81,5.426-8.96,7.851c-3.479,2.533-7.097,4.869-10.837,6.997    l-2.731,1.536c-34.356,19.694-76.578,19.694-110.933,0l-2.304-1.28c-3.602-2.223-7.077-4.645-10.411-7.253    c-3.149-2.426-6.141-5.048-8.96-7.851c-11.426-11.17-20.304-24.676-26.027-39.595c-3.926-10.225-6.285-20.985-6.997-31.915    c0-2.56,0-5.12,0-7.765c-0.065-16.444,3.581-32.691,10.667-47.531C174.212,58.948,213.177,34.308,256,34.176    c42.823,0.133,81.788,24.772,100.267,63.403c7.085,14.84,10.732,31.086,10.667,47.531    C366.933,147.754,366.933,150.314,366.933,153.13z"/>
	</g>
</g>
<g>
	<g>
		<path d="M51.2,264.576h-8.533c-4.713,0-8.533,3.82-8.533,8.533s3.82,8.533,8.533,8.533H51.2c4.713,0,8.533-3.82,8.533-8.533    S55.913,264.576,51.2,264.576z"/>
	</g>
</g>
<g>
	<g>
		<path d="M170.667,264.576H85.333c-4.713,0-8.533,3.82-8.533,8.533s3.82,8.533,8.533,8.533h85.333c4.713,0,8.533-3.82,8.533-8.533    S175.38,264.576,170.667,264.576z"/>
	</g>
</g>
<g>
	<g>
		<path d="M109.269,446.379c-3.299-3.37-8.705-3.427-12.075-0.128l-34.901,34.133c-1.607,1.594-2.515,3.76-2.524,6.023    c-0.02,4.713,3.785,8.549,8.497,8.569c2.227,0.013,4.37-0.844,5.973-2.389l34.901-34.133    C112.511,455.154,112.568,449.748,109.269,446.379z"/>
	</g>
</g>
<g>
	<g>
		<path d="M152.875,446.379c-3.299-3.37-8.705-3.427-12.075-0.128l-34.901,34.133c-1.607,1.594-2.515,3.76-2.524,6.023    c-0.02,4.713,3.785,8.549,8.497,8.569c2.227,0.013,4.37-0.844,5.973-2.389l34.901-34.133    C156.116,455.154,156.174,449.748,152.875,446.379z"/>
	</g>
</g>
<g>
	<g>
		<path d="M196.462,444.723c-3.727-2.884-9.087-2.2-11.971,1.527l-34.901,34.133c-1.607,1.594-2.515,3.76-2.524,6.023    c-0.02,4.713,3.785,8.549,8.497,8.569c2.179-0.053,4.256-0.939,5.803-2.475l34.901-34.133c0.65-0.474,1.23-1.037,1.722-1.674    C200.873,452.967,200.189,447.607,196.462,444.723z"/>
	</g>
</g>
<g>
	<g>
		<path d="M240.171,446.379c-3.299-3.37-8.705-3.427-12.075-0.128l-34.901,34.133c-1.607,1.594-2.515,3.76-2.524,6.023    c-0.02,4.713,3.785,8.549,8.497,8.569c2.227,0.013,4.37-0.844,5.973-2.389l34.901-34.133    C243.412,455.154,243.47,449.748,240.171,446.379z"/>
	</g>
</g>
<g>
	<g>
		<path d="M283.776,446.379c-3.299-3.37-8.705-3.427-12.075-0.128L236.8,480.384c-1.607,1.594-2.515,3.76-2.524,6.023    c-0.02,4.713,3.785,8.549,8.497,8.569c2.227,0.013,4.37-0.844,5.973-2.389l34.901-34.133    C287.018,455.154,287.075,449.748,283.776,446.379z"/>
	</g>
</g>
<g>
	<g>
		<path d="M327.467,446.379c-3.299-3.37-8.705-3.427-12.075-0.128l-34.901,34.133c-1.607,1.594-2.515,3.76-2.524,6.023    c-0.02,4.713,3.785,8.549,8.497,8.569c2.227,0.013,4.37-0.844,5.973-2.389l34.901-34.133    C330.708,455.154,330.766,449.748,327.467,446.379z"/>
	</g>
</g>
<g>
	<g>
		<path d="M371.072,446.379c-3.299-3.37-8.705-3.427-12.075-0.128l-34.901,34.133c-1.607,1.594-2.515,3.76-2.524,6.023    c-0.02,4.713,3.785,8.549,8.497,8.569c2.227,0.013,4.37-0.844,5.973-2.389l34.901-34.133    C374.314,455.154,374.371,449.748,371.072,446.379z"/>
	</g>
</g>
<g>
	<g>
		<path d="M414.763,446.379c-3.299-3.37-8.705-3.427-12.075-0.128l-34.901,34.133c-1.607,1.594-2.515,3.76-2.524,6.023    c-0.02,4.713,3.785,8.549,8.497,8.569c2.227,0.013,4.37-0.844,5.973-2.389l34.901-34.133    C418.004,455.154,418.062,449.748,414.763,446.379z"/>
	</g>
</g>
<g>
	<g>
		<path d="M458.368,446.379c-3.299-3.37-8.705-3.427-12.075-0.128l-34.901,34.133c-1.607,1.594-2.515,3.76-2.524,6.023    c-0.02,4.713,3.785,8.549,8.497,8.569c2.227,0.013,4.37-0.844,5.973-2.389l34.901-34.133    C461.61,455.154,461.667,449.748,458.368,446.379z"/>
	</g>
</g>
<g>
	<g>
		<path d="M281.6,93.909h-51.2c-14.138,0-25.6,11.461-25.6,25.6v51.2c0,14.138,11.462,25.6,25.6,25.6h51.2    c14.138,0,25.6-11.462,25.6-25.6v-51.2C307.2,105.371,295.738,93.909,281.6,93.909z M290.133,170.709    c0,4.713-3.82,8.533-8.533,8.533h-51.2c-4.713,0-8.533-3.82-8.533-8.533v-51.2c0-4.713,3.82-8.533,8.533-8.533h51.2    c4.713,0,8.533,3.82,8.533,8.533V170.709z"/>
	</g>
</g>
<g>
</g>
<g>
</g>
<g>
</g>
<g>
</g>
<g>
</g>
<g>
</g>
<g>
</g>
<g>
</g>
<g>
</g>
<g>
</g>
<g>
</g>
<g>
</g>
<g>
</g>
<g>
</g>
<g>
</g>
</svg>
