<?xml version="1.0" encoding="iso-8859-1"?>
<!-- Generator: Adobe Illustrator 19.0.0, SVG Export Plug-In . SVG Version: 6.00 Build 0)  -->
<svg xmlns="http://www.w3.org/2000/svg" xmlns:xlink="http://www.w3.org/1999/xlink" version="1.1" id="Layer_1" x="0px" y="0px" viewBox="0 0 512.115 512.115" style="enable-background:new 0 0 512.115 512.115;" xml:space="preserve">
<g>
	<g>
		<path d="M477.924,128.085h-102.4c-4.52-0.008-8.262,3.51-8.533,8.021c-0.93,10.846-3.49,21.49-7.595,31.573    c-5.737,14.957-14.645,28.494-26.112,39.68c-2.817,2.804-5.81,5.426-8.96,7.851c-3.479,2.533-7.097,4.869-10.837,6.997    l-2.731,1.536c-34.356,19.694-76.578,19.694-110.933,0l-2.304-1.28c-3.602-2.223-7.077-4.645-10.411-7.253    c-3.149-2.426-6.141-5.048-8.96-7.851c-11.426-11.17-20.304-24.676-26.027-39.595c-3.907-10.142-6.266-20.815-6.997-31.659    c-0.271-4.512-4.013-8.029-8.533-8.021h-102.4c-18.851,0-34.133,15.282-34.133,34.133v281.6c0,18.851,15.282,34.133,34.133,34.133    h443.733c18.851,0,34.133-15.282,34.133-34.133v-281.6C512.058,143.367,496.776,128.085,477.924,128.085z M494.991,443.818    c0,9.426-7.641,17.067-17.067,17.067H34.191c-9.426,0-17.067-7.641-17.067-17.067v-281.6c0-9.426,7.641-17.067,17.067-17.067    h94.976c3.577,28.291,16.56,54.558,36.864,74.581c3.302,3.289,6.807,6.368,10.496,9.216c3.763,3.061,7.695,5.91,11.776,8.533    l3.243,1.877c39.556,23.042,88.444,23.042,128,0c1.258-0.649,2.483-1.361,3.669-2.133c4.109-2.622,8.069-5.471,11.861-8.533    c3.691-2.846,7.197-5.924,10.496-9.216c20.441-19.883,33.605-46.06,37.376-74.325h94.976c9.426,0,17.067,7.641,17.067,17.067    V443.818z"/>
	</g>
</g>
<g>
	<g>
		<path d="M230.458,469.418c0-4.713-3.82-8.533-8.533-8.533s-8.533,3.82-8.533,8.533c0.047,0.876,0.047,1.755,0,2.631    c-0.727,13.412-12.188,23.695-25.6,22.969c-4.713,0-8.533,3.82-8.533,8.533s3.82,8.533,8.533,8.533c1.044,0.04,2.088,0.04,3.132,0    C213.622,511.22,231.323,492.118,230.458,469.418z"/>
	</g>
</g>
<g>
	<g>
		<path d="M324.324,495.018c-0.876,0.047-1.755,0.047-2.631,0c-13.412-0.727-23.695-12.188-22.969-25.6    c0-4.713-3.82-8.533-8.533-8.533s-8.533,3.82-8.533,8.533c-0.04,1.043-0.04,2.088,0,3.132c0.865,22.699,19.967,40.4,42.667,39.535    c4.713,0,8.533-3.82,8.533-8.533S329.037,495.018,324.324,495.018z"/>
	</g>
</g>
<g>
	<g>
		<path d="M460.858,162.218h-93.525c-3.518,0.01-6.669,2.179-7.936,5.461c-5.737,14.957-14.645,28.494-26.112,39.68    c-2.817,2.804-5.81,5.426-8.96,7.851c-3.37,2.493-6.874,4.801-10.496,6.912l-2.731,1.536c-34.356,19.694-76.578,19.694-110.933,0    l-2.304-1.28c-3.602-2.223-7.077-4.645-10.411-7.253c-3.149-2.426-6.141-5.048-8.96-7.851    c-11.457-11.161-20.364-24.668-26.112-39.595c-1.267-3.282-4.418-5.451-7.936-5.461H51.258c-9.426,0-17.067,7.641-17.067,17.067    v221.867c0,9.426,7.641,17.067,17.067,17.067h409.6c9.426,0,17.067-7.641,17.067-17.067V179.285    C477.924,169.859,470.283,162.218,460.858,162.218z M460.858,401.152h-409.6V179.285h87.467    c6.413,15.115,15.685,28.85,27.307,40.448c3.302,3.289,6.807,6.368,10.496,9.216c3.763,3.061,7.695,5.91,11.776,8.533l3.243,1.877    c39.556,23.042,88.444,23.042,128,0c1.258-0.649,2.483-1.361,3.669-2.133c4.109-2.622,8.069-5.471,11.861-8.533    c3.691-2.846,7.197-5.924,10.496-9.216c11.769-11.486,21.214-25.132,27.819-40.192h87.467V401.152z"/>
	</g>
</g>
<g>
	<g>
		<path d="M392.591,495.018H119.524c-4.713,0-8.533,3.82-8.533,8.533s3.82,8.533,8.533,8.533h273.067    c4.713,0,8.533-3.82,8.533-8.533S397.304,495.018,392.591,495.018z"/>
	</g>
</g>
<g>
	<g>
		<path d="M85.391,196.352h-8.533c-4.713,0-8.533,3.82-8.533,8.533s3.82,8.533,8.533,8.533h8.533c4.713,0,8.533-3.821,8.533-8.533    S90.104,196.352,85.391,196.352z"/>
	</g>
</g>
<g>
	<g>
		<path d="M162.191,196.352h-42.667c-4.713,0-8.533,3.82-8.533,8.533s3.82,8.533,8.533,8.533h42.667    c4.713,0,8.533-3.821,8.533-8.533S166.904,196.352,162.191,196.352z"/>
	</g>
</g>
<g>
	<g>
		<path d="M371.77,73.216c-12.653-26.701-34.154-48.202-60.855-60.855c-63.882-30.273-140.211-3.027-170.484,60.855    c-8.194,17.128-12.423,35.882-12.373,54.869c0,3.157,0,6.229,0,9.045c0.982,12.591,3.859,24.961,8.533,36.693    c6.556,17.164,16.744,32.708,29.867,45.568c3.302,3.289,6.807,6.367,10.496,9.216c3.763,3.061,7.695,5.91,11.776,8.533    l3.243,1.877c19.465,11.285,41.586,17.176,64.085,17.067c22.205,0.14,44.05-5.602,63.317-16.64    c1.258-0.649,2.483-1.361,3.669-2.133c4.109-2.622,8.069-5.471,11.861-8.533c3.691-2.846,7.197-5.924,10.496-9.216    c13.223-12.894,23.499-28.498,30.123-45.739c4.655-11.649,7.532-23.932,8.533-36.437c0-3.072,0-6.144,0-9.301    C384.134,109.105,379.934,90.351,371.77,73.216z M366.991,136.106c-0.93,10.846-3.49,21.49-7.595,31.573    c-5.737,14.957-14.645,28.494-26.112,39.68c-2.817,2.804-5.81,5.426-8.96,7.851c-3.479,2.533-7.097,4.869-10.837,6.997    l-2.731,1.536c-34.356,19.694-76.578,19.694-110.933,0l-2.304-1.28c-3.602-2.223-7.077-4.645-10.411-7.253    c-3.149-2.426-6.141-5.048-8.96-7.851c-11.426-11.17-20.304-24.676-26.027-39.595c-3.926-10.225-6.285-20.985-6.997-31.915    c0-2.56,0-5.12,0-7.765c-0.065-16.444,3.581-32.691,10.667-47.531c18.479-38.631,57.444-63.27,100.267-63.403    c42.823,0.133,81.788,24.772,100.267,63.403c7.085,14.84,10.732,31.086,10.667,47.531    C366.991,130.73,366.991,133.29,366.991,136.106z"/>
	</g>
</g>
<g>
	<g>
		<path d="M256.058,85.418c-23.564,0-42.667,19.103-42.667,42.667s19.102,42.667,42.667,42.667s42.667-19.103,42.667-42.667    S279.622,85.418,256.058,85.418z M256.058,153.685c-14.138,0-25.6-11.462-25.6-25.6s11.461-25.6,25.6-25.6s25.6,11.461,25.6,25.6    S270.196,153.685,256.058,153.685z"/>
	</g>
</g>
<g>
	<g>
		<path d="M256.058,35.754c-4.713,0-8.533,3.821-8.533,8.533v49.664c0,4.713,3.82,8.533,8.533,8.533s8.533-3.82,8.533-8.533V44.288    C264.591,39.575,260.771,35.754,256.058,35.754z"/>
	</g>
</g>
<g>
	<g>
		<path d="M310.244,170.325l-22.613-22.613c-3.195-2.736-7.906-2.736-11.101,0c-3.58,3.065-3.996,8.452-0.931,12.032l22.613,22.613    c1.61,1.597,3.79,2.488,6.059,2.475l-0.085,0.085c2.293,0.013,4.494-0.896,6.108-2.524    C313.613,179.047,313.591,173.644,310.244,170.325z"/>
	</g>
</g>
<g>
</g>
<g>
</g>
<g>
</g>
<g>
</g>
<g>
</g>
<g>
</g>
<g>
</g>
<g>
</g>
<g>
</g>
<g>
</g>
<g>
</g>
<g>
</g>
<g>
</g>
<g>
</g>
<g>
</g>
</svg>
