<?xml version="1.0" encoding="iso-8859-1"?>
<!-- Generator: Adobe Illustrator 19.0.0, SVG Export Plug-In . SVG Version: 6.00 Build 0)  -->
<svg xmlns="http://www.w3.org/2000/svg" xmlns:xlink="http://www.w3.org/1999/xlink" version="1.1" id="Layer_1" x="0px" y="0px" viewBox="0 0 512.115 512.115" style="enable-background:new 0 0 512.115 512.115;" xml:space="preserve">
<g>
	<g>
		<path d="M477.924,128.085h-102.4c-4.52-0.008-8.262,3.51-8.533,8.021c-0.93,10.846-3.49,21.49-7.595,31.573    c-5.737,14.957-14.645,28.494-26.112,39.68c-2.817,2.804-5.81,5.426-8.96,7.851c-3.479,2.533-7.097,4.869-10.837,6.997    l-2.731,1.536c-34.356,19.694-76.578,19.694-110.933,0l-2.304-1.28c-3.602-2.223-7.077-4.645-10.411-7.253    c-3.149-2.426-6.141-5.048-8.96-7.851c-11.426-11.17-20.304-24.676-26.027-39.595c-3.907-10.142-6.266-20.815-6.997-31.659    c-0.271-4.512-4.013-8.029-8.533-8.021h-102.4c-18.851,0-34.133,15.282-34.133,34.133v281.6c0,18.851,15.282,34.133,34.133,34.133    h443.733c18.851,0,34.133-15.282,34.133-34.133v-281.6C512.058,143.367,496.776,128.085,477.924,128.085z M494.991,443.818    c0,9.426-7.641,17.067-17.067,17.067H34.191c-9.426,0-17.067-7.641-17.067-17.067v-281.6c0-9.426,7.641-17.067,17.067-17.067    h94.976c3.577,28.291,16.56,54.558,36.864,74.581c3.302,3.289,6.807,6.368,10.496,9.216c3.763,3.061,7.695,5.91,11.776,8.533    l3.243,1.877c39.556,23.042,88.444,23.042,128,0c1.258-0.649,2.483-1.361,3.669-2.133c4.109-2.622,8.069-5.471,11.861-8.533    c3.691-2.846,7.197-5.924,10.496-9.216c20.441-19.883,33.605-46.06,37.376-74.325h94.976c9.426,0,17.067,7.641,17.067,17.067    V443.818z"/>
	</g>
</g>
<g>
	<g>
		<path d="M230.458,469.418c0-4.713-3.82-8.533-8.533-8.533s-8.533,3.82-8.533,8.533c0.047,0.876,0.047,1.755,0,2.631    c-0.727,13.412-12.188,23.695-25.6,22.969c-4.713,0-8.533,3.82-8.533,8.533s3.82,8.533,8.533,8.533c1.044,0.04,2.088,0.04,3.132,0    C213.622,511.22,231.323,492.118,230.458,469.418z"/>
	</g>
</g>
<g>
	<g>
		<path d="M324.324,495.018c-0.876,0.047-1.755,0.047-2.631,0c-13.412-0.727-23.695-12.188-22.969-25.6    c0-4.713-3.82-8.533-8.533-8.533s-8.533,3.82-8.533,8.533c-0.04,1.043-0.04,2.088,0,3.132c0.865,22.699,19.967,40.4,42.667,39.535    c4.713,0,8.533-3.82,8.533-8.533S329.037,495.018,324.324,495.018z"/>
	</g>
</g>
<g>
	<g>
		<path d="M460.858,162.218h-93.525c-3.518,0.01-6.669,2.179-7.936,5.461c-5.737,14.957-14.645,28.494-26.112,39.68    c-2.817,2.804-5.81,5.426-8.96,7.851c-3.37,2.493-6.874,4.801-10.496,6.912l-2.731,1.536c-34.356,19.694-76.578,19.694-110.933,0    l-2.304-1.28c-3.602-2.223-7.077-4.645-10.411-7.253c-3.149-2.426-6.141-5.048-8.96-7.851    c-11.457-11.161-20.364-24.668-26.112-39.595c-1.267-3.282-4.418-5.451-7.936-5.461H51.258c-9.426,0-17.067,7.641-17.067,17.067    v221.867c0,9.426,7.641,17.067,17.067,17.067h409.6c9.426,0,17.067-7.641,17.067-17.067V179.285    C477.924,169.859,470.283,162.218,460.858,162.218z M460.858,401.152h-409.6V179.285h87.467    c6.413,15.115,15.685,28.85,27.307,40.448c3.302,3.289,6.807,6.368,10.496,9.216c3.763,3.061,7.695,5.91,11.776,8.533l3.243,1.877    c39.556,23.042,88.444,23.042,128,0c1.258-0.649,2.483-1.361,3.669-2.133c4.109-2.622,8.069-5.471,11.861-8.533    c3.691-2.846,7.197-5.924,10.496-9.216c11.769-11.486,21.214-25.132,27.819-40.192h87.467V401.152z"/>
	</g>
</g>
<g>
	<g>
		<path d="M392.591,495.018H119.524c-4.713,0-8.533,3.82-8.533,8.533s3.82,8.533,8.533,8.533h273.067    c4.713,0,8.533-3.82,8.533-8.533S397.304,495.018,392.591,495.018z"/>
	</g>
</g>
<g>
	<g>
		<path d="M85.391,196.352h-8.533c-4.713,0-8.533,3.82-8.533,8.533s3.82,8.533,8.533,8.533h8.533c4.713,0,8.533-3.821,8.533-8.533    S90.104,196.352,85.391,196.352z"/>
	</g>
</g>
<g>
	<g>
		<path d="M162.191,196.352h-42.667c-4.713,0-8.533,3.82-8.533,8.533s3.82,8.533,8.533,8.533h42.667    c4.713,0,8.533-3.821,8.533-8.533S166.904,196.352,162.191,196.352z"/>
	</g>
</g>
<g>
	<g>
		<path d="M371.77,73.216c-12.653-26.701-34.154-48.202-60.855-60.855c-63.882-30.273-140.211-3.027-170.484,60.855    c-8.194,17.128-12.423,35.882-12.373,54.869c0,3.157,0,6.229,0,9.045c0.982,12.591,3.859,24.961,8.533,36.693    c6.556,17.164,16.744,32.708,29.867,45.568c3.302,3.289,6.807,6.367,10.496,9.216c3.763,3.061,7.695,5.91,11.776,8.533    l3.243,1.877c19.465,11.285,41.586,17.176,64.085,17.067c22.205,0.14,44.05-5.602,63.317-16.64    c1.258-0.649,2.483-1.361,3.669-2.133c4.109-2.622,8.069-5.471,11.861-8.533c3.691-2.846,7.197-5.924,10.496-9.216    c13.223-12.894,23.499-28.498,30.123-45.739c4.655-11.649,7.532-23.932,8.533-36.437c0-3.072,0-6.144,0-9.301    C384.134,109.105,379.934,90.351,371.77,73.216z M366.991,136.106c-0.93,10.846-3.49,21.49-7.595,31.573    c-5.737,14.957-14.645,28.494-26.112,39.68c-2.817,2.804-5.81,5.426-8.96,7.851c-3.479,2.533-7.097,4.869-10.837,6.997    l-2.731,1.536c-34.356,19.694-76.578,19.694-110.933,0l-2.304-1.28c-3.602-2.223-7.077-4.645-10.411-7.253    c-3.149-2.426-6.141-5.048-8.96-7.851c-11.426-11.17-20.304-24.676-26.027-39.595c-3.926-10.225-6.285-20.985-6.997-31.915    c0-2.56,0-5.12,0-7.765c-0.065-16.444,3.581-32.691,10.667-47.531c18.479-38.631,57.444-63.27,100.267-63.403    c42.823,0.133,81.788,24.772,100.267,63.403c7.085,14.84,10.732,31.086,10.667,47.531    C366.991,130.73,366.991,133.29,366.991,136.106z"/>
	</g>
</g>
<g>
	<g>
		<path d="M310.074,102.485c-5.912-12.523-15.992-22.602-28.514-28.514c-29.832-14.084-65.434-1.318-79.518,28.514    c-3.818,7.991-5.773,16.744-5.717,25.6c0.002,16.271,6.699,31.825,18.517,43.008c1.366,1.373,2.82,2.655,4.352,3.84    c1.642,1.31,3.351,2.535,5.12,3.669l2.304,1.28c8.919,5.25,19.091,7.992,29.44,7.936c10.342,0.086,20.514-2.627,29.44-7.851    l2.731-1.621c1.621-1.024,3.243-2.219,5.035-3.584c1.625-1.231,3.165-2.571,4.608-4.011    C316.084,152.929,320.984,125.514,310.074,102.485z M285.839,158.549c-0.964,0.975-1.99,1.888-3.072,2.731l-3.413,2.475    l-2.475,1.365c-12.925,7.402-28.803,7.402-41.728,0l-1.963-1.109c-1.365-0.853-2.389-1.621-3.499-2.475    c-1.02-0.761-1.989-1.588-2.901-2.475c-8.533-8.045-13.378-19.248-13.397-30.976c-0.039-6.255,1.332-12.438,4.011-18.091    c7.023-15.001,22.093-24.582,38.656-24.576c16.42,0.111,31.32,9.634,38.315,24.491    C302.153,126.288,298.731,145.796,285.839,158.549z"/>
	</g>
</g>
<g>
	<g>
		<path d="M256.058,102.485c-4.713,0-8.533,3.82-8.533,8.533v34.133c0,4.713,3.82,8.533,8.533,8.533s8.533-3.821,8.533-8.533    v-34.133C264.591,106.306,260.771,102.485,256.058,102.485z"/>
	</g>
</g>
<g>
</g>
<g>
</g>
<g>
</g>
<g>
</g>
<g>
</g>
<g>
</g>
<g>
</g>
<g>
</g>
<g>
</g>
<g>
</g>
<g>
</g>
<g>
</g>
<g>
</g>
<g>
</g>
<g>
</g>
</svg>
