<?xml version="1.0" encoding="iso-8859-1"?>
<!-- Generator: Adobe Illustrator 19.0.0, SVG Export Plug-In . SVG Version: 6.00 Build 0)  -->
<svg xmlns="http://www.w3.org/2000/svg" xmlns:xlink="http://www.w3.org/1999/xlink" version="1.1" id="Layer_1" x="0px" y="0px" viewBox="0 0 512.025 512.025" style="enable-background:new 0 0 512.025 512.025;" xml:space="preserve">
<g>
	<g>
		<path d="M477.879,127.995h-102.4c-4.52-0.008-8.262,3.51-8.533,8.021c-0.928,10.847-3.488,21.491-7.595,31.573    c-5.737,14.957-14.645,28.494-26.112,39.68c-2.817,2.804-5.81,5.426-8.96,7.851c-3.452,2.529-7.042,4.865-10.752,6.997    l-2.731,1.536c-34.356,19.694-76.578,19.694-110.933,0l-2.304-1.28c-3.6-2.225-7.076-4.647-10.411-7.253    c-3.15-2.425-6.143-5.047-8.96-7.851c-11.457-11.161-20.364-24.668-26.112-39.595c-3.909-10.142-6.268-20.814-6.997-31.659    c-0.271-4.512-4.013-8.029-8.533-8.021h-102.4c-18.851,0-34.133,15.282-34.133,34.133v281.6c0,18.851,15.282,34.133,34.133,34.133    h443.733c18.851,0,34.133-15.282,34.133-34.133v-281.6C512.013,143.277,496.731,127.995,477.879,127.995z M494.946,443.728    c0,9.426-7.641,17.067-17.067,17.067H34.146c-9.426,0-17.067-7.641-17.067-17.067v-281.6c0-9.426,7.641-17.067,17.067-17.067    h94.976c3.6,28.302,16.614,54.57,36.949,74.581c3.3,3.291,6.806,6.369,10.496,9.216c3.765,3.06,7.696,5.909,11.776,8.533    l3.243,1.877c39.556,23.042,88.444,23.042,128,0c1.258-0.649,2.483-1.361,3.669-2.133c4.079-2.625,8.011-5.474,11.776-8.533    c3.69-2.847,7.195-5.925,10.496-9.216c20.435-19.887,33.598-46.062,37.376-74.325h94.976c9.426,0,17.067,7.641,17.067,17.067    V443.728z"/>
	</g>
</g>
<g>
	<g>
		<path d="M230.413,469.328c0-4.713-3.82-8.533-8.533-8.533s-8.533,3.82-8.533,8.533c0.047,0.876,0.047,1.755,0,2.631    c-0.727,13.412-12.188,23.695-25.6,22.969c-4.713,0-8.533,3.82-8.533,8.533s3.82,8.533,8.533,8.533c1.044,0.04,2.088,0.04,3.132,0    C213.577,511.13,231.277,492.028,230.413,469.328z"/>
	</g>
</g>
<g>
	<g>
		<path d="M324.279,494.928c-0.876,0.047-1.755,0.047-2.631,0c-13.412-0.727-23.695-12.188-22.969-25.6    c0-4.713-3.82-8.533-8.533-8.533s-8.533,3.82-8.533,8.533c-0.04,1.043-0.04,2.088,0,3.132c0.865,22.699,19.967,40.4,42.667,39.535    c4.713,0,8.533-3.82,8.533-8.533S328.992,494.928,324.279,494.928z"/>
	</g>
</g>
<g>
	<g>
		<path d="M460.813,162.128h-93.525c-3.518,0.01-6.669,2.179-7.936,5.461c-5.737,14.957-14.645,28.494-26.112,39.68    c-2.817,2.804-5.81,5.426-8.96,7.851c-3.371,2.492-6.875,4.799-10.496,6.912l-2.731,1.536c-34.356,19.694-76.578,19.694-110.933,0    l-2.304-1.28c-3.6-2.225-7.076-4.647-10.411-7.253c-3.15-2.424-6.143-5.047-8.96-7.851    c-11.457-11.161-20.364-24.668-26.112-39.595c-1.267-3.282-4.418-5.451-7.936-5.461H51.213c-9.426,0-17.067,7.641-17.067,17.067    v221.867c0,9.426,7.641,17.067,17.067,17.067h409.6c9.426,0,17.067-7.641,17.067-17.067V179.195    C477.879,169.769,470.238,162.128,460.813,162.128z M460.813,401.062h-409.6V179.195h87.467    c6.438,15.122,15.739,28.857,27.392,40.448c3.3,3.291,6.806,6.369,10.496,9.216c3.765,3.06,7.696,5.909,11.776,8.533l3.243,1.877    c39.556,23.042,88.444,23.042,128,0c1.258-0.649,2.483-1.361,3.669-2.133c4.079-2.625,8.011-5.474,11.776-8.533    c3.69-2.847,7.195-5.925,10.496-9.216c11.778-11.478,21.225-25.126,27.819-40.192h87.467V401.062z"/>
	</g>
</g>
<g>
	<g>
		<path d="M392.546,494.928H119.479c-4.713,0-8.533,3.82-8.533,8.533s3.82,8.533,8.533,8.533h273.067    c4.713,0,8.533-3.82,8.533-8.533S397.259,494.928,392.546,494.928z"/>
	</g>
</g>
<g>
	<g>
		<path d="M85.346,196.262h-8.533c-4.713,0-8.533,3.82-8.533,8.533s3.82,8.533,8.533,8.533h8.533c4.713,0,8.533-3.821,8.533-8.533    S90.059,196.262,85.346,196.262z"/>
	</g>
</g>
<g>
	<g>
		<path d="M162.146,196.262h-42.667c-4.713,0-8.533,3.82-8.533,8.533s3.82,8.533,8.533,8.533h42.667    c4.713,0,8.533-3.821,8.533-8.533S166.859,196.262,162.146,196.262z"/>
	</g>
</g>
<g>
	<g>
		<path d="M371.639,73.126c-12.645-26.629-34.093-48.078-60.722-60.722c-63.859-30.323-140.208-3.136-170.531,60.722    c-8.199,17.126-12.429,35.882-12.373,54.869c0,3.157,0,6.229,0,9.045c0.984,12.591,3.86,24.961,8.533,36.693    c6.556,17.164,16.744,32.708,29.867,45.568c3.3,3.291,6.806,6.369,10.496,9.216c3.765,3.06,7.696,5.909,11.776,8.533l3.243,1.877    c19.465,11.285,41.586,17.176,64.085,17.067c22.262,0.166,44.169-5.576,63.488-16.64c1.258-0.649,2.483-1.361,3.669-2.133    c4.079-2.625,8.011-5.474,11.776-8.533c3.69-2.847,7.195-5.925,10.496-9.216c13.192-12.903,23.439-28.505,30.037-45.739    c4.657-11.649,7.533-23.932,8.533-36.437c0-3.072,0-6.144,0-9.301C384.068,109.007,379.839,90.252,371.639,73.126z     M366.946,136.016c-0.928,10.847-3.488,21.491-7.595,31.573c-5.737,14.957-14.645,28.494-26.112,39.68    c-2.817,2.804-5.81,5.426-8.96,7.851c-3.452,2.529-7.042,4.865-10.752,6.997l-2.731,1.536c-34.356,19.694-76.578,19.694-110.933,0    l-2.304-1.28c-3.6-2.225-7.076-4.647-10.411-7.253c-3.15-2.425-6.143-5.047-8.96-7.851    c-11.457-11.161-20.364-24.668-26.112-39.595c-3.926-10.225-6.285-20.985-6.997-31.915c0-2.56,0-5.12,0-7.765    c-0.065-16.444,3.581-32.691,10.667-47.531c18.479-38.631,57.444-63.27,100.267-63.403c42.823,0.133,81.788,24.772,100.267,63.403    c7.085,14.84,10.732,31.086,10.667,47.531C366.946,130.64,366.946,133.2,366.946,136.016z"/>
	</g>
</g>
<g>
	<g>
		<path d="M310.029,102.395c-5.248-10.935-13.701-20.013-24.235-26.027c-0.202-0.129-0.41-0.249-0.623-0.36    c-4.176-2.185-9.332-0.57-11.517,3.606s-0.57,9.332,3.606,11.517c7.448,4.36,13.399,10.876,17.067,18.688    c7.781,16.379,4.358,35.887-8.533,48.64c-0.962,0.977-1.989,1.889-3.072,2.731l-3.413,2.475l-2.475,1.365    c-12.925,7.402-28.803,7.402-41.728,0l-1.963-1.109c-1.365-0.853-2.389-1.621-3.499-2.475c-1.018-0.764-1.987-1.59-2.901-2.475    c-8.533-8.045-13.378-19.248-13.397-30.976c0.041-6.275,1.5-12.459,4.267-18.091c3.654-7.844,9.606-14.391,17.067-18.773    c3.742-2.379,5.039-7.228,2.983-11.157c-2.185-4.176-7.341-5.79-11.517-3.606c-10.502,6.027-18.924,15.104-24.149,26.027    c-3.821,7.99-5.776,16.744-5.717,25.6c-0.045,16.33,6.656,31.955,18.517,43.179c1.371,1.341,2.825,2.595,4.352,3.755    c1.645,1.28,3.354,2.476,5.12,3.584l2.304,1.28c8.919,5.25,19.091,7.992,29.44,7.936c10.342,0.086,20.514-2.627,29.44-7.851    l2.731-1.621c1.621-1.024,3.243-2.219,5.035-3.584c1.622-1.235,3.161-2.575,4.608-4.011    C316.039,152.839,320.939,125.424,310.029,102.395z"/>
	</g>
</g>
<g>
	<g>
		<path d="M256.013,59.728c-4.713,0-8.533,3.82-8.533,8.533v34.133c0,4.713,3.82,8.533,8.533,8.533s8.533-3.82,8.533-8.533V68.262    C264.546,63.549,260.726,59.728,256.013,59.728z"/>
	</g>
</g>
<g>
</g>
<g>
</g>
<g>
</g>
<g>
</g>
<g>
</g>
<g>
</g>
<g>
</g>
<g>
</g>
<g>
</g>
<g>
</g>
<g>
</g>
<g>
</g>
<g>
</g>
<g>
</g>
<g>
</g>
</svg>
