<?xml version="1.0" encoding="iso-8859-1"?>
<!-- Generator: Adobe Illustrator 19.0.0, SVG Export Plug-In . SVG Version: 6.00 Build 0)  -->
<svg xmlns="http://www.w3.org/2000/svg" xmlns:xlink="http://www.w3.org/1999/xlink" version="1.1" id="Layer_1" x="0px" y="0px" viewBox="0 0 512 512" style="enable-background:new 0 0 512 512;" xml:space="preserve">
<g>
	<g>
		<path d="M409.6,0H102.4C83.549,0,68.267,15.282,68.267,34.133v409.6c0,18.851,15.282,34.133,34.133,34.133h307.2    c18.851,0,34.133-15.282,34.133-34.133v-409.6C443.733,15.282,428.451,0,409.6,0z M426.667,443.733    c0,9.426-7.641,17.067-17.067,17.067H102.4c-9.426,0-17.067-7.641-17.067-17.067v-409.6c0-9.426,7.641-17.067,17.067-17.067h307.2    c9.426,0,17.067,7.641,17.067,17.067V443.733z"/>
	</g>
</g>
<g>
	<g>
		<path d="M430.933,110.933H81.067c-4.713,0-8.533,3.82-8.533,8.533S76.354,128,81.067,128h349.867c4.713,0,8.533-3.82,8.533-8.533    S435.646,110.933,430.933,110.933z"/>
	</g>
</g>
<g>
	<g>
		<path d="M379.733,34.133c-16.495,0-29.867,13.372-29.867,29.867c0,16.495,13.372,29.867,29.867,29.867    c16.495,0,29.867-13.372,29.867-29.867C409.6,47.505,396.228,34.133,379.733,34.133z M379.733,76.8c-7.069,0-12.8-5.731-12.8-12.8    c0-7.069,5.731-12.8,12.8-12.8c7.069,0,12.8,5.731,12.8,12.8C392.533,71.069,386.803,76.8,379.733,76.8z"/>
	</g>
</g>
<g>
	<g>
		<path d="M132.267,34.133C115.772,34.133,102.4,47.505,102.4,64c0,16.495,13.372,29.867,29.867,29.867    c16.495,0,29.867-13.372,29.867-29.867C162.133,47.505,148.762,34.133,132.267,34.133z M132.267,76.8    c-7.069,0-12.8-5.731-12.8-12.8c0-7.069,5.731-12.8,12.8-12.8c7.069,0,12.8,5.731,12.8,12.8    C145.067,71.069,139.336,76.8,132.267,76.8z"/>
	</g>
</g>
<g>
	<g>
		<path d="M187.733,0c-4.713,0-8.533,3.82-8.533,8.533v110.933c0,4.713,3.82,8.533,8.533,8.533s8.533-3.82,8.533-8.533V8.533    C196.267,3.82,192.446,0,187.733,0z"/>
	</g>
</g>
<g>
	<g>
		<path d="M324.267,0c-4.713,0-8.533,3.82-8.533,8.533v110.933c0,4.713,3.82,8.533,8.533,8.533s8.533-3.82,8.533-8.533V8.533    C332.8,3.82,328.979,0,324.267,0z"/>
	</g>
</g>
<g>
	<g>
		<path d="M179.2,460.8h-68.267c-4.713,0-8.533,3.82-8.533,8.533V486.4c0,14.138,11.461,25.6,25.6,25.6h34.133    c14.138,0,25.6-11.461,25.6-25.6v-17.067C187.733,464.621,183.913,460.8,179.2,460.8z M170.667,486.4    c0,4.713-3.82,8.533-8.533,8.533H128c-4.713,0-8.533-3.82-8.533-8.533v-8.533h51.2V486.4z"/>
	</g>
</g>
<g>
	<g>
		<path d="M401.067,460.8H332.8c-4.713,0-8.533,3.82-8.533,8.533V486.4c0,14.138,11.462,25.6,25.6,25.6H384    c14.138,0,25.6-11.461,25.6-25.6v-17.067C409.6,464.621,405.78,460.8,401.067,460.8z M392.533,486.4    c0,4.713-3.82,8.533-8.533,8.533h-34.133c-4.713,0-8.533-3.82-8.533-8.533v-8.533h51.2V486.4z"/>
	</g>
</g>
<g>
	<g>
		<path d="M285.867,51.2h-59.733c-4.713,0-8.533,3.82-8.533,8.533s3.82,8.533,8.533,8.533h59.733c4.713,0,8.533-3.82,8.533-8.533    S290.58,51.2,285.867,51.2z"/>
	</g>
</g>
<g>
	<g>
		<path d="M219.996,185.779c57.916-19.983,121.066,10.768,141.049,68.685c0.099,0.372,0.222,0.738,0.37,1.094    c1.81,4.351,6.805,6.411,11.156,4.601s6.411-6.805,4.601-11.156c-17.627-51.946-66.394-86.886-121.25-86.869    c-70.692,0.021-127.983,57.346-127.962,128.038S185.308,418.155,256,418.133c51.385,0.168,97.89-30.409,118.101-77.653    c1.862-4.336-0.144-9.36-4.48-11.221c-4.336-1.862-9.36,0.144-11.221,4.48c-12.24,29.036-36.252,51.497-66.039,61.774    c-57.916,19.983-121.066-10.768-141.049-68.685C131.329,268.912,162.08,205.762,219.996,185.779z"/>
	</g>
</g>
<g>
	<g>
		<path d="M392.533,243.2H358.4c-14.138,0-25.6,11.461-25.6,25.6V320c0,14.138,11.462,25.6,25.6,25.6h34.133    c9.426,0,17.067-7.641,17.067-17.067v-68.267C409.6,250.841,401.959,243.2,392.533,243.2z M392.533,328.533H358.4    c-4.713,0-8.533-3.82-8.533-8.533v-51.2c0-4.713,3.82-8.533,8.533-8.533h34.133V328.533z"/>
	</g>
</g>
<g>
	<g>
		<path d="M119.467,426.667h-8.533c-4.713,0-8.533,3.82-8.533,8.533s3.82,8.533,8.533,8.533h8.533c4.713,0,8.533-3.82,8.533-8.533    S124.179,426.667,119.467,426.667z"/>
	</g>
</g>
<g>
	<g>
		<path d="M196.267,426.667H153.6c-4.713,0-8.533,3.82-8.533,8.533s3.821,8.533,8.533,8.533h42.667c4.713,0,8.533-3.82,8.533-8.533    S200.979,426.667,196.267,426.667z"/>
	</g>
</g>
<g>
	<g>
		<path d="M310.016,264.533c-5.912-12.523-15.992-22.602-28.514-28.514c-29.832-14.084-65.434-1.318-79.518,28.514    c-3.821,7.99-5.776,16.744-5.717,25.6c-0.045,16.33,6.656,31.954,18.517,43.179c1.371,1.341,2.825,2.595,4.352,3.755    c1.645,1.28,3.354,2.476,5.12,3.584l2.304,1.28c8.919,5.25,19.091,7.992,29.44,7.936c10.342,0.086,20.514-2.627,29.44-7.851    l2.731-1.621c1.621-1.024,3.243-2.219,5.035-3.584c1.622-1.235,3.161-2.575,4.608-4.011    C316.026,314.977,320.926,287.562,310.016,264.533z M285.781,320.597c-0.962,0.977-1.989,1.889-3.072,2.731l-3.413,2.475    l-2.475,1.365c-12.925,7.402-28.803,7.402-41.728,0l-1.963-1.109c-1.365-0.853-2.389-1.621-3.499-2.475    c-1.018-0.764-1.987-1.59-2.901-2.475c-8.533-8.045-13.378-19.248-13.397-30.976c-0.039-6.255,1.332-12.438,4.011-18.091    c7.023-15.001,22.093-24.582,38.656-24.576c16.42,0.111,31.32,9.634,38.315,24.491    C302.095,288.337,298.673,307.845,285.781,320.597z"/>
	</g>
</g>
<g>
	<g>
		<path d="M256,264.533c-4.713,0-8.533,3.821-8.533,8.533V307.2c0,4.713,3.82,8.533,8.533,8.533s8.533-3.82,8.533-8.533v-34.133    C264.533,268.354,260.713,264.533,256,264.533z"/>
	</g>
</g>
<g>
</g>
<g>
</g>
<g>
</g>
<g>
</g>
<g>
</g>
<g>
</g>
<g>
</g>
<g>
</g>
<g>
</g>
<g>
</g>
<g>
</g>
<g>
</g>
<g>
</g>
<g>
</g>
<g>
</g>
</svg>
