<?xml version="1.0" encoding="iso-8859-1"?>
<!-- Generator: Adobe Illustrator 19.0.0, SVG Export Plug-In . SVG Version: 6.00 Build 0)  -->
<svg xmlns="http://www.w3.org/2000/svg" xmlns:xlink="http://www.w3.org/1999/xlink" version="1.1" id="Layer_1" x="0px" y="0px" viewBox="0 0 512 512" style="enable-background:new 0 0 512 512;" xml:space="preserve">
<g>
	<g>
		<path d="M260.267,0h-8.533c-92.272,3.634-165.471,79.011-166.4,171.349c0.271,40.959,15.263,80.454,42.24,111.275    c3.243,3.755,5.803,6.315,9.984,10.837s8.107,8.619,11.776,13.056c6.769,8.066,12.93,16.622,18.432,25.6    c6.666,10.71,12.051,22.166,16.043,34.133c2.643,8.685,3.966,17.717,3.925,26.795c0.277,9.225,7.837,16.559,17.067,16.555h102.4    c9.229,0.004,16.79-7.33,17.067-16.555c-0.034-9.049,1.289-18.052,3.925-26.709c3.991-11.967,9.375-23.424,16.043-34.133    c5.5-8.979,11.661-17.536,18.432-25.6c3.243-4.523,8.363-9.472,11.776-13.056c3.413-3.584,6.741-7.083,9.984-10.837    c26.996-30.843,41.989-70.372,42.24-111.36C425.737,79.011,352.538,3.634,260.267,0z M371.883,271.616    c-3.072,3.584-5.461,5.888-9.472,10.325c-4.011,4.437-8.533,8.96-12.544,13.909c-7.459,8.749-14.248,18.049-20.309,27.819    c-7.33,11.755-13.258,24.328-17.664,37.461c-3.13,10.173-4.712,20.759-4.693,31.403H204.8c-0.02-10.675-1.63-21.288-4.779-31.488    c-4.408-13.133-10.336-25.705-17.664-37.461c-5.927-9.754-12.573-19.053-19.883-27.819c-4.011-4.864-9.301-10.496-12.544-13.909    s-6.4-6.827-9.472-10.325c-24.302-27.742-37.811-63.301-38.059-100.181C103.45,86.845,171.501,18.491,256,17.067    c84.499,1.424,152.55,69.778,153.6,154.283C409.467,208.215,396.08,243.803,371.883,271.616z"/>
	</g>
</g>
<g>
	<g>
		<path d="M204.8,392.533v34.133c0,9.426,7.641,17.067,17.067,17.067h68.267c9.426,0,17.067-7.641,17.067-17.067v-34.133H204.8z     M290.133,426.667h-68.267V409.6h68.267V426.667z"/>
	</g>
</g>
<g>
	<g>
		<path d="M221.867,426.667V460.8c0,9.426,7.641,17.067,17.067,17.067h34.133c9.426,0,17.067-7.641,17.067-17.067v-34.133H221.867z     M273.067,460.8h-34.133v-17.067h34.133V460.8z"/>
	</g>
</g>
<g>
	<g>
		<path d="M230.4,460.8v34.133c0,9.426,7.641,17.067,17.067,17.067h17.067c9.426,0,17.067-7.641,17.067-17.067V460.8H230.4z     M264.533,494.933h-17.067v-17.067h17.067V494.933z"/>
	</g>
</g>
<g>
	<g>
		<path d="M243.285,332.288c-0.171-0.171-21.419-13.141-21.419-30.635V281.6c0-4.713-3.821-8.533-8.533-8.533    c-4.713,0-8.533,3.821-8.533,8.533v19.712c0,21.504,17.067,36.693,25.6,42.667v48.555c0,4.713,3.82,8.533,8.533,8.533    s8.533-3.821,8.533-8.533v-52.907C247.466,336.614,245.877,333.825,243.285,332.288z"/>
	</g>
</g>
<g>
	<g>
		<path d="M298.667,273.067c-4.713,0-8.533,3.821-8.533,8.533v19.883c0,17.579-21.419,30.635-21.419,30.635    c-2.592,1.537-4.181,4.326-4.181,7.339v53.077c0,4.713,3.821,8.533,8.533,8.533c4.713,0,8.533-3.821,8.533-8.533V344.32    c8.533-6.229,25.6-21.333,25.6-42.667V281.6C307.2,276.887,303.379,273.067,298.667,273.067z"/>
	</g>
</g>
<g>
</g>
<g>
</g>
<g>
</g>
<g>
</g>
<g>
</g>
<g>
</g>
<g>
</g>
<g>
</g>
<g>
</g>
<g>
</g>
<g>
</g>
<g>
</g>
<g>
</g>
<g>
</g>
<g>
</g>
</svg>
