<?xml version="1.0" encoding="iso-8859-1"?>
<!-- Generator: Adobe Illustrator 19.0.0, SVG Export Plug-In . SVG Version: 6.00 Build 0)  -->
<svg xmlns="http://www.w3.org/2000/svg" xmlns:xlink="http://www.w3.org/1999/xlink" version="1.1" id="Layer_1" x="0px" y="0px" viewBox="0 0 512 512" style="enable-background:new 0 0 512 512;" xml:space="preserve">
<g>
	<g>
		<path d="M324.255,257.28V68.267C324.255,30.564,293.691,0,255.989,0s-68.267,30.564-68.267,68.267V257.28    c-42.161,24.387-68.138,69.386-68.172,118.092C119.498,450.777,180.583,511.948,255.989,512    c48.706-0.034,93.706-26.011,118.092-68.172C411.836,378.555,389.528,295.035,324.255,257.28z M311.711,481.175    c-58.363,30.775-130.623,8.41-161.398-49.953s-8.41-130.623,49.953-161.398c2.776-1.478,4.514-4.364,4.523-7.509V68.267    c0-28.277,22.923-51.2,51.2-51.2s51.2,22.923,51.2,51.2v194.048c0.008,3.145,1.746,6.031,4.523,7.509    c21.306,11.235,38.718,28.647,49.953,49.953C392.439,378.14,370.074,450.4,311.711,481.175z"/>
	</g>
</g>
<g>
	<g>
		<path d="M315.722,128h-51.2c-4.713,0-8.533,3.82-8.533,8.533s3.82,8.533,8.533,8.533h51.2c4.713,0,8.533-3.82,8.533-8.533    S320.435,128,315.722,128z"/>
	</g>
</g>
<g>
	<g>
		<path d="M315.722,162.133h-51.2c-4.713,0-8.533,3.82-8.533,8.533s3.82,8.533,8.533,8.533h51.2c4.713,0,8.533-3.82,8.533-8.533    S320.435,162.133,315.722,162.133z"/>
	</g>
</g>
<g>
	<g>
		<path d="M315.722,196.267h-51.2c-4.713,0-8.533,3.82-8.533,8.533s3.82,8.533,8.533,8.533h51.2c4.713,0,8.533-3.821,8.533-8.533    S320.435,196.267,315.722,196.267z"/>
	</g>
</g>
<g>
	<g>
		<path d="M315.722,230.4h-51.2c-4.713,0-8.533,3.82-8.533,8.533s3.82,8.533,8.533,8.533h51.2c4.713,0,8.533-3.82,8.533-8.533    S320.435,230.4,315.722,230.4z"/>
	</g>
</g>
<g>
	<g>
		<path d="M379.027,379.806c-39.022-32.606-97.088-27.404-129.694,11.618c-2.737,3.247-5.746,6.255-8.992,8.992    c-31.67,26.704-78.992,22.678-105.695-8.992l-13.312,10.752c17.322,21.158,43.313,33.306,70.656,33.024    c27.343,0.282,53.334-11.866,70.656-33.024c2.738-3.247,5.746-6.255,8.992-8.992c31.67-26.704,78.992-22.678,105.695,8.992    l13.312-10.752C387.126,387.213,383.238,383.325,379.027,379.806z"/>
	</g>
</g>
<g>
	<g>
		<path d="M255.989,34.133c-18.851,0-34.133,15.282-34.133,34.133c0,4.713,3.82,8.533,8.533,8.533s8.533-3.82,8.533-8.533    c0-9.426,7.641-17.067,17.067-17.067c4.713,0,8.533-3.82,8.533-8.533S260.701,34.133,255.989,34.133z"/>
	</g>
</g>
<g>
	<g>
		<path d="M219.806,288.327c-2.289-4.119-7.485-5.603-11.604-3.314c-33.664,17.763-54.698,52.732-54.613,90.795    c0,0.853,0,1.792,0,3.413c0.228,4.545,3.982,8.112,8.533,8.107l0.427-0.512c4.545-0.228,8.112-3.982,8.107-8.533    c0-1.109,0-1.877,0-2.816c0.04-31.601,17.54-60.592,45.483-75.349c0.119-0.059,0.238-0.121,0.354-0.186    C220.612,297.642,222.095,292.447,219.806,288.327z"/>
	</g>
</g>
<g>
</g>
<g>
</g>
<g>
</g>
<g>
</g>
<g>
</g>
<g>
</g>
<g>
</g>
<g>
</g>
<g>
</g>
<g>
</g>
<g>
</g>
<g>
</g>
<g>
</g>
<g>
</g>
<g>
</g>
</svg>
