<?xml version="1.0" encoding="UTF-8" standalone="no"?>
<svg
   xmlns:dc="http://purl.org/dc/elements/1.1/"
   xmlns:cc="http://creativecommons.org/ns#"
   xmlns:rdf="http://www.w3.org/1999/02/22-rdf-syntax-ns#"
   xmlns:svg="http://www.w3.org/2000/svg"
   xmlns="http://www.w3.org/2000/svg"
   xmlns:sodipodi="http://sodipodi.sourceforge.net/DTD/sodipodi-0.dtd"
   xmlns:inkscape="http://www.inkscape.org/namespaces/inkscape"
   inkscape:version="1.0 (4035a4fb49, 2020-05-01)"
   sodipodi:docname="073-temperature-inner.svg"
   xml:space="preserve"
   style="enable-background:new 0 0 512 512;"
   viewBox="0 0 512 512"
   y="0px"
   x="0px"
   id="Layer_1"
   version="1.1"><metadata
   id="metadata85"><rdf:RDF><cc:Work
       rdf:about=""><dc:format>image/svg+xml</dc:format><dc:type
         rdf:resource="http://purl.org/dc/dcmitype/StillImage" /><dc:title></dc:title></cc:Work></rdf:RDF></metadata><defs
   id="defs83" /><sodipodi:namedview
   inkscape:current-layer="Layer_1"
   inkscape:window-maximized="1"
   inkscape:window-y="-9"
   inkscape:window-x="-9"
   inkscape:cy="202.80179"
   inkscape:cx="166.99641"
   inkscape:zoom="0.828125"
   showgrid="false"
   id="namedview81"
   inkscape:window-height="1001"
   inkscape:window-width="1920"
   inkscape:pageshadow="2"
   inkscape:pageopacity="0"
   guidetolerance="10"
   gridtolerance="10"
   objecttolerance="10"
   borderopacity="1"
   bordercolor="#666666"
   pagecolor="#ffffff" />








<g
   id="g50">
</g>
<g
   id="g52">
</g>
<g
   id="g54">
</g>
<g
   id="g56">
</g>
<g
   id="g58">
</g>
<g
   id="g60">
</g>
<g
   id="g62">
</g>
<g
   id="g64">
</g>
<g
   id="g66">
</g>
<g
   id="g68">
</g>
<g
   id="g70">
</g>
<g
   id="g72">
</g>
<g
   id="g74">
</g>
<g
   id="g76">
</g>
<g
   id="g78">
</g>
<path
   id="path910"
   d="m 243.81937,493.93605 c -42.3811,-5.17395 -77.6183,-30.46592 -95.44485,-68.50678 -8.53412,-18.21135 -10.21553,-26.39109 -10.21553,-49.69679 0,-22.47558 1.42039,-29.9459 9.1456,-48.09987 8.38551,-19.70566 28.41436,-42.76921 46.1481,-53.14029 4.35564,-2.54727 8.75826,-5.5584 9.78361,-6.69141 1.64475,-1.81741 1.90437,-14.35347 2.2048,-106.46043 l 0.34053,-104.40045 2.70993,-6.692655 c 3.6682,-9.059287 12.77724,-19.905116 20.83724,-24.810213 27.10614,-16.4960531 61.8702,-4.811965 73.97086,24.861359 l 2.70839,6.641509 0.60377,104.87337 0.60377,104.87337 3.01887,2.34357 c 1.66038,1.28896 7.12638,5.00922 12.14667,8.26723 18.06956,11.7266 36.50693,34.73143 44.52609,55.55646 9.38418,24.36982 10.23922,53.56574 2.29903,78.50109 -15.17515,47.65601 -58.39605,80.62472 -108.27182,82.58924 -7.08875,0.27922 -14.79053,0.27548 -17.11506,-0.008 z"
   style="color:#000000;overflow:visible;opacity:0.996;fill:#ffe6d5;stroke:none;stroke-width:0.962995" /></svg>
