<?xml version="1.0" encoding="iso-8859-1"?>
<!-- Generator: Adobe Illustrator 19.0.0, SVG Export Plug-In . SVG Version: 6.00 Build 0)  -->
<svg xmlns="http://www.w3.org/2000/svg" xmlns:xlink="http://www.w3.org/1999/xlink" version="1.1" id="Layer_1" x="0px" y="0px" viewBox="0 0 511.995 511.995" style="enable-background:new 0 0 511.995 511.995;" xml:space="preserve">
<g>
	<g>
		<path d="M152.83,207.184c-33.808-33.081-42.922-83.961-22.699-126.72c0.542-1.139,0.826-2.384,0.829-3.645    c0.013-4.713-3.796-8.544-8.509-8.557H93.864c-18.851,0-34.133,15.282-34.133,34.133v85.333c0,18.851,15.282,34.133,34.133,34.133    h52.992c2.336,0.014,4.575-0.93,6.196-2.611C156.322,215.857,156.223,210.455,152.83,207.184z M93.864,204.795    c-9.426,0-17.067-7.641-17.067-17.067v-85.333c0-9.426,7.641-17.067,17.067-17.067h15.787    c-14.255,40.384-7.369,85.221,18.347,119.467H93.864z"/>
	</g>
</g>
<g>
	<g>
		<path d="M366.931,68.262h-28.587c-1.261,0.004-2.506,0.287-3.645,0.829c-4.255,2.027-6.061,7.119-4.035,11.374    c20.224,42.759,11.11,93.639-22.699,126.72c-1.682,1.621-2.626,3.86-2.611,6.196c0.028,4.713,3.872,8.51,8.585,8.482h52.992    c18.851,0,34.133-15.282,34.133-34.133v-85.333C401.064,83.544,385.782,68.262,366.931,68.262z M383.998,187.728    c0,9.426-7.641,17.067-17.067,17.067h-34.133c25.716-34.245,32.602-79.083,18.347-119.467h15.787    c9.426,0,17.067,7.641,17.067,17.067V187.728z"/>
	</g>
</g>
<g>
	<g>
		<path d="M366.931,426.662H93.864c-18.851,0-34.133,15.282-34.133,34.133v17.067c0,18.851,15.282,34.133,34.133,34.133h273.067    c18.851,0,34.133-15.282,34.133-34.133v-17.067C401.064,441.944,385.782,426.662,366.931,426.662z M383.998,477.862    c0,9.426-7.641,17.067-17.067,17.067H93.864c-9.426,0-17.067-7.641-17.067-17.067v-17.067c0-9.426,7.641-17.067,17.067-17.067    h273.067c9.426,0,17.067,7.641,17.067,17.067V477.862z"/>
	</g>
</g>
<g>
	<g>
		<path d="M332.798,307.195h25.6c4.713,0,8.533-3.82,8.533-8.533v-85.333c0-4.713-3.82-8.533-8.533-8.533h-44.715    c-2.268-0.013-4.448,0.877-6.059,2.475c-2.817,2.804-5.81,5.426-8.96,7.851c-3.48,2.532-7.098,4.868-10.837,6.997l-2.731,1.536    c-34.356,19.694-76.578,19.694-110.933,0l-2.304-1.28c-3.6-2.225-7.076-4.647-10.411-7.253c-3.004-2.438-5.854-5.06-8.533-7.851    c-1.61-1.597-3.79-2.488-6.059-2.475h-44.459c-4.713,0-8.533,3.821-8.533,8.533v221.867c0,4.713,3.82,8.533,8.533,8.533h256    c4.713,0,8.533-3.82,8.533-8.533v-102.4c0-4.713-3.82-8.533-8.533-8.533h-25.6c-4.713,0-8.533-3.82-8.533-8.533    c0.032-2.293,0.985-4.477,2.645-6.059C328.478,308.114,330.588,307.227,332.798,307.195z M332.798,341.328h17.067v85.333H110.931    V222.118h32.085c2.475,2.304,5.12,4.523,7.936,6.741c3.765,3.06,7.696,5.909,11.776,8.533l3.243,1.877    c39.556,23.042,88.444,23.042,128,0c1.258-0.649,2.483-1.361,3.669-2.133c4.079-2.625,8.011-5.474,11.776-8.533    c2.816-2.219,5.461-4.437,7.936-6.741h32.512v68.267h-17.067c-14.138,0-25.6,11.461-25.6,25.6S318.659,341.328,332.798,341.328z"/>
	</g>
</g>
<g>
	<g>
		<path d="M297.642,226.983c-2.404-4.054-7.638-5.392-11.692-2.988c-34.379,19.608-76.555,19.608-110.933,0    c-1.317-0.781-2.82-1.193-4.35-1.193c-4.713-0.001-8.534,3.819-8.535,8.532v41.728c0,14.138,11.461,25.6,25.6,25.6h85.333    c0.057,0,0.114,0.001,0.171,0.001c14.139,0,25.6-11.462,25.599-25.601v-41.728C298.835,229.803,298.422,228.3,297.642,226.983z     M281.598,273.062c0,4.713-3.82,8.533-8.533,8.533h-85.333c-4.713,0-8.533-3.821-8.533-8.533v-27.819    c32.676,14.105,69.724,14.105,102.4,0V273.062z"/>
	</g>
</g>
<g>
	<g>
		<path d="M264.531,281.595h-68.267c-4.713,0-8.533,3.82-8.533,8.533v42.667c0,4.713,3.82,8.533,8.533,8.533h68.267    c4.713,0,8.533-3.821,8.533-8.533v-42.667C273.064,285.416,269.244,281.595,264.531,281.595z M255.998,324.262h-51.2v-25.6h51.2    V324.262z"/>
	</g>
</g>
<g>
	<g>
		<path d="M315.731,307.195h-51.2c-4.713,0-8.533,3.82-8.533,8.533s3.82,8.533,8.533,8.533h51.2c4.713,0,8.533-3.82,8.533-8.533    S320.444,307.195,315.731,307.195z"/>
	</g>
</g>
<g>
	<g>
		<path d="M426.664,290.128h-93.867c-14.138,0-25.6,11.461-25.6,25.6s11.462,25.6,25.6,25.6h93.867c14.138,0,25.6-11.462,25.6-25.6    S440.803,290.128,426.664,290.128z M432.552,321.787c-1.568,1.556-3.679,2.443-5.888,2.475h-93.867    c-4.713,0-8.533-3.82-8.533-8.533c0.032-2.293,0.985-4.477,2.645-6.059c1.568-1.556,3.679-2.443,5.888-2.475h93.867    c4.713,0,8.533,3.82,8.533,8.533C435.166,318.021,434.212,320.205,432.552,321.787z"/>
	</g>
</g>
<g>
	<g>
		<path d="M296.616,358.395H164.179c-2.046-0.013-4.077,0.342-5.998,1.048c-8.847,3.252-13.382,13.06-10.13,21.907    c6.005,15.184,16.987,27.88,31.147,36.011v17.835c0,4.713,3.821,8.533,8.533,8.533h85.333c4.713,0,8.533-3.82,8.533-8.533V417.36    c14.128-8.146,25.078-20.84,31.061-36.011c0.696-1.893,1.051-3.895,1.048-5.912C313.694,366.012,306.042,358.382,296.616,358.395z     M268.883,404.987c-2.684,1.508-4.347,4.345-4.352,7.424v14.251h-68.267v-14.251c-0.005-3.079-1.668-5.916-4.352-7.424    c-12.543-6.121-22.409-16.624-27.733-29.525h132.523C291.342,388.369,281.448,398.87,268.883,404.987z"/>
	</g>
</g>
<g>
	<g>
		<path d="M346.024,73.126c-12.645-26.629-34.093-48.078-60.722-60.722c-63.859-30.323-140.208-3.136-170.531,60.722    c-23.357,49.294-12.909,107.974,26.027,146.176c3.3,3.291,6.806,6.369,10.496,9.216c3.765,3.06,7.696,5.909,11.776,8.533    l3.243,1.877c19.465,11.285,41.586,17.176,64.085,17.067c22.291,0.181,44.23-5.562,63.573-16.64    c1.258-0.649,2.483-1.361,3.669-2.133c4.079-2.625,8.011-5.474,11.776-8.533c3.69-2.847,7.195-5.925,10.496-9.216    C358.954,181.261,369.442,122.482,346.024,73.126z M307.624,207.27c-2.817,2.804-5.81,5.426-8.96,7.851    c-3.371,2.492-6.875,4.799-10.496,6.912l-2.731,1.536c-34.356,19.694-76.578,19.694-110.933,0l-2.304-1.28    c-3.6-2.225-7.076-4.647-10.411-7.253c-3.15-2.425-6.143-5.047-8.96-7.851c-33.808-33.081-42.922-83.961-22.699-126.72    c18.479-38.631,57.444-63.27,100.267-63.403c42.823,0.133,81.788,24.772,100.267,63.403    C350.843,123.317,341.588,174.255,307.624,207.27z"/>
	</g>
</g>
<g>
	<g>
		<path d="M110.931,460.795h-8.533c-4.713,0-8.533,3.82-8.533,8.533s3.82,8.533,8.533,8.533h8.533c4.713,0,8.533-3.82,8.533-8.533    S115.644,460.795,110.931,460.795z"/>
	</g>
</g>
<g>
	<g>
		<path d="M247.464,460.795h-102.4c-4.713,0-8.533,3.82-8.533,8.533s3.82,8.533,8.533,8.533h102.4c4.713,0,8.533-3.82,8.533-8.533    S252.177,460.795,247.464,460.795z"/>
	</g>
</g>
<g>
	<g>
		<path d="M185.256,59.728v23.467c0.991,23.301,15.453,43.895,37.035,52.736l1.536,0.597h13.141l1.536-0.597    c21.581-8.841,36.043-29.435,37.035-52.736V59.728H185.256z M258.472,83.195c-0.951,15.77-10.538,29.723-24.917,36.267h-6.229h0    c-14.413-6.519-24.036-20.478-25.003-36.267v-6.4h56.149V83.195z"/>
	</g>
</g>
<g>
	<g>
		<path d="M281.598,59.728h-14.592c-4.713,0-8.533,3.82-8.533,8.533s3.82,8.533,8.533,8.533h14.592c4.713,0,8.533-3.82,8.533-8.533    S286.31,59.728,281.598,59.728z"/>
	</g>
</g>
<g>
	<g>
		<path d="M238.504,120.059l-1.536-0.597h-13.141l-1.536,0.597c-21.581,8.841-36.043,29.435-37.035,52.736v23.467h90.283v-23.467    C274.548,149.494,260.086,128.9,238.504,120.059z M258.472,179.195h-56.064l-0.085-6.4c0.951-15.77,10.538-29.723,24.917-36.267    h6.229c14.413,6.519,24.036,20.478,25.003,36.267V179.195z"/>
	</g>
</g>
<g>
	<g>
		<path d="M281.598,179.195h-14.592c-4.713,0-8.533,3.82-8.533,8.533s3.82,8.533,8.533,8.533h14.592c4.713,0,8.533-3.82,8.533-8.533    S286.31,179.195,281.598,179.195z"/>
	</g>
</g>
<g>
	<g>
		<path d="M193.79,59.728h-14.592c-4.713,0-8.533,3.82-8.533,8.533s3.82,8.533,8.533,8.533h14.592c4.713,0,8.533-3.82,8.533-8.533    S198.502,59.728,193.79,59.728z"/>
	</g>
</g>
<g>
	<g>
		<path d="M193.79,179.195h-14.592c-4.713,0-8.533,3.82-8.533,8.533s3.82,8.533,8.533,8.533h14.592c4.713,0,8.533-3.82,8.533-8.533    S198.502,179.195,193.79,179.195z"/>
	</g>
</g>
<g>
</g>
<g>
</g>
<g>
</g>
<g>
</g>
<g>
</g>
<g>
</g>
<g>
</g>
<g>
</g>
<g>
</g>
<g>
</g>
<g>
</g>
<g>
</g>
<g>
</g>
<g>
</g>
<g>
</g>
</svg>
