<?xml version="1.0" encoding="iso-8859-1"?>
<!-- Generator: Adobe Illustrator 19.0.0, SVG Export Plug-In . SVG Version: 6.00 Build 0)  -->
<svg xmlns="http://www.w3.org/2000/svg" xmlns:xlink="http://www.w3.org/1999/xlink" version="1.1" id="Layer_1" x="0px" y="0px" viewBox="0 0 366.94 366.94" style="enable-background:new 0 0 366.94 366.94;" xml:space="preserve">
<g>
	<g>
		<path d="M336.855,147.883L288.641,11.35C286.216,4.529,279.752-0.02,272.513,0H94.508C87.238-0.056,80.73,4.5,78.294,11.35    L30.081,147.883c-0.658,1.851-0.992,3.801-0.986,5.765c0.026,9.426,7.688,17.045,17.114,17.019h274.603    c1.935-0.004,3.856-0.338,5.68-0.986C335.372,166.523,340.012,156.764,336.855,147.883z M46.209,153.601L94.508,17.067h178.005    l48.299,136.533H46.209z"/>
	</g>
</g>
<g>
	<g>
		<path d="M131.884,246.87c-0.33-4.713-4.418-8.266-9.131-7.936h-2.645c-0.206-0.014-0.412-0.021-0.618-0.021    c-4.713,0.012-8.524,3.841-8.512,8.554c0,4.713,3.82,8.533,8.533,8.533h4.437C128.661,255.671,132.214,251.583,131.884,246.87z"/>
	</g>
</g>
<g>
	<g>
		<path d="M238.977,238.934h-3.243c-4.713-0.33-8.801,3.223-9.131,7.936c-0.33,4.713,3.223,8.801,7.936,9.131h4.437    c4.713,0,8.533-3.821,8.533-8.533C247.51,242.754,243.69,238.934,238.977,238.934z"/>
	</g>
</g>
<g>
	<g>
		<path d="M236.502,238.934h-0.768c-29.781-2.048-30.891-30.891-30.891-34.133c0-4.713-3.821-8.533-8.533-8.533h-34.133    c-4.713,0-8.533,3.82-8.533,8.533c0,1.28,0,32.085-30.805,34.133h-0.768c-35.346,0.471-63.618,29.507-63.147,64.853    c0.471,35.346,29.507,63.618,64.853,63.147H234.71c35.346,0.495,64.401-27.758,64.896-63.104    C300.101,268.484,271.849,239.429,236.502,238.934z M234.284,349.867H123.35c-25.921,0-46.933-21.013-46.933-46.933    c0-25.921,21.013-46.933,46.933-46.933h1.792c23.292-1.503,42.163-19.475,44.8-42.667h17.749    c2.637,23.192,21.508,41.164,44.8,42.667h1.792c25.921,0,46.933,21.013,46.933,46.933    C281.217,328.854,260.204,349.867,234.284,349.867z"/>
	</g>
</g>
<g>
	<g>
		<path d="M221.91,153.601h-85.333c-4.713,0-8.533,3.82-8.533,8.533v25.6c0,14.138,11.462,25.6,25.6,25.6h51.2    c14.138,0,25.6-11.462,25.6-25.6v-25.6C230.444,157.421,226.623,153.601,221.91,153.601z M213.377,187.734    c0,4.713-3.82,8.533-8.533,8.533h-51.2c-4.713,0-8.533-3.821-8.533-8.533v-17.067h68.267V187.734z"/>
	</g>
</g>
<g>
	<g>
		<path d="M123.521,273.067c-16.414,0.094-29.658,13.452-29.611,29.867c0,4.713,3.82,8.533,8.533,8.533s8.533-3.821,8.533-8.533    c0.076-3.454,1.518-6.738,4.011-9.131c2.285-2.248,5.33-3.558,8.533-3.669c4.713,0,8.533-3.82,8.533-8.533    S128.234,273.067,123.521,273.067z"/>
	</g>
</g>
<g>
	<g>
		<path d="M91.436,121.771l-1.28-1.024c-0.476-0.323-0.992-0.581-1.536-0.768c-0.483-0.247-1.001-0.42-1.536-0.512    c-1.681-0.271-3.405-0.034-4.949,0.683c-1.034,0.432-1.987,1.038-2.816,1.792c-1.597,1.61-2.488,3.791-2.475,6.059    c0.013,1.115,0.245,2.217,0.683,3.243c0.406,1.047,1.015,2.004,1.792,2.816c0.83,0.752,1.783,1.358,2.816,1.792    c1.026,0.437,2.128,0.669,3.243,0.683h1.707l1.536-0.683c0.544-0.187,1.06-0.445,1.536-0.768l1.28-1.024    c0.752-0.83,1.358-1.783,1.792-2.816c0.437-1.026,0.669-2.128,0.683-3.243C93.923,125.682,93.036,123.449,91.436,121.771z"/>
	</g>
</g>
<g>
	<g>
		<path d="M213.377,119.467H119.51c-4.713,0-8.533,3.821-8.533,8.533c0,4.713,3.82,8.533,8.533,8.533h93.867    c4.713,0,8.533-3.821,8.533-8.533C221.91,123.288,218.09,119.467,213.377,119.467z"/>
	</g>
</g>
<g>
</g>
<g>
</g>
<g>
</g>
<g>
</g>
<g>
</g>
<g>
</g>
<g>
</g>
<g>
</g>
<g>
</g>
<g>
</g>
<g>
</g>
<g>
</g>
<g>
</g>
<g>
</g>
<g>
</g>
</svg>
