<?xml version="1.0" encoding="iso-8859-1"?>
<!-- Generator: Adobe Illustrator 19.0.0, SVG Export Plug-In . SVG Version: 6.00 Build 0)  -->
<svg xmlns="http://www.w3.org/2000/svg" xmlns:xlink="http://www.w3.org/1999/xlink" version="1.1" id="Layer_1" x="0px" y="0px" viewBox="0 0 477.45 477.45" style="enable-background:new 0 0 477.45 477.45;" xml:space="preserve">
<g>
	<g>
		<path d="M396.421,258.393L348.207,121.86c-2.425-6.821-8.889-11.369-16.128-11.349H154.074    c-7.27-0.056-13.778,4.499-16.213,11.349L89.647,258.393c-0.658,1.851-0.992,3.801-0.986,5.765    c0.026,9.426,7.688,17.045,17.114,17.019h274.603c1.935-0.004,3.856-0.338,5.68-0.986    C394.938,277.034,399.578,267.274,396.421,258.393z M105.775,264.111l48.299-136.533h178.005l48.299,136.533H105.775z"/>
	</g>
</g>
<g>
	<g>
		<path d="M191.45,357.38c-0.33-4.713-4.418-8.266-9.131-7.936h-2.645c-0.206-0.014-0.412-0.021-0.618-0.021    c-4.713,0.012-8.524,3.841-8.512,8.554c0,4.713,3.82,8.533,8.533,8.533h4.437C188.227,366.181,191.78,362.093,191.45,357.38z"/>
	</g>
</g>
<g>
	<g>
		<path d="M298.543,349.444h-3.243c-4.713-0.33-8.801,3.223-9.131,7.936c-0.33,4.713,3.223,8.801,7.936,9.131h4.437    c4.713,0,8.533-3.821,8.533-8.533C307.077,353.265,303.256,349.444,298.543,349.444z"/>
	</g>
</g>
<g>
	<g>
		<path d="M296.069,349.444h-0.768c-29.781-2.048-30.891-30.891-30.891-34.133c0-4.713-3.821-8.533-8.533-8.533h-34.133    c-4.713,0-8.533,3.82-8.533,8.533c0,1.28,0,32.085-30.805,34.133h-0.768c-35.346,0.471-63.618,29.507-63.147,64.853    c0.471,35.346,29.507,63.618,64.853,63.147h110.933c35.346,0.495,64.401-27.758,64.896-63.104    C359.667,378.994,331.415,349.939,296.069,349.444z M293.85,460.377H182.917c-25.921,0-46.933-21.013-46.933-46.933    c0-25.921,21.013-46.933,46.933-46.933h1.792c23.292-1.503,42.163-19.475,44.8-42.667h17.749    c2.637,23.192,21.508,41.164,44.8,42.667h1.792c25.921,0,46.933,21.013,46.933,46.933    C340.783,439.365,319.771,460.377,293.85,460.377z"/>
	</g>
</g>
<g>
	<g>
		<path d="M281.477,264.111h-85.333c-4.713,0-8.533,3.82-8.533,8.533v25.6c0,14.138,11.462,25.6,25.6,25.6h51.2    c14.138,0,25.6-11.462,25.6-25.6v-25.6C290.01,267.931,286.189,264.111,281.477,264.111z M272.943,298.244    c0,4.713-3.82,8.533-8.533,8.533h-51.2c-4.713,0-8.533-3.821-8.533-8.533v-17.067h68.267V298.244z"/>
	</g>
</g>
<g>
	<g>
		<path d="M202.117,70.404L133.85,2.137c-3.195-2.736-7.906-2.736-11.101,0c-3.58,3.065-3.996,8.452-0.931,12.032l68.267,68.267    c1.61,1.597,3.791,2.488,6.059,2.475c2.192-0.031,4.289-0.904,5.854-2.439C205.363,79.172,205.416,73.769,202.117,70.404z"/>
	</g>
</g>
<g>
	<g>
		<path d="M364.25,2.983c-3.065-3.58-8.452-3.996-12.032-0.931l-68.267,68.267c-1.628,1.614-2.537,3.816-2.524,6.108    c0.027,4.713,3.87,8.511,8.583,8.484c2.251-0.032,4.398-0.952,5.973-2.56l68.267-68.267    C366.986,10.889,366.986,6.178,364.25,2.983z"/>
	</g>
</g>
<g>
	<g>
		<path d="M150.917,301.65c-3.065-3.58-8.452-3.996-12.032-0.931l-68.267,68.267c-1.628,1.614-2.537,3.816-2.524,6.108    c0.027,4.713,3.87,8.511,8.583,8.484c2.251-0.032,4.398-0.952,5.973-2.56l68.267-68.267    C153.652,309.556,153.652,304.844,150.917,301.65z"/>
	</g>
</g>
<g>
	<g>
		<path d="M406.917,369.071l-68.267-68.267c-3.195-2.736-7.906-2.736-11.101,0c-3.58,3.065-3.996,8.452-0.931,12.032l68.267,68.267    c1.61,1.597,3.79,2.488,6.059,2.475c2.192-0.031,4.289-0.904,5.854-2.439C410.163,377.839,410.216,372.436,406.917,369.071z"/>
	</g>
</g>
<g>
	<g>
		<path d="M238.81,8.111c-4.713,0-8.533,3.82-8.533,8.533v59.733c0,4.713,3.82,8.533,8.533,8.533s8.533-3.82,8.533-8.533V16.644    C247.343,11.931,243.523,8.111,238.81,8.111z"/>
	</g>
</g>
<g>
	<g>
		<path d="M183.087,383.577c-16.414,0.094-29.658,13.452-29.611,29.867c0,4.713,3.82,8.533,8.533,8.533s8.533-3.821,8.533-8.533    c0.067-3.456,1.51-6.743,4.011-9.131c2.28-2.256,5.328-3.566,8.533-3.669c4.713,0,8.533-3.82,8.533-8.533    S187.8,383.577,183.087,383.577z"/>
	</g>
</g>
<g>
	<g>
		<path d="M151.002,232.281c-2.036-2.026-4.954-2.892-7.765-2.304c-0.545,0.146-1.063,0.376-1.536,0.683    c-0.544,0.187-1.06,0.445-1.536,0.768l-1.28,1.024c-0.754,0.829-1.36,1.782-1.792,2.816c-0.437,1.026-0.669,2.128-0.683,3.243    c-0.059,2.327,0.835,4.577,2.475,6.229l1.28,1.024c0.476,0.323,0.992,0.581,1.536,0.768l1.536,0.512h1.707    c2.441,0.066,4.794-0.918,6.462-2.701C154.625,240.901,154.444,235.501,151.002,232.281z"/>
	</g>
</g>
<g>
	<g>
		<path d="M272.943,229.977h-93.867c-4.713,0-8.533,3.821-8.533,8.533c0,4.713,3.82,8.533,8.533,8.533h93.867    c4.713,0,8.533-3.821,8.533-8.533C281.477,233.798,277.656,229.977,272.943,229.977z"/>
	</g>
</g>
<g>
</g>
<g>
</g>
<g>
</g>
<g>
</g>
<g>
</g>
<g>
</g>
<g>
</g>
<g>
</g>
<g>
</g>
<g>
</g>
<g>
</g>
<g>
</g>
<g>
</g>
<g>
</g>
<g>
</g>
</svg>
