<?xml version="1.0" encoding="iso-8859-1"?>
<!-- Generator: Adobe Illustrator 19.0.0, SVG Export Plug-In . SVG Version: 6.00 Build 0)  -->
<svg xmlns="http://www.w3.org/2000/svg" xmlns:xlink="http://www.w3.org/1999/xlink" version="1.1" id="Layer_1" x="0px" y="0px" viewBox="0 0 512 512" style="enable-background:new 0 0 512 512;" xml:space="preserve">
<g>
	<g>
		<path d="M503.979,263.339l-137.984-86.528c-0.16-0.099-0.324-0.194-0.49-0.282c-4.161-2.214-9.328-0.636-11.542,3.525    c-9.239,17.495-22.963,32.22-39.765,42.667c-2.042,1.255-4.124,2.443-6.243,3.563c-54.165,28.632-121.285,7.935-149.917-46.23    c-0.089-0.167-0.183-0.33-0.282-0.49c-2.485-4.005-7.745-5.237-11.75-2.752L8.021,263.339C3.047,266.448,0.018,271.894,0,277.76    v20.907c0,9.426,7.641,17.067,17.067,17.067H25.6v179.2c0,9.426,7.641,17.067,17.067,17.067h17.067    c9.426,0,17.067-7.641,17.067-17.067v-204.8h358.4v204.8c0,9.426,7.641,17.067,17.067,17.067h17.067    c9.426,0,17.067-7.641,17.067-17.067v-179.2h8.533c9.426,0,17.067-7.641,17.067-17.067V277.76    C511.982,271.894,508.953,266.448,503.979,263.339z M494.933,298.667H486.4c-9.426,0-17.067,7.641-17.067,17.067v179.2h-17.067    v-204.8c0-9.426-7.641-17.067-17.067-17.067H76.8c-9.426,0-17.067,7.641-17.067,17.067v204.8H42.667v-179.2    c0-9.426-7.641-17.067-17.067-17.067h-8.533v-20.821l130.56-81.579c10.393,16.571,24.431,30.551,41.045,40.875    c41.217,25.447,93.268,25.447,134.485,0c16.676-10.303,30.775-24.285,41.216-40.875l130.56,81.579V298.667z"/>
	</g>
</g>
<g>
	<g>
		<path d="M256,0c-70.692,0-128,57.308-128,128c-0.014,20.847,5.146,41.372,15.019,59.733    c10.628,20.143,26.411,37.104,45.739,49.152C208.947,249.41,232.241,256.032,256,256c23.792-0.07,47.089-6.811,67.243-19.456    c19.282-11.954,35.062-28.793,45.739-48.811C378.854,169.372,384.014,148.847,384,128C384,57.308,326.692,0,256,0z     M353.963,180.053c-9.239,17.495-22.963,32.22-39.765,42.667c-2.042,1.255-4.124,2.443-6.243,3.563    c-54.165,28.632-121.285,7.935-149.917-46.23c-8.594-15.999-13.052-33.892-12.971-52.053c0-61.267,49.667-110.933,110.933-110.933    S366.933,66.733,366.933,128C367.011,146.16,362.553,164.053,353.963,180.053z"/>
	</g>
</g>
<g>
	<g>
		<path d="M443.733,307.2H145.067c-4.713,0-8.533,3.82-8.533,8.533s3.82,8.533,8.533,8.533h298.667c4.713,0,8.533-3.82,8.533-8.533    S448.446,307.2,443.733,307.2z"/>
	</g>
</g>
<g>
	<g>
		<path d="M110.933,307.2H68.267c-4.713,0-8.533,3.82-8.533,8.533s3.82,8.533,8.533,8.533h42.667c4.713,0,8.533-3.82,8.533-8.533    S115.646,307.2,110.933,307.2z"/>
	</g>
</g>
<g>
	<g>
		<path d="M443.733,341.333H145.067c-4.713,0-8.533,3.82-8.533,8.533s3.82,8.533,8.533,8.533h298.667    c4.713,0,8.533-3.82,8.533-8.533S448.446,341.333,443.733,341.333z"/>
	</g>
</g>
<g>
	<g>
		<path d="M110.933,341.333H68.267c-4.713,0-8.533,3.82-8.533,8.533s3.82,8.533,8.533,8.533h42.667c4.713,0,8.533-3.82,8.533-8.533    S115.646,341.333,110.933,341.333z"/>
	</g>
</g>
<g>
	<g>
		<path d="M443.733,375.467H145.067c-4.713,0-8.533,3.82-8.533,8.533s3.82,8.533,8.533,8.533h298.667    c4.713,0,8.533-3.82,8.533-8.533S448.446,375.467,443.733,375.467z"/>
	</g>
</g>
<g>
	<g>
		<path d="M110.933,375.467H68.267c-4.713,0-8.533,3.82-8.533,8.533s3.82,8.533,8.533,8.533h42.667c4.713,0,8.533-3.82,8.533-8.533    S115.646,375.467,110.933,375.467z"/>
	</g>
</g>
<g>
	<g>
		<path d="M443.733,409.6H145.067c-4.713,0-8.533,3.82-8.533,8.533s3.82,8.533,8.533,8.533h298.667c4.713,0,8.533-3.82,8.533-8.533    S448.446,409.6,443.733,409.6z"/>
	</g>
</g>
<g>
	<g>
		<path d="M110.933,409.6H68.267c-4.713,0-8.533,3.82-8.533,8.533s3.82,8.533,8.533,8.533h42.667c4.713,0,8.533-3.82,8.533-8.533    S115.646,409.6,110.933,409.6z"/>
	</g>
</g>
<g>
	<g>
		<path d="M443.733,443.733H145.067c-4.713,0-8.533,3.821-8.533,8.533c0,4.713,3.82,8.533,8.533,8.533h298.667    c4.713,0,8.533-3.821,8.533-8.533C452.267,447.554,448.446,443.733,443.733,443.733z"/>
	</g>
</g>
<g>
	<g>
		<path d="M110.933,443.733H68.267c-4.713,0-8.533,3.821-8.533,8.533c0,4.713,3.82,8.533,8.533,8.533h42.667    c4.713,0,8.533-3.821,8.533-8.533C119.467,447.554,115.646,443.733,110.933,443.733z"/>
	</g>
</g>
<g>
	<g>
		<path d="M307.2,93.867H204.8c-14.138,0-25.6,11.461-25.6,25.6v51.2c0,14.138,11.461,25.6,25.6,25.6h102.4    c14.138,0,25.6-11.461,25.6-25.6v-51.2C332.8,105.328,321.339,93.867,307.2,93.867z M315.733,170.667    c0,4.713-3.82,8.533-8.533,8.533H204.8c-4.713,0-8.533-3.82-8.533-8.533v-51.2c0-4.713,3.82-8.533,8.533-8.533h102.4    c4.713,0,8.533,3.82,8.533,8.533V170.667z"/>
	</g>
</g>
<g>
	<g>
		<path d="M256,42.667c-23.564,0-42.667,19.102-42.667,42.667V102.4c0,4.713,3.82,8.533,8.533,8.533h68.267v-0.171    c4.713,0,8.533-3.82,8.533-8.533c0-2.219,0-7.424,0-11.861v-5.035C298.667,61.769,279.564,42.667,256,42.667z M281.6,90.368    c0,1.109,0,2.304,0,3.499h-51.2v-8.533c0-14.138,11.461-25.6,25.6-25.6s25.6,11.461,25.6,25.6V90.368z"/>
	</g>
</g>
<g>
	<g>
		<path d="M256,128c-4.713,0-8.533,3.82-8.533,8.533V153.6c0,4.713,3.82,8.533,8.533,8.533s8.533-3.821,8.533-8.533v-17.067    C264.533,131.82,260.713,128,256,128z"/>
	</g>
</g>
<g>
	<g>
		<path d="M264.533,128h-17.067c-4.713,0-8.533,3.82-8.533,8.533s3.82,8.533,8.533,8.533h17.067c4.713,0,8.533-3.82,8.533-8.533    S269.246,128,264.533,128z"/>
	</g>
</g>
<g>
</g>
<g>
</g>
<g>
</g>
<g>
</g>
<g>
</g>
<g>
</g>
<g>
</g>
<g>
</g>
<g>
</g>
<g>
</g>
<g>
</g>
<g>
</g>
<g>
</g>
<g>
</g>
<g>
</g>
</svg>
