<?xml version="1.0" encoding="iso-8859-1"?>
<!-- Generator: Adobe Illustrator 19.0.0, SVG Export Plug-In . SVG Version: 6.00 Build 0)  -->
<svg xmlns="http://www.w3.org/2000/svg" xmlns:xlink="http://www.w3.org/1999/xlink" version="1.1" id="Layer_1" x="0px" y="0px" viewBox="0 0 512.284 512.284" style="enable-background:new 0 0 512.284 512.284;" xml:space="preserve">
<g>
	<g>
		<path d="M436.196,297.842l-112.64-75.008c-2.808-1.802-6.408-1.802-9.216,0c-35.781,21.637-80.613,21.637-116.395,0    c-2.808-1.801-6.408-1.801-9.216,0L76.003,297.842c-4.761,3.176-7.613,8.528-7.595,14.251v12.459    c0,9.426,7.641,17.067,17.067,17.067v153.6c0,9.426,7.641,17.067,17.067,17.067h17.067c9.426,0,17.067-7.641,17.067-17.067v-102.4    h59.733v102.4c0,9.426,7.641,17.067,17.067,17.067h196.267c9.426,0,17.067-7.641,17.067-17.067v-153.6    c9.426,0,17.067-7.641,17.067-17.067v-12.459C443.875,306.353,440.989,300.998,436.196,297.842z M426.809,324.551    c-9.426,0-17.067,7.641-17.067,17.067v153.6H213.475v-102.4c0-9.426-7.641-17.067-17.067-17.067h-59.733    c-9.426,0-17.067,7.641-17.067,17.067v102.4h-17.067v-153.6c0-9.426-7.641-17.067-17.067-17.067v-12.544l108.203-72.021    c38.9,21.375,86.028,21.375,124.928,0l108.203,72.107V324.551z"/>
	</g>
</g>
<g>
	<g>
		<path d="M136.675,333.084c0.013-2.293-0.896-4.494-2.524-6.108c-3.346-3.319-8.749-3.296-12.068,0.05    c-0.754,0.829-1.36,1.782-1.792,2.816c-0.437,1.026-0.669,2.128-0.683,3.243c0,4.713,3.82,8.533,8.533,8.533    c2.318,0.012,4.551-0.875,6.229-2.475c0.367-0.406,0.709-0.833,1.024-1.28c0.323-0.476,0.581-0.992,0.768-1.536    c0.245-0.484,0.417-1.002,0.512-1.536C136.717,334.223,136.717,333.652,136.675,333.084z"/>
	</g>
</g>
<g>
	<g>
		<path d="M367.075,324.551H153.742c-4.713,0-8.533,3.821-8.533,8.533c0,4.713,3.821,8.533,8.533,8.533h213.333    c4.713,0,8.533-3.821,8.533-8.533C375.609,328.371,371.788,324.551,367.075,324.551z"/>
	</g>
</g>
<g>
	<g>
		<path d="M335.246,27.375c-55.577-43.688-136.047-34.05-179.735,21.527c-43.688,55.577-34.05,136.047,21.527,179.735    c3.793,3.062,7.752,5.911,11.861,8.533c20.19,12.525,43.483,19.147,67.243,19.115c23.759,0.032,47.053-6.59,67.243-19.115    c4.109-2.623,8.068-5.472,11.861-8.533c8.006-6.294,15.233-13.52,21.527-21.527C400.461,151.533,390.823,71.063,335.246,27.375z     M324.409,215.41c-3.141,2.589-6.417,5.01-9.813,7.253c-35.781,21.637-80.613,21.637-116.395,0    c-3.571-2.228-7.018-4.649-10.325-7.253c-26.579-20.948-42.143-52.883-42.265-86.725    c-0.221-61.266,49.265-111.112,110.532-111.334c33.842,0.122,65.777,15.686,86.725,42.265    C380.791,107.734,372.527,177.485,324.409,215.41z"/>
	</g>
</g>
<g>
	<g>
		<path d="M339.513,120.178c-22.272-31.317-52.053-48.384-83.712-48.384s-61.44,17.152-83.712,48.384    c-1.875,2.848-1.875,6.539,0,9.387c21.76,35.413,51.2,55.296,82.944,55.296h0.597c31.915,0,61.867-19.627,83.883-55.125    C341.464,126.848,341.464,123.064,339.513,120.178z M255.715,167.794h-0.512c-24.282-0.596-47.287-15.485-65.364-42.54    c18.491-23.586,41.973-36.734,66.388-36.734c24.491,0,47.872,12.971,66.389,36.608    C303.758,152.86,280.206,167.794,255.715,167.794z"/>
	</g>
</g>
<g>
	<g>
		<path d="M281.742,77.084c-3.134-3.558-8.559-3.902-12.117-0.768c-3.558,3.134-3.902,8.559-0.768,12.117    c5.689,6.451,5.689,16.126,0,22.577c-6.234,7.069-17.019,7.746-24.089,1.511c-7.069-6.234-7.746-17.019-1.511-24.089    c2.733-3.406,2.454-8.325-0.647-11.4c-3.346-3.318-8.749-3.296-12.068,0.051c-5.337,6.156-8.295,14.019-8.341,22.166    c-0.106,18.851,15.09,34.219,33.941,34.324v0.427c8.473,0.046,16.66-3.061,22.969-8.717    C293.148,112.701,294.326,91.121,281.742,77.084z"/>
	</g>
</g>
<g>
</g>
<g>
</g>
<g>
</g>
<g>
</g>
<g>
</g>
<g>
</g>
<g>
</g>
<g>
</g>
<g>
</g>
<g>
</g>
<g>
</g>
<g>
</g>
<g>
</g>
<g>
</g>
<g>
</g>
</svg>
