<?xml version="1.0" encoding="iso-8859-1"?>
<!-- Generator: Adobe Illustrator 19.0.0, SVG Export Plug-In . SVG Version: 6.00 Build 0)  -->
<svg xmlns="http://www.w3.org/2000/svg" xmlns:xlink="http://www.w3.org/1999/xlink" version="1.1" id="Layer_1" x="0px" y="0px" viewBox="0 0 512.284 512.284" style="enable-background:new 0 0 512.284 512.284;" xml:space="preserve">
<g>
	<g>
		<path d="M436.196,297.842l-112.64-75.008c-2.808-1.802-6.408-1.802-9.216,0c-35.781,21.637-80.613,21.637-116.395,0    c-2.808-1.801-6.408-1.801-9.216,0L76.003,297.842c-4.761,3.176-7.613,8.528-7.595,14.251v12.459    c0,9.426,7.641,17.067,17.067,17.067v153.6c0,9.426,7.641,17.067,17.067,17.067h17.067c9.426,0,17.067-7.641,17.067-17.067v-102.4    h59.733v102.4c0,9.426,7.641,17.067,17.067,17.067h196.267c9.426,0,17.067-7.641,17.067-17.067v-153.6    c9.426,0,17.067-7.641,17.067-17.067v-12.459C443.875,306.353,440.989,300.998,436.196,297.842z M426.809,324.551    c-9.426,0-17.067,7.641-17.067,17.067v153.6H213.475v-102.4c0-9.426-7.641-17.067-17.067-17.067h-59.733    c-9.426,0-17.067,7.641-17.067,17.067v102.4h-17.067v-153.6c0-9.426-7.641-17.067-17.067-17.067v-12.544l108.203-72.021    c38.9,21.375,86.028,21.375,124.928,0l108.203,72.107V324.551z"/>
	</g>
</g>
<g>
	<g>
		<path d="M134.201,326.855c-0.83-0.752-1.783-1.358-2.816-1.792c-1.562-0.659-3.285-0.837-4.949-0.512    c-0.545,0.146-1.063,0.376-1.536,0.683l-1.536,0.768l-1.28,1.024c-1.559,1.635-2.443,3.799-2.475,6.059    c-0.009,1.173,0.223,2.335,0.683,3.413c0.434,1.033,1.04,1.986,1.792,2.816l1.28,1.024l1.536,0.768l1.536,0.512h1.707    c1.115-0.013,2.217-0.245,3.243-0.683c2.144-0.776,3.832-2.464,4.608-4.608c0.478-1.013,0.712-2.123,0.683-3.243    C136.688,330.766,135.801,328.533,134.201,326.855z"/>
	</g>
</g>
<g>
	<g>
		<path d="M367.075,324.551H153.742c-4.713,0-8.533,3.821-8.533,8.533c0,4.713,3.821,8.533,8.533,8.533h213.333    c4.713,0,8.533-3.821,8.533-8.533C375.609,328.371,371.788,324.551,367.075,324.551z"/>
	</g>
</g>
<g>
	<g>
		<path d="M335.246,27.375c-55.577-43.688-136.047-34.05-179.735,21.527c-43.688,55.577-34.05,136.047,21.527,179.735    c3.793,3.062,7.752,5.911,11.861,8.533c20.19,12.525,43.483,19.147,67.243,19.115c23.759,0.032,47.053-6.59,67.243-19.115    c4.109-2.623,8.068-5.472,11.861-8.533c8.006-6.294,15.233-13.52,21.527-21.527C400.461,151.533,390.823,71.063,335.246,27.375z     M324.409,215.41c-3.141,2.589-6.417,5.01-9.813,7.253c-35.781,21.637-80.613,21.637-116.395,0    c-3.571-2.228-7.018-4.649-10.325-7.253c-26.579-20.948-42.143-52.883-42.265-86.725    c-0.221-61.266,49.265-111.112,110.532-111.334c33.842,0.122,65.777,15.686,86.725,42.265    C380.791,107.734,372.527,177.485,324.409,215.41z"/>
	</g>
</g>
<g>
	<g>
		<path d="M260.665,170.951h-9.045c-11.641,0-21.077,9.437-21.077,21.077v9.045c0,11.641,9.437,21.077,21.077,21.077h9.045    c11.641,0,21.077-9.437,21.077-21.077v-9.045C281.742,180.388,272.305,170.951,260.665,170.951z M264.675,201.074    c0,2.215-1.796,4.011-4.011,4.011h-9.045c-2.215,0-4.011-1.796-4.011-4.011v-9.045c0-2.215,1.796-4.011,4.011-4.011h9.045    c2.215,0,4.011,1.796,4.011,4.011V201.074z"/>
	</g>
</g>
<g>
	<g>
		<path d="M286.265,48.156c-3.111-3.334-7.472-5.22-12.032-5.205h-36.181c-4.613,0.073-8.981,2.086-12.032,5.547    c-2.906,3.1-4.364,7.286-4.011,11.52l6.4,79.531c0.757,8.214,7.71,14.46,15.957,14.336h23.552    c8.129,0.14,15.036-5.917,15.957-13.995l6.4-79.872C290.729,55.668,289.265,51.338,286.265,48.156z M267.065,136.818h-21.589    l-6.4-76.8h34.133L267.065,136.818z"/>
	</g>
</g>
<g>
</g>
<g>
</g>
<g>
</g>
<g>
</g>
<g>
</g>
<g>
</g>
<g>
</g>
<g>
</g>
<g>
</g>
<g>
</g>
<g>
</g>
<g>
</g>
<g>
</g>
<g>
</g>
<g>
</g>
</svg>
