<?xml version="1.0" encoding="iso-8859-1"?>
<!-- Generator: Adobe Illustrator 19.0.0, SVG Export Plug-In . SVG Version: 6.00 Build 0)  -->
<svg xmlns="http://www.w3.org/2000/svg" xmlns:xlink="http://www.w3.org/1999/xlink" version="1.1" id="Layer_1" x="0px" y="0px" viewBox="0 0 512.002 512.002" style="enable-background:new 0 0 512.002 512.002;" xml:space="preserve">
<g>
	<g>
		<path d="M153.604,34.133c-18.851,0-34.133,15.282-34.133,34.133c0,4.713,3.82,8.533,8.533,8.533c4.713,0,8.533-3.82,8.533-8.533    c0-9.426,7.641-17.067,17.067-17.067c4.713,0,8.533-3.82,8.533-8.533S158.317,34.133,153.604,34.133z"/>
	</g>
</g>
<g>
	<g>
		<path d="M117.253,288.867c-2.094-4.222-7.214-5.948-11.436-3.854c-33.691,17.777-54.73,52.786-54.613,90.88    c0,0.768,0,1.707,0,3.328c0.228,4.545,3.982,8.112,8.533,8.107l0.427-0.512c4.545-0.228,8.112-3.982,8.107-8.533    c0-1.109,0-1.792,0-2.816c0.04-31.601,17.54-60.592,45.483-75.349C117.737,297.904,119.278,292.95,117.253,288.867z"/>
	</g>
</g>
<g>
	<g>
		<path d="M217.604,349.867c-27.345-0.295-53.342,11.856-70.656,33.024c-14.068,17.148-35.166,26.974-57.344,26.709    c-22.26,0.429-43.51-9.271-57.771-26.368v-1.024l-6.229,6.229h-8.533c0.016,1.964,0.709,3.863,1.963,5.376    c17.36,21.041,43.294,33.114,70.571,32.853c27.345,0.295,53.342-11.856,70.656-33.024c14.068-17.148,35.166-26.974,57.344-26.709    c9.703-0.068,19.327,1.758,28.331,5.376l6.4-15.787C241.3,352.068,229.504,349.807,217.604,349.867z"/>
	</g>
</g>
<g>
	<g>
		<path d="M256.004,375.467c-0.009-6.208,0.533-12.405,1.621-18.517c2.349-14.152,7.42-27.715,14.933-39.936    c1.524-2.64,1.524-5.893,0-8.533c-11.96-21.333-29.476-39.027-50.688-51.2V68.267C221.871,30.564,191.307,0,153.604,0    c-37.703,0-68.267,30.564-68.267,68.267V257.28c-42.227,24.38-68.247,69.427-68.267,118.187c0,1.536,0,3.243,0,4.693    C19.292,453.864,79.868,512.358,153.604,512c49.34-0.106,94.785-26.825,118.869-69.888c1.524-2.64,1.524-5.893,0-8.533    C261.677,416.121,255.973,395.993,256.004,375.467z M255.236,438.101c-21.011,34.086-57.701,55.379-97.72,56.713    c-65.943,2.197-121.182-49.479-123.379-115.422c0-1.28,0-2.645,0-3.925c0.012-44.311,24.549-84.975,63.744-105.643    c2.776-1.478,4.514-4.364,4.523-7.509V68.267c0-28.277,22.923-51.2,51.2-51.2c28.277,0,51.2,22.923,51.2,51.2v194.475    c0.008,3.145,1.746,6.031,4.523,7.509c18.852,9.849,34.708,24.586,45.909,42.667c-7.238,12.901-12.176,26.963-14.592,41.557    c-1.174,6.935-1.746,13.958-1.707,20.992C238.888,397.4,244.502,418.974,255.236,438.101z"/>
	</g>
</g>
<g>
	<g>
		<path d="M213.337,128h-51.2c-4.713,0-8.533,3.82-8.533,8.533s3.82,8.533,8.533,8.533h51.2c4.713,0,8.533-3.82,8.533-8.533    S218.05,128,213.337,128z"/>
	</g>
</g>
<g>
	<g>
		<path d="M213.337,162.133h-51.2c-4.713,0-8.533,3.82-8.533,8.533s3.82,8.533,8.533,8.533h51.2c4.713,0,8.533-3.82,8.533-8.533    S218.05,162.133,213.337,162.133z"/>
	</g>
</g>
<g>
	<g>
		<path d="M213.337,196.267h-51.2c-4.713,0-8.533,3.82-8.533,8.533s3.82,8.533,8.533,8.533h51.2c4.713,0,8.533-3.821,8.533-8.533    S218.05,196.267,213.337,196.267z"/>
	</g>
</g>
<g>
	<g>
		<path d="M213.337,230.4h-51.2c-4.713,0-8.533,3.82-8.533,8.533s3.82,8.533,8.533,8.533h51.2c4.713,0,8.533-3.82,8.533-8.533    S218.05,230.4,213.337,230.4z"/>
	</g>
</g>
<g>
	<g>
		<path d="M387.903,249.2c-69.735-11.594-135.665,35.54-147.259,105.275c-1.174,6.935-1.746,13.958-1.707,20.992    c0.007,39.26,18.031,76.345,48.896,100.608c22.507,17.822,50.395,27.479,79.104,27.392    c62.581-0.013,115.977-45.274,126.241-107.008C504.772,326.723,457.638,260.793,387.903,249.2z M366.937,486.4    c-61.267,0-110.933-49.667-110.933-110.933c-0.017-6.092,0.497-12.173,1.536-18.176c8.887-53.505,55.159-92.739,109.397-92.757    c61.267,0,110.933,49.667,110.933,110.933S428.204,486.4,366.937,486.4z"/>
	</g>
</g>
<g>
	<g>
		<path d="M398.721,324.656c-28.063-17.344-64.872-8.655-82.216,19.408c-4.267,6.705-7.167,14.187-8.533,22.016    c-0.526,3.101-0.783,6.242-0.768,9.387c-0.109,10.974,2.846,21.761,8.533,31.147c3.821,6.059,8.672,11.402,14.336,15.787    c10.489,8.309,23.483,12.821,36.864,12.8c20.837,0.133,40.237-10.603,51.192-28.328C435.473,378.809,426.784,342,398.721,324.656z     M400.591,401.951c-14.627,18.474-41.462,21.593-59.936,6.966c-4.017-3.166-7.453-7.006-10.155-11.349    c-4.094-6.643-6.252-14.298-6.229-22.101c-0.017-2.172,0.154-4.342,0.512-6.485c0.898-5.653,2.899-11.075,5.888-15.957    c7.772-12.566,21.492-20.217,36.267-20.224c9.684-0.046,19.095,3.204,26.688,9.215C412.1,356.642,415.218,383.477,400.591,401.951    z"/>
	</g>
</g>
<g>
	<g>
		<path d="M366.937,281.6c-4.713,0-8.533,3.82-8.533,8.533v34.133c0,4.713,3.82,8.533,8.533,8.533s8.533-3.82,8.533-8.533v-34.133    C375.471,285.421,371.65,281.6,366.937,281.6z"/>
	</g>
</g>
<g>
	<g>
		<path d="M366.937,418.133c-4.713,0-8.533,3.82-8.533,8.533V460.8c0,4.713,3.82,8.533,8.533,8.533s8.533-3.82,8.533-8.533v-34.133    C375.471,421.954,371.65,418.133,366.937,418.133z"/>
	</g>
</g>
<g>
	<g>
		<path d="M336.729,333.312l-24.149-24.149c-3.195-2.736-7.906-2.736-11.101,0c-3.58,3.065-3.996,8.452-0.931,12.032l24.149,24.149    c1.61,1.597,3.79,2.488,6.059,2.475l-0.085,0.085c2.293,0.013,4.494-0.896,6.108-2.524    C340.098,342.034,340.076,336.631,336.729,333.312z"/>
	</g>
</g>
<g>
	<g>
		<path d="M433.241,429.824l-24.149-24.149c-3.195-2.736-7.906-2.736-11.101,0c-3.58,3.065-3.996,8.452-0.931,12.032l24.149,24.149    c1.61,1.597,3.79,2.488,6.059,2.475l-0.085,0.085c2.293,0.013,4.494-0.896,6.108-2.524    C436.61,438.546,436.588,433.143,433.241,429.824z"/>
	</g>
</g>
<g>
	<g>
		<path d="M315.737,366.933h-34.133c-4.713,0-8.533,3.82-8.533,8.533s3.82,8.533,8.533,8.533h34.133c4.713,0,8.533-3.82,8.533-8.533    S320.45,366.933,315.737,366.933z"/>
	</g>
</g>
<g>
	<g>
		<path d="M452.271,366.933h-34.133c-4.713,0-8.533,3.82-8.533,8.533s3.82,8.533,8.533,8.533h34.133c4.713,0,8.533-3.82,8.533-8.533    S456.984,366.933,452.271,366.933z"/>
	</g>
</g>
<g>
	<g>
		<path d="M336.729,406.52c-3.066-3.58-8.452-3.996-12.032-0.931l-24.149,24.149c-1.628,1.614-2.537,3.816-2.524,6.108    c0.027,4.713,3.87,8.511,8.583,8.484c2.251-0.032,4.398-0.952,5.973-2.56l24.149-24.149    C339.465,414.427,339.465,409.715,336.729,406.52z"/>
	</g>
</g>
<g>
	<g>
		<path d="M433.241,310.008c-3.065-3.58-8.452-3.996-12.032-0.931l-24.149,24.149c-1.628,1.614-2.537,3.816-2.524,6.108    c0.027,4.713,3.87,8.511,8.583,8.484c2.251-0.032,4.398-0.952,5.973-2.56l24.149-24.149    C435.977,317.915,435.977,313.203,433.241,310.008z"/>
	</g>
</g>
<g>
</g>
<g>
</g>
<g>
</g>
<g>
</g>
<g>
</g>
<g>
</g>
<g>
</g>
<g>
</g>
<g>
</g>
<g>
</g>
<g>
</g>
<g>
</g>
<g>
</g>
<g>
</g>
<g>
</g>
</svg>
