<?xml version="1.0" encoding="iso-8859-1"?>
<!-- Generator: Adobe Illustrator 19.0.0, SVG Export Plug-In . SVG Version: 6.00 Build 0)  -->
<svg xmlns="http://www.w3.org/2000/svg" xmlns:xlink="http://www.w3.org/1999/xlink" version="1.1" id="Layer_1" x="0px" y="0px" viewBox="0 0 512.002 512.002" style="enable-background:new 0 0 512.002 512.002;" xml:space="preserve">
<g>
	<g>
		<path d="M256.004,375.467c-0.009-6.208,0.533-12.405,1.621-18.517c2.349-14.152,7.42-27.715,14.933-39.936    c1.524-2.64,1.524-5.893,0-8.533c-11.96-21.333-29.476-39.027-50.688-51.2V68.267C221.871,30.564,191.307,0,153.604,0    c-37.703,0-68.267,30.564-68.267,68.267V257.28c-42.227,24.38-68.247,69.427-68.267,118.187c0,1.536,0,3.243,0,4.693    C19.292,453.864,79.868,512.358,153.604,512c49.34-0.106,94.785-26.825,118.869-69.888c1.524-2.64,1.524-5.893,0-8.533    C261.677,416.121,255.973,395.993,256.004,375.467z M255.236,438.101c-21.011,34.086-57.701,55.379-97.72,56.713    c-65.943,2.197-121.182-49.479-123.379-115.422c0-1.28,0-2.645,0-3.925c0.012-44.311,24.549-84.975,63.744-105.643    c2.776-1.478,4.514-4.364,4.523-7.509V68.267c0-28.277,22.923-51.2,51.2-51.2c28.277,0,51.2,22.923,51.2,51.2v194.475    c0.008,3.145,1.746,6.031,4.523,7.509c18.852,9.849,34.708,24.586,45.909,42.667c-7.238,12.901-12.176,26.963-14.592,41.557    c-1.174,6.935-1.746,13.958-1.707,20.992C238.888,397.4,244.502,418.974,255.236,438.101z"/>
	</g>
</g>
<g>
	<g>
		<path d="M153.604,34.133c-18.851,0-34.133,15.282-34.133,34.133c0,4.713,3.82,8.533,8.533,8.533c4.713,0,8.533-3.82,8.533-8.533    c0-9.426,7.641-17.067,17.067-17.067c4.713,0,8.533-3.82,8.533-8.533S158.317,34.133,153.604,34.133z"/>
	</g>
</g>
<g>
	<g>
		<path d="M117.253,288.867c-2.094-4.222-7.214-5.948-11.436-3.854c-33.691,17.777-54.73,52.786-54.613,90.88    c0,0.768,0,1.707,0,3.328c0.228,4.545,3.982,8.112,8.533,8.107l0.427-0.512c4.545-0.228,8.112-3.982,8.107-8.533    c0-1.109,0-1.792,0-2.816c0.04-31.601,17.54-60.592,45.483-75.349C117.737,297.904,119.278,292.95,117.253,288.867z"/>
	</g>
</g>
<g>
	<g>
		<path d="M213.337,128h-51.2c-4.713,0-8.533,3.82-8.533,8.533s3.82,8.533,8.533,8.533h51.2c4.713,0,8.533-3.82,8.533-8.533    S218.05,128,213.337,128z"/>
	</g>
</g>
<g>
	<g>
		<path d="M213.337,162.133h-51.2c-4.713,0-8.533,3.82-8.533,8.533s3.82,8.533,8.533,8.533h51.2c4.713,0,8.533-3.82,8.533-8.533    S218.05,162.133,213.337,162.133z"/>
	</g>
</g>
<g>
	<g>
		<path d="M213.337,196.267h-51.2c-4.713,0-8.533,3.82-8.533,8.533s3.82,8.533,8.533,8.533h51.2c4.713,0,8.533-3.821,8.533-8.533    S218.05,196.267,213.337,196.267z"/>
	</g>
</g>
<g>
	<g>
		<path d="M213.337,230.4h-51.2c-4.713,0-8.533,3.82-8.533,8.533s3.82,8.533,8.533,8.533h51.2c4.713,0,8.533-3.82,8.533-8.533    S218.05,230.4,213.337,230.4z"/>
	</g>
</g>
<g>
	<g>
		<path d="M217.604,349.867c-27.345-0.295-53.342,11.856-70.656,33.024c-14.068,17.148-35.166,26.974-57.344,26.709    c-22.26,0.429-43.51-9.271-57.771-26.368v-1.024l-6.229,6.229h-8.533c0.016,1.964,0.709,3.863,1.963,5.376    c17.36,21.041,43.294,33.114,70.571,32.853c27.345,0.295,53.342-11.856,70.656-33.024c14.068-17.148,35.166-26.974,57.344-26.709    c9.703-0.068,19.327,1.758,28.331,5.376l6.4-15.787C241.3,352.068,229.504,349.807,217.604,349.867z"/>
	</g>
</g>
<g>
	<g>
		<path d="M387.903,249.2c-69.735-11.594-135.665,35.54-147.259,105.275c-1.174,6.935-1.746,13.958-1.707,20.992    c0.007,39.26,18.031,76.345,48.896,100.608c22.507,17.822,50.395,27.479,79.104,27.392    c62.581-0.013,115.977-45.274,126.241-107.008C504.772,326.723,457.638,260.793,387.903,249.2z M366.937,486.4    c-61.267,0-110.933-49.667-110.933-110.933c-0.017-6.092,0.497-12.173,1.536-18.176c8.887-53.505,55.159-92.739,109.397-92.757    c61.267,0,110.933,49.667,110.933,110.933S428.204,486.4,366.937,486.4z"/>
	</g>
</g>
<g>
	<g>
		<path d="M366.937,281.6c-4.713,0-8.533,3.82-8.533,8.533V460.8c0,4.713,3.82,8.533,8.533,8.533s8.533-3.82,8.533-8.533V290.133    C375.471,285.421,371.65,281.6,366.937,281.6z"/>
	</g>
</g>
<g>
	<g>
		<path d="M371.716,308.651l-25.6-17.067c-0.252-0.19-0.515-0.365-0.787-0.526c-4.057-2.398-9.29-1.054-11.688,3.003    c-2.398,4.057-1.054,9.29,3.003,11.688l25.6,17.067c1.388,0.933,3.021,1.438,4.693,1.451c2.849,0.006,5.513-1.409,7.102-3.774    C376.668,316.581,375.628,311.279,371.716,308.651z"/>
	</g>
</g>
<g>
	<g>
		<path d="M399.708,293.274c-2.833-3.766-8.183-4.523-11.949-1.69l-25.6,17.067c-2.365,1.589-3.78,4.253-3.774,7.102    c0.011,4.713,3.84,8.525,8.552,8.514c1.673-0.013,3.305-0.518,4.693-1.451l25.6-17.067c0.272-0.161,0.534-0.336,0.787-0.526    C401.784,302.39,402.541,297.041,399.708,293.274z"/>
	</g>
</g>
<g>
	<g>
		<path d="M373.847,431.12c-2.398-4.057-7.631-5.401-11.688-3.003l-25.6,17.067c-2.365,1.589-3.78,4.253-3.774,7.102    c0.011,4.713,3.84,8.525,8.552,8.514c1.673-0.013,3.305-0.518,4.693-1.451l25.6-17.067    C375.105,439.67,376.059,434.863,373.847,431.12z"/>
	</g>
</g>
<g>
	<g>
		<path d="M397.316,445.184l-25.6-17.067c-0.252-0.19-0.515-0.365-0.787-0.526c-4.057-2.398-9.29-1.054-11.688,3.003    s-1.054,9.29,3.003,11.688l25.6,17.067c1.388,0.933,3.021,1.438,4.693,1.451c2.849,0.006,5.513-1.409,7.102-3.774    C402.268,453.115,401.228,447.813,397.316,445.184z"/>
	</g>
</g>
<g>
	<g>
		<path d="M452.271,366.933H281.604c-4.713,0-8.533,3.82-8.533,8.533s3.82,8.533,8.533,8.533h170.667    c4.713,0,8.533-3.82,8.533-8.533S456.984,366.933,452.271,366.933z"/>
	</g>
</g>
<g>
	<g>
		<path d="M311.81,367.77c-4.057-2.398-9.29-1.054-11.688,3.003l-17.067,25.6c-0.909,1.381-1.398,2.996-1.407,4.649    c-0.024,4.713,3.776,8.553,8.489,8.577c2.838,0.004,5.493-1.403,7.083-3.755l17.067-25.6c0.19-0.252,0.365-0.515,0.526-0.787    C317.211,375.402,315.867,370.169,311.81,367.77z"/>
	</g>
</g>
<g>
	<g>
		<path d="M314.287,370.688l-17.067-25.6c-2.613-3.474-7.42-4.429-11.162-2.216c-4.057,2.398-5.401,7.631-3.003,11.688l17.067,25.6    c1.57,2.384,4.228,3.825,7.083,3.84c1.708,0.003,3.377-0.507,4.792-1.464C315.9,379.897,316.926,374.593,314.287,370.688z"/>
	</g>
</g>
<g>
	<g>
		<path d="M450.82,396.288l-17.067-25.6c-2.613-3.474-7.42-4.429-11.162-2.216c-4.057,2.398-5.401,7.631-3.003,11.688l17.067,25.6    c1.57,2.384,4.228,3.825,7.083,3.84c1.708,0.003,3.377-0.507,4.792-1.464C452.434,405.497,453.459,400.193,450.82,396.288z"/>
	</g>
</g>
<g>
	<g>
		<path d="M448.343,342.17c-4.057-2.398-9.29-1.054-11.688,3.003l-17.067,25.6c-0.909,1.381-1.398,2.996-1.406,4.649    c-0.024,4.713,3.776,8.553,8.489,8.577c2.838,0.004,5.493-1.403,7.083-3.755l17.067-25.6c0.19-0.252,0.365-0.515,0.526-0.787    C453.744,349.802,452.4,344.569,448.343,342.17z"/>
	</g>
</g>
<g>
	<g>
		<path d="M415.577,412.16l-85.333-85.333c-3.195-2.736-7.906-2.736-11.101,0c-3.58,3.065-3.996,8.452-0.931,12.032l85.333,85.333    c1.61,1.597,3.79,2.488,6.059,2.475c2.192-0.031,4.289-0.904,5.854-2.439C418.824,420.928,418.877,415.525,415.577,412.16z"/>
	</g>
</g>
<g>
	<g>
		<path d="M415.577,327.672c-3.065-3.58-8.452-3.996-12.032-0.931l-85.333,85.333c-1.628,1.614-2.537,3.816-2.524,6.108    c0.027,4.713,3.87,8.511,8.583,8.484c2.251-0.032,4.398-0.952,5.973-2.56l85.333-85.333    C418.313,335.579,418.313,330.867,415.577,327.672z"/>
	</g>
</g>
<g>
</g>
<g>
</g>
<g>
</g>
<g>
</g>
<g>
</g>
<g>
</g>
<g>
</g>
<g>
</g>
<g>
</g>
<g>
</g>
<g>
</g>
<g>
</g>
<g>
</g>
<g>
</g>
<g>
</g>
</svg>
