<?xml version="1.0" encoding="iso-8859-1"?>
<!-- Generator: Adobe Illustrator 19.0.0, SVG Export Plug-In . SVG Version: 6.00 Build 0)  -->
<svg xmlns="http://www.w3.org/2000/svg" xmlns:xlink="http://www.w3.org/1999/xlink" version="1.1" id="Layer_1" x="0px" y="0px" viewBox="0 0 510.809 510.809" style="enable-background:new 0 0 510.809 510.809;" xml:space="preserve">
<g>
	<g>
		<path d="M435.458,296.367L264.791,182.617c-5.715-3.789-13.143-3.789-18.859,0L75.266,296.367    c-4.761,3.176-7.613,8.528-7.595,14.251v12.459c0,9.426,7.641,17.067,17.067,17.067v153.6c0,9.426,7.641,17.067,17.067,17.067    h17.067c9.426,0,17.067-7.641,17.067-17.067v-102.4h59.733v102.4c0,9.426,7.641,17.067,17.067,17.067h196.267    c9.426,0,17.067-7.641,17.067-17.067v-153.6c9.426,0,17.067-7.641,17.067-17.067v-12.459    C443.137,304.878,440.251,299.523,435.458,296.367z M426.071,323.076c-9.426,0-17.067,7.641-17.067,17.067v153.6H212.738v-102.4    c0-9.426-7.641-17.067-17.067-17.067h-59.733c-9.426,0-17.067,7.641-17.067,17.067v102.4h-17.067v-153.6    c0-9.426-7.641-17.067-17.067-17.067v-12.544l158.379-105.216l12.288-8.533l170.667,113.835V323.076z"/>
	</g>
</g>
<g>
	<g>
		<path d="M135.255,328.196c-0.434-1.033-1.04-1.986-1.792-2.816l-1.28-1.024c-0.476-0.323-0.992-0.581-1.536-0.768    c-0.483-0.247-1.001-0.42-1.536-0.512c-1.123-0.259-2.29-0.259-3.413,0c-0.545,0.146-1.063,0.376-1.536,0.683l-1.536,0.768    l-1.28,1.024c-1.628,1.614-2.537,3.816-2.524,6.108c0.027,4.713,3.87,8.511,8.583,8.484h1.707l1.536-0.853    c0.544-0.187,1.06-0.445,1.536-0.768l1.28-1.024c0.777-0.812,1.386-1.769,1.792-2.816    C136.168,332.616,136.168,330.261,135.255,328.196z"/>
	</g>
</g>
<g>
	<g>
		<path d="M366.338,323.076H153.005c-4.713,0-8.533,3.821-8.533,8.533c0,4.713,3.821,8.533,8.533,8.533h213.333    c4.713,0,8.533-3.821,8.533-8.533C374.871,326.897,371.051,323.076,366.338,323.076z"/>
	</g>
</g>
<g>
	<g>
		<path d="M281.005,71.599c-18.851-14.138-45.595-10.318-59.733,8.533s-10.318,45.595,8.533,59.733v58.112    c-0.057,1.797,0.454,3.566,1.462,5.055c2.642,3.903,7.947,4.925,11.85,2.284l12.288-8.533l12.288,8.277    c1.413,0.949,3.077,1.454,4.779,1.451c4.713,0,8.533-3.82,8.533-8.533v-58.112c3.234-2.426,6.108-5.299,8.533-8.533    C303.677,112.481,299.856,85.737,281.005,71.599z M268.205,128.004c-2.624,1.515-4.248,4.308-4.267,7.339v46.677    c-5.28-3.049-11.786-3.049-17.067,0v-46.677c0.012-3.061-1.616-5.894-4.267-7.424c-7.873-4.545-12.745-12.925-12.8-22.016    c0-14.138,11.461-25.6,25.6-25.6s25.6,11.461,25.6,25.6C280.98,115.024,276.104,123.443,268.205,128.004z"/>
	</g>
</g>
<g>
	<g>
		<path d="M133.378,189.103c-48.249-48.364-48.249-126.655,0-175.019c2.736-3.195,2.736-7.906,0-11.101    c-3.065-3.58-8.452-3.996-12.032-0.931c-54.866,55.02-54.866,144.062,0,199.083c1.61,1.597,3.79,2.488,6.059,2.475    c2.192-0.031,4.289-0.904,5.854-2.439C136.624,197.871,136.677,192.468,133.378,189.103z"/>
	</g>
</g>
<g>
	<g>
		<g>
			<path d="M151.81,179.46c-0.015,0-0.029-0.002-0.044-0.002c-0.014,0-0.028,0.002-0.042,0.002L151.81,179.46z"/>
			<path d="M157.783,164.868c-34.948-35.011-34.948-91.709,0-126.72c2.736-3.195,2.736-7.906,0-11.101     c-3.065-3.58-8.452-3.996-12.032-0.931c-41.622,41.678-41.622,109.192,0,150.869c1.6,1.587,3.763,2.474,6.015,2.473     c2.277,0.002,4.462-0.904,6.067-2.522C161.152,173.59,161.13,168.187,157.783,164.868z"/>
		</g>
	</g>
</g>
<g>
	<g>
		<path d="M182.018,62.297c3.393-3.299,3.47-8.724,0.171-12.117c-3.299-3.393-8.724-3.47-12.117-0.171    c-0.043,0.043-0.086,0.086-0.129,0.128c-28.371,28.348-28.39,74.327-0.042,102.698c1.61,1.597,3.79,2.488,6.059,2.475    c2.293,0.013,4.494-0.896,6.108-2.524c3.319-3.346,3.296-8.749-0.05-12.068C160.418,119.041,160.418,83.976,182.018,62.297z"/>
	</g>
</g>
<g>
	<g>
		<path d="M389.122,1.967c-2.991-2.09-6.98-2.047-9.926,0.107c-3.804,2.782-4.632,8.121-1.85,11.925    c48.249,48.364,48.249,126.655,0,175.019c-1.628,1.614-2.537,3.816-2.524,6.108c0.027,4.713,3.87,8.511,8.583,8.484    c2.161-0.098,4.205-1.013,5.717-2.56C443.988,146.029,443.988,56.987,389.122,1.967z"/>
	</g>
</g>
<g>
	<g>
		<path d="M365.058,26.116c-3.323-3.346-8.729-3.365-12.075-0.043c-3.346,3.323-3.365,8.729-0.043,12.075    c34.948,35.011,34.948,91.709,0,126.72c-1.628,1.614-2.537,3.816-2.524,6.108c0.027,4.713,3.87,8.511,8.583,8.484    c2.268,0.013,4.448-0.877,6.059-2.475C406.68,135.308,406.68,67.794,365.058,26.116z"/>
	</g>
</g>
<g>
	<g>
		<path d="M340.738,50.009c-3.393-3.299-8.818-3.223-12.117,0.171c-3.299,3.393-3.223,8.818,0.171,12.117    c21.601,21.678,21.601,56.743,0,78.421c-1.628,1.614-2.537,3.816-2.524,6.108c0.027,4.713,3.87,8.511,8.583,8.484    c2.271-0.143,4.391-1.188,5.888-2.901C368.899,124.084,368.899,78.334,340.738,50.009z"/>
	</g>
</g>
<g>
</g>
<g>
</g>
<g>
</g>
<g>
</g>
<g>
</g>
<g>
</g>
<g>
</g>
<g>
</g>
<g>
</g>
<g>
</g>
<g>
</g>
<g>
</g>
<g>
</g>
<g>
</g>
<g>
</g>
</svg>
