<?xml version="1.0" encoding="iso-8859-1"?>
<!-- Generator: Adobe Illustrator 19.0.0, SVG Export Plug-In . SVG Version: 6.00 Build 0)  -->
<svg xmlns="http://www.w3.org/2000/svg" xmlns:xlink="http://www.w3.org/1999/xlink" version="1.1" id="Layer_1" x="0px" y="0px" viewBox="0 0 460.8 460.8" style="enable-background:new 0 0 460.8 460.8;" xml:space="preserve">
<g>
	<g>
		<path d="M230.365,0c-4.713,0-8.533,3.82-8.533,8.533v102.4c0,4.713,3.82,8.533,8.533,8.533s8.533-3.82,8.533-8.533V8.533    C238.899,3.82,235.078,0,230.365,0z"/>
	</g>
</g>
<g>
	<g>
		<path d="M435.848,281.6L263.304,157.269c-3.332-2.393-7.332-3.677-11.435-3.669h-43.093c-4.102-0.007-8.103,1.276-11.435,3.669    L24.883,281.6c-6.671,4.676-9.481,13.176-6.912,20.907c2.533,8.007,10.035,13.391,18.432,13.227h387.925    c8.428,0.203,15.975-5.189,18.517-13.227C445.397,294.757,442.551,286.252,435.848,281.6z M426.461,297.301    c-0.311,0.893-1.192,1.457-2.133,1.365H36.317c-0.941,0.092-1.823-0.472-2.133-1.365c-0.256-0.684,0.036-1.452,0.683-1.792    l172.459-124.416c0.43-0.285,0.935-0.434,1.451-0.427h43.179c0.516-0.007,1.021,0.142,1.451,0.427l172.373,124.416    C426.425,295.85,426.717,296.617,426.461,297.301z"/>
	</g>
</g>
<g>
	<g>
		<path d="M255.965,298.667h-51.2c-4.713,0-8.533,3.82-8.533,8.533v25.6c0,18.851,15.282,34.133,34.133,34.133    c18.851,0,34.133-15.282,34.133-34.133v-25.6C264.499,302.487,260.678,298.667,255.965,298.667z M247.432,332.8    c0,9.426-7.641,17.067-17.067,17.067s-17.067-7.641-17.067-17.067v-17.067h34.133V332.8z"/>
	</g>
</g>
<g>
	<g>
		<path d="M185.139,370.339c-3.065-3.58-8.452-3.996-12.032-0.931l-68.267,68.267c-1.628,1.614-2.537,3.816-2.524,6.108    c0.027,4.713,3.87,8.511,8.583,8.484c2.251-0.032,4.398-0.952,5.973-2.56l68.267-68.267    C187.875,378.245,187.875,373.534,185.139,370.339z"/>
	</g>
</g>
<g>
	<g>
		<path d="M355.805,437.76l-68.267-68.267c-3.195-2.736-7.906-2.736-11.101,0c-3.58,3.065-3.996,8.452-0.931,12.032l68.267,68.267    c1.61,1.597,3.79,2.488,6.059,2.475c2.192-0.031,4.289-0.904,5.854-2.439C359.051,446.528,359.105,441.125,355.805,437.76z"/>
	</g>
</g>
<g>
	<g>
		<path d="M170.632,332.8h-59.733c-4.713,0-8.533,3.821-8.533,8.533s3.82,8.533,8.533,8.533h59.733c4.713,0,8.533-3.82,8.533-8.533    S175.345,332.8,170.632,332.8z"/>
	</g>
</g>
<g>
	<g>
		<path d="M341.299,332.8h-59.733c-4.713,0-8.533,3.821-8.533,8.533s3.82,8.533,8.533,8.533h59.733c4.713,0,8.533-3.82,8.533-8.533    S346.012,332.8,341.299,332.8z"/>
	</g>
</g>
<g>
	<g>
		<path d="M230.365,384c-4.713,0-8.533,3.821-8.533,8.533v59.733c0,4.713,3.82,8.533,8.533,8.533s8.533-3.821,8.533-8.533v-59.733    C238.899,387.821,235.078,384,230.365,384z"/>
	</g>
</g>
<g>
	<g>
		<path d="M230.365,102.4c-18.851,0-34.133,15.282-34.133,34.133v25.6c0,4.713,3.82,8.533,8.533,8.533h51.2    c4.713,0,8.533-3.82,8.533-8.533v-25.6C264.499,117.682,249.217,102.4,230.365,102.4z M247.432,153.6h-34.133v-17.067    c0-9.426,7.641-17.067,17.067-17.067s17.067,7.641,17.067,17.067V153.6z"/>
	</g>
</g>
<g>
	<g>
		<path d="M247.432,187.733h-34.133c-4.713,0-8.533,3.82-8.533,8.533s3.82,8.533,8.533,8.533h34.133c4.713,0,8.533-3.82,8.533-8.533    S252.145,187.733,247.432,187.733z"/>
	</g>
</g>
<g>
</g>
<g>
</g>
<g>
</g>
<g>
</g>
<g>
</g>
<g>
</g>
<g>
</g>
<g>
</g>
<g>
</g>
<g>
</g>
<g>
</g>
<g>
</g>
<g>
</g>
<g>
</g>
<g>
</g>
</svg>
