<?xml version="1.0" encoding="iso-8859-1"?>
<!-- Generator: Adobe Illustrator 19.0.0, SVG Export Plug-In . SVG Version: 6.00 Build 0)  -->
<svg xmlns="http://www.w3.org/2000/svg" xmlns:xlink="http://www.w3.org/1999/xlink" version="1.1" id="Layer_1" x="0px" y="0px" viewBox="0 0 512.222 512.222" style="enable-background:new 0 0 512.222 512.222;" xml:space="preserve">
<g>
	<g>
		<path d="M350.967,1.296c-69.986-9.972-134.804,38.679-144.776,108.665c-0.847,6.05-1.274,12.152-1.28,18.261    c-0.095,39.259,17.952,76.361,48.896,100.523c22.567,17.722,50.41,27.394,79.104,27.477c70.692,0,128-57.308,128-128    C461.014,64.427,414.124,10.295,350.967,1.296z M332.911,239.155c-61.267,0-110.933-49.667-110.933-110.933    c0.006-5.31,0.377-10.613,1.109-15.872c8.095-54.468,54.758-94.858,109.824-95.061c61.267,0,110.933,49.667,110.933,110.933    S394.178,239.155,332.911,239.155z"/>
	</g>
</g>
<g>
	<g>
		<path d="M281.711,227.55c-4.713,0-8.533,3.82-8.533,8.533v250.539c0,4.713-3.82,8.533-8.533,8.533H76.911    c-4.713,0-8.533-3.82-8.533-8.533v-358.4c0-4.713,3.82-8.533,8.533-8.533h137.728c4.713,0,8.533-3.82,8.533-8.533    s-3.82-8.533-8.533-8.533H76.911c-14.138,0-25.6,11.461-25.6,25.6v358.4c0,14.138,11.461,25.6,25.6,25.6h187.733    c14.138,0,25.6-11.462,25.6-25.6V236.083C290.244,231.371,286.424,227.55,281.711,227.55z"/>
	</g>
</g>
<g>
	<g>
		<path d="M161.562,184.713c-0.432-1.034-1.038-1.987-1.792-2.816c-0.016-0.017-0.033-0.033-0.049-0.049    c-3.346-3.319-8.749-3.297-12.068,0.049c-0.754,0.829-1.36,1.782-1.792,2.816c-0.437,1.026-0.669,2.128-0.683,3.243    c0,4.713,3.82,8.533,8.533,8.533s8.533-3.82,8.533-8.533C162.231,186.84,161.999,185.739,161.562,184.713z"/>
	</g>
</g>
<g>
	<g>
		<path d="M144.495,218.846c-0.432-1.034-1.038-1.987-1.792-2.816c-0.016-0.017-0.033-0.033-0.049-0.049    c-3.346-3.319-8.749-3.297-12.068,0.049c-0.754,0.829-1.36,1.782-1.792,2.816c-0.481,1.012-0.715,2.123-0.683,3.243    c0,4.713,3.82,8.533,8.533,8.533s8.533-3.82,8.533-8.533C145.164,220.974,144.932,219.872,144.495,218.846z"/>
	</g>
</g>
<g>
	<g>
		<path d="M176.836,215.859c-0.831-0.752-1.783-1.358-2.816-1.792c-1.562-0.659-3.285-0.837-4.949-0.512    c-0.545,0.146-1.063,0.376-1.536,0.683c-0.544,0.187-1.06,0.445-1.536,0.768c-0.448,0.314-0.875,0.656-1.28,1.024    c-0.79,0.801-1.401,1.761-1.792,2.816c-0.437,1.026-0.669,2.128-0.683,3.243c-0.059,2.327,0.835,4.577,2.475,6.229l1.28,1.024    c0.476,0.323,0.992,0.581,1.536,0.768l1.536,0.512h1.707c2.441,0.066,4.794-0.918,6.462-2.701    C180.459,224.479,180.278,219.079,176.836,215.859z"/>
	</g>
</g>
<g>
	<g>
		<path d="M210.97,216.03l-1.365-1.024c-0.436-0.338-0.926-0.598-1.451-0.768c-0.509-0.258-1.056-0.431-1.621-0.512    c-2.784-0.557-5.663,0.306-7.68,2.304c-1.628,1.614-2.537,3.816-2.524,6.108c0.027,4.713,3.87,8.511,8.583,8.484l1.621-0.171    c0.565-0.082,1.112-0.255,1.621-0.512c0.524-0.17,1.015-0.43,1.451-0.768l1.365-1.024c0.017-0.016,0.033-0.033,0.049-0.049    C214.338,224.752,214.316,219.349,210.97,216.03z"/>
	</g>
</g>
<g>
	<g>
		<path d="M193.903,181.726c-2.036-2.026-4.954-2.892-7.765-2.304c-0.555,0.198-1.074,0.487-1.536,0.853    c-0.544,0.187-1.06,0.445-1.536,0.768l-1.28,1.024c-0.017,0.016-0.033,0.033-0.049,0.049c-3.319,3.346-3.297,8.749,0.049,12.068    l1.28,1.024c0.476,0.323,0.992,0.581,1.536,0.768l1.536,0.512h1.707c2.293-0.032,4.477-0.985,6.059-2.645    c0.017-0.016,0.033-0.033,0.049-0.049C197.271,190.448,197.249,185.045,193.903,181.726z"/>
	</g>
</g>
<g>
	<g>
		<path d="M159.77,250.262c-3.319-3.346-8.722-3.368-12.068-0.049c-3.346,3.319-3.368,8.722-0.049,12.068    c1.61,1.597,3.791,2.488,6.059,2.475c2.268,0.013,4.448-0.877,6.059-2.475C163.069,258.954,163.069,253.589,159.77,250.262z"/>
	</g>
</g>
<g>
	<g>
		<path d="M195.695,252.809c-0.432-1.034-1.038-1.987-1.792-2.816c-2.036-2.026-4.954-2.892-7.765-2.304    c-0.555,0.198-1.074,0.487-1.536,0.853c-0.544,0.187-1.06,0.445-1.536,0.768l-1.28,1.024c-0.754,0.829-1.36,1.782-1.792,2.816    c-0.913,2.065-0.913,4.42,0,6.485c0.406,1.047,1.015,2.004,1.792,2.816l1.28,1.024c0.476,0.323,0.992,0.581,1.536,0.768    l1.536,0.512h1.707c4.713,0,8.533-3.82,8.533-8.533C196.431,255.046,196.196,253.874,195.695,252.809z"/>
	</g>
</g>
<g>
	<g>
		<path d="M247.578,307.422h-153.6c-4.713,0-8.533,3.82-8.533,8.533s3.82,8.533,8.533,8.533h153.6c4.713,0,8.533-3.82,8.533-8.533    S252.29,307.422,247.578,307.422z"/>
	</g>
</g>
<g>
	<g>
		<path d="M170.778,350.089c-32.99,0-59.733,26.744-59.733,59.733s26.744,59.733,59.733,59.733s59.733-26.744,59.733-59.733    S203.767,350.089,170.778,350.089z M170.778,452.489c-23.564,0-42.667-19.102-42.667-42.667s19.103-42.667,42.667-42.667    s42.667,19.103,42.667,42.667S194.342,452.489,170.778,452.489z"/>
	</g>
</g>
<g>
	<g>
		<path d="M170.778,384.222c-4.713,0-8.533,3.821-8.533,8.533c0,4.713,3.82,8.533,8.533,8.533s8.533,3.82,8.533,8.533    s3.82,8.533,8.533,8.533s8.533-3.82,8.533-8.533C196.378,395.684,184.916,384.222,170.778,384.222z"/>
	</g>
</g>
<g>
	<g>
		<path d="M363.034,48.094c-3.085-3.321-7.414-5.207-11.947-5.205H314.82c-4.615,0.062-8.988,2.078-12.032,5.547    c-2.879,3.116-4.332,7.29-4.011,11.52l6.4,79.616c0.837,8.16,7.755,14.338,15.957,14.251h23.552    c8.086,0.105,14.958-5.885,15.957-13.909l6.4-79.957C367.464,55.61,366.004,51.293,363.034,48.094z M343.834,136.755h-21.675    l-6.315-76.8h34.133L343.834,136.755z"/>
	</g>
</g>
<g>
	<g>
		<path d="M337.348,170.889h-8.96c-11.621,0.047-21.031,9.456-21.077,21.077v9.045c0.047,11.621,9.456,21.031,21.077,21.077h9.045    c11.654-0.047,21.077-9.508,21.077-21.163v-8.96C358.464,180.312,349.003,170.889,337.348,170.889z M341.444,200.926    c-0.045,2.196-1.815,3.965-4.011,4.011h-8.96c-2.196-0.045-3.965-1.815-4.011-4.011v-8.96c0.045-2.196,1.815-3.965,4.011-4.011    h8.96c2.196,0.045,3.965,1.815,4.011,4.011V200.926z"/>
	</g>
</g>
<g>
</g>
<g>
</g>
<g>
</g>
<g>
</g>
<g>
</g>
<g>
</g>
<g>
</g>
<g>
</g>
<g>
</g>
<g>
</g>
<g>
</g>
<g>
</g>
<g>
</g>
<g>
</g>
<g>
</g>
</svg>
