<?xml version="1.0" encoding="iso-8859-1"?>
<!-- Generator: Adobe Illustrator 19.0.0, SVG Export Plug-In . SVG Version: 6.00 Build 0)  -->
<svg xmlns="http://www.w3.org/2000/svg" xmlns:xlink="http://www.w3.org/1999/xlink" version="1.1" id="Layer_1" x="0px" y="0px" viewBox="0 0 512.222 512.222" style="enable-background:new 0 0 512.222 512.222;" xml:space="preserve">
<g>
	<g>
		<path d="M350.967,1.296c-69.986-9.972-134.804,38.679-144.776,108.665c-0.847,6.05-1.274,12.152-1.28,18.261    c-0.095,39.259,17.952,76.361,48.896,100.523c22.567,17.722,50.41,27.394,79.104,27.477c70.692,0,128-57.308,128-128    C461.014,64.427,414.124,10.295,350.967,1.296z M332.911,239.155c-61.267,0-110.933-49.667-110.933-110.933    c0.006-5.31,0.377-10.613,1.109-15.872c8.095-54.468,54.758-94.858,109.824-95.061c61.267,0,110.933,49.667,110.933,110.933    S394.178,239.155,332.911,239.155z"/>
	</g>
</g>
<g>
	<g>
		<path d="M281.711,227.55c-4.713,0-8.533,3.82-8.533,8.533v250.539c0,4.713-3.82,8.533-8.533,8.533H76.911    c-4.713,0-8.533-3.82-8.533-8.533v-358.4c0-4.713,3.82-8.533,8.533-8.533h137.728c4.713,0,8.533-3.82,8.533-8.533    s-3.82-8.533-8.533-8.533H76.911c-14.138,0-25.6,11.461-25.6,25.6v358.4c0,14.138,11.461,25.6,25.6,25.6h187.733    c14.138,0,25.6-11.462,25.6-25.6V236.083C290.244,231.371,286.424,227.55,281.711,227.55z"/>
	</g>
</g>
<g>
	<g>
		<path d="M162.244,187.955c-0.031-2.259-0.915-4.423-2.475-6.059c-0.831-0.752-1.783-1.358-2.816-1.792    c-3.178-1.336-6.847-0.629-9.301,1.792c-1.597,1.61-2.488,3.79-2.475,6.059c-0.041,0.568-0.041,1.139,0,1.707    c0.148,0.544,0.378,1.062,0.683,1.536c0.185,0.545,0.443,1.061,0.768,1.536c0.317,0.446,0.659,0.873,1.024,1.28    c1.635,1.559,3.799,2.443,6.059,2.475c1.173,0.009,2.335-0.223,3.413-0.683c1.033-0.435,1.985-1.041,2.816-1.792l1.024-1.28    c0.321-0.477,0.579-0.993,0.768-1.536c0.248-0.483,0.421-1.001,0.512-1.536C162.29,189.094,162.29,188.523,162.244,187.955z"/>
	</g>
</g>
<g>
	<g>
		<path d="M145.178,222.089c-0.077-2.283-1.023-4.45-2.645-6.059c-0.016-0.017-0.033-0.033-0.049-0.049    c-3.346-3.319-8.749-3.297-12.068,0.049c-0.367,0.405-0.709,0.833-1.024,1.28c-0.325,0.475-0.583,0.991-0.768,1.536    c-0.245,0.484-0.417,1.002-0.512,1.536c-0.078,0.566-0.078,1.14,0,1.707c-0.083,0.566-0.083,1.141,0,1.707    c0.148,0.544,0.378,1.062,0.683,1.536c0.167,0.526,0.427,1.017,0.768,1.451c0.295,0.488,0.638,0.946,1.024,1.365    c0.812,0.777,1.768,1.386,2.816,1.792c1.026,0.437,2.128,0.669,3.243,0.683c2.327,0.059,4.577-0.835,6.229-2.475l1.024-1.365    c0.338-0.436,0.598-0.926,0.768-1.451c0.248-0.483,0.421-1.001,0.512-1.536C145.223,223.228,145.223,222.657,145.178,222.089z"/>
	</g>
</g>
<g>
	<g>
		<path d="M178.628,218.846c-0.776-2.144-2.464-3.832-4.608-4.608c-3.178-1.336-6.847-0.629-9.301,1.792    c-0.754,0.829-1.36,1.782-1.792,2.816c-0.913,2.065-0.913,4.42,0,6.485c0.406,1.047,1.015,2.004,1.792,2.816    c1.635,1.559,3.799,2.443,6.059,2.475c1.115-0.013,2.217-0.245,3.243-0.683c1.033-0.435,1.985-1.041,2.816-1.792    c0.777-0.812,1.386-1.768,1.792-2.816C179.541,223.266,179.541,220.912,178.628,218.846z"/>
	</g>
</g>
<g>
	<g>
		<path d="M210.97,216.03l-1.365-1.024c-0.436-0.338-0.926-0.598-1.451-0.768c-0.509-0.258-1.056-0.431-1.621-0.512    c-2.784-0.557-5.663,0.306-7.68,2.304c-1.597,1.61-2.488,3.79-2.475,6.059c-0.041,0.568-0.041,1.138,0,1.707    c0.148,0.544,0.378,1.062,0.683,1.536c0.185,0.545,0.443,1.061,0.768,1.536c0.317,0.446,0.659,0.873,1.024,1.28    c1.635,1.559,3.799,2.443,6.059,2.475l1.621-0.171c0.565-0.082,1.112-0.255,1.621-0.512c0.524-0.17,1.015-0.43,1.451-0.768    l1.365-1.024c1.597-1.61,2.488-3.79,2.475-6.059C213.413,219.829,212.529,217.665,210.97,216.03z"/>
	</g>
</g>
<g>
	<g>
		<path d="M195.695,184.713c-0.406-1.047-1.015-2.004-1.792-2.816c-0.016-0.017-0.033-0.033-0.049-0.049    c-3.346-3.319-8.749-3.297-12.068,0.049c-0.777,0.812-1.386,1.768-1.792,2.816c-0.913,2.065-0.913,4.42,0,6.485    c0.406,1.047,1.015,2.004,1.792,2.816c1.635,1.559,3.799,2.443,6.059,2.475c2.259-0.031,4.423-0.915,6.059-2.475    c0.777-0.812,1.386-1.768,1.792-2.816C196.608,189.133,196.608,186.778,195.695,184.713z"/>
	</g>
</g>
<g>
	<g>
		<path d="M162.244,256.222c-0.031-2.259-0.915-4.423-2.475-6.059c-0.831-0.752-1.783-1.358-2.816-1.792    c-3.178-1.336-6.847-0.629-9.301,1.792c-1.597,1.61-2.488,3.79-2.475,6.059c-0.041,0.568-0.041,1.139,0,1.707    c0.148,0.544,0.378,1.062,0.683,1.536c0.167,0.526,0.427,1.017,0.768,1.451c0.295,0.488,0.638,0.946,1.024,1.365    c1.635,1.559,3.799,2.443,6.059,2.475c1.173,0.009,2.335-0.223,3.413-0.683c1.033-0.435,1.985-1.041,2.816-1.792l1.024-1.365    c0.338-0.436,0.598-0.926,0.768-1.451c0.248-0.483,0.421-1.001,0.512-1.536C162.29,257.361,162.29,256.79,162.244,256.222z"/>
	</g>
</g>
<g>
	<g>
		<path d="M196.036,254.515c-0.091-0.535-0.264-1.053-0.512-1.536c-0.172-0.524-0.432-1.014-0.768-1.451l-1.024-1.365    c-0.016-0.017-0.033-0.033-0.049-0.049c-3.346-3.319-8.749-3.297-12.068,0.049c-0.386,0.42-0.729,0.877-1.024,1.365    c-0.339,0.435-0.599,0.926-0.768,1.451c-0.245,0.484-0.417,1.002-0.512,1.536c-0.041,0.568-0.041,1.139,0,1.707    c-0.032,1.12,0.202,2.231,0.683,3.243c0.432,1.034,1.038,1.987,1.792,2.816c1.635,1.559,3.799,2.443,6.059,2.475    c2.14-0.114,4.169-0.992,5.717-2.475c0.754-0.829,1.36-1.782,1.792-2.816c0.437-1.026,0.669-2.128,0.683-3.243    C196.082,255.654,196.082,255.083,196.036,254.515z"/>
	</g>
</g>
<g>
	<g>
		<path d="M247.578,307.422h-153.6c-4.713,0-8.533,3.82-8.533,8.533s3.82,8.533,8.533,8.533h153.6c4.713,0,8.533-3.82,8.533-8.533    S252.29,307.422,247.578,307.422z"/>
	</g>
</g>
<g>
	<g>
		<path d="M170.778,350.089c-32.99,0-59.733,26.744-59.733,59.733s26.744,59.733,59.733,59.733s59.733-26.744,59.733-59.733    S203.767,350.089,170.778,350.089z M170.778,452.489c-23.564,0-42.667-19.102-42.667-42.667s19.103-42.667,42.667-42.667    s42.667,19.103,42.667,42.667S194.342,452.489,170.778,452.489z"/>
	</g>
</g>
<g>
	<g>
		<path d="M170.778,384.222c-4.713,0-8.533,3.821-8.533,8.533c0,4.713,3.82,8.533,8.533,8.533s8.533,3.82,8.533,8.533    s3.82,8.533,8.533,8.533s8.533-3.82,8.533-8.533C196.378,395.684,184.916,384.222,170.778,384.222z"/>
	</g>
</g>
<g>
	<g>
		<path d="M416.282,123.273c-22.272-31.317-52.053-48.384-83.712-48.384s-61.44,17.152-83.712,48.384    c-1.875,2.848-1.875,6.539,0,9.387c21.76,35.413,51.2,55.296,82.944,55.296h0.597c31.915,0,61.867-19.541,83.883-55.125    C418.233,129.943,418.233,126.16,416.282,123.273z M332.399,170.889h-0.512c-24.576,0-47.275-15.189-65.365-42.667h-0.085    c18.517-23.296,41.984-36.608,66.475-36.608s47.872,12.971,66.389,36.608C380.442,155.955,356.89,170.889,332.399,170.889z"/>
	</g>
</g>
<g>
	<g>
		<path d="M358.511,79.838c-3.158-3.558-8.602-3.883-12.16-0.725s-3.883,8.602-0.725,12.16c5.689,6.451,5.689,16.126,0,22.577    c-6.234,7.069-17.019,7.746-24.089,1.511s-7.746-17.019-1.511-24.089c0.21-0.212,0.409-0.435,0.596-0.668    c2.95-3.676,2.361-9.046-1.314-11.996s-9.046-2.361-11.996,1.314c-5.591,6.279-8.668,14.4-8.641,22.807    c0.06,18.851,15.39,34.085,34.241,34.025c8.473,0.046,16.66-3.061,22.969-8.717C369.917,115.455,371.095,93.875,358.511,79.838z"/>
	</g>
</g>
<g>
</g>
<g>
</g>
<g>
</g>
<g>
</g>
<g>
</g>
<g>
</g>
<g>
</g>
<g>
</g>
<g>
</g>
<g>
</g>
<g>
</g>
<g>
</g>
<g>
</g>
<g>
</g>
<g>
</g>
</svg>
