<?xml version="1.0" encoding="iso-8859-1"?>
<!-- Generator: Adobe Illustrator 19.0.0, SVG Export Plug-In . SVG Version: 6.00 Build 0)  -->
<svg xmlns="http://www.w3.org/2000/svg" xmlns:xlink="http://www.w3.org/1999/xlink" version="1.1" id="Layer_1" x="0px" y="0px" viewBox="0 0 512.222 512.222" style="enable-background:new 0 0 512.222 512.222;" xml:space="preserve">
<g>
	<g>
		<path d="M402.167,1.296c-69.986-9.972-134.804,38.679-144.776,108.665c-0.847,6.05-1.275,12.152-1.28,18.261    c-0.095,39.259,17.952,76.361,48.896,100.523c22.564,17.728,50.409,27.4,79.104,27.477c70.692,0,128-57.308,128-128    C512.214,64.427,465.324,10.295,402.167,1.296z M384.111,239.155c-61.267,0-110.933-49.667-110.933-110.933    c0.006-5.31,0.377-10.613,1.109-15.872c8.095-54.468,54.758-94.858,109.824-95.061c61.267,0,110.933,49.667,110.933,110.933    S445.378,239.155,384.111,239.155z"/>
	</g>
</g>
<g>
	<g>
		<path d="M332.911,227.55c-4.713,0-8.533,3.82-8.533,8.533v250.539c0,4.713-3.82,8.533-8.533,8.533H128.111    c-4.713,0-8.533-3.82-8.533-8.533V298.889c0-4.713-3.82-8.533-8.533-8.533s-8.533,3.82-8.533,8.533v187.733    c0,14.138,11.461,25.6,25.6,25.6h187.733c14.138,0,25.6-11.462,25.6-25.6V236.083C341.444,231.371,337.624,227.55,332.911,227.55z    "/>
	</g>
</g>
<g>
	<g>
		<path d="M265.839,102.622H128.111c-14.138,0-25.6,11.461-25.6,25.6v136.533c0,4.713,3.82,8.533,8.533,8.533    s8.533-3.82,8.533-8.533V128.222c0-4.713,3.82-8.533,8.533-8.533h137.728c4.713,0,8.533-3.82,8.533-8.533    S270.552,102.622,265.839,102.622z"/>
	</g>
</g>
<g>
	<g>
		<path d="M241.418,216.387c-36.139-10.745-74.146,9.84-84.891,45.979c-1.343,4.524,1.236,9.281,5.76,10.624    c4.524,1.343,9.281-1.236,10.624-5.76c4.936-16.548,17.881-29.493,34.429-34.429c27.097-8.083,55.616,7.332,63.699,34.429    c8.083,27.097-7.332,55.616-34.429,63.699c-27.097,8.083-55.616-7.332-63.699-34.429c-1.343-4.524-6.1-7.103-10.624-5.76    c-4.524,1.343-7.103,6.1-5.76,10.624c8.642,28.928,35.26,48.743,65.451,48.725c30.203-0.007,56.812-19.86,65.42-48.811    C298.143,265.139,277.557,227.132,241.418,216.387z"/>
	</g>
</g>
<g>
	<g>
		<path d="M230.938,263.561c-5.136-4.792-11.92-7.42-18.944-7.339H27.162c-14.532-0.382-26.632,11.069-27.051,25.6    c0.069,7.035,3.182,13.695,8.533,18.261c5.028,4.69,11.641,7.311,18.517,7.339h184.832c14.532,0.382,26.632-11.069,27.051-25.6    C239.083,274.855,236.131,268.206,230.938,263.561z M211.994,290.355H27.162c-2.719,0.047-5.35-0.962-7.339-2.816    c-1.668-1.433-2.633-3.518-2.645-5.717c0.495-5.065,4.904-8.833,9.984-8.533h184.832c2.72-0.056,5.354,0.954,7.339,2.816    c1.668,1.433,2.633,3.518,2.645,5.717C221.482,286.887,217.074,290.655,211.994,290.355z"/>
	</g>
</g>
<g>
	<g>
		<path d="M221.978,367.155c-18.851,0-34.133,15.282-34.133,34.133c0,18.851,15.282,34.133,34.133,34.133    s34.133-15.282,34.133-34.133C256.111,382.437,240.829,367.155,221.978,367.155z M221.978,418.355    c-9.426,0-17.067-7.641-17.067-17.067c0-9.426,7.641-17.067,17.067-17.067s17.067,7.641,17.067,17.067    C239.044,410.714,231.403,418.355,221.978,418.355z"/>
	</g>
</g>
<g>
	<g>
		<path d="M221.978,418.355c-4.713,0-8.533,3.82-8.533,8.533v42.667c0,4.713,3.82,8.533,8.533,8.533s8.533-3.82,8.533-8.533v-42.667    C230.511,422.176,226.691,418.355,221.978,418.355z"/>
	</g>
</g>
<g>
	<g>
		<path d="M153.711,145.289c-0.013-1.115-0.245-2.217-0.683-3.243c-0.434-1.033-1.04-1.986-1.792-2.816    c-2.454-2.421-6.124-3.128-9.301-1.792c-2.137,0.786-3.822,2.471-4.608,4.608c-0.437,1.026-0.669,2.128-0.683,3.243    c-0.043,0.568-0.043,1.139,0,1.707c0.146,0.545,0.376,1.063,0.683,1.536c0.187,0.544,0.445,1.06,0.768,1.536    c0.315,0.447,0.657,0.874,1.024,1.28c0.831,0.752,1.783,1.358,2.816,1.792c1.026,0.437,2.128,0.669,3.243,0.683h1.707l1.707-0.683    c0.544-0.187,1.06-0.445,1.536-0.768l1.28-1.024c0.367-0.406,0.709-0.833,1.024-1.28c0.323-0.476,0.581-0.992,0.768-1.536    c0.245-0.484,0.417-1.002,0.512-1.536C153.752,146.427,153.752,145.857,153.711,145.289z"/>
	</g>
</g>
<g>
	<g>
		<path d="M230.511,136.755h-59.733c-4.713,0-8.533,3.82-8.533,8.533s3.82,8.533,8.533,8.533h59.733    c4.713,0,8.533-3.821,8.533-8.533S235.224,136.755,230.511,136.755z"/>
	</g>
</g>
<g>
	<g>
		<path d="M435.311,94.089h-102.4c-14.138,0-25.6,11.461-25.6,25.6v51.2c0,14.138,11.462,25.6,25.6,25.6h102.4    c14.138,0,25.6-11.461,25.6-25.6v-51.2C460.911,105.55,449.449,94.089,435.311,94.089z M443.844,170.889    c0,4.713-3.82,8.533-8.533,8.533h-102.4c-4.713,0-8.533-3.82-8.533-8.533v-51.2c0-4.713,3.821-8.533,8.533-8.533h102.4    c4.713,0,8.533,3.82,8.533,8.533V170.889z"/>
	</g>
</g>
<g>
	<g>
		<path d="M384.111,42.889c-23.564,0-42.667,19.102-42.667,42.667v17.067c0,4.713,3.82,8.533,8.533,8.533h68.267v-0.171    c4.713,0,8.533-3.82,8.533-8.533c0-2.304,0-7.509,0-11.861v-5.035C426.778,61.991,407.675,42.889,384.111,42.889z M409.711,94.089    h-51.2v-8.533c0-14.138,11.462-25.6,25.6-25.6c14.138,0,25.6,11.461,25.6,25.6V94.089z"/>
	</g>
</g>
<g>
	<g>
		<path d="M384.111,128.222c-4.713,0-8.533,3.82-8.533,8.533v17.067c0,4.713,3.82,8.533,8.533,8.533s8.533-3.821,8.533-8.533    v-17.067C392.644,132.043,388.824,128.222,384.111,128.222z"/>
	</g>
</g>
<g>
	<g>
		<path d="M392.644,128.222h-17.067c-4.713,0-8.533,3.82-8.533,8.533s3.82,8.533,8.533,8.533h17.067c4.713,0,8.533-3.82,8.533-8.533    S397.357,128.222,392.644,128.222z"/>
	</g>
</g>
<g>
</g>
<g>
</g>
<g>
</g>
<g>
</g>
<g>
</g>
<g>
</g>
<g>
</g>
<g>
</g>
<g>
</g>
<g>
</g>
<g>
</g>
<g>
</g>
<g>
</g>
<g>
</g>
<g>
</g>
</svg>
