<?xml version="1.0" encoding="iso-8859-1"?>
<!-- Generator: Adobe Illustrator 19.0.0, SVG Export Plug-In . SVG Version: 6.00 Build 0)  -->
<svg xmlns="http://www.w3.org/2000/svg" xmlns:xlink="http://www.w3.org/1999/xlink" version="1.1" id="Layer_1" x="0px" y="0px" viewBox="0 0 512.023 512.023" style="enable-background:new 0 0 512.023 512.023;" xml:space="preserve">
<g>
	<g>
		<path d="M187.745,215.148c-26.932-20.88-42.685-53.048-42.667-87.125c0-4.713-3.82-8.533-8.533-8.533H25.611    c-14.138,0-25.6,11.461-25.6,25.6v59.733c0,14.138,11.461,25.6,25.6,25.6h156.587c2.752,0.104,5.384-1.126,7.07-3.303    C192.153,223.393,191.471,218.033,187.745,215.148z M25.611,213.356c-4.713,0-8.533-3.821-8.533-8.533v-59.733    c0-4.713,3.82-8.533,8.533-8.533h102.4c1.892,28.544,13.38,55.61,32.597,76.8H25.611z"/>
	</g>
</g>
<g>
	<g>
		<path d="M486.411,119.489H375.478c-4.713,0-8.533,3.82-8.533,8.533c0.019,34.078-15.735,66.246-42.667,87.125    c-2.177,1.686-3.407,4.318-3.303,7.07c0.178,4.709,4.14,8.383,8.85,8.205h156.587c14.138,0,25.6-11.462,25.6-25.6v-59.733    C512.011,130.951,500.55,119.489,486.411,119.489z M494.945,204.823c0,4.713-3.82,8.533-8.533,8.533H351.414    c19.218-21.19,30.705-48.256,32.597-76.8h102.4c4.713,0,8.533,3.82,8.533,8.533V204.823z"/>
	</g>
</g>
<g>
	<g>
		<path d="M486.411,213.356H329.825c-1.915-0.013-3.778,0.618-5.291,1.792c-40.22,31.591-96.825,31.591-137.045,0    c-1.513-1.174-3.376-1.805-5.291-1.792H25.611c-4.713,0-8.533,3.82-8.533,8.533v51.2c0,131.959,106.974,238.933,238.933,238.933    s238.933-106.974,238.933-238.933v-51.2C494.945,217.177,491.124,213.356,486.411,213.356z M477.878,273.089    c0,122.534-99.333,221.867-221.867,221.867S34.145,395.623,34.145,273.089v-42.667h145.067c45.511,34.133,108.089,34.133,153.6,0    h145.067V273.089z"/>
	</g>
</g>
<g>
	<g>
		<path d="M256.011,298.689c-47.128,0-85.333,38.205-85.333,85.333s38.205,85.333,85.333,85.333s85.333-38.205,85.333-85.333    S303.14,298.689,256.011,298.689z M256.011,452.289c-37.703,0-68.267-30.564-68.267-68.267s30.564-68.267,68.267-68.267    s68.267,30.564,68.267,68.267S293.714,452.289,256.011,452.289z"/>
	</g>
</g>
<g>
	<g>
		<path d="M256.011,332.823c-28.277,0-51.2,22.923-51.2,51.2s22.923,51.2,51.2,51.2s51.2-22.923,51.2-51.2    S284.288,332.823,256.011,332.823z M256.011,418.156c-18.851,0-34.133-15.282-34.133-34.133c0-18.851,15.282-34.133,34.133-34.133    c18.851,0,34.133,15.282,34.133,34.133C290.145,402.874,274.863,418.156,256.011,418.156z"/>
	</g>
</g>
<g>
	<g>
		<circle cx="59.745" cy="256.023" r="8.533"/>
	</g>
</g>
<g>
	<g>
		<path d="M162.145,247.489h-76.8c-4.713,0-8.533,3.82-8.533,8.533c0,4.713,3.82,8.533,8.533,8.533h76.8    c4.713,0,8.533-3.82,8.533-8.533C170.678,251.31,166.858,247.489,162.145,247.489z"/>
	</g>
</g>
<g>
	<g>
		<path d="M255.989,0c-70.692,0.013-127.99,57.33-127.977,128.023c0,70.692,57.308,128,128,128    c28.709,0.087,56.597-9.57,79.104-27.392c30.878-24.273,48.903-61.378,48.896-100.654C383.999,57.285,326.681-0.013,255.989,0z     M343.452,195.975c-37.703,48.292-107.416,56.876-155.707,19.173c-26.579-20.948-42.143-52.883-42.265-86.725    c-0.221-61.266,49.265-111.112,110.532-111.334c61.267,0,110.933,49.667,110.933,110.933    C366.875,152.653,358.61,176.56,343.452,195.975z"/>
	</g>
</g>
<g>
	<g>
		<path d="M339.382,119.916c-22.272-31.317-52.053-48.384-83.712-48.384s-61.44,17.152-83.712,48.384    c-1.875,2.848-1.875,6.539,0,9.387c21.76,35.413,51.2,55.296,82.944,55.296h0.597c31.915,0,61.867-19.627,83.883-55.125    C341.333,126.587,341.333,122.803,339.382,119.916z M255.585,167.532h-0.512c-24.282-0.596-47.287-15.485-65.364-42.54    c18.491-23.586,41.973-36.734,66.388-36.734c24.491,0,47.872,12.971,66.389,36.608    C303.627,152.599,280.075,167.532,255.585,167.532z"/>
	</g>
</g>
<g>
	<g>
		<path d="M281.611,76.823c-3.134-3.558-8.559-3.902-12.117-0.768c-3.558,3.134-3.902,8.559-0.768,12.117    c5.689,6.451,5.689,16.126,0,22.577c-6.234,7.069-17.019,7.746-24.089,1.511c-7.069-6.234-7.746-17.019-1.511-24.089    c2.733-3.406,2.454-8.325-0.647-11.4c-3.346-3.318-8.749-3.296-12.068,0.051c-5.337,6.156-8.295,14.019-8.341,22.166    c-0.106,18.851,15.09,34.219,33.941,34.324v0.427c8.473,0.046,16.66-3.061,22.969-8.717    C293.017,112.439,294.195,90.859,281.611,76.823z"/>
	</g>
</g>
<g>
</g>
<g>
</g>
<g>
</g>
<g>
</g>
<g>
</g>
<g>
</g>
<g>
</g>
<g>
</g>
<g>
</g>
<g>
</g>
<g>
</g>
<g>
</g>
<g>
</g>
<g>
</g>
<g>
</g>
</svg>
