<?xml version="1.0" encoding="iso-8859-1"?>
<!-- Generator: Adobe Illustrator 19.0.0, SVG Export Plug-In . SVG Version: 6.00 Build 0)  -->
<svg xmlns="http://www.w3.org/2000/svg" xmlns:xlink="http://www.w3.org/1999/xlink" version="1.1" id="Layer_1" x="0px" y="0px" viewBox="0 0 512 512" style="enable-background:new 0 0 512 512;" xml:space="preserve">
<g>
	<g>
		<path d="M486.4,59.733H25.6c-14.138,0-25.6,11.461-25.6,25.6v59.733c0,14.138,11.461,25.6,25.6,25.6h460.8    c14.138,0,25.6-11.462,25.6-25.6V85.333C512,71.195,500.539,59.733,486.4,59.733z M494.933,145.067    c0,4.713-3.82,8.533-8.533,8.533H25.6c-4.713,0-8.533-3.821-8.533-8.533V85.333c0-4.713,3.82-8.533,8.533-8.533h460.8    c4.713,0,8.533,3.82,8.533,8.533V145.067z"/>
	</g>
</g>
<g>
	<g>
		<path d="M486.4,153.6H25.6c-4.713,0-8.533,3.82-8.533,8.533v51.2c0,131.959,106.974,238.933,238.933,238.933    s238.933-106.974,238.933-238.933v-51.2C494.933,157.421,491.113,153.6,486.4,153.6z M477.867,213.333    C477.867,335.867,378.534,435.2,256,435.2S34.133,335.867,34.133,213.333v-42.667h443.733V213.333z"/>
	</g>
</g>
<g>
	<g>
		<path d="M256,238.933c-47.128,0-85.333,38.205-85.333,85.333S208.872,409.6,256,409.6s85.333-38.205,85.333-85.333    S303.128,238.933,256,238.933z M256,392.533c-37.703,0-68.267-30.564-68.267-68.267S218.297,256,256,256    s68.267,30.564,68.267,68.267S293.703,392.533,256,392.533z"/>
	</g>
</g>
<g>
	<g>
		<path d="M256,273.067c-28.277,0-51.2,22.923-51.2,51.2s22.923,51.2,51.2,51.2s51.2-22.923,51.2-51.2S284.277,273.067,256,273.067z     M256,358.4c-18.851,0-34.133-15.282-34.133-34.133c0-18.851,15.282-34.133,34.133-34.133c18.851,0,34.133,15.282,34.133,34.133    C290.133,343.118,274.851,358.4,256,358.4z"/>
	</g>
</g>
<g>
	<g>
		<circle cx="59.733" cy="196.267" r="8.533"/>
	</g>
</g>
<g>
	<g>
		<path d="M162.133,187.733h-76.8c-4.713,0-8.533,3.82-8.533,8.533s3.82,8.533,8.533,8.533h76.8c4.713,0,8.533-3.82,8.533-8.533    S166.846,187.733,162.133,187.733z"/>
	</g>
</g>
<g>
</g>
<g>
</g>
<g>
</g>
<g>
</g>
<g>
</g>
<g>
</g>
<g>
</g>
<g>
</g>
<g>
</g>
<g>
</g>
<g>
</g>
<g>
</g>
<g>
</g>
<g>
</g>
<g>
</g>
</svg>
