<?xml version="1.0" encoding="UTF-8" standalone="no"?>
<svg
   xmlns:dc="http://purl.org/dc/elements/1.1/"
   xmlns:cc="http://creativecommons.org/ns#"
   xmlns:rdf="http://www.w3.org/1999/02/22-rdf-syntax-ns#"
   xmlns:svg="http://www.w3.org/2000/svg"
   xmlns="http://www.w3.org/2000/svg"
   xmlns:sodipodi="http://sodipodi.sourceforge.net/DTD/sodipodi-0.dtd"
   xmlns:inkscape="http://www.inkscape.org/namespaces/inkscape"
   inkscape:version="1.0 (4035a4fb49, 2020-05-01)"
   height="256.48065"
   width="256.04437"
   sodipodi:docname="905-warning.svg"
   xml:space="preserve"
   viewBox="0 0 256.04438 256.48066"
   y="0px"
   x="0px"
   id="Layer_1"
   version="1.1"><metadata
   id="metadata121"><rdf:RDF><cc:Work
       rdf:about=""><dc:format>image/svg+xml</dc:format><dc:type
         rdf:resource="http://purl.org/dc/dcmitype/StillImage" /><dc:title></dc:title></cc:Work></rdf:RDF></metadata><defs
   id="defs119" /><sodipodi:namedview
   inkscape:current-layer="Layer_1"
   inkscape:window-maximized="1"
   inkscape:window-y="-9"
   inkscape:window-x="-9"
   inkscape:cy="159.54615"
   inkscape:cx="128.04358"
   inkscape:zoom="1.6546988"
   showgrid="false"
   id="namedview117"
   inkscape:window-height="1001"
   inkscape:window-width="1920"
   inkscape:pageshadow="2"
   inkscape:pageopacity="0"
   guidetolerance="10"
   gridtolerance="10"
   objecttolerance="10"
   borderopacity="1"
   bordercolor="#666666"
   pagecolor="#ffffff" />







<g
   transform="translate(-128.19641,4.9449622e-4)"
   id="g48">
	<g
   id="g46">
		<path
   id="path44"
   d="M 292.658,5.323 C 224.887,-14.79 153.643,23.845 133.53,91.616 122.069,130.07 129.303,171.672 153.071,204 c 6.877,9.314 14.97,17.666 24.064,24.832 3.794,3.061 7.753,5.909 11.861,8.533 20.19,12.525 43.483,19.147 67.243,19.115 23.76,0.036 47.055,-6.585 67.243,-19.115 13.998,-8.684 26.218,-19.949 36.011,-33.195 16.087,-21.957 24.756,-48.471 24.747,-75.691 C 384.438,71.649 347.141,21.493 292.658,5.323 Z m 53.353,188.693 c -34.19,46.651 -98.484,59.205 -147.712,28.843 -3.572,-2.226 -7.019,-4.648 -10.325,-7.253 -7.987,-6.187 -15.105,-13.419 -21.163,-21.504 -13.967,-19.029 -21.5,-42.017 -21.504,-65.621 0,-61.267 49.667,-110.933 110.933,-110.933 49.167,-0.016 92.553,32.143 106.837,79.189 9.856,33.309 3.54,69.313 -17.066,97.279 z" />
	</g>
</g>
<g
   transform="translate(-128.19641,4.9449622e-4)"
   id="g54">
	<g
   id="g52">
		<path
   id="path50"
   d="m 260.763,171.147 h -9.045 c -11.641,0 -21.077,9.437 -21.077,21.077 v 9.045 c 0,11.641 9.437,21.077 21.077,21.077 h 9.045 c 11.641,0 21.077,-9.437 21.077,-21.077 v -9.045 c 0,-11.641 -9.437,-21.077 -21.077,-21.077 z m 4.01,30.122 c 0,2.215 -1.796,4.011 -4.011,4.011 h -9.045 c -2.215,0 -4.011,-1.796 -4.011,-4.011 v -9.045 c 0,-2.215 1.796,-4.011 4.011,-4.011 h 9.045 c 2.215,0 4.011,1.796 4.011,4.011 z" />
	</g>
</g>
<g
   transform="translate(-128.19641,4.9449622e-4)"
   id="g60">
	<g
   id="g58">
		<path
   id="path56"
   d="m 286.363,48.352 c -3.111,-3.334 -7.472,-5.22 -12.032,-5.205 H 238.15 c -4.613,0.073 -8.981,2.086 -12.032,5.547 -2.906,3.1 -4.364,7.286 -4.011,11.52 l 6.4,79.531 c 0.757,8.214 7.71,14.46 15.957,14.336 h 23.552 c 8.129,0.14 15.036,-5.917 15.957,-13.995 l 6.4,-79.872 c 0.454,-4.35 -1.01,-8.68 -4.01,-11.862 z m -19.2,88.661 h -21.589 l -6.4,-76.8 h 34.133 z" />
	</g>
</g>



















</svg>
