<?xml version="1.0" encoding="UTF-8" standalone="no"?>
<svg
   xmlns:dc="http://purl.org/dc/elements/1.1/"
   xmlns:cc="http://creativecommons.org/ns#"
   xmlns:rdf="http://www.w3.org/1999/02/22-rdf-syntax-ns#"
   xmlns:svg="http://www.w3.org/2000/svg"
   xmlns="http://www.w3.org/2000/svg"
   xmlns:sodipodi="http://sodipodi.sourceforge.net/DTD/sodipodi-0.dtd"
   xmlns:inkscape="http://www.inkscape.org/namespaces/inkscape"
   inkscape:version="1.0 (4035a4fb49, 2020-05-01)"
   sodipodi:docname="010-water.svg"
   xml:space="preserve"
   style="enable-background:new 0 0 512.224 512.224;"
   viewBox="0 0 512.224 512.224"
   y="0px"
   x="0px"
   id="Layer_1"
   version="1.1"><metadata
   id="metadata83"><rdf:RDF><cc:Work
       rdf:about=""><dc:format>image/svg+xml</dc:format><dc:type
         rdf:resource="http://purl.org/dc/dcmitype/StillImage" /></cc:Work></rdf:RDF></metadata><defs
   id="defs81">
	

	

	

	
</defs><sodipodi:namedview
   inkscape:current-layer="Layer_1"
   inkscape:window-maximized="1"
   inkscape:window-y="-9"
   inkscape:window-x="-9"
   inkscape:cy="256.112"
   inkscape:cx="256.112"
   inkscape:zoom="1.6555257"
   showgrid="false"
   id="namedview79"
   inkscape:window-height="1001"
   inkscape:window-width="1920"
   inkscape:pageshadow="2"
   inkscape:pageopacity="0"
   guidetolerance="10"
   gridtolerance="10"
   objecttolerance="10"
   borderopacity="1"
   bordercolor="#666666"
   pagecolor="#ffffff" />
<g
   id="g4">
		<path
   d="m 186.69727,58.089844 c -7.72868,0.279108 -15.23583,4.184042 -19.85007,10.398586 -1.93023,2.693421 -3.54308,5.599032 -5.33684,8.383379 -19.18417,30.805141 -38.31959,61.640971 -57.53971,92.423091 -8.985879,14.2996 -18.026648,28.57192 -27.573582,42.50583 -14.236445,20.4772 -27.406072,41.70025 -39.362947,63.58737 -11.717452,22.81576 -17.840978,48.46731 -17.695329,74.11619 0.04854,27.01662 6.91846,54.02972 20.025899,77.67061 13.258457,24.13481 32.604912,44.88005 55.748923,59.80069 14.484106,9.36011 30.427656,16.42927 47.028966,21.07129 16.62737,4.63091 33.9609,6.64589 51.20804,6.09726 21.68437,-0.6428 43.21924,-5.53582 63.08284,-14.24921 20.31853,-8.81574 38.80866,-21.77304 54.09747,-37.79274 6.2742,-6.56506 12.03969,-13.63033 17.11555,-21.16274 2.22219,-3.59535 1.93398,-8.50205 -0.67187,-11.82422 -1.38537,-1.87367 -3.4509,-3.09152 -5.62105,-3.84735 -18.83272,-7.67456 -35.39925,-20.77859 -47.21643,-37.32795 -11.91653,-16.56447 -19.0163,-36.54218 -20.20101,-56.91558 -0.21737,-3.61536 -0.25319,-7.3192 -0.10832,-10.85515 0.12141,-2.96355 0.36519,-5.92149 0.71712,-8.86647 0.17279,-1.38098 0.39432,-2.99092 0.63376,-4.45408 0.91601,-5.63149 2.27672,-11.19036 4.07718,-16.60451 0.23042,-0.64445 0.53804,-1.59308 0.82028,-2.34903 1.91257,-5.37609 4.33695,-10.55731 7.05341,-15.57046 1.94591,-4.01551 0.92448,-9.19549 -2.39517,-12.17621 -2.42796,-1.9574 -4.92665,-3.83688 -7.22777,-5.94927 -9.99545,-8.96615 -17.94793,-20.21254 -23.04372,-32.63667 -4.66261,-11.63633 -6.87763,-24.2885 -6.18454,-36.81722 0.11192,-1.94183 0.2932,-3.90136 0.52674,-5.74758 0.37603,-3.01423 0.92047,-6.00655 1.61093,-8.9645 0.23058,-0.95289 0.53329,-2.1659 0.82674,-3.21098 0.5985,-2.19923 1.362,-4.53023 2.07951,-6.50777 1.15975,-3.18056 2.57101,-6.42197 4.06054,-9.36133 2.46704,-4.70985 5.1023,-9.33366 7.9336,-13.83398 1.93346,-3.44615 1.65115,-7.93764 -0.63257,-11.15129 -10.45411,-16.63829 -20.89731,-33.283391 -31.26609,-49.975036 -1.75524,-2.690444 -3.26675,-5.550266 -5.24844,-8.086008 -5.01087,-6.359728 -13.11229,-10.127796 -21.20783,-9.821839 -0.0881,0.0016 -0.17614,0.0033 -0.26421,0.0049 z m 1.34375,20.953125 c 1.88946,0.139884 3.50759,1.452061 4.30121,3.131581 10.41294,16.702507 20.81574,33.41106 31.18316,50.14186 -4.66392,7.67557 -8.5569,15.84165 -11.24932,24.41971 -7.54597,23.57939 -6.57046,49.74209 2.58051,72.73501 3.23123,8.0503 7.56082,15.64303 12.61613,22.68401 4.90094,6.77342 10.53675,13.02614 16.86127,18.49916 -6.72073,14.51806 -10.57375,30.32839 -11.45148,46.29557 -1.26852,21.83861 3.07986,43.97382 12.5398,63.69967 9.96772,20.91797 25.62647,39.08346 44.87033,51.99425 3.87173,2.60893 7.88753,5.00403 12.01596,7.18433 -9.59462,11.61975 -21.03087,21.70896 -33.72461,29.82618 -1.51261,0.96523 -3.22028,2.01465 -4.83984,2.96097 -11.90552,6.97434 -24.94075,12.29073 -38.36748,15.7576 -7.50796,1.94147 -15.34056,3.31966 -23.13054,4.07176 -3.9514,0.37772 -7.78286,0.60112 -11.7612,0.67154 -4.6521,0.0888 -9.36125,-0.0489 -13.93234,-0.38782 -7.7853,-0.57824 -15.56685,-1.7682 -23.2255,-3.55818 -17.26691,-4.04126 -34.00746,-11.19842 -48.78894,-21.1444 -2.73463,-1.83006 -5.402329,-3.75939 -7.960383,-5.73158 -7.756135,-5.99363 -14.908649,-12.76707 -21.314085,-20.18677 -2.531321,-2.94014 -5.071867,-6.12223 -7.39951,-9.31747 -8.198173,-11.25047 -14.942702,-23.81257 -19.537858,-37.03611 -3.863348,-11.05078 -6.343079,-22.5831 -7.375132,-34.24407 -0.108673,-1.3005 -0.230531,-2.86024 -0.303281,-4.17132 -0.289624,-4.90676 -0.312862,-9.82783 -0.120547,-14.73884 0.05772,-1.17841 0.13051,-2.61042 0.221576,-3.88414 0.424035,-6.02432 1.257235,-12.18039 2.490072,-18.17782 0.440898,-2.16805 0.90599,-4.18333 1.452316,-6.34956 1.397485,-5.51614 3.138888,-10.94424 5.193458,-16.25059 0.385454,-0.96406 0.861815,-2.18044 1.306737,-3.23114 1.146637,-2.76132 2.459493,-5.60651 3.740138,-8.20831 1.904176,-3.77816 4.080968,-7.46595 6.130143,-11.1142 7.201435,-12.62942 14.889548,-25.1498 22.884478,-37.29109 5.284312,-8.09926 10.924122,-15.95827 16.256858,-24.0244 13.3552,-20.12734 26.02599,-40.69634 38.80496,-61.19198 14.78963,-23.79408 29.57925,-47.58816 44.36887,-71.382239 0.68007,-1.202789 2.09356,-2.228632 3.56662,-2.410554 0.36249,-0.05768 0.73166,-0.07123 1.09745,-0.04062 z"
   id="path2" />
	</g>
<g
   id="g16">
	<g
   id="g14">
		<g
   id="g12">
			<path
   id="path8"
   d="M100.014,442.592c-0.058,0-0.114-0.008-0.172-0.009c-0.057,0.001-0.113,0.009-0.17,0.009H100.014z" />
			<path
   d="m 76.751953,284.48828 c -4.001059,0.10437 -7.783898,2.70386 -9.320547,6.39977 -9.419517,18.30519 -14.242722,38.93522 -13.955392,59.51818 0.193455,21.95685 6.13105,43.8502 17.181386,62.83431 6.104515,10.55844 13.666082,20.28647 22.455737,28.74434 2.715806,2.40981 6.764686,3.30128 10.177883,1.94871 4.08902,-1.44338 6.97725,-5.63211 6.8789,-9.96679 0.006,-3.06644 -1.46332,-6.01775 -3.75685,-8.02179 -3.41894,-3.39661 -6.651601,-7.07152 -9.549445,-10.83191 -7.716435,-10.03007 -13.807014,-21.3245 -17.532388,-33.48973 -0.983614,-3.15931 -1.837476,-6.5082 -2.505065,-9.65462 -1.937425,-9.10622 -2.57592,-18.45694 -2.199842,-27.75111 0.06195,-1.35281 0.153757,-2.96677 0.279556,-4.41971 0.199846,-2.43479 0.515049,-5.09981 0.914661,-7.60818 1.327815,-8.46399 3.697432,-16.76287 7.027109,-24.65655 0.475375,-1.10471 1.053077,-2.43555 1.606955,-3.61012 0.773002,-1.79859 1.808579,-3.47274 2.561014,-5.2766 1.586144,-4.12075 0.183871,-9.13519 -3.297074,-11.84764 -1.948605,-1.56997 -4.466279,-2.40358 -6.966598,-2.31056 z"
   id="path10" />
		</g>
	</g>
</g>
<g
   id="g20">
		<path
   d="m 319.33008,-1.9902344 c -6.63566,0.1699312 -13.07811,3.7482256 -16.66707,9.342148 -9.75109,15.5853724 -19.48636,31.1816144 -29.208,46.7854764 -8.54025,14.038771 -17.35972,27.907645 -26.3518,41.659994 -7.17395,10.390696 -14.22263,20.877766 -20.6671,31.740586 -4.72313,7.65734 -9.15699,15.55359 -12.28079,24.0153 -5.303,14.05839 -7.53148,29.23636 -6.65128,44.22875 0.76298,13.02463 3.84312,25.9354 9.20832,37.83574 7.37311,15.99392 18.61359,30.16363 32.45443,41.04795 1.84991,1.50172 3.80944,3.05248 6.22481,3.4685 1.76699,0.42075 3.60951,0.15804 5.33914,-0.30624 2.91805,-0.85798 5.30272,-3.08687 6.58831,-5.81655 3.17144,-5.80966 6.88889,-11.3188 11.06572,-16.45283 0.50182,-0.60753 1.18926,-1.44942 1.78462,-2.12918 10.87379,-12.66317 24.69865,-22.81633 40.14796,-29.17001 19.84963,-8.29998 42.14745,-10.58863 63.27195,-6.51324 6.80537,1.29825 13.48624,3.24397 19.92828,5.7929 0.51998,0.21018 1.33661,0.53133 1.84262,0.74988 2.91023,1.18438 5.72025,2.59377 8.55118,3.94892 3.94956,1.66154 8.83285,0.55547 11.69307,-2.63015 1.62061,-1.65648 2.34726,-3.90217 2.94835,-6.08326 5.91779,-19.77896 5.91072,-41.27554 -0.016,-61.05185 -2.3847,-7.98031 -5.66406,-15.70482 -9.8939,-22.88481 -7.66491,-13.5394 -16.06037,-26.6589 -25.03662,-39.365381 C 389.45612,90.29621 385.41311,84.294262 381.55553,78.213076 374.17655,66.633646 367.09699,54.867844 359.75652,43.263912 352.20631,31.228776 344.6951,19.168444 337.12056,7.1490363 333.25561,1.3058778 326.33174,-2.2490041 319.33008,-1.9902344 Z m 28.23828,66.4101564 c 9.48305,15.258502 18.97538,30.523812 29.201,45.300468 9.11579,12.90974 17.57766,26.28832 25.23655,40.11298 4.41458,8.46697 7.38769,17.67838 8.78315,27.12366 0.0575,0.46726 0.17901,1.29084 0.25573,1.8962 0.2201,1.76543 0.38365,3.53732 0.49623,5.31279 0.0202,0.55287 0.0817,1.4278 0.10084,2.11431 0.21714,5.77052 -0.15242,11.56264 -1.10084,17.25873 -21.15987,-8.25242 -44.47258,-10.86988 -66.93771,-7.53541 -16.9803,2.50965 -33.48781,8.33324 -48.20862,17.17354 -16.08295,9.73327 -29.98849,23.0338 -40.42985,38.66656 -8.93615,-8.71946 -16.11208,-19.27986 -20.73803,-30.88573 -4.48563,-11.35214 -6.53886,-23.65305 -6.00415,-35.84669 0.0653,-1.40654 0.17409,-3.04411 0.32551,-4.53461 1.08462,-11.01776 4.2893,-21.84671 9.50671,-31.61693 2.41568,-4.26985 4.79718,-8.56048 7.39539,-12.72304 6.45908,-10.85669 13.6826,-21.22701 20.77694,-31.67061 9.17363,-13.577726 17.86653,-27.470267 26.46334,-41.417334 9.1025,-14.499472 18.205,-28.998944 27.3075,-43.498415 9.1901,14.923177 18.38021,29.846354 27.57031,44.769531 z"
   id="path18" />
	</g>
<g
   id="g28">
	<g
   id="g26">
		<path
   d="m 265,138.5 c -3.6702,0.0804 -7.167,2.25124 -8.92519,5.46538 -2.81834,4.47924 -5.49731,9.06044 -7.82166,13.8178 -6.21766,12.99696 -8.39877,27.86158 -6.2388,42.10248 1.44819,9.77596 4.88805,19.25397 10.11619,27.64478 3.45084,5.5961 7.59103,10.78439 12.36835,15.30483 1.38438,1.17793 3.07874,1.98322 4.86439,2.32098 -0.0455,0.64658 1.0585,0.12358 1.49978,0.27487 3.66631,0.1687 7.36224,-1.65455 9.35344,-4.75606 2.50042,-3.6784 2.25481,-8.93341 -0.57604,-12.36426 -1.51677,-1.70038 -3.21936,-3.23388 -4.65544,-5.01084 -5.40509,-6.39821 -9.45579,-14.00392 -11.31851,-22.19422 -2.78342,-11.74362 -1.38718,-24.45717 4.08025,-35.23566 2.0702,-4.00647 4.39326,-7.87513 6.77472,-11.70211 2.20831,-3.81041 1.62333,-8.96713 -1.37058,-12.19316 -2.03583,-2.27938 -5.09567,-3.5868 -8.1509,-3.47481 z"
   id="path24" />
	</g>
</g>
<g
   id="g32">
		<path
   d="m 359.82227,194.70117 c -22.6274,0.48909 -45.12319,6.893 -64.54,18.53795 -19.60815,11.83071 -35.94793,28.99532 -46.803,49.16001 -8.3516,15.10503 -13.53162,31.93636 -15.17553,49.11553 -2.1226,21.39213 1.06341,43.31385 9.40127,63.14188 9.30267,22.29875 24.99636,41.86029 44.69733,55.83955 17.55989,12.52315 38.293,20.54864 59.71534,23.07194 20.56681,2.45972 41.72005,0.009 61.12688,-7.25829 22.55743,-8.37391 42.68818,-23.16092 57.38898,-42.2133 15.38514,-19.81927 24.88099,-44.16616 26.84073,-69.18873 1.99306,-24.48966 -3.19653,-49.4922 -14.6873,-71.20412 -10.30035,-19.57751 -25.72086,-36.42855 -44.33615,-48.38536 -15.11545,-9.79689 -32.36076,-16.21538 -50.13556,-19.03304 -7.76343,-1.22746 -15.63532,-1.75187 -23.49299,-1.58402 z m 2.85156,20.85547 c 2.71773,0.007 5.36099,0.095 8.10508,0.29819 3.65912,0.26688 7.62625,0.76048 11.38649,1.44139 9.16244,1.65418 18.10869,4.49846 26.54358,8.44011 10.63285,4.95746 20.59422,11.75605 29.125,19.9082 12.64868,12.02982 22.44268,27.27843 28.04102,43.89649 2.7629,8.14884 4.53413,16.62969 5.29883,25.19921 0.0771,0.93927 0.17438,2.17901 0.23006,3.13958 0.18401,3.07215 0.23777,6.03457 0.16845,9.13014 -0.0365,1.74986 -0.12921,3.70652 -0.26043,5.46423 -0.41039,5.73907 -1.30579,11.62985 -2.66304,17.31041 -0.85629,3.63016 -1.97073,7.41463 -3.24327,11.01263 -1.36849,3.87773 -2.98631,7.7262 -4.75816,11.35698 -4.9084,10.08126 -11.39391,19.38983 -19.13377,27.50205 -1.36548,1.43637 -2.92032,2.97167 -4.42266,4.38158 -15.11304,14.19248 -34.35703,23.93973 -54.76766,27.61686 -3.2772,0.60088 -6.58335,1.04 -9.90147,1.33945 -0.6626,0.0482 -1.44289,0.12307 -2.15544,0.16769 -5.29883,0.36839 -10.74931,0.34291 -15.96761,-0.0564 -11.48708,-0.85988 -23.04346,-3.61604 -33.73993,-8.11988 -13.82541,-5.79193 -26.41214,-14.49401 -36.75031,-25.34497 -1.34191,-1.41442 -2.78799,-3.00623 -4.10004,-4.5519 -2.4838,-2.91585 -4.94501,-6.12522 -7.14264,-9.36268 -10.39635,-15.2169 -16.79702,-33.12579 -18.39989,-51.48581 -0.0771,-0.93927 -0.17439,-2.179 -0.23006,-3.13957 -0.18469,-3.09276 -0.24023,-6.07778 -0.16461,-9.19455 0.0638,-2.74043 0.24278,-5.70212 0.53402,-8.51843 0.18872,-1.8826 0.41655,-3.64044 0.70471,-5.5439 1.76408,-11.69917 5.53386,-23.3063 11.14174,-33.8257 1.95693,-3.71425 4.10963,-7.32582 6.47123,-10.79738 0.25444,-0.37261 0.78351,-1.13818 1.0332,-1.49414 0.98915,-1.38519 1.92024,-2.67054 2.99159,-4.04082 2.35374,-3.0396 4.87935,-5.94426 7.53771,-8.7209 0.51655,-0.51645 1.23564,-1.27075 1.84564,-1.86384 4.96625,-4.92977 10.4191,-9.36716 16.24029,-13.24944 0.83287,-0.55523 1.90339,-1.24608 2.84107,-1.83095 13.99626,-8.73102 29.99957,-14.21342 46.41089,-15.88975 0.76179,-0.0733 1.82704,-0.17976 2.70781,-0.24192 2.80821,-0.22501 5.62572,-0.32196 8.44258,-0.3323 z"
   id="path30" />
	</g>
<g
   id="g38">
		<path
   d="m 343.5918,237.52148 c -6.68447,0.27652 -13.09769,4.53098 -15.69684,10.73724 -1.35064,3.03977 -1.63304,6.44506 -1.2256,9.72089 2.10965,26.10434 4.18412,52.21217 6.31575,78.31433 0.66678,6.31291 5.01038,12.04709 10.88968,14.42835 2.73828,1.19452 5.76069,1.47259 8.71779,1.36951 7.64033,-0.0157 15.28211,0.0313 22.92154,-0.0232 6.32974,-0.23842 12.33327,-4.16366 15.11757,-9.84787 1.28594,-2.49146 1.83298,-5.28745 1.93839,-8.0719 2.07647,-26.0456 4.18644,-52.0891 6.242,-78.13602 0.33062,-5.52092 -2.24377,-11.06183 -6.57902,-14.47184 -3.47542,-2.83257 -8.00819,-4.2323 -12.47329,-4.0429 -12.00725,0.0129 -24.01521,-0.0259 -36.022,0.0194 l -0.1,0.003 z m 33.97851,20.70313 c -1.9414,24.26628 -3.88281,48.53255 -5.82422,72.79883 -5.99479,0 -11.98958,0 -17.98437,0 -1.99544,-24.26628 -3.99089,-48.53255 -5.98633,-72.79883 9.93164,0 19.86328,0 29.79492,0 z"
   id="path36" />
	</g>
<g
   id="g46">
	<g
   id="g44">
		<path
   d="m 357.00391,365.18945 c -7.08962,0.3271 -13.89116,4.15663 -17.87141,10.02822 -2.87306,4.12791 -4.24908,9.2051 -4.06219,14.2167 0.0509,3.29408 -0.1116,6.5957 0.10126,9.88454 0.619,7.48385 5.18738,14.47566 11.76174,18.09236 3.84009,2.19487 8.31295,3.11588 12.71317,2.9442 3.30392,-0.0561 6.61693,0.12851 9.91407,-0.12695 7.07565,-0.7079 13.67244,-4.90803 17.33657,-10.99741 2.43272,-3.94408 3.54319,-8.62126 3.37241,-13.23775 -0.0528,-3.3006 0.11727,-6.60926 -0.10914,-9.90414 -0.63346,-7.1229 -4.81936,-13.79624 -10.92817,-17.5041 -3.98747,-2.49531 -8.74234,-3.6092 -13.4248,-3.42887 -2.93423,0.0192 -5.87019,-0.0402 -8.80351,0.0332 z m 10.125,21.03321 c 1.3207,-0.0219 2.28498,1.31703 2.07421,2.57422 -0.0217,2.88311 0.0432,5.77147 -0.0322,8.65135 -0.15969,1.23836 -1.47636,1.94722 -2.64201,1.75685 -2.84979,-0.0217 -5.70482,0.0432 -8.55135,-0.0322 -1.23869,-0.15891 -1.94696,-1.47661 -1.75686,-2.64201 0.0217,-2.84978 -0.0432,-5.70481 0.0322,-8.55135 0.15969,-1.23836 1.47636,-1.94722 2.64201,-1.75685 2.74466,0 5.48932,0 8.23399,0 z"
   id="path42" />
	</g>
</g>
<g
   id="g48">
</g>
<g
   id="g50">
</g>
<g
   id="g52">
</g>
<g
   id="g54">
</g>
<g
   id="g56">
</g>
<g
   id="g58">
</g>
<g
   id="g60">
</g>
<g
   id="g62">
</g>
<g
   id="g64">
</g>
<g
   id="g66">
</g>
<g
   id="g68">
</g>
<g
   id="g70">
</g>
<g
   id="g72">
</g>
<g
   id="g74">
</g>
<g
   id="g76">
</g>
</svg>
