<?xml version="1.0" encoding="UTF-8" standalone="no"?>
<svg
   xmlns:dc="http://purl.org/dc/elements/1.1/"
   xmlns:cc="http://creativecommons.org/ns#"
   xmlns:rdf="http://www.w3.org/1999/02/22-rdf-syntax-ns#"
   xmlns:svg="http://www.w3.org/2000/svg"
   xmlns="http://www.w3.org/2000/svg"
   xmlns:sodipodi="http://sodipodi.sourceforge.net/DTD/sodipodi-0.dtd"
   xmlns:inkscape="http://www.inkscape.org/namespaces/inkscape"
   inkscape:version="1.0 (4035a4fb49, 2020-05-01)"
   sodipodi:docname="014-plug.svg"
   xml:space="preserve"
   style="enable-background:new 0 0 512 512;"
   viewBox="0 0 512 512"
   y="0px"
   x="0px"
   id="Layer_1"
   version="1.1"><metadata
   id="metadata97"><rdf:RDF><cc:Work
       rdf:about=""><dc:format>image/svg+xml</dc:format><dc:type
         rdf:resource="http://purl.org/dc/dcmitype/StillImage" /></cc:Work></rdf:RDF></metadata><defs
   id="defs95" /><sodipodi:namedview
   inkscape:current-layer="Layer_1"
   inkscape:window-maximized="1"
   inkscape:window-y="-9"
   inkscape:window-x="-9"
   inkscape:cy="334.57774"
   inkscape:cx="142.69984"
   inkscape:zoom="1.1711456"
   showgrid="false"
   id="namedview93"
   inkscape:window-height="1001"
   inkscape:window-width="1920"
   inkscape:pageshadow="2"
   inkscape:pageopacity="0"
   guidetolerance="10"
   gridtolerance="10"
   objecttolerance="10"
   borderopacity="1"
   bordercolor="#666666"
   pagecolor="#ffffff" />
<g
   id="g6">
	<g
   id="g4">
		<path
   d="m 58.828125,126.02148 c -6.203621,0.25368 -12.132825,3.78177 -15.339432,9.09445 -2.063978,3.31583 -2.962604,7.26519 -2.801193,11.15048 0.0076,34.04188 -0.01522,68.08395 0.01141,102.12571 0.146707,13.24142 4.742173,26.37661 12.876351,36.82529 8.585035,11.15023 21.083836,19.22137 34.804723,22.37668 5.411305,1.28702 10.990091,1.71417 16.5419,1.60513 40.06177,-0.007 80.12416,0.013 120.18554,-0.01 4.48391,-0.12565 8.62763,-3.45185 9.72461,-7.80078 3.32186,-15.31632 9.95391,-29.90872 19.38045,-42.43437 4.5269,-6.03393 9.68725,-11.5898 15.35783,-16.56368 0.82702,-0.71093 1.84612,-1.58963 2.77096,-2.33929 4.73628,-3.90379 9.8438,-7.34034 15.14701,-10.42438 3.07335,-2.02222 4.87235,-5.72172 4.66602,-9.3832 -0.008,-25.24196 0.0163,-50.48431 -0.0122,-75.72602 -0.11621,-6.57965 -3.96837,-12.91126 -9.72888,-16.08 -3.23493,-1.86237 -7.01601,-2.59553 -10.72333,-2.43773 -70.76087,0.005 -141.52199,-0.01 -212.282719,0.007 -0.192999,0.005 -0.385997,0.009 -0.578996,0.0142 z m 212.259765,21.04493 c 0,22.63411 0,45.26823 0,67.90234 -20.07158,12.83725 -36.4673,31.32952 -46.81229,52.79242 -3.17487,6.55424 -5.78788,13.37994 -7.82443,20.37164 -38.30972,-0.008 -76.61963,0.0152 -114.92922,-0.0114 -10.278144,-0.17245 -20.396243,-4.47142 -27.677096,-11.72369 -7.34633,-7.19859 -11.779329,-17.27364 -12.064274,-27.5601 -0.05747,-11.23147 -0.0084,-22.46422 -0.02472,-33.69618 0,-22.69167 0,-45.38334 0,-68.075 69.777341,0 139.554691,0 209.332031,0 z"
   id="path2" />
	</g>
</g>
<g
   id="g12">
	<g
   id="g10">
		<path
   d="M 110.27148,-1.9921875 C 102.46612,-1.8485749 94.832068,1.8378135 89.839694,7.8342332 85.48296,12.94622 83.163995,19.693544 83.355469,26.399609 c 0.0071,36.862015 -0.01422,73.724411 0.01066,110.586191 0.122661,4.38886 3.30765,8.46097 7.532772,9.64708 2.430211,0.72545 4.995644,0.33276 7.489768,0.43353 12.920458,-0.0118 25.841838,0.0235 38.761718,-0.0176 4.37204,-0.18247 8.39065,-3.39971 9.53334,-7.62203 0.68818,-2.40361 0.30665,-4.93169 0.40611,-7.3936 -0.008,-35.721948 0.0156,-71.444329 -0.0117,-107.166012 C 146.9262,17.111477 143.26997,9.5321038 137.33183,4.548962 132.20962,0.15247415 125.42887,-2.195369 118.68828,-2 c -2.80557,0.00521 -5.61131,-0.010442 -8.4168,0.00781 z m 9.16407,21.0585935 c 3.20677,-0.09037 6.1986,2.511403 6.52923,5.706203 0.13121,2.98834 0.0198,5.987325 0.0567,8.979735 0,30.749218 0,61.498437 0,92.247656 -7.19987,0 -14.39974,0 -21.5996,0 0.008,-33.583928 -0.0156,-67.168308 0.0117,-100.751953 0.0977,-3.305421 3.0623,-6.181264 6.36984,-6.175717 2.87716,-0.01388 5.75481,-0.0019 8.63212,-0.0059 z"
   id="path8" />
	</g>
</g>
<g
   id="g18">
	<g
   id="g16">
		<path
   d="m 212.67188,-1.9921875 c -7.80586,0.1426002 -15.43952,3.8296394 -20.4318,9.8264207 -4.35587,5.1123058 -6.67837,11.8586758 -6.48422,18.5653758 0.007,36.862015 -0.0142,73.724411 0.0107,110.586191 0.12094,4.42312 3.3589,8.52237 7.62894,9.67449 2.40352,0.68865 4.93174,0.30634 7.3936,0.40612 12.91916,-0.0118 25.83925,0.0235 38.75782,-0.0176 4.37316,-0.18092 8.3941,-3.39822 9.53724,-7.62203 0.68251,-2.37064 0.30658,-4.86486 0.40416,-7.2936 -0.007,-35.75725 0.013,-71.514812 -0.01,-107.271872 C 249.32409,17.039504 245.60179,9.4017197 239.57844,4.4187806 234.47412,0.10524101 227.76238,-2.1932721 221.08867,-2 c -2.80557,0.00521 -5.6113,-0.010442 -8.41679,0.00781 z m 9.16406,21.0585935 c 3.20677,-0.09032 6.19782,2.511712 6.52923,5.706203 0.13121,2.98834 0.0198,5.987325 0.0567,8.979735 0,30.749218 -10e-6,61.498437 0,92.247656 -7.19987,0 -14.39974,0 -21.59961,0 0.008,-33.595649 -0.0156,-67.191732 0.0117,-100.787109 0.11941,-3.291533 3.07405,-6.1462 6.36984,-6.140561 2.87716,-0.01388 5.75482,-0.0019 8.63212,-0.0059 z"
   id="path14" />
	</g>
</g>
<g
   id="g24">
	<g
   id="g22">
		<path
   d="m 170.20508,288.14453 c -4.41257,0.13766 -8.49548,3.37044 -9.64442,7.63186 -0.68185,2.36982 -0.30726,4.86361 -0.40441,7.29158 -0.008,27.19223 0.0165,54.38489 -0.0124,81.57685 -0.30612,6.92032 -2.22537,13.90321 -6.20246,19.63448 -3.46294,5.03503 -8.76129,8.6937 -14.62607,10.3501 -4.37931,1.31248 -8.98791,1.60381 -13.53564,1.47364 -11.45756,0.0535 -22.84284,4.09923 -31.753648,11.30361 -9.723641,7.77083 -16.473474,19.17201 -18.512874,31.45934 -0.692444,3.86351 -0.790384,7.79863 -0.690912,11.71292 0.01176,11.15912 -0.02349,22.31919 0.01758,33.47773 0.180516,4.37348 3.398618,8.39401 7.622027,9.53724 4.079008,1.22384 8.788492,-0.35645 11.30766,-3.78919 1.62793,-2.10192 2.277394,-4.81125 2.119141,-7.43789 0.01442,-11.293 -0.0288,-22.587 0.02155,-33.87938 0.337287,-6.88494 2.271919,-13.82747 6.252052,-19.5156 3.51718,-5.08057 8.91321,-8.73211 14.85504,-10.35414 4.29787,-1.23492 8.80149,-1.51659 13.25181,-1.38759 11.45562,-0.0572 22.84105,-4.09822 31.74975,-11.3047 9.69887,-7.74825 16.43749,-19.10947 18.49553,-31.35891 0.70593,-3.89618 0.81119,-7.86657 0.70826,-11.81531 -0.008,-28.19174 0.0156,-56.3839 -0.0117,-84.57539 -0.14091,-4.30723 -3.21923,-8.30096 -7.33985,-9.55273 -1.1818,-0.37315 -2.42815,-0.53213 -3.66601,-0.47852 z"
   id="path20" />
	</g>
</g>
<g
   id="g30">
	<g
   id="g28">
		<path
   d="m 339.76172,194.28125 c -22.99328,0.21783 -45.86815,6.76294 -65.54115,18.65538 -20.30768,12.19284 -37.18793,30.03909 -48.13466,51.053 -8.50545,16.24896 -13.50512,34.3223 -14.51198,52.63776 -1.21876,20.73389 2.55352,41.75948 11.07451,60.71156 9.84129,22.05397 25.99042,41.22101 46.01172,54.71769 18.26947,12.38327 39.75697,19.96083 61.75618,21.75331 17.76788,1.49137 35.85156,-0.62226 52.73521,-6.38707 18.91545,-6.38971 36.24837,-17.30748 50.31225,-31.46481 15.90023,-15.94459 27.51353,-36.10763 33.34492,-57.85641 5.72437,-21.15121 6.01045,-43.75826 0.69855,-65.02453 -5.84981,-23.6971 -18.55008,-45.6408 -36.15599,-62.54359 -15.47168,-14.93241 -34.738,-25.88102 -55.47914,-31.54821 -11.74026,-3.23382 -23.93231,-4.83499 -36.11042,-4.70408 z m 1.60156,21.05273 c 2.74788,0.006 5.42454,0.0981 8.19898,0.30512 3.75324,0.27742 7.82993,0.79041 11.68198,1.50739 11.41337,2.1 22.45894,6.04889 32.65748,11.67844 8.59317,4.7326 16.65199,10.72594 23.70138,17.64582 2.17646,2.13295 4.1851,4.27212 6.19252,6.59144 1.09062,1.25543 2.22955,2.64855 3.25321,3.94367 5.13766,6.52825 9.58215,13.76406 13.05859,21.21875 5.53267,11.82408 8.87917,24.65824 9.86524,37.67383 0.0333,0.57994 0.0969,1.33345 0.12829,1.95838 0.17639,3.00323 0.22216,5.90318 0.1569,8.93242 -0.0365,1.74855 -0.12926,3.70391 -0.26044,5.46033 -0.19468,2.78155 -0.53512,5.77527 -0.96616,8.62152 -1.43934,9.40536 -4.12469,18.64679 -7.99488,27.3927 -3.92938,8.92087 -9.2355,17.53007 -15.4366,25.06533 -1.41425,1.72552 -2.97824,3.51474 -4.48844,5.13572 -14.2194,15.32151 -32.92634,26.43985 -53.22195,31.47886 -5.95669,1.49474 -12.04194,2.46971 -18.16477,2.94107 -0.54268,0.0304 -1.28122,0.0933 -1.85859,0.12179 -3.13406,0.18745 -6.17186,0.23189 -9.33477,0.1575 -1.45816,-0.0379 -3.20629,-0.11646 -4.66091,-0.22009 -5.72823,-0.38102 -11.64612,-1.25636 -17.32469,-2.58198 -18.82533,-4.35528 -36.3929,-13.90304 -50.3562,-27.25066 -1.43637,-1.36548 -2.97167,-2.92033 -4.38158,-4.42267 -11.79995,-12.58472 -20.55718,-28.00601 -25.25709,-44.60858 -1.55894,-5.48963 -2.72281,-11.29647 -3.3871,-17.04136 -0.18248,-1.52196 -0.31942,-3.06649 -0.43048,-4.47636 -0.266,-3.6017 -0.36256,-7.07285 -0.28051,-10.68091 0.0675,-3.2332 0.2976,-6.67974 0.67356,-9.98153 0.4389,-3.84964 1.09719,-7.90004 1.98551,-11.76922 0.172,-0.72482 0.31778,-1.41891 0.48038,-2.03906 4.6666,-19.0207 14.60871,-36.70603 28.43852,-50.57404 14.55039,-14.69167 33.36612,-25.10462 53.55931,-29.57222 7.79652,-1.74064 15.78548,-2.60842 23.77331,-2.6114 z"
   id="path26" />
	</g>
</g>
<g
   id="g36">
	<g
   id="g34">
		<path
   d="m 322.28516,237.29492 c -6.69333,0.26212 -13.10158,4.5345 -15.71051,10.73723 -1.33679,3.00873 -1.62953,6.37917 -1.22789,9.62318 2.10882,26.13572 4.18699,52.27459 6.31495,78.40834 0.65287,6.15439 4.78669,11.76769 10.45281,14.24759 2.76378,1.27963 5.8426,1.67312 8.86361,1.55593 7.74032,-0.0157 15.4821,0.0312 23.22154,-0.0232 6.29584,-0.23642 12.27261,-4.11907 15.07208,-9.75881 1.31744,-2.51281 1.87902,-5.34364 1.98578,-8.16096 2.07649,-26.04297 4.18325,-52.08399 6.24083,-78.12817 0.34014,-5.45891 -2.17575,-10.93828 -6.42396,-14.35578 -3.48926,-2.92373 -8.09766,-4.3651 -12.62909,-4.16486 -12.05328,0.013 -24.10726,-0.0261 -36.16015,0.0195 z M 356.25586,258 c -1.94206,24.26693 -3.88412,48.53385 -5.82617,72.80078 -5.99414,0 -11.98828,0 -17.98242,0 -1.9961,-24.26693 -3.99219,-48.53385 -5.98829,-72.80078 9.9323,0 19.86459,0 29.79688,0 z"
   id="path32" />
	</g>
</g>
<g
   id="g42">
	<g
   id="g40">
		<path
   d="m 335.69141,364.96484 c -7.09044,0.32751 -13.89058,4.15762 -17.87419,10.02764 -2.87116,4.12917 -4.24835,9.20532 -4.06136,14.21729 0.0508,3.29472 -0.11157,6.59699 0.10125,9.88648 0.61772,7.41328 5.10255,14.34885 11.58407,17.98944 3.85061,2.24387 8.35515,3.21195 12.79085,3.04712 3.3366,-0.0569 6.68241,0.13046 10.01211,-0.1289 7.04201,-0.70269 13.61338,-4.86538 17.28475,-10.91114 2.47003,-3.96103 3.5989,-8.6739 3.42619,-13.32402 -0.0527,-3.29995 0.1171,-6.60795 -0.10901,-9.9022 -0.63167,-7.12456 -4.82059,-13.79542 -10.9283,-17.50604 -3.96091,-2.47111 -8.67425,-3.60072 -13.3248,-3.42692 -2.96695,0.0181 -5.93541,-0.038 -8.90156,0.0312 z M 345.81641,386 c 1.32686,-0.0221 2.28618,1.3281 2.07226,2.58789 -0.0231,2.88374 0.046,5.77292 -0.0342,8.6533 -0.16901,1.23084 -1.47743,1.93176 -2.63809,1.74123 -2.85044,-0.0216 -5.70612,0.0432 -8.55331,-0.0322 -1.23842,-0.15969 -1.94726,-1.47634 -1.75685,-2.64202 0.0217,-2.84978 -0.0432,-5.70481 0.0322,-8.55135 0.15969,-1.23836 1.47635,-1.94722 2.64201,-1.75685 2.74531,0 5.49062,0 8.23594,0 z"
   id="path38" />
	</g>
</g>
<g
   id="g48">
	<g
   id="g46">
		<path
   d="m 167.30859,158.12891 c -5.469,0.007 -10.62543,4.04272 -11.9298,9.35747 -0.82074,2.94972 -0.31919,6.10376 0.84136,8.88972 1.81789,5.29716 3.63579,10.59432 5.45368,15.89148 -8.40996,0.0174 -16.82263,-0.0457 -25.23088,0.0448 -5.46558,0.40476 -10.33851,4.83127 -11.21268,10.25244 -0.70506,3.73832 0.4537,7.72421 2.94969,10.57899 13.82606,18.09418 27.62063,36.21294 41.48389,54.27684 3.93634,4.72834 11.4631,5.7684 16.57834,2.38598 3.59016,-2.27196 5.89183,-6.44085 5.78381,-10.70273 -0.0102,-3.07459 -1.26045,-6.05744 -3.26701,-8.36356 -8.50022,-11.13773 -17.00783,-22.27195 -25.51094,-33.40832 5.76194,-0.0225 11.52751,0.0592 17.28711,-0.0586 5.29102,-0.45987 9.99152,-4.66521 11.01317,-9.88208 0.63211,-2.80901 0.0823,-5.74043 -1.00758,-8.36289 -3.8632,-11.1484 -7.65244,-22.3247 -11.5814,-33.44823 -1.93151,-4.51267 -6.749,-7.57776 -11.65076,-7.45133 z"
   id="path44" />
	</g>
</g>
<g
   id="g54">
	<g
   id="g52">
		<path
   d="m 84.894531,160.18555 c -3.690027,0.16458 -7.357438,2.28607 -8.914982,5.70992 -1.40754,2.77424 -1.576271,6.17617 -0.222971,9.00428 1.080022,2.5519 3.179044,4.65716 5.797447,5.60715 4.356613,1.72222 9.867405,0.18422 12.416506,-3.8216 1.983366,-2.85027 2.541317,-6.70119 1.129322,-9.91551 -0.847232,-2.10611 -2.299948,-4.00692 -4.322716,-5.09638 -1.766679,-1.04834 -3.828233,-1.58102 -5.882606,-1.48786 z"
   id="path50" />
	</g>
</g>
<g
   id="g60">
	<g
   id="g58">
		<path
   d="m 110.46289,160.14453 c -4.41235,0.13932 -8.49254,3.37642 -9.63794,7.6379 -1.218205,4.07372 0.35835,8.77578 3.78638,11.29179 2.10072,1.63316 4.81567,2.28082 7.44375,2.125 8.39682,-0.0169 16.79536,0.0337 25.19111,-0.0252 4.45123,-0.21899 8.496,-3.59873 9.52334,-7.93182 1.07894,-4.06923 -0.58868,-8.67252 -4.02867,-11.10105 -2.0773,-1.55501 -4.72327,-2.15673 -7.28617,-2.00833 -8.33054,0.008 -16.66153,-0.0157 -24.9918,0.0117 z"
   id="path56" />
	</g>
</g>
<g
   id="g62">
</g>
<g
   id="g64">
</g>
<g
   id="g66">
</g>
<g
   id="g68">
</g>
<g
   id="g70">
</g>
<g
   id="g72">
</g>
<g
   id="g74">
</g>
<g
   id="g76">
</g>
<g
   id="g78">
</g>
<g
   id="g80">
</g>
<g
   id="g82">
</g>
<g
   id="g84">
</g>
<g
   id="g86">
</g>
<g
   id="g88">
</g>
<g
   id="g90">
</g>
</svg>
