<?xml version="1.0" encoding="iso-8859-1"?>
<!-- Generator: Adobe Illustrator 19.0.0, SVG Export Plug-In . SVG Version: 6.00 Build 0)  -->
<svg xmlns="http://www.w3.org/2000/svg" xmlns:xlink="http://www.w3.org/1999/xlink" version="1.1" id="Layer_1" x="0px" y="0px" viewBox="0 0 512 512" style="enable-background:new 0 0 512 512;" xml:space="preserve">
<g>
	<g>
		<path d="M494.933,29.867H17.067C7.641,29.867,0,37.508,0,46.933v358.4c0,9.426,7.641,17.067,17.067,17.067H358.4v-17.067H17.067    v-358.4h477.867v358.4H435.2V422.4h59.733c9.426,0,17.067-7.641,17.067-17.067v-358.4C512,37.508,504.359,29.867,494.933,29.867z"/>
	</g>
</g>
<g>
	<g>
		<path d="M256,29.867c-4.713,0-8.533,3.82-8.533,8.533v375.467c0,4.713,3.82,8.533,8.533,8.533s8.533-3.82,8.533-8.533V38.4    C264.533,33.687,260.713,29.867,256,29.867z"/>
	</g>
</g>
<g>
	<g>
		<path d="M213.333,64H51.2c-9.426,0-17.067,7.641-17.067,17.067V371.2c0,9.426,7.641,17.067,17.067,17.067h162.133    c9.426,0,17.067-7.641,17.067-17.067V81.067C230.4,71.641,222.759,64,213.333,64z M213.333,371.2H51.2V81.067h162.133V371.2z"/>
	</g>
</g>
<g>
	<g>
		<path d="M475.59,66.758c-3.205-3.455-8.604-3.659-12.059-0.454L355.755,166.4c-3.627,3.141-5.764,7.663-5.888,12.459v286.208    c0,9.426,7.641,17.067,17.067,17.067c4.061-0.141,7.948-1.678,11.008-4.352l93.867-88.917c3.846-3.246,6.063-8.024,6.059-13.056    V72.533C477.86,70.391,477.047,68.329,475.59,66.758z M460.8,376.149l-93.867,88.917V178.603L460.8,92.075V376.149z"/>
	</g>
</g>
<g>
	<g>
		<path d="M84.651,103.424c-0.432-1.034-1.038-1.987-1.792-2.816c-0.016-0.017-0.033-0.033-0.049-0.049    c-3.346-3.319-8.749-3.297-12.068,0.049c-0.754,0.829-1.36,1.782-1.792,2.816c-0.913,2.065-0.913,4.42,0,6.485    c0.434,1.033,1.04,1.986,1.792,2.816c0.812,0.777,1.769,1.386,2.816,1.792c1.026,0.437,2.128,0.669,3.243,0.683    c1.098-0.005,2.185-0.223,3.2-0.64C84.36,112.769,86.442,107.783,84.651,103.424z"/>
	</g>
</g>
<g>
	<g>
		<path d="M162.133,98.133h-51.2c-4.713,0-8.533,3.82-8.533,8.533s3.82,8.533,8.533,8.533h51.2c4.713,0,8.533-3.82,8.533-8.533    S166.846,98.133,162.133,98.133z"/>
	</g>
</g>
<g>
	<g>
		<path d="M366.251,196.864c-0.406-1.047-1.015-2.004-1.792-2.816c-0.867-0.727-1.812-1.356-2.816-1.877h-1.621    c-2.784-0.557-5.663,0.306-7.68,2.304c-1.597,1.61-2.488,3.79-2.475,6.059c-0.013,2.268,0.877,4.448,2.475,6.059    c0.812,0.777,1.769,1.386,2.816,1.792c1.026,0.437,2.128,0.669,3.243,0.683c2.331-0.098,4.521-1.147,6.059-2.901    c0.752-0.83,1.358-1.783,1.792-2.816C367.164,201.284,367.164,198.929,366.251,196.864z"/>
	</g>
</g>
<g>
	<g>
		<path d="M469.333,64H298.667c-9.426,0-17.067,7.641-17.067,17.067V371.2c0,9.426,7.641,17.067,17.067,17.067H358.4    c4.713,0,8.533-3.82,8.533-8.533s-3.82-8.533-8.533-8.533h-59.733V81.067h170.667c4.713,0,8.533-3.82,8.533-8.533    S474.046,64,469.333,64z"/>
	</g>
</g>
<g>
	<g>
		<path d="M450.304,152.405c-3.016-3.629-8.403-4.126-12.032-1.109l-51.2,42.667c-1.961,1.625-3.094,4.041-3.089,6.587    c0.009,4.713,3.837,8.526,8.55,8.517c1.994,0.004,3.926-0.69,5.461-1.963l51.2-42.667    C452.824,161.421,453.32,156.034,450.304,152.405z"/>
	</g>
</g>
<g>
	<g>
		<path d="M396.288,303.787l-34.133-17.067c-4.097-1.882-8.951-0.252-11.082,3.722c-2.227,4.153-0.666,9.326,3.487,11.553    l34.133,17.067c1.189,0.609,2.504,0.931,3.84,0.939c3.284,0.014,6.284-1.858,7.715-4.814    C402.303,310.945,400.53,305.841,396.288,303.787z"/>
	</g>
</g>
<g>
</g>
<g>
</g>
<g>
</g>
<g>
</g>
<g>
</g>
<g>
</g>
<g>
</g>
<g>
</g>
<g>
</g>
<g>
</g>
<g>
</g>
<g>
</g>
<g>
</g>
<g>
</g>
<g>
</g>
</svg>
