<?xml version="1.0" encoding="UTF-8" standalone="no"?>
<svg
   xmlns:dc="http://purl.org/dc/elements/1.1/"
   xmlns:cc="http://creativecommons.org/ns#"
   xmlns:rdf="http://www.w3.org/1999/02/22-rdf-syntax-ns#"
   xmlns:svg="http://www.w3.org/2000/svg"
   xmlns="http://www.w3.org/2000/svg"
   xmlns:sodipodi="http://sodipodi.sourceforge.net/DTD/sodipodi-0.dtd"
   xmlns:inkscape="http://www.inkscape.org/namespaces/inkscape"
   inkscape:version="1.0 (4035a4fb49, 2020-05-01)"
   sodipodi:docname="034-radiator.svg"
   xml:space="preserve"
   style="enable-background:new 0 0 511.899 511.899;"
   viewBox="0 0 511.899 511.899"
   y="0px"
   x="0px"
   id="Layer_1"
   version="1.1"><metadata
   id="metadata109"><rdf:RDF><cc:Work
       rdf:about=""><dc:format>image/svg+xml</dc:format><dc:type
         rdf:resource="http://purl.org/dc/dcmitype/StillImage" /></cc:Work></rdf:RDF></metadata><defs
   id="defs107" /><sodipodi:namedview
   inkscape:current-layer="Layer_1"
   inkscape:window-maximized="1"
   inkscape:window-y="-9"
   inkscape:window-x="-9"
   inkscape:cy="207.65714"
   inkscape:cx="255.94949"
   inkscape:zoom="1.6565768"
   showgrid="false"
   id="namedview105"
   inkscape:window-height="1001"
   inkscape:window-width="1920"
   inkscape:pageshadow="2"
   inkscape:pageopacity="0"
   guidetolerance="10"
   gridtolerance="10"
   objecttolerance="10"
   borderopacity="1"
   bordercolor="#666666"
   pagecolor="#ffffff" />
<g
   id="g6">
	<g
   id="g4">
		<path
   d="m 118.28516,151.51367 c -10.85552,0.22574 -21.547867,4.61857 -29.43193,12.08281 -8.048136,7.49411 -13.146726,18.05618 -13.964929,29.02657 -0.272339,4.2079 -0.08465,8.42923 -0.140254,12.64297 0.0047,88.1652 -0.0095,176.33053 0.0071,264.49565 0.07394,10.76746 4.255131,21.42785 11.497761,29.3926 7.284404,8.12139 17.632361,13.41805 28.494461,14.50291 10.54854,1.13203 21.46855,-1.63924 30.15615,-7.74083 9.52931,-6.58171 16.32141,-16.99907 18.40899,-28.39893 0.84288,-4.14099 0.79826,-8.38049 0.76953,-12.585 -0.006,-55.60358 0.0119,-111.20742 -0.009,-166.81084 -0.11875,-4.42694 -3.35876,-8.5317 -7.63274,-9.68397 -4.04151,-1.2102 -8.70853,0.32631 -11.2365,3.70498 -1.67622,2.11071 -2.34828,4.86209 -2.18632,7.52382 -0.006,56.72195 0.0123,113.4441 -0.009,170.16594 -0.12187,7.30426 -3.91869,14.40279 -9.88447,18.60597 -6.33315,4.62455 -15.03429,5.67585 -22.31016,2.7771 -7.42479,-2.85745 -13.148669,-9.70697 -14.578098,-17.54113 -0.688103,-3.5489 -0.329053,-7.18205 -0.419186,-10.77117 0.0041,-89.04567 -0.0083,-178.09147 0.0062,-267.13706 0.05735,-7.15244 3.640662,-14.13707 9.357723,-18.41971 6.503,-5.00881 15.74774,-6.25608 23.28257,-2.93424 3.54929,10.67862 8.45615,20.90458 14.55469,30.36133 0.0104,20.08323 -0.0209,40.16724 0.0156,60.25 0.18219,4.40824 3.45226,8.457 7.72221,9.56429 4.15447,1.20696 8.93298,-0.49737 11.38506,-4.06185 1.53484,-2.08934 2.09393,-4.73568 1.94156,-7.29229 -0.0103,-20.69084 0.0206,-41.38244 -0.0154,-62.07282 -0.0415,-2.45892 -1.16677,-4.72947 -2.603,-6.66974 -3.35466,-5.05173 -6.28502,-10.38207 -8.7839,-15.90705 -0.24797,-0.55855 -0.62722,-1.41341 -0.91924,-2.09039 -1.12395,-2.64938 -2.15035,-5.33928 -3.08272,-8.06195 -0.1946,-0.61625 -0.5112,-1.53362 -0.7403,-2.27128 -0.58225,-2.08304 -1.25661,-4.22571 -2.76081,-5.84777 -1.72892,-1.95971 -4.1603,-3.07619 -6.42114,-4.29322 -6.32477,-3.14065 -13.41246,-4.69182 -20.47032,-4.5057 z"
   id="path2" />
	</g>
</g>
<g
   id="g12">
	<g
   id="g10">
		<path
   d="m 153.05859,288.04492 c -4.40999,0.13734 -8.48568,3.37144 -9.63685,7.62789 -0.68238,2.37059 -0.30669,4.86483 -0.40416,7.2936 0.006,55.66376 -0.0116,111.32767 0.009,166.99135 0.11962,11.02823 4.56068,21.92192 12.15788,29.9126 7.49025,8.00385 18.01982,13.07544 28.95646,13.88994 10.55551,0.86711 21.38272,-2.17015 29.90468,-8.46935 9.4094,-6.83175 15.96053,-17.47078 17.74301,-28.96897 0.85341,-5.05289 0.48181,-10.19242 0.56326,-15.28956 -0.007,-40.08415 0.0142,-80.16868 -0.0107,-120.25259 -0.12309,-4.42406 -3.36167,-8.52055 -7.6309,-9.67645 -4.04298,-1.20971 -8.71098,0.32572 -11.24048,3.70523 -1.67592,2.11091 -2.347,4.86211 -2.18632,7.52381 -0.005,42.51223 0.0104,85.02458 -0.008,127.53672 -0.13565,7.07085 -3.70088,13.94812 -9.35681,18.18205 -5.8684,4.52614 -13.93107,5.95201 -21.01075,3.79276 -7.73078,-2.25686 -14.03186,-8.75805 -16.04079,-16.55788 -1.09543,-3.83501 -0.71999,-7.85035 -0.78501,-11.78294 -0.006,-55.12715 0.0119,-110.25456 -0.009,-165.38155 -0.11875,-4.42694 -3.35876,-8.5317 -7.63274,-9.68397 -1.09531,-0.3169 -2.24311,-0.44279 -3.38181,-0.39269 z"
   id="path8" />
	</g>
</g>
<g
   id="g18">
	<g
   id="g16">
		<path
   id="path14"
   d="M224.206,242.929c-25.917-7.475-48.406-23.775-63.573-46.08c-1.589-2.365-4.253-3.78-7.102-3.774    c-4.713,0.011-8.525,3.84-8.514,8.552v62.805c0,4.713,3.821,8.533,8.533,8.533c4.713,0,8.533-3.82,8.533-8.533v-39.168    c14.374,14.488,31.894,25.467,51.2,32.085v41.216c0,4.713,3.82,8.533,8.533,8.533s8.533-3.82,8.533-8.533v-47.104    C230.506,247.544,227.971,244.023,224.206,242.929z" />
	</g>
</g>
<g
   id="g24">
	<g
   id="g22">
		<path
   d="m 221.32422,322.17773 c -4.40868,0.13957 -8.48525,3.3712 -9.6349,7.62789 -0.68865,2.40352 -0.30634,4.93174 -0.40612,7.3936 0.007,44.25412 -0.0132,88.50843 0.01,132.76243 0.12295,10.99216 4.53267,21.85223 12.0885,29.83356 7.63816,8.2033 18.46622,13.34064 29.66035,14.00763 10.681,0.73444 21.57899,-2.54657 30.05206,-9.09733 8.99426,-6.84104 15.22502,-17.20764 16.96131,-28.38134 0.85395,-5.05354 0.47905,-10.19395 0.56184,-15.29175 -0.007,-42.93915 0.013,-85.8786 -0.01,-128.81758 -0.13932,-4.41509 -3.37606,-8.50132 -7.64187,-9.64551 -4.07382,-1.2191 -8.7749,0.35947 -11.29172,3.78614 -1.63003,2.10237 -2.28317,4.81484 -2.12305,7.44375 -0.007,45.35466 0.013,90.70952 -0.01,136.06406 -0.13195,7.32327 -3.95938,14.43479 -9.95762,18.62521 -6.2998,4.56611 -14.91868,5.60469 -22.14903,2.76086 -7.4328,-2.82997 -13.18337,-9.65097 -14.64631,-17.47693 -0.7131,-3.5439 -0.34846,-7.17657 -0.43845,-10.76344 -0.007,-43.59801 0.013,-87.19631 -0.01,-130.79414 -0.13836,-4.41478 -3.37447,-8.50111 -7.63991,-9.64551 -1.0936,-0.31595 -2.23923,-0.4409 -3.37571,-0.3916 z"
   id="path20" />
	</g>
</g>
<g
   id="g30">
	<g
   id="g28">
		<path
   id="path26"
   d="M298.28,248.381c-1.323-4.523-6.063-7.117-10.586-5.794c-20.781,5.895-42.792,5.895-63.573,0    c-0.855-0.24-1.741-0.346-2.629-0.313c-4.71,0.176-8.385,4.136-8.209,8.846v38.912c0,4.713,3.82,8.533,8.533,8.533    s8.533-3.82,8.533-8.533v-28.075c16.907,3.3,34.293,3.3,51.2,0v36.608c0,4.713,3.82,8.533,8.533,8.533s8.533-3.82,8.533-8.533    v-47.445C298.654,250.195,298.54,249.27,298.28,248.381z" />
	</g>
</g>
<g
   id="g36">
	<g
   id="g34">
		<path
   d="m 347.81641,315.63281 c -0.005,51.41275 0.0104,102.82562 -0.008,154.23828 -0.13747,7.01188 -3.64003,13.83656 -9.22066,18.07458 -5.87745,4.60866 -14.01061,6.07446 -21.14499,3.90037 -7.66699,-2.23913 -13.93377,-8.64812 -15.99116,-16.36725 -0.95217,-3.20437 -0.85678,-6.57045 -0.83655,-9.87567 0,-44.96796 0,-89.93593 0,-134.9039 -7.02148,0 -14.04296,0 -21.06445,0 0.007,46.45282 -0.0132,92.90581 0.01,139.35853 0.14565,10.95914 4.55275,21.7784 12.08583,29.73617 7.49436,8.04837 18.05651,13.14753 29.02729,13.96622 10.55566,0.86541 21.38374,-2.16982 29.90467,-8.47114 9.3533,-6.79235 15.88589,-17.34498 17.70959,-28.76756 0.89844,-5.1488 0.513,-10.39197 0.59668,-15.58902 0,-49.09987 0,-98.19974 0,-147.29961 -7.02279,0 -14.04558,0 -21.06836,0 0,0.66667 0,1.33334 0,2 z"
   id="path32" />
	</g>
</g>
<g
   id="g42">
	<g
   id="g40">
		<path
   id="path38"
   d="M363.109,194.184c-3.912-2.629-9.214-1.589-11.842,2.323c-15.168,22.305-37.656,38.605-63.573,46.08    c-3.765,1.095-6.3,4.615-6.144,8.533v47.445c0,4.713,3.82,8.533,8.533,8.533s8.533-3.82,8.533-8.533v-41.131    c19.306-6.618,36.826-17.598,51.2-32.085v39.083c0,4.713,3.821,8.533,8.533,8.533c4.713,0,8.533-3.82,8.533-8.533v-63.147    C366.889,198.437,365.474,195.773,363.109,194.184z" />
	</g>
</g>
<g
   id="g48">
	<g
   id="g46">
		<path
   d="m 391.66211,151.83203 c -7.98016,0.1441 -15.94216,2.44759 -22.69038,6.7227 -2.19367,1.51264 -3.63018,3.91339 -4.26825,6.47143 -0.33202,1.08853 -0.77358,2.37537 -1.09606,3.32345 -0.3325,0.90958 -0.64407,1.82444 -0.95665,2.63068 -3.31517,8.84377 -7.79657,17.23456 -13.18791,24.98454 -1.35797,2.04477 -1.77309,4.54878 -1.64645,6.96408 0.0104,17.85433 -0.0209,35.70943 0.0156,53.56328 0.18233,4.40793 3.45312,8.4553 7.72221,9.56233 4.15248,1.20631 8.92937,-0.49551 11.3816,-4.05762 1.53752,-2.08939 2.09695,-4.73828 1.94697,-7.29651 0,-16.64232 0,-33.28463 0,-49.92695 6.1028,-9.44357 11.0087,-19.66207 14.54492,-30.33594 6.88989,-2.90885 15.14075,-2.22892 21.46875,1.75391 5.69351,3.51823 9.84912,9.50642 10.8813,16.14669 0.52481,3.21965 0.22089,6.49437 0.3023,9.73963 -0.005,89.25154 0.01,178.50319 -0.007,267.75465 -0.12234,7.33163 -3.94973,14.45619 -9.95383,18.6526 -6.42708,4.6654 -15.27346,5.64496 -22.59215,2.58976 -7.29167,-2.94519 -12.86662,-9.7553 -14.24768,-17.50485 -0.65823,-3.48206 -0.31041,-7.04164 -0.39815,-10.56091 -0.005,-54.9317 0.0107,-109.86368 -0.008,-164.7952 -0.0743,-4.46019 -3.32929,-8.61387 -7.63161,-9.77641 -4.07651,-1.22123 -8.78423,0.3536 -11.3018,3.78529 -1.63246,2.10116 -2.28063,4.81567 -2.125,7.44375 0.006,56.76376 -0.0116,113.52767 0.009,170.29135 0.12152,10.66768 4.27155,21.2129 11.42792,29.12164 7.2884,8.16242 17.66515,13.49029 28.56078,14.57757 10.54923,1.13274 21.46976,-1.63891 30.15808,-7.74062 9.52798,-6.58119 16.31909,-16.99682 18.40827,-28.39479 0.84345,-4.14229 0.79908,-8.38323 0.77025,-12.58914 -0.005,-89.70502 0.01,-179.41028 -0.007,-269.11514 -0.12793,-11.42423 -4.88103,-22.69985 -12.94729,-30.78728 -8.3188,-8.4643 -20.13983,-13.3133 -32.00038,-13.20099 -0.17709,0.001 -0.35417,0.002 -0.53126,0.003 z"
   id="path44" />
	</g>
</g>
<g
   id="g54">
	<g
   id="g52">
		<path
   d="m 50.666016,433.10938 c -4.412576,0.13761 -8.495584,3.37043 -9.644422,7.63186 -1.221809,4.07544 0.354982,8.78221 3.785047,11.29978 2.101952,1.63113 4.815245,2.2821 7.44375,2.12304 11.208105,-0.0105 22.416983,0.0209 33.624609,-0.0156 4.408025,-0.18181 8.456099,-3.45269 9.562335,-7.72221 1.204888,-4.1497 -0.492804,-8.92134 -4.049365,-11.37637 -2.091142,-1.54121 -4.743221,-2.103 -7.304767,-1.95025 -11.139022,0.007 -22.278347,-0.0131 -33.417187,0.01 z"
   id="path50" />
	</g>
</g>
<g
   id="g60">
	<g
   id="g58">
		<path
   d="m 460.26562,398.97656 c -4.41181,0.13725 -8.49666,3.37015 -9.64246,7.63186 -0.68454,2.36879 -0.30906,4.86231 -0.40636,7.28963 -0.0209,4.43993 0.0417,8.88224 -0.0312,13.3207 -0.2559,3.22468 -3.21325,5.9271 -6.45027,5.87783 -5.96937,0.0282 -11.94132,-0.0409 -17.90931,0.0339 -4.51297,0.26323 -8.57649,3.78189 -9.48758,8.2086 -0.9919,4.1671 0.89377,8.80757 4.50935,11.10372 2.03397,1.3839 4.54326,1.85718 6.96945,1.72124 5.76968,-0.0247 11.54124,0.0495 17.30976,-0.0371 7.98831,-0.36025 15.68682,-4.44943 20.50071,-10.82728 3.87959,-5.01821 5.86405,-11.40597 5.65554,-17.73522 -0.021,-5.6189 0.0417,-11.24018 -0.0309,-16.85762 -0.26219,-4.44608 -3.67746,-8.45478 -8.01576,-9.44419 -0.97024,-0.23628 -1.97343,-0.32805 -2.97093,-0.28608 z"
   id="path56" />
	</g>
</g>
<g
   id="g66">
	<g
   id="g64">
		<path
   d="m 267.21875,40.617188 c -2.3062,0.06618 -4.40999,1.120695 -6.32594,2.31922 -13.4626,7.894356 -24.14447,20.388367 -29.86451,34.907179 -2.4367,6.142655 -4.01115,12.627731 -4.65135,19.205241 -2.84229,0.326586 -5.12511,2.206637 -7.42997,3.729962 -11.3382,7.97115 -19.63473,20.13091 -22.91922,33.59584 -3.46591,13.8262 -1.62298,28.9101 5.14635,41.46223 6.78691,12.78441 18.50547,22.85618 32.18578,27.59696 12.14378,4.28851 25.71577,4.33742 37.89659,0.15951 13.04345,-4.40023 24.39448,-13.58765 31.39782,-25.44099 7.01055,-11.7013 9.64291,-25.91671 7.36873,-39.35979 -0.95718,-5.65117 -2.68298,-11.20065 -5.29468,-16.30893 -3.80461,-7.00677 -8.8335,-13.32144 -14.69461,-18.7178 -9.00379,-8.965319 -14.26117,-21.544057 -14.32834,-34.248607 -0.15226,-5.394887 0.74035,-10.778398 2.305,-15.931141 1.09047,-4.293533 -0.89963,-9.134211 -4.70544,-11.405239 -1.8074,-1.126136 -3.96112,-1.669804 -6.08621,-1.563645 z m -11.96094,37.326171 c 1.81836,14.252556 8.14417,27.884161 17.8711,38.460941 2.22541,2.49684 4.85247,4.6018 6.98658,7.18562 2.44608,2.8841 4.69778,5.97678 6.39337,9.36416 4.99135,10.91652 4.26594,24.25302 -1.95013,34.53222 -5.25583,8.89324 -14.37309,15.39476 -24.51185,17.40432 -9.76222,2.01601 -20.28838,-0.11244 -28.48789,-5.78401 -1.15305,-0.77813 -2.45219,-1.812 -3.37735,-2.60856 -0.49446,-0.43955 -0.78777,-0.70097 -1.22713,-1.1217 -7.29433,-6.84203 -11.56055,-16.74621 -11.58215,-26.74194 -0.0814,-7.89425 2.44743,-15.78681 7.11397,-22.15589 4.07741,8.29599 10.60085,15.36283 18.53515,20.10351 3.24816,2.97552 8.41114,3.50628 12.20704,1.2793 3.75551,-2.07564 5.93773,-6.59776 5.19702,-10.82837 -0.33812,-2.2647 -1.487,-4.36483 -3.10292,-5.96847 -6.21056,-9.4868 -9.00213,-21.13365 -7.80504,-32.406287 0.0554,-0.443033 0.10871,-1.001924 0.18462,-1.526108 0.96607,-7.177845 3.5183,-14.13868 7.43452,-20.231704 0.0404,0.347656 0.0807,0.695312 0.12109,1.042968 z"
   id="path62" />
	</g>
</g>
<g
   id="g72">
	<g
   id="g70">
		<path
   d="m 255.11133,-1.9941406 c -28.63008,0.24359 -57.10969,9.9036884 -79.9092,27.2376006 -20.10707,15.19231 -35.73129,36.19739 -44.58645,59.785147 -7.98275,21.084293 -10.51044,44.203243 -7.22273,66.509993 1.71378,11.61318 4.91134,23.0083 9.46505,33.8271 5.33022,12.60166 12.59662,24.39289 21.5823,34.71882 15.59449,18.08995 36.13845,31.84659 58.79165,39.40786 22.77065,7.64991 47.61165,9.01476 71.0882,3.93644 17.89324,-3.875 35.01345,-11.35468 49.91187,-22.0099 19.93671,-14.1627 35.86208,-33.89075 45.48808,-56.37232 10.29968,-23.8135 13.33429,-50.66887 8.76959,-76.1994 C 384.44139,85.926052 374.34784,64.088644 359.39337,46.241049 343.51612,27.193295 322.24091,12.729017 298.71574,4.9020027 284.69367,0.21390407 269.8968,-2.1340311 255.11133,-1.9941406 Z m 0.83398,20.9589846 c 6.14235,-0.01276 12.28473,0.468405 18.34961,1.441406 0.62153,0.106164 1.56111,0.258801 2.30644,0.397823 24.14521,4.347551 46.78837,16.791328 63.31838,35.017562 2.75785,3.019317 5.42474,6.300072 7.78924,9.531881 2.39653,3.281121 4.68697,6.808886 6.67579,10.251953 9.36602,16.201204 14.65982,34.743001 15.16406,53.455081 0.0608,2.21832 0.0557,4.74597 -0.0215,6.95703 -0.0922,2.73729 -0.30806,5.7074 -0.60351,8.42773 -1.19715,10.92372 -3.96143,21.68722 -8.36644,31.76195 -4.24588,9.85288 -9.98556,19.02837 -16.70381,27.37941 -12.78403,15.80014 -29.93492,28.00253 -49.03175,34.94966 -14.54807,5.32059 -30.19368,7.60594 -45.65581,6.66679 -0.57224,-0.038 -1.48478,-0.10512 -2.1875,-0.15429 -21.25687,-1.70047 -42.00269,-9.4954 -59.04496,-22.32798 -16.76026,-12.55194 -29.90769,-29.85074 -37.50658,-49.36293 -2.3049,-5.87699 -4.09564,-11.95188 -5.39182,-18.1294 -0.0976,-0.51595 -0.27173,-1.37383 -0.39865,-2.02084 -0.87301,-4.60957 -1.46722,-9.48049 -1.74979,-14.0319 -0.19714,-3.33681 -0.2631,-6.68168 -0.17774,-10.02344 0.0397,-1.40937 0.11049,-3.05313 0.20939,-4.55106 0.58574,-8.87938 2.21991,-17.689 4.86679,-26.185264 0.55841,-1.769741 1.21499,-3.725743 1.8903,-5.540736 1.87504,-5.067969 4.11886,-9.998833 6.69954,-14.746374 0.78035,-1.434665 1.70076,-3.03904 2.59016,-4.5084 1.53938,-2.538567 3.18084,-5.024493 4.87418,-7.382509 1.89903,-2.64905 3.91911,-5.218043 6.00043,-7.644661 3.98911,-4.666596 8.36172,-9.004369 13.05085,-12.966383 1.71833,-1.44445 3.61913,-2.966807 5.48328,-4.345202 3.16765,-2.356308 6.38925,-4.504048 9.82228,-6.541358 8.37464,-4.978002 17.59343,-8.942791 27.05976,-11.587955 5.72137,-1.603102 11.70237,-2.779215 17.67961,-3.457126 1.91358,-0.214754 3.83226,-0.382594 5.7539,-0.505859 1.34108,-0.08463 2.91625,-0.151218 4.34961,-0.191406 0.86734,-0.01702 1.95501,-0.03322 2.90625,-0.0332 z"
   id="path68" />
	</g>
</g>
<g
   id="g74">
</g>
<g
   id="g76">
</g>
<g
   id="g78">
</g>
<g
   id="g80">
</g>
<g
   id="g82">
</g>
<g
   id="g84">
</g>
<g
   id="g86">
</g>
<g
   id="g88">
</g>
<g
   id="g90">
</g>
<g
   id="g92">
</g>
<g
   id="g94">
</g>
<g
   id="g96">
</g>
<g
   id="g98">
</g>
<g
   id="g100">
</g>
<g
   id="g102">
</g>
</svg>
