<?xml version="1.0" encoding="UTF-8" standalone="no"?>
<svg
   xmlns:dc="http://purl.org/dc/elements/1.1/"
   xmlns:cc="http://creativecommons.org/ns#"
   xmlns:rdf="http://www.w3.org/1999/02/22-rdf-syntax-ns#"
   xmlns:svg="http://www.w3.org/2000/svg"
   xmlns="http://www.w3.org/2000/svg"
   xmlns:sodipodi="http://sodipodi.sourceforge.net/DTD/sodipodi-0.dtd"
   xmlns:inkscape="http://www.inkscape.org/namespaces/inkscape"
   version="1.1"
   id="Layer_1"
   x="0px"
   y="0px"
   viewBox="0 0 512 512"
   style="enable-background:new 0 0 512 512;"
   xml:space="preserve"
   sodipodi:docname="073-temperature-inner.svg"
   inkscape:version="1.0.1 (3bc2e813f5, 2020-09-07)"><metadata
   id="metadata85"><rdf:RDF><cc:Work
       rdf:about=""><dc:format>image/svg+xml</dc:format><dc:type
         rdf:resource="http://purl.org/dc/dcmitype/StillImage" /><dc:title></dc:title></cc:Work></rdf:RDF></metadata><defs
   id="defs83" /><sodipodi:namedview
   pagecolor="#ffffff"
   bordercolor="#666666"
   borderopacity="1"
   objecttolerance="10"
   gridtolerance="10"
   guidetolerance="10"
   inkscape:pageopacity="0"
   inkscape:pageshadow="2"
   inkscape:window-width="1920"
   inkscape:window-height="1001"
   id="namedview81"
   showgrid="false"
   inkscape:zoom="1.1711456"
   inkscape:cx="304.29836"
   inkscape:cy="237.12375"
   inkscape:window-x="-9"
   inkscape:window-y="-9"
   inkscape:window-maximized="1"
   inkscape:current-layer="Layer_1" />








<g
   id="g50">
</g>
<g
   id="g52">
</g>
<g
   id="g54">
</g>
<g
   id="g56">
</g>
<g
   id="g58">
</g>
<g
   id="g60">
</g>
<g
   id="g62">
</g>
<g
   id="g64">
</g>
<g
   id="g66">
</g>
<g
   id="g68">
</g>
<g
   id="g70">
</g>
<g
   id="g72">
</g>
<g
   id="g74">
</g>
<g
   id="g76">
</g>
<g
   id="g78">
</g>
<path
   d="m 241.18432,493.6381 c -50.98398,-6.60161 -91.99231,-45.14767 -102.26537,-96.12501 -2.14474,-10.64271 -2.09828,-33.66751 0.0893,-44.26373 7.01527,-33.98025 27.23725,-62.81354 55.99058,-79.8335 4.8226,-2.85464 8.29923,-5.53589 9.04295,-6.97409 1.02161,-1.97557 1.20824,-17.81624 1.20824,-102.55117 0,-67.383236 0.29899,-101.874548 0.91265,-105.281236 2.26956,-12.59952 12.52662,-27.113383 23.96578,-33.911874 15.69472,-9.327649 34.95922,-9.475687 51.11554,-0.392799 7.1654,4.028306 16.27064,13.700894 19.96624,21.210353 5.82971,11.845995 5.61708,7.38031 5.64747,118.603266 0.0213,77.90754 0.26312,100.78607 1.08215,102.37384 0.58011,1.1246 4.41011,4.06401 8.5111,6.53203 10.03635,6.03996 16.83488,11.57576 26.03549,21.19977 15.86838,16.59861 25.96479,36.33657 30.68464,59.98687 2.25583,11.30348 2.05164,32.90565 -0.42018,44.45425 -7.31406,34.1721 -28.0165,63.07915 -57.08795,79.71256 -22.68974,12.98208 -49.55797,18.48731 -74.47865,15.26047 z"
   id="path918" /></svg>
