<?xml version="1.0" encoding="UTF-8" standalone="no"?>
<svg
   xmlns:dc="http://purl.org/dc/elements/1.1/"
   xmlns:cc="http://creativecommons.org/ns#"
   xmlns:rdf="http://www.w3.org/1999/02/22-rdf-syntax-ns#"
   xmlns:svg="http://www.w3.org/2000/svg"
   xmlns="http://www.w3.org/2000/svg"
   xmlns:sodipodi="http://sodipodi.sourceforge.net/DTD/sodipodi-0.dtd"
   xmlns:inkscape="http://www.inkscape.org/namespaces/inkscape"
   inkscape:version="1.0 (4035a4fb49, 2020-05-01)"
   height="264.43372"
   width="264.56833"
   sodipodi:docname="903-flame.svg"
   xml:space="preserve"
   viewBox="0 0 264.56834 264.43372"
   y="0px"
   x="0px"
   id="Layer_1"
   version="1.1"><metadata
   id="metadata109"><rdf:RDF><cc:Work
       rdf:about=""><dc:format>image/svg+xml</dc:format><dc:type
         rdf:resource="http://purl.org/dc/dcmitype/StillImage" /><dc:title></dc:title></cc:Work></rdf:RDF></metadata><defs
   id="defs107" /><sodipodi:namedview
   inkscape:current-layer="Layer_1"
   inkscape:window-maximized="1"
   inkscape:window-y="-9"
   inkscape:window-x="-9"
   inkscape:cy="269.85278"
   inkscape:cx="204.94186"
   inkscape:zoom="1.1713767"
   showgrid="false"
   id="namedview105"
   inkscape:window-height="1001"
   inkscape:window-width="1920"
   inkscape:pageshadow="2"
   inkscape:pageopacity="0"
   guidetolerance="10"
   gridtolerance="10"
   objecttolerance="10"
   borderopacity="1"
   bordercolor="#666666"
   pagecolor="#ffffff" />










<g
   transform="translate(-123.98969,3.1404133e-4)"
   id="g66">
	<g
   id="g64">
		<path
   id="path62"
   d="m 303.31,124.059 c -3.718,-6.973 -8.595,-13.264 -14.421,-18.603 C 279.117,95.787 273.643,82.595 273.7,68.848 v -1.877 c 0.158,-4.515 0.904,-8.99 2.219,-13.312 0.686,-2.219 0.437,-4.623 -0.688,-6.655 -2.284,-4.123 -7.477,-5.613 -11.6,-3.329 -20.398,11.255 -33.722,32.06 -35.413,55.296 -1.652,-0.112 -3.296,0.306 -4.693,1.195 -16.858,10.179 -27.176,28.424 -27.21,48.116 -0.054,31.105 25.118,56.363 56.223,56.417 23.851,-0.035 45.103,-15.068 53.077,-37.547 4.964,-14.103 4.135,-29.599 -2.305,-43.093 z m -11.52,24.491 c -0.047,21.632 -17.621,39.13 -39.253,39.082 -9.444,-0.02 -18.564,-3.444 -25.687,-9.644 -16.33,-14.214 -18.064,-38.959 -3.894,-55.312 3.834,9.319 10.591,17.142 19.256,22.29 3.464,3.205 8.87,2.995 12.075,-0.469 3.205,-3.464 2.995,-8.87 -0.469,-12.075 -11.042,-16.765 -11.441,-38.391 -1.024,-55.552 1.187,-1.959 2.498,-3.84 3.925,-5.632 0.583,17.393 7.787,33.906 20.139,46.165 4.433,3.999 8.181,8.698 11.093,13.909 2.562,5.323 3.875,11.16 3.84,17.067 -10e-4,0.057 -10e-4,0.114 -10e-4,0.171 z" />
	</g>
</g>
<g
   transform="translate(-123.98969,3.1404133e-4)"
   id="g72">
	<g
   id="g70">
		<path
   id="path68"
   d="M 383.182,94.975 C 362.567,24.895 289.045,-15.204 218.965,5.41 148.885,26.024 108.786,99.547 129.4,169.627 c 3.757,13.067 9.514,25.473 17.067,36.779 24.586,36.332 65.614,58.077 109.483,58.027 12.355,0.031 24.652,-1.693 36.523,-5.12 43.59,-12.405 77.81,-46.239 90.709,-89.685 7.168,-24.369 7.168,-50.285 0,-74.653 z m -16.299,69.788 c -3.47,11.44 -8.711,22.266 -15.531,32.085 -27.958,41.239 -79.259,59.831 -127.147,46.08 -49.475,-14.144 -83.57,-59.385 -83.535,-110.842 0.044,-63.623 51.656,-115.165 115.279,-115.121 11.115,-0.032 22.176,1.544 32.84,4.679 61.086,17.957 96.05,82.033 78.094,143.119 z" />
	</g>
</g>
<g
   transform="translate(-123.98968,-81.100838)"
   id="g74">
</g>
<g
   transform="translate(-123.98968,-81.100838)"
   id="g76">
</g>
<g
   transform="translate(-123.98968,-81.100838)"
   id="g78">
</g>
<g
   transform="translate(-123.98968,-81.100838)"
   id="g80">
</g>
<g
   transform="translate(-123.98968,-81.100838)"
   id="g82">
</g>
<g
   transform="translate(-123.98968,-81.100838)"
   id="g84">
</g>
<g
   transform="translate(-123.98968,-81.100838)"
   id="g86">
</g>
<g
   transform="translate(-123.98968,-81.100838)"
   id="g88">
</g>
<g
   transform="translate(-123.98968,-81.100838)"
   id="g90">
</g>
<g
   transform="translate(-123.98968,-81.100838)"
   id="g92">
</g>
<g
   transform="translate(-123.98968,-81.100838)"
   id="g94">
</g>
<g
   transform="translate(-123.98968,-81.100838)"
   id="g96">
</g>
<g
   transform="translate(-123.98968,-81.100838)"
   id="g98">
</g>
<g
   transform="translate(-123.98968,-81.100838)"
   id="g100">
</g>
<g
   transform="translate(-123.98968,-81.100838)"
   id="g102">
</g>
</svg>
