<?xml version="1.0" encoding="UTF-8" standalone="no"?>
<svg
   xmlns:dc="http://purl.org/dc/elements/1.1/"
   xmlns:cc="http://creativecommons.org/ns#"
   xmlns:rdf="http://www.w3.org/1999/02/22-rdf-syntax-ns#"
   xmlns:svg="http://www.w3.org/2000/svg"
   xmlns="http://www.w3.org/2000/svg"
   xmlns:sodipodi="http://sodipodi.sourceforge.net/DTD/sodipodi-0.dtd"
   xmlns:inkscape="http://www.inkscape.org/namespaces/inkscape"
   inkscape:version="1.0 (4035a4fb49, 2020-05-01)"
   sodipodi:docname="904-tap.svg"
   xml:space="preserve"
   style="enable-background:new 0 0 469.333 469.333;"
   viewBox="0 0 469.333 469.333"
   y="0px"
   x="0px"
   id="Layer_1"
   version="1.1"><metadata
   id="metadata73"><rdf:RDF><cc:Work
       rdf:about=""><dc:format>image/svg+xml</dc:format><dc:type
         rdf:resource="http://purl.org/dc/dcmitype/StillImage" /><dc:title></dc:title></cc:Work></rdf:RDF></metadata><defs
   id="defs71">
		
	</defs><sodipodi:namedview
   inkscape:current-layer="Layer_1"
   inkscape:window-maximized="1"
   inkscape:window-y="-9"
   inkscape:window-x="-9"
   inkscape:cy="384.85099"
   inkscape:cx="-158.10624"
   inkscape:zoom="0.63880714"
   showgrid="false"
   id="namedview69"
   inkscape:window-height="1001"
   inkscape:window-width="1920"
   inkscape:pageshadow="2"
   inkscape:pageopacity="0"
   guidetolerance="10"
   gridtolerance="10"
   objecttolerance="10"
   borderopacity="1"
   bordercolor="#666666"
   pagecolor="#ffffff" />
<g
   style="stroke-width:1.3;stroke-miterlimit:4;stroke-dasharray:none"
   id="g6">
	<path
   d="m 271.79297,172.37891 c -23.90302,0.22552 -47.71068,7.16763 -67.93845,19.91771 -13.15343,8.25534 -24.77958,18.92043 -34.17679,31.2815 -14.68832,0.0147 -29.37702,-0.0294 -44.06512,0.0222 -23.01631,0.35594 -45.95634,6.54939 -65.880645,18.11207 -20.042087,11.57072 -37.033955,28.57336 -47.989592,49.00712 -8.9070916,16.50409 -13.7202964,35.21041 -13.7402022,53.97263 0.010479,8.9775 -0.031879,17.95583 0.021267,26.93284 0.2778566,6.39361 4.0411938,12.48658 9.630949,15.6004 3.2546325,1.89738 7.0705555,2.64848 10.8120195,2.48749 16.84986,-0.0115 33.700281,0.0229 50.54979,-0.0171 6.509298,-0.19119 12.742168,-4.0224 15.880062,-9.72398 1.861756,-3.23603 2.596112,-7.01713 2.437726,-10.72529 0.01842,-8.45011 -0.03692,-16.90152 0.02779,-25.35084 0.272655,-7.06835 3.692351,-13.75428 8.664897,-18.68696 3.330231,-3.3447 7.319626,-5.99565 11.598326,-7.96845 0.4226,-0.18522 1.17504,-0.52524 1.73242,-0.75 1.79468,-0.73279 3.63507,-1.35182 5.50586,-1.85937 0.39241,-0.10567 1.1588,-0.29999 1.69803,-0.42415 4.66454,-1.12003 9.48019,-1.38711 14.26213,-1.2946 4.12982,0 8.25963,0 12.38945,0 1.68998,21.31776 8.76239,42.18305 20.42225,60.112 13.34099,20.63534 32.65171,37.34901 55.00092,47.5655 17.48374,8.0507 36.78199,12.06366 56.02214,11.78344 21.40864,-0.17734 42.74932,-5.75812 61.47575,-16.1414 21.93859,-12.07959 40.24588,-30.64053 51.99423,-52.76037 8.33483,-15.60003 13.38415,-32.93135 14.79565,-50.55917 16.69738,-0.0114 33.39533,0.0228 50.09237,-0.0171 6.54413,-0.18766 12.80277,-4.0628 15.92912,-9.80808 1.8314,-3.21641 2.54328,-6.9656 2.39062,-10.64122 -0.0107,-16.81717 0.0213,-33.63492 -0.016,-50.45174 -0.15568,-6.54431 -3.99814,-12.82263 -9.72708,-15.97811 -3.23584,-1.86243 -7.01754,-2.59291 -10.72528,-2.43773 -24.80352,0 -49.60703,10e-6 -74.41055,0 -16.00397,-21.06551 -38.59649,-37.04104 -63.80966,-45.06122 -13.17303,-4.21744 -27.02506,-6.28381 -40.8544,-6.13799 z m 0.83203,21.14843 c 4.77497,-0.0169 9.68425,0.29802 14.33594,0.89844 16.51071,2.11749 32.51968,8.0605 46.38672,17.27344 0.7521,0.50658 1.75279,1.18377 2.50401,1.71576 3.65918,2.57385 7.20458,5.42934 10.45756,8.38971 6.19324,5.61262 11.68272,11.97857 16.46225,18.83008 2.11828,2.73496 5.62194,4.22454 9.05782,4.00976 26.14544,0 52.29088,0 78.43632,0 0,15.73373 10e-6,31.46745 0,47.20117 -19.44065,0.0104 -38.88208,-0.0209 -58.32226,0.0156 -4.40848,0.18132 -8.4571,3.45235 -9.56429,7.72221 -0.60771,2.11566 -0.29043,4.39957 -0.44117,6.49568 -0.0666,2.07935 -0.19327,4.01237 -0.36954,6.07508 -0.123,1.36466 -0.29427,2.96137 -0.48488,4.41066 -1.42469,11.01123 -4.56232,21.79814 -9.26317,31.85692 -0.75847,1.62918 -1.65381,3.42481 -2.53856,5.08107 -3.02222,5.67522 -6.54985,11.08027 -10.52003,16.13767 -7.30582,9.29651 -16.2581,17.53014 -26.22808,24.02054 -14.43126,9.4559 -31.30041,15.42459 -48.53742,17.10783 -1.6742,0.16637 -3.21335,0.28343 -4.81668,0.37134 -2.96071,0.16746 -5.83901,0.20539 -8.83281,0.13706 -1.56781,-0.038 -3.39586,-0.12211 -4.96303,-0.23591 -3.79157,-0.25788 -7.78256,-0.74949 -11.61222,-1.43406 -19.84974,-3.51402 -38.62414,-12.74998 -53.57624,-26.26241 -2.55144,-2.29852 -5.00957,-4.72999 -7.28978,-7.2116 -7.56645,-8.19838 -13.90388,-17.66667 -18.59101,-27.71544 -2.25845,-4.83124 -4.15135,-9.83182 -5.67773,-14.94141 -0.1805,-0.64168 -0.41546,-1.41968 -0.60854,-2.13461 -1.73033,-6.28278 -2.88399,-12.72253 -3.46373,-19.21304 -0.0483,-0.66194 -0.12319,-1.44161 -0.1676,-2.15349 -0.20074,-2.7578 -0.24762,-5.39101 -0.27576,-8.13362 -0.15673,-4.42869 -3.43605,-8.50385 -7.7221,-9.61934 -2.34416,-0.64388 -4.80075,-0.28134 -7.19743,-0.37676 -7.76877,0.0221 -15.53871,-0.0447 -23.30675,0.0341 -15.02899,0.40271 -30.058588,5.68247 -41.507095,15.5357 -8.379074,7.1723 -14.721542,16.91747 -17.05344,27.76146 -0.959266,4.18313 -1.144599,8.49083 -1.066697,12.76791 0,6.89987 0,13.79974 0,20.69961 -15.733724,0 -31.467448,0 -47.201172,0 0.02201,-8.7019 -0.04492,-17.40459 0.03514,-26.10598 0.04901,-1.83217 0.161369,-3.89588 0.337712,-5.81185 0.535616,-6.06776 1.684514,-12.0793 3.398635,-17.92397 0.39594,-1.34861 0.890319,-2.90461 1.384735,-4.31653 0.791512,-2.2927 1.715069,-4.62769 2.62104,-6.71182 1.465369,-3.37591 3.254218,-6.91866 5.189806,-10.2159 6.144678,-10.52019 14.258467,-19.85747 23.677466,-27.57215 7.461978,-6.11122 15.905333,-11.31878 24.777762,-15.28444 2.90895,-1.30186 5.854247,-2.48156 8.786691,-3.50658 11.088589,-3.90308 22.778109,-6.06531 34.523439,-6.47656 2.38467,-0.0875 4.95764,-0.075 7.41484,-0.0742 14.84536,-0.0117 29.69141,0.0235 44.53633,-0.0176 3.41106,-0.18609 6.58859,-2.17387 8.38538,-5.05789 12.98823,-18.44266 31.86893,-32.64168 53.1813,-40.0267 3.82893,-1.34347 7.96426,-2.504 11.75754,-3.36072 3.9199,-0.87921 7.82915,-1.53807 11.85725,-1.98712 2.1209,-0.23319 4.00962,-0.3905 6.14117,-0.50652 1.89728,-0.10399 3.64138,-0.14811 5.55236,-0.16066 z"
   style="stroke:none;stroke-width:1.3;stroke-miterlimit:4;stroke-dasharray:none"
   id="path2" />
</g>
<g
   style="stroke-width:1.3;stroke-miterlimit:4;stroke-dasharray:none"
   id="g12">
	<g
   style="stroke-width:1.3;stroke-miterlimit:4;stroke-dasharray:none"
   id="g10">
		<path
   d="m 229.9082,138.25586 c -4.37506,0.14156 -8.4237,3.32008 -9.60944,7.53172 -0.72383,2.43045 -0.33021,4.99576 -0.43157,7.48976 0,13.38933 0,26.77865 0,40.16797 7.02213,0 14.04427,0 21.0664,0 0,-11.3776 0,-22.75521 0,-34.13281 18.57813,0 37.15625,0 55.73438,0 0,11.3776 0,22.75521 0,34.13281 7.02213,0 14.04427,0 21.06641,0 -0.0118,-15.08582 0.0235,-30.17257 -0.0176,-45.25781 -0.18138,-4.4088 -3.45276,-8.45601 -7.72221,-9.56429 -2.37606,-0.65061 -4.86629,-0.28136 -7.29537,-0.37907 -24.26362,0.008 -48.52766,-0.0156 -72.79102,0.0117 z"
   style="stroke-width:1.3;stroke-miterlimit:4;stroke-dasharray:none"
   id="path8" />
	</g>
</g>
<g
   style="stroke-width:1.3;stroke-miterlimit:4;stroke-dasharray:none"
   id="g18">
	<g
   style="stroke-width:1.3;stroke-miterlimit:4;stroke-dasharray:none"
   id="g16">
		<path
   d="m 268.00391,36.962891 c -8.55563,0.165712 -16.94494,3.995519 -22.69639,10.327414 -5.4741,5.916467 -8.52894,13.972336 -8.37393,22.030007 0,24.307943 0,48.615888 0,72.923828 7.02214,0 14.04427,0 21.06641,0 0.009,-24.62357 -0.0187,-49.247657 0.014,-73.870897 0.10661,-4.667809 3.62724,-8.965111 8.16545,-10.03052 4.22,-1.108484 8.99219,0.660984 11.45325,4.267094 1.56403,2.14026 2.11598,4.845695 1.9669,7.457371 0,24.058984 0,48.117972 0,72.176952 7.02279,0 14.04557,0 21.06836,0 -0.008,-24.75646 0.0156,-49.513294 -0.0117,-74.269531 -0.17887,-8.727727 -4.18153,-17.272841 -10.74452,-23.023287 -5.95811,-5.31377 -13.92759,-8.215999 -21.90782,-7.988431 z"
   style="stroke-width:1.3;stroke-miterlimit:4;stroke-dasharray:none"
   id="path14" />
	</g>
</g>
<g
   style="stroke-width:1.3;stroke-miterlimit:4;stroke-dasharray:none"
   id="g24">
	<g
   style="stroke-width:1.3;stroke-miterlimit:4;stroke-dasharray:none"
   id="g22">
		<path
   d="m 169.54102,52.925781 c -10.56663,0.220878 -20.97918,4.383847 -28.79805,11.492033 -8.32845,7.467992 -13.67963,18.162637 -14.57624,29.32047 -0.92869,10.391916 1.93872,21.070456 7.98805,29.575966 6.59074,9.39865 16.92518,16.08857 28.22405,18.1616 6.91313,1.32913 14.05168,0.77737 20.91119,-0.59855 11.42914,-2.35456 22.19359,-7.83537 30.8174,-15.69761 11.31694,-0.0118 22.63482,0.0235 33.95117,-0.0176 4.41061,-0.18086 8.46068,-3.45608 9.56532,-7.72833 0.64687,-2.37418 0.27823,-4.86096 0.37609,-7.2873 -0.0118,-10.0754 0.0235,-20.151739 -0.0176,-30.226558 -0.17909,-4.407827 -3.45121,-8.45282 -7.7182,-9.562701 -2.37713,-0.649856 -4.86764,-0.281154 -7.29742,-0.378705 -9.61979,0 -19.23959,0 -28.85938,0 -10.94013,-10.00049 -25.36229,-16.082056 -40.15813,-16.946503 -1.46743,-0.08668 -2.93815,-0.140615 -4.40827,-0.106232 z m 1.11914,21.052735 c 6.53287,0.08766 12.9649,1.849453 18.90647,4.496995 3.44386,1.622613 6.93196,3.503187 9.41893,6.458167 0.96292,1.45238 1.91104,2.971142 3.36796,3.99015 2.11065,1.636725 4.83418,2.277355 7.47109,2.123047 9.03633,0 18.07266,0 27.10898,0 0,4.354818 0,8.709635 0,13.064455 -9.60729,0.0144 -19.21561,-0.0288 -28.82226,0.0215 -3.55243,0.19302 -6.8691,2.34182 -8.58792,5.44255 -1.90641,2.71161 -4.84064,4.46266 -7.7022,6.01518 -5.93587,3.0324 -12.45611,5.01332 -19.11418,5.52079 -5.70015,0.46625 -11.55501,-1.14652 -16.12982,-4.59903 -5.71963,-4.21975 -9.35234,-11.12485 -9.50086,-18.240441 -0.26072,-7.067019 2.90236,-14.141951 8.32112,-18.680621 4.20961,-3.611742 9.71663,-5.631929 15.26269,-5.612722 z"
   style="stroke-width:1.3;stroke-miterlimit:4;stroke-dasharray:none"
   id="path20" />
	</g>
</g>
<g
   style="stroke-width:1.3;stroke-miterlimit:4;stroke-dasharray:none"
   id="g30">
	<g
   style="stroke-width:1.3;stroke-miterlimit:4;stroke-dasharray:none"
   id="g28">
		<path
   d="m 365.4043,52.945312 c -14.06883,0.456873 -27.93229,5.598437 -38.88488,14.443149 -1.03334,0.834281 -2.0483,1.692263 -3.02723,2.590055 -11.31694,0.01177 -22.63482,-0.02351 -33.95117,0.01758 -4.40729,0.181097 -8.45351,3.450322 -9.56271,7.718197 -0.64936,2.377227 -0.28148,4.867587 -0.3787,7.297428 0.0118,10.074751 -0.0235,20.150441 0.0176,30.224611 0.1806,4.37373 3.39946,8.3927 7.62202,9.53724 2.3709,0.68098 4.86492,0.30735 7.2936,0.40416 9.65248,0 19.30495,0 28.95742,0 10.91717,9.97896 25.30144,16.05564 40.06436,16.94183 9.52882,0.73208 19.27256,-1.67038 27.32413,-6.83047 9.68594,-6.1203 16.85368,-16.09401 19.48723,-27.25215 2.64804,-10.916744 0.99796,-22.814721 -4.60822,-32.55864 -5.80295,-10.246611 -15.80708,-18.02419 -27.20018,-21.033479 -4.27474,-1.156075 -8.72816,-1.659145 -13.15325,-1.499509 z m 1.62304,21.033204 c 7.22204,-0.05762 14.33689,3.473118 18.69916,9.220993 4.63632,5.904264 6.09288,14.089894 3.87597,21.250211 -2.27436,7.6554 -8.70808,13.89408 -16.43514,15.91921 -5.5277,1.51739 -11.37709,0.66893 -16.83108,-0.74484 -5.31001,-1.45836 -10.53821,-3.55106 -14.99899,-6.83025 -1.55481,-1.13349 -2.88162,-2.56176 -3.83534,-4.23518 -2.05844,-2.98411 -5.72734,-4.66584 -9.32692,-4.44733 -9.16901,0 -18.33802,0 -27.50703,0 0,-4.355471 0,-8.710939 0,-13.066408 9.63336,-0.0131 19.26753,0.02615 28.90039,-0.01953 3.55451,-0.194911 6.87702,-2.340801 8.59549,-5.446616 1.90537,-2.710271 4.83865,-4.459034 7.69842,-6.011334 5.79492,-2.964838 12.15044,-4.91552 18.64406,-5.484015 0.83838,-0.06984 1.67991,-0.09896 2.52101,-0.10491 z"
   style="stroke-width:1.3;stroke-miterlimit:4;stroke-dasharray:none"
   id="path26" />
	</g>
</g>
<g
   style="stroke-width:1.3;stroke-miterlimit:4;stroke-dasharray:none"
   id="g36">
	<g
   style="stroke-width:1.3;stroke-miterlimit:4;stroke-dasharray:none"
   id="g34">
		
	</g>
</g>
<g
   style="stroke-width:1.3;stroke-miterlimit:4;stroke-dasharray:none"
   id="g38">
</g>
<g
   style="stroke-width:1.3;stroke-miterlimit:4;stroke-dasharray:none"
   id="g40">
</g>
<g
   style="stroke-width:1.3;stroke-miterlimit:4;stroke-dasharray:none"
   id="g42">
</g>
<g
   style="stroke-width:1.3;stroke-miterlimit:4;stroke-dasharray:none"
   id="g44">
</g>
<g
   style="stroke-width:1.3;stroke-miterlimit:4;stroke-dasharray:none"
   id="g46">
</g>
<g
   style="stroke-width:1.3;stroke-miterlimit:4;stroke-dasharray:none"
   id="g48">
</g>
<g
   style="stroke-width:1.3;stroke-miterlimit:4;stroke-dasharray:none"
   id="g50">
</g>
<g
   style="stroke-width:1.3;stroke-miterlimit:4;stroke-dasharray:none"
   id="g52">
</g>
<g
   style="stroke-width:1.3;stroke-miterlimit:4;stroke-dasharray:none"
   id="g54">
</g>
<g
   style="stroke-width:1.3;stroke-miterlimit:4;stroke-dasharray:none"
   id="g56">
</g>
<g
   style="stroke-width:1.3;stroke-miterlimit:4;stroke-dasharray:none"
   id="g58">
</g>
<g
   style="stroke-width:1.3;stroke-miterlimit:4;stroke-dasharray:none"
   id="g60">
</g>
<g
   style="stroke-width:1.3;stroke-miterlimit:4;stroke-dasharray:none"
   id="g62">
</g>
<g
   style="stroke-width:1.3;stroke-miterlimit:4;stroke-dasharray:none"
   id="g64">
</g>
<g
   style="stroke-width:1.3;stroke-miterlimit:4;stroke-dasharray:none"
   id="g66">
</g>
</svg>
