<?xml version="1.0" encoding="UTF-8" standalone="no"?>
<!-- Generator: Adobe Illustrator 26.0.3, SVG Export Plug-In . SVG Version: 6.00 Build 0)  -->

<svg
   version="1.0"
   id="katman_1"
   x="0px"
   y="0px"
   viewBox="0 0 286.414 310.79999"
   xml:space="preserve"
   sodipodi:docname="call-center.svg"
   width="286.414"
   height="310.79999"
   inkscape:version="1.2-alpha1 (b6a15bbbed, 2022-02-23)"
   xmlns:inkscape="http://www.inkscape.org/namespaces/inkscape"
   xmlns:sodipodi="http://sodipodi.sourceforge.net/DTD/sodipodi-0.dtd"
   xmlns="http://www.w3.org/2000/svg"
   xmlns:svg="http://www.w3.org/2000/svg"><defs
   id="defs37" /><sodipodi:namedview
   id="namedview35"
   pagecolor="#ffffff"
   bordercolor="#000000"
   borderopacity="0.25"
   inkscape:pageshadow="2"
   inkscape:pageopacity="0.0"
   inkscape:pagecheckerboard="0"
   inkscape:deskcolor="#d1d1d1"
   showgrid="false"
   inkscape:zoom="1.7866667"
   inkscape:cx="87.593284"
   inkscape:cy="154.75746"
   inkscape:window-width="1920"
   inkscape:window-height="991"
   inkscape:window-x="-9"
   inkscape:window-y="-9"
   inkscape:window-maximized="1"
   inkscape:current-layer="katman_1" />
<style
   type="text/css"
   id="style2">
	.st0{fill:#010202;}
</style>
<g
   id="g24"
   transform="translate(-156.92901,-70)"
   style="stroke-width:2;stroke-miterlimit:4;stroke-dasharray:none">
	<g
   id="g6"
   style="stroke-width:2;stroke-miterlimit:4;stroke-dasharray:none">
		<path
   class="st0"
   d="m 300.1,268.7 c -47.9,0 -86.9,-39 -86.9,-86.9 0,-47.9 39,-86.9 86.9,-86.9 47.9,0 86.9,39 86.9,86.9 0,48 -39,86.9 -86.9,86.9 z m 0,-162.9 c -41.9,0 -76,34.1 -76,76 0,41.9 34.1,76 76,76 41.9,0 76,-34.1 76,-76 0,-41.9 -34.1,-76 -76,-76 z"
   id="path4"
   style="stroke-width:2;stroke-miterlimit:4;stroke-dasharray:none" />
	</g>
	<g
   id="g10"
   style="stroke-width:2;stroke-miterlimit:4;stroke-dasharray:none">
		<path
   class="st0"
   d="m 381.3,193.1 c -9,0 -21.9,-4.7 -32.5,-26.9 -3.1,-6.5 -5.3,-12.9 -6.6,-17.6 -12.8,7.1 -27.3,10.9 -42.1,10.9 -14.8,0 -29.3,-3.7 -42.1,-10.9 -1.4,4.7 -3.5,11.1 -6.6,17.6 -10.6,22.2 -23.5,26.9 -32.5,26.9 -3,0 -5.4,-2.4 -5.4,-5.4 0,-3 2.4,-5.4 5.4,-5.4 21,0 30.3,-42.7 30.4,-43.2 0.4,-1.8 1.6,-3.3 3.3,-3.9 1.7,-0.7 3.6,-0.5 5.1,0.5 12.6,8.5 27.3,13 42.5,13 15.2,0 29.9,-4.5 42.5,-13 1.5,-1 3.4,-1.2 5.1,-0.5 1.7,0.7 2.9,2.2 3.3,3.9 2.5,12 12.7,43.2 30.4,43.2 3,0 5.4,2.4 5.4,5.4 -0.1,2.9 -2.6,5.4 -5.6,5.4 z"
   id="path8"
   style="stroke-width:2;stroke-miterlimit:4;stroke-dasharray:none" />
	</g>
	<g
   id="g14"
   style="stroke-width:2;stroke-miterlimit:4;stroke-dasharray:none">
		<path
   class="st0"
   d="M 417.3,380.8 H 182.9 c -7.8,0 -15.1,-3.7 -20.1,-10.3 -5.5,-7.3 -7.3,-17.1 -4.7,-26.2 8.1,-28.5 27.5,-54 54.5,-71.7 2.5,-1.6 5.9,-0.9 7.5,1.6 1.6,2.5 0.9,5.9 -1.6,7.5 -24.9,16.3 -42.6,39.6 -50,65.6 -1.7,5.8 -0.6,12.1 2.9,16.7 2.9,3.8 6.9,5.9 11.4,5.9 h 234.4 c 4.4,0 8.7,-2.2 11.6,-6 3.4,-4.4 4.5,-10.3 3,-15.8 -7,-25.5 -24.1,-48.6 -48,-64.9 -2.5,-1.7 -3.1,-5.1 -1.4,-7.5 1.7,-2.5 5.1,-3.1 7.5,-1.4 26.1,17.8 44.7,43 52.4,71 2.4,8.7 0.6,18.1 -4.8,25.2 -5,6.5 -12.3,10.3 -20.2,10.3 z"
   id="path12"
   style="stroke-width:2;stroke-miterlimit:4;stroke-dasharray:none" />
	</g>
	<g
   id="g18"
   style="stroke-width:2;stroke-miterlimit:4;stroke-dasharray:none">
		<path
   class="st0"
   d="m 317.6,245.9 h -12.4 c -8.9,0 -16.1,-7.2 -16.1,-16.1 0,-8.9 7.2,-16.1 16.1,-16.1 h 12.4 c 8.9,0 16.1,7.2 16.1,16.1 0,8.9 -7.2,16.1 -16.1,16.1 z m -12.4,-21.3 c -2.9,0 -5.2,2.3 -5.2,5.2 0,2.9 2.3,5.2 5.2,5.2 h 12.4 c 2.9,0 5.2,-2.3 5.2,-5.2 0,-2.9 -2.3,-5.2 -5.2,-5.2 z"
   id="path16"
   style="stroke-width:2;stroke-miterlimit:4;stroke-dasharray:none" />
	</g>
	<g
   id="g22"
   style="stroke-width:2;stroke-miterlimit:4;stroke-dasharray:none">
		<path
   class="st0"
   d="m 384.6,235.2 h -55.4 c -3,0 -5.4,-2.4 -5.4,-5.4 0,-3 2.4,-5.4 5.4,-5.4 h 55.4 c 4,0 7.3,-3.3 7.3,-7.3 l -0.1,-7.2 c 0,-1.4 0.6,-2.8 1.6,-3.9 1,-1.1 2.4,-1.6 3.9,-1.6 7.4,0 13.5,-6 13.5,-13.5 v -25.6 c 0,-7.4 -6,-13.4 -13.5,-13.4 -2.9,0 -5.2,-2.2 -5.4,-5.1 -14.5,-39.5 -51.2,-66 -91.7,-66 -40.5,0 -77.3,26.5 -91.7,66 -0.2,2.9 -2.5,5.1 -5.4,5.1 -7.4,0 -13.5,6 -13.5,13.4 V 191 c 0,7.4 6,13.5 13.5,13.5 3,0 5.4,2.4 5.4,5.4 0,3 -2.4,5.4 -5.4,5.4 -13.4,0 -24.3,-10.9 -24.3,-24.3 v -25.6 c 0,-12 8.7,-22 20.2,-24 C 215.3,98.5 255.7,70 300.1,70 c 44.5,0 84.9,28.6 101.3,71.4 11.4,2 20.2,12 20.2,24 V 191 c 0,11.5 -8.1,21.2 -18.8,23.7 v 2.4 c -0.1,10 -8.2,18.1 -18.2,18.1 z"
   id="path20"
   style="stroke-width:2;stroke-miterlimit:4;stroke-dasharray:none" />
	</g>
</g>
<g
   id="g28"
   transform="translate(-156.92901,-70)"
   style="stroke-width:2;stroke-miterlimit:4;stroke-dasharray:none">
	<path
   class="st0"
   d="m 283.3,320.7 c -1.4,0 -2.8,-0.5 -3.8,-1.6 l -51.2,-51.2 c -2.1,-2.1 -2.1,-5.6 0,-7.7 l 14,-14 c 2.1,-2.1 5.6,-2.1 7.7,0 l 51.2,51.2 c 2.1,2.1 2.1,5.6 0,7.7 l -14,14 c -1.2,1.1 -2.5,1.6 -3.9,1.6 z m -43.6,-56.6 43.5,43.5 6.4,-6.4 -43.5,-43.5 z"
   id="path26"
   style="stroke-width:2;stroke-miterlimit:4;stroke-dasharray:none" />
</g>
<g
   id="g32"
   transform="translate(-156.92901,-70)"
   style="stroke-width:2;stroke-miterlimit:4;stroke-dasharray:none">
	<path
   class="st0"
   d="m 316.9,320.7 c -1.4,0 -2.8,-0.5 -3.8,-1.6 l -14,-14 c -2.1,-2.1 -2.1,-5.6 0,-7.7 l 51.2,-51.2 c 2.1,-2.1 5.6,-2.1 7.7,0 l 14,14 c 2.1,2.1 2.1,5.6 0,7.7 l -51.2,51.2 c -1.1,1.1 -2.5,1.6 -3.9,1.6 z m -6.3,-19.5 6.4,6.4 43.5,-43.5 -6.4,-6.4 z"
   id="path30"
   style="stroke-width:2;stroke-miterlimit:4;stroke-dasharray:none" />
</g>
</svg>
